<svg width="215" height="194" viewBox="0 0 215 194" fill="none" xmlns="http://www.w3.org/2000/svg">
<path d="M197.508 16.6049V16.6049C198.742 13.0226 196.68 10.0082 192.898 9.86364L70.2197 5.17489C66.3488 5.02694 62.1784 7.88717 60.9191 11.5536L12.6141 152.189C11.8113 154.527 12.8954 156.588 15.1869 157.082V157.082M197.508 16.6049L150.251 153.848C149.002 157.477 144.898 160.321 141.05 160.225L15.1869 157.082M197.508 16.6049L202.076 16.8155C207.556 17.0683 210.505 21.4773 208.675 26.6803L159.735 165.826C157.915 171.003 152.04 175.034 146.558 174.869L26.7379 171.25C18.442 170.999 13.4682 164.899 15.1869 157.082V157.082" stroke="white" stroke-width="10"/>
<rect width="89.1092" height="51.5264" rx="8" transform="matrix(0.999391 0.0348995 -0.325568 0.945519 78.8862 33.1013)" stroke="white" stroke-width="5"/>
<path d="M90.6417 48.8749L145.317 50.7843M84.5029 66.7033L139.178 68.6127" stroke="white" stroke-width="10" stroke-linecap="round"/>
<path d="M21.5611 187.118L29.1011 163.096L53.2096 163.938L45.0028 187.772L37.7341 178.25L36.8155 178.919L37.7341 178.25C37.3827 177.789 36.609 177.753 35.9453 178.166L21.5611 187.118Z" fill="#D9D9D9" stroke="#D9D9D9" stroke-width="2"/>
</svg>
