<svg width="332" height="93" viewBox="0 0 332 93" fill="none" xmlns="http://www.w3.org/2000/svg">
<g clip-path="url(#clip0_13_6)">
<rect width="332" height="93" rx="4" fill="white"/>
<path d="M0 4C0 1.79086 1.79086 0 4 0H328C330.209 0 332 1.79086 332 4V19H0V4Z" fill="#F6F8FA"/>
<rect x="26" y="1" width="65" height="18" fill="white"/>
<rect x="42" y="8" width="43" height="4" rx="2" fill="#B4B9BE"/>
<rect y="19" width="26" height="1" fill="#E1E4E8"/>
<rect x="91" y="19" width="267" height="1" fill="#E1E4E8"/>
<rect x="91" width="1" height="19" fill="#E1E4E8"/>
<rect x="25" width="1" height="19" fill="#E1E4E8"/>
<rect x="25" width="67" height="1" fill="#F9826C"/>
<g filter="url(#filter0_d_13_6)">
<rect x="48" y="6" width="237" height="79" rx="4" fill="#FAFBFC"/>
<rect x="48.5" y="6.5" width="236" height="78" rx="3.5" stroke="#E2E5E9"/>
</g>
<rect x="53.25" y="14.25" width="225.5" height="13.5" rx="0.75" stroke="#2188FF" stroke-width="0.5" fill="#2188FF" fill-opacity="0.015"/>
<rect x="54" y="45" width="225" height="9" rx="2" fill="#E2E5E9"/>
<path d="M61.984 21.456L61.12 21.2L58.4 20.104V19.464L61.984 20.944V21.456ZM58.4 22.936V22.296L61.12 21.2L61.984 20.944V21.456L58.4 22.936ZM67.3086 24L67.3166 23.832L69.6366 18.4H70.2046V18.568L67.8846 24H67.3086ZM64.7806 24V18.4H65.3806V24H64.7806ZM67.3166 24L64.9886 18.568V18.4H65.5646L67.8846 23.832V24H67.3166ZM69.8126 24V18.4H70.4126V24H69.8126ZM72.8006 24.096C72.5286 24.096 72.2832 24.0427 72.0646 23.936C71.8512 23.8293 71.6832 23.6827 71.5606 23.496C71.4379 23.3093 71.3766 23.0933 71.3766 22.848C71.3766 22.5013 71.4992 22.2213 71.7446 22.008C71.9952 21.7893 72.3392 21.664 72.7766 21.632L74.3126 21.52V22.08L72.9126 22.184C72.6032 22.2053 72.3712 22.272 72.2166 22.384C72.0672 22.496 71.9926 22.6507 71.9926 22.848C71.9926 23.04 72.0699 23.2 72.2246 23.328C72.3846 23.4507 72.5899 23.512 72.8406 23.512C73.0912 23.512 73.3179 23.456 73.5206 23.344C73.7286 23.2267 73.8912 23.072 74.0086 22.88C74.1312 22.6827 74.1926 22.464 74.1926 22.224V21.576C74.1926 21.256 74.0939 20.9947 73.8966 20.792C73.7046 20.584 73.4432 20.48 73.1126 20.48C72.8619 20.48 72.6459 20.5413 72.4646 20.664C72.2832 20.7813 72.1552 20.9547 72.0806 21.184H71.9926L71.4646 20.992C71.5926 20.6347 71.8006 20.3627 72.0886 20.176C72.3766 19.9893 72.7206 19.896 73.1206 19.896C73.6592 19.896 74.0726 20.0587 74.3606 20.384C74.6486 20.704 74.7926 21.16 74.7926 21.752V24H74.2086V22.84L74.4166 22.992C74.3526 23.2053 74.2406 23.3973 74.0806 23.568C73.9206 23.7333 73.7312 23.864 73.5126 23.96C73.2939 24.0507 73.0566 24.096 72.8006 24.096ZM75.8725 24V20H76.4565V21.16L76.2805 21.008C76.3498 20.784 76.4645 20.5893 76.6245 20.424C76.7845 20.2587 76.9712 20.1307 77.1845 20.04C77.4032 19.9493 77.6352 19.904 77.8805 19.904C78.1685 19.904 78.4245 19.9653 78.6485 20.088C78.8725 20.2107 79.0458 20.392 79.1685 20.632C79.2965 20.872 79.3605 21.1707 79.3605 21.528V24H78.7605V21.664C78.7605 21.36 78.7152 21.1253 78.6245 20.96C78.5338 20.7893 78.4112 20.6693 78.2565 20.6C78.1072 20.5307 77.9365 20.496 77.7445 20.496C77.5258 20.496 77.3178 20.5493 77.1205 20.656C76.9285 20.7627 76.7712 20.9173 76.6485 21.12C76.5312 21.3173 76.4725 21.5573 76.4725 21.84V24H75.8725ZM80.4428 24V20H81.0428V24H80.4428ZM80.7468 19.216C80.6241 19.216 80.5201 19.1733 80.4348 19.088C80.3495 19.0027 80.3068 18.8987 80.3068 18.776C80.3068 18.6533 80.3495 18.5493 80.4348 18.464C80.5201 18.3787 80.6241 18.336 80.7468 18.336C80.8695 18.336 80.9735 18.3787 81.0588 18.464C81.1441 18.5493 81.1868 18.6533 81.1868 18.776C81.1868 18.8987 81.1441 19.0027 81.0588 19.088C80.9735 19.1733 80.8695 19.216 80.7468 19.216ZM82.1616 24V20H82.7456V21.16L82.5696 21.008C82.6389 20.784 82.7536 20.5893 82.9136 20.424C83.0736 20.2587 83.2602 20.1307 83.4736 20.04C83.6869 19.9493 83.9056 19.904 84.1296 19.904C84.4816 19.904 84.7829 20.0053 85.0336 20.208C85.2896 20.4053 85.4549 20.6933 85.5296 21.072H85.2576C85.3216 20.8373 85.4336 20.6347 85.5936 20.464C85.7536 20.288 85.9482 20.152 86.1776 20.056C86.4122 19.9547 86.6656 19.904 86.9376 19.904C87.2149 19.904 87.4602 19.9653 87.6736 20.088C87.8922 20.2107 88.0629 20.392 88.1856 20.632C88.3136 20.872 88.3776 21.1707 88.3776 21.528V24H87.7776V21.664C87.7776 21.36 87.7322 21.1253 87.6416 20.96C87.5509 20.7893 87.4309 20.6693 87.2816 20.6C87.1376 20.5307 86.9776 20.496 86.8016 20.496C86.6096 20.496 86.4176 20.5467 86.2256 20.648C86.0389 20.7493 85.8816 20.9013 85.7536 21.104C85.6309 21.3013 85.5696 21.5467 85.5696 21.84V24H84.9696V21.664C84.9696 21.36 84.9242 21.1253 84.8336 20.96C84.7429 20.7893 84.6229 20.6693 84.4736 20.6C84.3296 20.5307 84.1696 20.496 83.9936 20.496C83.8016 20.496 83.6096 20.5493 83.4176 20.656C83.2309 20.7573 83.0736 20.9093 82.9456 21.112C82.8229 21.3093 82.7616 21.552 82.7616 21.84V24H82.1616ZM94.9683 24L91.2963 18.568V18.4H91.8963L95.5683 23.832V24H94.9683ZM91.2963 24V18.4H91.8963V24H91.2963ZM94.9683 24V18.4H95.5683V24H94.9683ZM98.4989 24.096C98.1149 24.096 97.7736 24.008 97.4749 23.832C97.1816 23.656 96.9496 23.4107 96.7789 23.096C96.6136 22.7813 96.5309 22.416 96.5309 22C96.5309 21.584 96.6136 21.2187 96.7789 20.904C96.9496 20.5893 97.1816 20.344 97.4749 20.168C97.7736 19.992 98.1149 19.904 98.4989 19.904C98.8883 19.904 99.2296 19.992 99.5229 20.168C99.8163 20.344 100.046 20.5893 100.211 20.904C100.382 21.2187 100.467 21.584 100.467 22C100.467 22.416 100.382 22.7813 100.211 23.096C100.046 23.4107 99.8163 23.656 99.5229 23.832C99.2296 24.008 98.8883 24.096 98.4989 24.096ZM98.4989 23.512C98.7656 23.512 99.0003 23.4507 99.2029 23.328C99.4109 23.2 99.5736 23.024 99.6909 22.8C99.8083 22.5707 99.8669 22.304 99.8669 22C99.8669 21.6907 99.8083 21.424 99.6909 21.2C99.5736 20.976 99.4109 20.8027 99.2029 20.68C99.0003 20.552 98.7656 20.488 98.4989 20.488C98.2323 20.488 97.9949 20.552 97.7869 20.68C97.5843 20.8027 97.4243 20.976 97.3069 21.2C97.1896 21.424 97.1309 21.6907 97.1309 22C97.1309 22.304 97.1896 22.5707 97.3069 22.8C97.4243 23.024 97.5843 23.2 97.7869 23.328C97.9949 23.4507 98.2323 23.512 98.4989 23.512ZM102.657 24C102.326 24 102.054 23.8933 101.841 23.68C101.627 23.4667 101.521 23.1787 101.521 22.816V18.912H102.121V22.776C102.121 23.0107 102.169 23.176 102.265 23.272C102.366 23.368 102.531 23.416 102.761 23.416H103.257L103.297 23.504V24H102.657ZM100.833 20.584V20H103.297V20.584H100.833ZM105.764 24.096C105.385 24.096 105.049 24.008 104.756 23.832C104.463 23.656 104.233 23.4107 104.068 23.096C103.903 22.7813 103.82 22.416 103.82 22C103.82 21.584 103.9 21.2187 104.06 20.904C104.225 20.5893 104.452 20.344 104.74 20.168C105.033 19.992 105.369 19.904 105.748 19.904C106.121 19.904 106.447 19.9947 106.724 20.176C107.007 20.352 107.228 20.6027 107.388 20.928C107.548 21.248 107.628 21.6213 107.628 22.048V22.12L107.508 22.232H104.172V21.648H107.276L107.012 21.76C106.991 21.4933 106.921 21.2667 106.804 21.08C106.687 20.888 106.537 20.7413 106.356 20.64C106.175 20.5387 105.972 20.488 105.748 20.488C105.503 20.488 105.279 20.5493 105.076 20.672C104.873 20.7893 104.713 20.9573 104.596 21.176C104.479 21.3947 104.42 21.648 104.42 21.936V22.04C104.42 22.328 104.476 22.584 104.588 22.808C104.705 23.0267 104.865 23.2 105.068 23.328C105.271 23.4507 105.503 23.512 105.764 23.512C106.025 23.512 106.249 23.4507 106.436 23.328C106.623 23.2053 106.769 23.0373 106.876 22.824H106.964L107.468 23.048C107.319 23.368 107.095 23.624 106.796 23.816C106.503 24.0027 106.159 24.096 105.764 24.096ZM110.545 24.096C110.273 24.096 110.023 24.0427 109.793 23.936C109.564 23.824 109.367 23.6693 109.201 23.472C109.036 23.2747 108.913 23.0453 108.833 22.784V21.216C108.913 20.9493 109.036 20.72 109.201 20.528C109.367 20.3307 109.564 20.1787 109.793 20.072C110.023 19.96 110.273 19.904 110.545 19.904C110.903 19.904 111.223 19.9947 111.505 20.176C111.788 20.3573 112.012 20.6053 112.177 20.92C112.348 21.2347 112.433 21.5947 112.433 22C112.433 22.4053 112.348 22.7653 112.177 23.08C112.012 23.3947 111.788 23.6427 111.505 23.824C111.223 24.0053 110.903 24.096 110.545 24.096ZM108.545 24V18.24L109.121 18.168L109.145 18.232V21.496L109.033 22L109.129 22.504V24H108.545ZM110.521 23.512C110.777 23.512 111.004 23.448 111.201 23.32C111.399 23.192 111.553 23.016 111.665 22.792C111.777 22.5627 111.833 22.2987 111.833 22C111.833 21.7013 111.777 21.44 111.665 21.216C111.553 20.9867 111.399 20.808 111.201 20.68C111.004 20.552 110.777 20.488 110.521 20.488C110.26 20.488 110.025 20.552 109.817 20.68C109.609 20.808 109.444 20.9867 109.321 21.216C109.204 21.44 109.145 21.7013 109.145 22C109.145 22.2987 109.204 22.5627 109.321 22.792C109.444 23.016 109.609 23.192 109.817 23.32C110.025 23.448 110.26 23.512 110.521 23.512ZM115.038 24.096C114.654 24.096 114.313 24.008 114.014 23.832C113.721 23.656 113.489 23.4107 113.318 23.096C113.153 22.7813 113.07 22.416 113.07 22C113.07 21.584 113.153 21.2187 113.318 20.904C113.489 20.5893 113.721 20.344 114.014 20.168C114.313 19.992 114.654 19.904 115.038 19.904C115.427 19.904 115.769 19.992 116.062 20.168C116.355 20.344 116.585 20.5893 116.75 20.904C116.921 21.2187 117.006 21.584 117.006 22C117.006 22.416 116.921 22.7813 116.75 23.096C116.585 23.4107 116.355 23.656 116.062 23.832C115.769 24.008 115.427 24.096 115.038 24.096ZM115.038 23.512C115.305 23.512 115.539 23.4507 115.742 23.328C115.95 23.2 116.113 23.024 116.23 22.8C116.347 22.5707 116.406 22.304 116.406 22C116.406 21.6907 116.347 21.424 116.23 21.2C116.113 20.976 115.95 20.8027 115.742 20.68C115.539 20.552 115.305 20.488 115.038 20.488C114.771 20.488 114.534 20.552 114.326 20.68C114.123 20.8027 113.963 20.976 113.846 21.2C113.729 21.424 113.67 21.6907 113.67 22C113.67 22.304 113.729 22.5707 113.846 22.8C113.963 23.024 114.123 23.2 114.326 23.328C114.534 23.4507 114.771 23.512 115.038 23.512ZM119.616 24.096C119.232 24.096 118.891 24.008 118.592 23.832C118.299 23.656 118.067 23.4107 117.896 23.096C117.731 22.7813 117.648 22.416 117.648 22C117.648 21.584 117.731 21.2187 117.896 20.904C118.067 20.5893 118.299 20.344 118.592 20.168C118.891 19.992 119.232 19.904 119.616 19.904C120.005 19.904 120.347 19.992 120.64 20.168C120.933 20.344 121.163 20.5893 121.328 20.904C121.499 21.2187 121.584 21.584 121.584 22C121.584 22.416 121.499 22.7813 121.328 23.096C121.163 23.4107 120.933 23.656 120.64 23.832C120.347 24.008 120.005 24.096 119.616 24.096ZM119.616 23.512C119.883 23.512 120.117 23.4507 120.32 23.328C120.528 23.2 120.691 23.024 120.808 22.8C120.925 22.5707 120.984 22.304 120.984 22C120.984 21.6907 120.925 21.424 120.808 21.2C120.691 20.976 120.528 20.8027 120.32 20.68C120.117 20.552 119.883 20.488 119.616 20.488C119.349 20.488 119.112 20.552 118.904 20.68C118.701 20.8027 118.541 20.976 118.424 21.2C118.307 21.424 118.248 21.6907 118.248 22C118.248 22.304 118.307 22.5707 118.424 22.8C118.541 23.024 118.701 23.2 118.904 23.328C119.112 23.4507 119.349 23.512 119.616 23.512ZM122.746 23.176V22.384L125.21 20H125.922V20.064L122.746 23.176ZM122.506 24V18.24L123.082 18.168L123.106 18.232V24H122.506ZM125.258 24L123.778 21.912L124.17 21.512L125.922 23.936V24H125.258Z" fill="#2F363D"/>
<path d="M56.8 37.432C56.8 37.2027 56.8533 37 56.96 36.824C57.0613 36.6427 57.2027 36.5013 57.384 36.4C57.56 36.2933 57.7627 36.24 57.992 36.24H62.504C62.7333 36.24 62.936 36.2933 63.112 36.4C63.2933 36.5013 63.4347 36.6427 63.536 36.824C63.6427 37 63.696 37.2027 63.696 37.432V37.448C63.696 37.6773 63.6427 37.8827 63.536 38.064C63.4347 38.24 63.2933 38.3813 63.112 38.488C62.936 38.5893 62.7333 38.64 62.504 38.64H57.992C57.7627 38.64 57.56 38.5893 57.384 38.488C57.2027 38.3813 57.0613 38.24 56.96 38.064C56.8533 37.8827 56.8 37.6773 56.8 37.448V37.432ZM61.2922 37.432C61.2922 37.2027 61.3455 37 61.4522 36.824C61.5535 36.6427 61.6949 36.5013 61.8762 36.4C62.0522 36.2933 62.2549 36.24 62.4842 36.24H66.9962C67.2255 36.24 67.4282 36.2933 67.6042 36.4C67.7855 36.5013 67.9269 36.6427 68.0282 36.824C68.1349 37 68.1882 37.2027 68.1882 37.432V37.448C68.1882 37.6773 68.1349 37.8827 68.0282 38.064C67.9269 38.24 67.7855 38.3813 67.6042 38.488C67.4282 38.5893 67.2255 38.64 66.9962 38.64H62.4842C62.2549 38.64 62.0522 38.5893 61.8762 38.488C61.6949 38.3813 61.5535 38.24 61.4522 38.064C61.3455 37.8827 61.2922 37.6773 61.2922 37.448V37.432ZM65.7844 37.432C65.7844 37.2027 65.8377 37 65.9444 36.824C66.0457 36.6427 66.187 36.5013 66.3684 36.4C66.5444 36.2933 66.747 36.24 66.9764 36.24H71.4884C71.7177 36.24 71.9204 36.2933 72.0964 36.4C72.2777 36.5013 72.419 36.6427 72.5204 36.824C72.627 37 72.6804 37.2027 72.6804 37.432V37.448C72.6804 37.6773 72.627 37.8827 72.5204 38.064C72.419 38.24 72.2777 38.3813 72.0964 38.488C71.9204 38.5893 71.7177 38.64 71.4884 38.64H66.9764C66.747 38.64 66.5444 38.5893 66.3684 38.488C66.187 38.3813 66.0457 38.24 65.9444 38.064C65.8377 37.8827 65.7844 37.6773 65.7844 37.448V37.432ZM70.2766 37.432C70.2766 37.2027 70.3299 37 70.4366 36.824C70.5379 36.6427 70.6792 36.5013 70.8606 36.4C71.0366 36.2933 71.2392 36.24 71.4686 36.24H73.7726C74.0019 36.24 74.2046 36.2933 74.3806 36.4C74.5619 36.5013 74.7032 36.6427 74.8046 36.824C74.9112 37 74.9646 37.2027 74.9646 37.432V37.448C74.9646 37.6773 74.9112 37.8827 74.8046 38.064C74.7032 38.24 74.5619 38.3813 74.3806 38.488C74.2046 38.5893 74.0019 38.64 73.7726 38.64H71.4686C71.2392 38.64 71.0366 38.5893 70.8606 38.488C70.6792 38.3813 70.5379 38.24 70.4366 38.064C70.3299 37.8827 70.2766 37.6773 70.2766 37.448V37.432ZM72.5656 37.432C72.5656 37.2027 72.619 37 72.7256 36.824C72.827 36.6427 72.9683 36.5013 73.1496 36.4C73.3256 36.2933 73.5283 36.24 73.7576 36.24H78.2696C78.499 36.24 78.7016 36.2933 78.8776 36.4C79.059 36.5013 79.2003 36.6427 79.3016 36.824C79.4083 37 79.4616 37.2027 79.4616 37.432V37.448C79.4616 37.6773 79.4083 37.8827 79.3016 38.064C79.2003 38.24 79.059 38.3813 78.8776 38.488C78.7016 38.5893 78.499 38.64 78.2696 38.64H73.7576C73.5283 38.64 73.3256 38.5893 73.1496 38.488C72.9683 38.3813 72.827 38.24 72.7256 38.064C72.619 37.8827 72.5656 37.6773 72.5656 37.448V37.432ZM81.8547 37.432C81.8547 37.2027 81.908 37 82.0147 36.824C82.116 36.6427 82.2574 36.5013 82.4387 36.4C82.6147 36.2933 82.8174 36.24 83.0467 36.24H87.5587C87.788 36.24 87.9907 36.2933 88.1667 36.4C88.348 36.5013 88.4894 36.6427 88.5907 36.824C88.6974 37 88.7507 37.2027 88.7507 37.432V37.448C88.7507 37.6773 88.6974 37.8827 88.5907 38.064C88.4894 38.24 88.348 38.3813 88.1667 38.488C87.9907 38.5893 87.788 38.64 87.5587 38.64H83.0467C82.8174 38.64 82.6147 38.5893 82.4387 38.488C82.2574 38.3813 82.116 38.24 82.0147 38.064C81.908 37.8827 81.8547 37.6773 81.8547 37.448V37.432ZM86.3469 37.432C86.3469 37.2027 86.4002 37 86.5069 36.824C86.6082 36.6427 86.7495 36.5013 86.9309 36.4C87.1069 36.2933 87.3095 36.24 87.5389 36.24H92.0509C92.2802 36.24 92.4829 36.2933 92.6589 36.4C92.8402 36.5013 92.9815 36.6427 93.0829 36.824C93.1895 37 93.2429 37.2027 93.2429 37.432V37.448C93.2429 37.6773 93.1895 37.8827 93.0829 38.064C92.9815 38.24 92.8402 38.3813 92.6589 38.488C92.4829 38.5893 92.2802 38.64 92.0509 38.64H87.5389C87.3095 38.64 87.1069 38.5893 86.9309 38.488C86.7495 38.3813 86.6082 38.24 86.5069 38.064C86.4002 37.8827 86.3469 37.6773 86.3469 37.448V37.432ZM90.8391 37.432C90.8391 37.2027 90.8924 37 90.9991 36.824C91.1004 36.6427 91.2417 36.5013 91.4231 36.4C91.5991 36.2933 91.8017 36.24 92.0311 36.24H94.3351C94.5644 36.24 94.7671 36.2933 94.9431 36.4C95.1244 36.5013 95.2657 36.6427 95.3671 36.824C95.4737 37 95.5271 37.2027 95.5271 37.432V37.448C95.5271 37.6773 95.4737 37.8827 95.3671 38.064C95.2657 38.24 95.1244 38.3813 94.9431 38.488C94.7671 38.5893 94.5644 38.64 94.3351 38.64H92.0311C91.8017 38.64 91.5991 38.5893 91.4231 38.488C91.2417 38.3813 91.1004 38.24 90.9991 38.064C90.8924 37.8827 90.8391 37.6773 90.8391 37.448V37.432ZM93.1281 37.432C93.1281 37.2027 93.1815 37 93.2881 36.824C93.3895 36.6427 93.5308 36.5013 93.7121 36.4C93.8881 36.2933 94.0908 36.24 94.3201 36.24H98.8321C99.0615 36.24 99.2641 36.2933 99.4401 36.4C99.6215 36.5013 99.7628 36.6427 99.8641 36.824C99.9708 37 100.024 37.2027 100.024 37.432V37.448C100.024 37.6773 99.9708 37.8827 99.8641 38.064C99.7628 38.24 99.6215 38.3813 99.4401 38.488C99.2641 38.5893 99.0615 38.64 98.8321 38.64H94.3201C94.0908 38.64 93.8881 38.5893 93.7121 38.488C93.5308 38.3813 93.3895 38.24 93.2881 38.064C93.1815 37.8827 93.1281 37.6773 93.1281 37.448V37.432ZM97.6203 37.432C97.6203 37.2027 97.6736 37 97.7803 36.824C97.8816 36.6427 98.023 36.5013 98.2043 36.4C98.3803 36.2933 98.583 36.24 98.8123 36.24H103.324C103.554 36.24 103.756 36.2933 103.932 36.4C104.114 36.5013 104.255 36.6427 104.356 36.824C104.463 37 104.516 37.2027 104.516 37.432V37.448C104.516 37.6773 104.463 37.8827 104.356 38.064C104.255 38.24 104.114 38.3813 103.932 38.488C103.756 38.5893 103.554 38.64 103.324 38.64H98.8123C98.583 38.64 98.3803 38.5893 98.2043 38.488C98.023 38.3813 97.8816 38.24 97.7803 38.064C97.6736 37.8827 97.6203 37.6773 97.6203 37.448V37.432ZM102.112 37.432C102.112 37.2027 102.166 37 102.272 36.824C102.374 36.6427 102.515 36.5013 102.696 36.4C102.872 36.2933 103.075 36.24 103.304 36.24H107.817C108.046 36.24 108.249 36.2933 108.425 36.4C108.606 36.5013 108.747 36.6427 108.849 36.824C108.955 37 109.009 37.2027 109.009 37.432V37.448C109.009 37.6773 108.955 37.8827 108.849 38.064C108.747 38.24 108.606 38.3813 108.425 38.488C108.249 38.5893 108.046 38.64 107.817 38.64H103.304C103.075 38.64 102.872 38.5893 102.696 38.488C102.515 38.3813 102.374 38.24 102.272 38.064C102.166 37.8827 102.112 37.6773 102.112 37.448V37.432ZM106.605 37.432C106.605 37.2027 106.658 37 106.765 36.824C106.866 36.6427 107.007 36.5013 107.189 36.4C107.365 36.2933 107.567 36.24 107.797 36.24H112.309C112.538 36.24 112.741 36.2933 112.917 36.4C113.098 36.5013 113.239 36.6427 113.341 36.824C113.447 37 113.501 37.2027 113.501 37.432V37.448C113.501 37.6773 113.447 37.8827 113.341 38.064C113.239 38.24 113.098 38.3813 112.917 38.488C112.741 38.5893 112.538 38.64 112.309 38.64H107.797C107.567 38.64 107.365 38.5893 107.189 38.488C107.007 38.3813 106.866 38.24 106.765 38.064C106.658 37.8827 106.605 37.6773 106.605 37.448V37.432ZM111.097 37.432C111.097 37.2027 111.15 37 111.257 36.824C111.358 36.6427 111.5 36.5013 111.681 36.4C111.857 36.2933 112.06 36.24 112.289 36.24H116.801C117.03 36.24 117.233 36.2933 117.409 36.4C117.59 36.5013 117.732 36.6427 117.833 36.824C117.94 37 117.993 37.2027 117.993 37.432V37.448C117.993 37.6773 117.94 37.8827 117.833 38.064C117.732 38.24 117.59 38.3813 117.409 38.488C117.233 38.5893 117.03 38.64 116.801 38.64H112.289C112.06 38.64 111.857 38.5893 111.681 38.488C111.5 38.3813 111.358 38.24 111.257 38.064C111.15 37.8827 111.097 37.6773 111.097 37.448V37.432ZM115.589 37.432C115.589 37.2027 115.642 37 115.749 36.824C115.85 36.6427 115.992 36.5013 116.173 36.4C116.349 36.2933 116.552 36.24 116.781 36.24H119.085C119.314 36.24 119.517 36.2933 119.693 36.4C119.874 36.5013 120.016 36.6427 120.117 36.824C120.224 37 120.277 37.2027 120.277 37.432V37.448C120.277 37.6773 120.224 37.8827 120.117 38.064C120.016 38.24 119.874 38.3813 119.693 38.488C119.517 38.5893 119.314 38.64 119.085 38.64H116.781C116.552 38.64 116.349 38.5893 116.173 38.488C115.992 38.3813 115.85 38.24 115.749 38.064C115.642 37.8827 115.589 37.6773 115.589 37.448V37.432ZM122.675 37.432C122.675 37.2027 122.728 37 122.835 36.824C122.936 36.6427 123.078 36.5013 123.259 36.4C123.435 36.2933 123.638 36.24 123.867 36.24H128.379C128.608 36.24 128.811 36.2933 128.987 36.4C129.168 36.5013 129.31 36.6427 129.411 36.824C129.518 37 129.571 37.2027 129.571 37.432V37.448C129.571 37.6773 129.518 37.8827 129.411 38.064C129.31 38.24 129.168 38.3813 128.987 38.488C128.811 38.5893 128.608 38.64 128.379 38.64H123.867C123.638 38.64 123.435 38.5893 123.259 38.488C123.078 38.3813 122.936 38.24 122.835 38.064C122.728 37.8827 122.675 37.6773 122.675 37.448V37.432ZM127.167 37.432C127.167 37.2027 127.221 37 127.327 36.824C127.429 36.6427 127.57 36.5013 127.751 36.4C127.927 36.2933 128.13 36.24 128.359 36.24H130.663C130.893 36.24 131.095 36.2933 131.271 36.4C131.453 36.5013 131.594 36.6427 131.695 36.824C131.802 37 131.855 37.2027 131.855 37.432V37.448C131.855 37.6773 131.802 37.8827 131.695 38.064C131.594 38.24 131.453 38.3813 131.271 38.488C131.095 38.5893 130.893 38.64 130.663 38.64H128.359C128.13 38.64 127.927 38.5893 127.751 38.488C127.57 38.3813 127.429 38.24 127.327 38.064C127.221 37.8827 127.167 37.6773 127.167 37.448V37.432ZM129.456 37.432C129.456 37.2027 129.51 37 129.616 36.824C129.718 36.6427 129.859 36.5013 130.04 36.4C130.216 36.2933 130.419 36.24 130.648 36.24H135.16C135.39 36.24 135.592 36.2933 135.768 36.4C135.95 36.5013 136.091 36.6427 136.192 36.824C136.299 37 136.352 37.2027 136.352 37.432V37.448C136.352 37.6773 136.299 37.8827 136.192 38.064C136.091 38.24 135.95 38.3813 135.768 38.488C135.592 38.5893 135.39 38.64 135.16 38.64H130.648C130.419 38.64 130.216 38.5893 130.04 38.488C129.859 38.3813 129.718 38.24 129.616 38.064C129.51 37.8827 129.456 37.6773 129.456 37.448V37.432ZM133.948 37.432C133.948 37.2027 134.002 37 134.108 36.824C134.21 36.6427 134.351 36.5013 134.532 36.4C134.708 36.2933 134.911 36.24 135.14 36.24H137.444C137.674 36.24 137.876 36.2933 138.052 36.4C138.234 36.5013 138.375 36.6427 138.476 36.824C138.583 37 138.636 37.2027 138.636 37.432V37.448C138.636 37.6773 138.583 37.8827 138.476 38.064C138.375 38.24 138.234 38.3813 138.052 38.488C137.876 38.5893 137.674 38.64 137.444 38.64H135.14C134.911 38.64 134.708 38.5893 134.532 38.488C134.351 38.3813 134.21 38.24 134.108 38.064C134.002 37.8827 133.948 37.6773 133.948 37.448V37.432ZM136.237 37.432C136.237 37.2027 136.291 37 136.397 36.824C136.499 36.6427 136.64 36.5013 136.821 36.4C136.997 36.2933 137.2 36.24 137.429 36.24H139.734C139.963 36.24 140.166 36.2933 140.342 36.4C140.523 36.5013 140.664 36.6427 140.766 36.824C140.872 37 140.926 37.2027 140.926 37.432V37.448C140.926 37.6773 140.872 37.8827 140.766 38.064C140.664 38.24 140.523 38.3813 140.342 38.488C140.166 38.5893 139.963 38.64 139.734 38.64H137.429C137.2 38.64 136.997 38.5893 136.821 38.488C136.64 38.3813 136.499 38.24 136.397 38.064C136.291 37.8827 136.237 37.6773 136.237 37.448V37.432ZM143.323 37.432C143.323 37.2027 143.377 37 143.483 36.824C143.585 36.6427 143.726 36.5013 143.907 36.4C144.083 36.2933 144.286 36.24 144.515 36.24H149.027C149.257 36.24 149.459 36.2933 149.635 36.4C149.817 36.5013 149.958 36.6427 150.059 36.824C150.166 37 150.219 37.2027 150.219 37.432V37.448C150.219 37.6773 150.166 37.8827 150.059 38.064C149.958 38.24 149.817 38.3813 149.635 38.488C149.459 38.5893 149.257 38.64 149.027 38.64H144.515C144.286 38.64 144.083 38.5893 143.907 38.488C143.726 38.3813 143.585 38.24 143.483 38.064C143.377 37.8827 143.323 37.6773 143.323 37.448V37.432ZM147.816 37.432C147.816 37.2027 147.869 37 147.976 36.824C148.077 36.6427 148.218 36.5013 148.4 36.4C148.576 36.2933 148.778 36.24 149.008 36.24H153.52C153.749 36.24 153.952 36.2933 154.128 36.4C154.309 36.5013 154.45 36.6427 154.552 36.824C154.658 37 154.712 37.2027 154.712 37.432V37.448C154.712 37.6773 154.658 37.8827 154.552 38.064C154.45 38.24 154.309 38.3813 154.128 38.488C153.952 38.5893 153.749 38.64 153.52 38.64H149.008C148.778 38.64 148.576 38.5893 148.4 38.488C148.218 38.3813 148.077 38.24 147.976 38.064C147.869 37.8827 147.816 37.6773 147.816 37.448V37.432ZM152.308 37.432C152.308 37.2027 152.361 37 152.468 36.824C152.569 36.6427 152.71 36.5013 152.892 36.4C153.068 36.2933 153.27 36.24 153.5 36.24H158.012C158.241 36.24 158.444 36.2933 158.62 36.4C158.801 36.5013 158.942 36.6427 159.044 36.824C159.15 37 159.204 37.2027 159.204 37.432V37.448C159.204 37.6773 159.15 37.8827 159.044 38.064C158.942 38.24 158.801 38.3813 158.62 38.488C158.444 38.5893 158.241 38.64 158.012 38.64H153.5C153.27 38.64 153.068 38.5893 152.892 38.488C152.71 38.3813 152.569 38.24 152.468 38.064C152.361 37.8827 152.308 37.6773 152.308 37.448V37.432ZM156.8 37.432C156.8 37.2027 156.853 37 156.96 36.824C157.061 36.6427 157.203 36.5013 157.384 36.4C157.56 36.2933 157.763 36.24 157.992 36.24H162.504C162.733 36.24 162.936 36.2933 163.112 36.4C163.293 36.5013 163.435 36.6427 163.536 36.824C163.643 37 163.696 37.2027 163.696 37.432V37.448C163.696 37.6773 163.643 37.8827 163.536 38.064C163.435 38.24 163.293 38.3813 163.112 38.488C162.936 38.5893 162.733 38.64 162.504 38.64H157.992C157.763 38.64 157.56 38.5893 157.384 38.488C157.203 38.3813 157.061 38.24 156.96 38.064C156.853 37.8827 156.8 37.6773 156.8 37.448V37.432ZM161.292 37.432C161.292 37.2027 161.346 37 161.452 36.824C161.554 36.6427 161.695 36.5013 161.876 36.4C162.052 36.2933 162.255 36.24 162.484 36.24H166.996C167.226 36.24 167.428 36.2933 167.604 36.4C167.786 36.5013 167.927 36.6427 168.028 36.824C168.135 37 168.188 37.2027 168.188 37.432V37.448C168.188 37.6773 168.135 37.8827 168.028 38.064C167.927 38.24 167.786 38.3813 167.604 38.488C167.428 38.5893 167.226 38.64 166.996 38.64H162.484C162.255 38.64 162.052 38.5893 161.876 38.488C161.695 38.3813 161.554 38.24 161.452 38.064C161.346 37.8827 161.292 37.6773 161.292 37.448V37.432ZM170.581 37.432C170.581 37.2027 170.635 37 170.741 36.824C170.843 36.6427 170.984 36.5013 171.165 36.4C171.341 36.2933 171.544 36.24 171.773 36.24H176.285C176.515 36.24 176.717 36.2933 176.893 36.4C177.075 36.5013 177.216 36.6427 177.317 36.824C177.424 37 177.477 37.2027 177.477 37.432V37.448C177.477 37.6773 177.424 37.8827 177.317 38.064C177.216 38.24 177.075 38.3813 176.893 38.488C176.717 38.5893 176.515 38.64 176.285 38.64H171.773C171.544 38.64 171.341 38.5893 171.165 38.488C170.984 38.3813 170.843 38.24 170.741 38.064C170.635 37.8827 170.581 37.6773 170.581 37.448V37.432ZM175.073 37.432C175.073 37.2027 175.127 37 175.233 36.824C175.335 36.6427 175.476 36.5013 175.657 36.4C175.833 36.2933 176.036 36.24 176.265 36.24H178.569C178.799 36.24 179.001 36.2933 179.177 36.4C179.359 36.5013 179.5 36.6427 179.601 36.824C179.708 37 179.761 37.2027 179.761 37.432V37.448C179.761 37.6773 179.708 37.8827 179.601 38.064C179.5 38.24 179.359 38.3813 179.177 38.488C179.001 38.5893 178.799 38.64 178.569 38.64H176.265C176.036 38.64 175.833 38.5893 175.657 38.488C175.476 38.3813 175.335 38.24 175.233 38.064C175.127 37.8827 175.073 37.6773 175.073 37.448V37.432ZM182.159 37.432C182.159 37.2027 182.213 37 182.319 36.824C182.421 36.6427 182.562 36.5013 182.743 36.4C182.919 36.2933 183.122 36.24 183.351 36.24H187.863C188.093 36.24 188.295 36.2933 188.471 36.4C188.653 36.5013 188.794 36.6427 188.895 36.824C189.002 37 189.055 37.2027 189.055 37.432V37.448C189.055 37.6773 189.002 37.8827 188.895 38.064C188.794 38.24 188.653 38.3813 188.471 38.488C188.295 38.5893 188.093 38.64 187.863 38.64H183.351C183.122 38.64 182.919 38.5893 182.743 38.488C182.562 38.3813 182.421 38.24 182.319 38.064C182.213 37.8827 182.159 37.6773 182.159 37.448V37.432ZM186.652 37.432C186.652 37.2027 186.705 37 186.812 36.824C186.913 36.6427 187.054 36.5013 187.236 36.4C187.412 36.2933 187.614 36.24 187.844 36.24H192.356C192.585 36.24 192.788 36.2933 192.964 36.4C193.145 36.5013 193.286 36.6427 193.388 36.824C193.494 37 193.548 37.2027 193.548 37.432V37.448C193.548 37.6773 193.494 37.8827 193.388 38.064C193.286 38.24 193.145 38.3813 192.964 38.488C192.788 38.5893 192.585 38.64 192.356 38.64H187.844C187.614 38.64 187.412 38.5893 187.236 38.488C187.054 38.3813 186.913 38.24 186.812 38.064C186.705 37.8827 186.652 37.6773 186.652 37.448V37.432ZM191.144 37.432C191.144 37.2027 191.197 37 191.304 36.824C191.405 36.6427 191.546 36.5013 191.728 36.4C191.904 36.2933 192.106 36.24 192.336 36.24H194.64C194.869 36.24 195.072 36.2933 195.248 36.4C195.429 36.5013 195.57 36.6427 195.672 36.824C195.778 37 195.832 37.2027 195.832 37.432V37.448C195.832 37.6773 195.778 37.8827 195.672 38.064C195.57 38.24 195.429 38.3813 195.248 38.488C195.072 38.5893 194.869 38.64 194.64 38.64H192.336C192.106 38.64 191.904 38.5893 191.728 38.488C191.546 38.3813 191.405 38.24 191.304 38.064C191.197 37.8827 191.144 37.6773 191.144 37.448V37.432ZM193.433 37.432C193.433 37.2027 193.486 37 193.593 36.824C193.694 36.6427 193.835 36.5013 194.017 36.4C194.193 36.2933 194.395 36.24 194.625 36.24H199.137C199.366 36.24 199.569 36.2933 199.745 36.4C199.926 36.5013 200.067 36.6427 200.169 36.824C200.275 37 200.329 37.2027 200.329 37.432V37.448C200.329 37.6773 200.275 37.8827 200.169 38.064C200.067 38.24 199.926 38.3813 199.745 38.488C199.569 38.5893 199.366 38.64 199.137 38.64H194.625C194.395 38.64 194.193 38.5893 194.017 38.488C193.835 38.3813 193.694 38.24 193.593 38.064C193.486 37.8827 193.433 37.6773 193.433 37.448V37.432ZM197.925 37.432C197.925 37.2027 197.978 37 198.085 36.824C198.186 36.6427 198.328 36.5013 198.509 36.4C198.685 36.2933 198.888 36.24 199.117 36.24H203.629C203.858 36.24 204.061 36.2933 204.237 36.4C204.418 36.5013 204.56 36.6427 204.661 36.824C204.768 37 204.821 37.2027 204.821 37.432V37.448C204.821 37.6773 204.768 37.8827 204.661 38.064C204.56 38.24 204.418 38.3813 204.237 38.488C204.061 38.5893 203.858 38.64 203.629 38.64H199.117C198.888 38.64 198.685 38.5893 198.509 38.488C198.328 38.3813 198.186 38.24 198.085 38.064C197.978 37.8827 197.925 37.6773 197.925 37.448V37.432ZM202.417 37.432C202.417 37.2027 202.471 37 202.577 36.824C202.679 36.6427 202.82 36.5013 203.001 36.4C203.177 36.2933 203.38 36.24 203.609 36.24H205.913C206.143 36.24 206.345 36.2933 206.521 36.4C206.703 36.5013 206.844 36.6427 206.945 36.824C207.052 37 207.105 37.2027 207.105 37.432V37.448C207.105 37.6773 207.052 37.8827 206.945 38.064C206.844 38.24 206.703 38.3813 206.521 38.488C206.345 38.5893 206.143 38.64 205.913 38.64H203.609C203.38 38.64 203.177 38.5893 203.001 38.488C202.82 38.3813 202.679 38.24 202.577 38.064C202.471 37.8827 202.417 37.6773 202.417 37.448V37.432Z" fill="#2F363D" fill-opacity="0.16"/>
<path d="M56.8 49.432C56.8 49.2027 56.8533 49 56.96 48.824C57.0613 48.6427 57.2027 48.5013 57.384 48.4C57.56 48.2933 57.7627 48.24 57.992 48.24H62.504C62.7333 48.24 62.936 48.2933 63.112 48.4C63.2933 48.5013 63.4347 48.6427 63.536 48.824C63.6427 49 63.696 49.2027 63.696 49.432V49.448C63.696 49.6773 63.6427 49.8827 63.536 50.064C63.4347 50.24 63.2933 50.3813 63.112 50.488C62.936 50.5893 62.7333 50.64 62.504 50.64H57.992C57.7627 50.64 57.56 50.5893 57.384 50.488C57.2027 50.3813 57.0613 50.24 56.96 50.064C56.8533 49.8827 56.8 49.6773 56.8 49.448V49.432ZM61.2922 49.432C61.2922 49.2027 61.3455 49 61.4522 48.824C61.5535 48.6427 61.6949 48.5013 61.8762 48.4C62.0522 48.2933 62.2549 48.24 62.4842 48.24H66.9962C67.2255 48.24 67.4282 48.2933 67.6042 48.4C67.7855 48.5013 67.9269 48.6427 68.0282 48.824C68.1349 49 68.1882 49.2027 68.1882 49.432V49.448C68.1882 49.6773 68.1349 49.8827 68.0282 50.064C67.9269 50.24 67.7855 50.3813 67.6042 50.488C67.4282 50.5893 67.2255 50.64 66.9962 50.64H62.4842C62.2549 50.64 62.0522 50.5893 61.8762 50.488C61.6949 50.3813 61.5535 50.24 61.4522 50.064C61.3455 49.8827 61.2922 49.6773 61.2922 49.448V49.432ZM65.7844 49.432C65.7844 49.2027 65.8377 49 65.9444 48.824C66.0457 48.6427 66.187 48.5013 66.3684 48.4C66.5444 48.2933 66.747 48.24 66.9764 48.24H71.4884C71.7177 48.24 71.9204 48.2933 72.0964 48.4C72.2777 48.5013 72.419 48.6427 72.5204 48.824C72.627 49 72.6804 49.2027 72.6804 49.432V49.448C72.6804 49.6773 72.627 49.8827 72.5204 50.064C72.419 50.24 72.2777 50.3813 72.0964 50.488C71.9204 50.5893 71.7177 50.64 71.4884 50.64H66.9764C66.747 50.64 66.5444 50.5893 66.3684 50.488C66.187 50.3813 66.0457 50.24 65.9444 50.064C65.8377 49.8827 65.7844 49.6773 65.7844 49.448V49.432ZM70.2766 49.432C70.2766 49.2027 70.3299 49 70.4366 48.824C70.5379 48.6427 70.6792 48.5013 70.8606 48.4C71.0366 48.2933 71.2392 48.24 71.4686 48.24H73.7726C74.0019 48.24 74.2046 48.2933 74.3806 48.4C74.5619 48.5013 74.7032 48.6427 74.8046 48.824C74.9112 49 74.9646 49.2027 74.9646 49.432V49.448C74.9646 49.6773 74.9112 49.8827 74.8046 50.064C74.7032 50.24 74.5619 50.3813 74.3806 50.488C74.2046 50.5893 74.0019 50.64 73.7726 50.64H71.4686C71.2392 50.64 71.0366 50.5893 70.8606 50.488C70.6792 50.3813 70.5379 50.24 70.4366 50.064C70.3299 49.8827 70.2766 49.6773 70.2766 49.448V49.432ZM72.5656 49.432C72.5656 49.2027 72.619 49 72.7256 48.824C72.827 48.6427 72.9683 48.5013 73.1496 48.4C73.3256 48.2933 73.5283 48.24 73.7576 48.24H78.2696C78.499 48.24 78.7016 48.2933 78.8776 48.4C79.059 48.5013 79.2003 48.6427 79.3016 48.824C79.4083 49 79.4616 49.2027 79.4616 49.432V49.448C79.4616 49.6773 79.4083 49.8827 79.3016 50.064C79.2003 50.24 79.059 50.3813 78.8776 50.488C78.7016 50.5893 78.499 50.64 78.2696 50.64H73.7576C73.5283 50.64 73.3256 50.5893 73.1496 50.488C72.9683 50.3813 72.827 50.24 72.7256 50.064C72.619 49.8827 72.5656 49.6773 72.5656 49.448V49.432ZM81.8547 49.432C81.8547 49.2027 81.908 49 82.0147 48.824C82.116 48.6427 82.2574 48.5013 82.4387 48.4C82.6147 48.2933 82.8174 48.24 83.0467 48.24H87.5587C87.788 48.24 87.9907 48.2933 88.1667 48.4C88.348 48.5013 88.4894 48.6427 88.5907 48.824C88.6974 49 88.7507 49.2027 88.7507 49.432V49.448C88.7507 49.6773 88.6974 49.8827 88.5907 50.064C88.4894 50.24 88.348 50.3813 88.1667 50.488C87.9907 50.5893 87.788 50.64 87.5587 50.64H83.0467C82.8174 50.64 82.6147 50.5893 82.4387 50.488C82.2574 50.3813 82.116 50.24 82.0147 50.064C81.908 49.8827 81.8547 49.6773 81.8547 49.448V49.432ZM86.3469 49.432C86.3469 49.2027 86.4002 49 86.5069 48.824C86.6082 48.6427 86.7495 48.5013 86.9309 48.4C87.1069 48.2933 87.3095 48.24 87.5389 48.24H92.0509C92.2802 48.24 92.4829 48.2933 92.6589 48.4C92.8402 48.5013 92.9815 48.6427 93.0829 48.824C93.1895 49 93.2429 49.2027 93.2429 49.432V49.448C93.2429 49.6773 93.1895 49.8827 93.0829 50.064C92.9815 50.24 92.8402 50.3813 92.6589 50.488C92.4829 50.5893 92.2802 50.64 92.0509 50.64H87.5389C87.3095 50.64 87.1069 50.5893 86.9309 50.488C86.7495 50.3813 86.6082 50.24 86.5069 50.064C86.4002 49.8827 86.3469 49.6773 86.3469 49.448V49.432ZM90.8391 49.432C90.8391 49.2027 90.8924 49 90.9991 48.824C91.1004 48.6427 91.2417 48.5013 91.4231 48.4C91.5991 48.2933 91.8017 48.24 92.0311 48.24H94.3351C94.5644 48.24 94.7671 48.2933 94.9431 48.4C95.1244 48.5013 95.2657 48.6427 95.3671 48.824C95.4737 49 95.5271 49.2027 95.5271 49.432V49.448C95.5271 49.6773 95.4737 49.8827 95.3671 50.064C95.2657 50.24 95.1244 50.3813 94.9431 50.488C94.7671 50.5893 94.5644 50.64 94.3351 50.64H92.0311C91.8017 50.64 91.5991 50.5893 91.4231 50.488C91.2417 50.3813 91.1004 50.24 90.9991 50.064C90.8924 49.8827 90.8391 49.6773 90.8391 49.448V49.432ZM93.1281 49.432C93.1281 49.2027 93.1815 49 93.2881 48.824C93.3895 48.6427 93.5308 48.5013 93.7121 48.4C93.8881 48.2933 94.0908 48.24 94.3201 48.24H98.8321C99.0615 48.24 99.2641 48.2933 99.4401 48.4C99.6215 48.5013 99.7628 48.6427 99.8641 48.824C99.9708 49 100.024 49.2027 100.024 49.432V49.448C100.024 49.6773 99.9708 49.8827 99.8641 50.064C99.7628 50.24 99.6215 50.3813 99.4401 50.488C99.2641 50.5893 99.0615 50.64 98.8321 50.64H94.3201C94.0908 50.64 93.8881 50.5893 93.7121 50.488C93.5308 50.3813 93.3895 50.24 93.2881 50.064C93.1815 49.8827 93.1281 49.6773 93.1281 49.448V49.432ZM97.6203 49.432C97.6203 49.2027 97.6736 49 97.7803 48.824C97.8816 48.6427 98.023 48.5013 98.2043 48.4C98.3803 48.2933 98.583 48.24 98.8123 48.24H103.324C103.554 48.24 103.756 48.2933 103.932 48.4C104.114 48.5013 104.255 48.6427 104.356 48.824C104.463 49 104.516 49.2027 104.516 49.432V49.448C104.516 49.6773 104.463 49.8827 104.356 50.064C104.255 50.24 104.114 50.3813 103.932 50.488C103.756 50.5893 103.554 50.64 103.324 50.64H98.8123C98.583 50.64 98.3803 50.5893 98.2043 50.488C98.023 50.3813 97.8816 50.24 97.7803 50.064C97.6736 49.8827 97.6203 49.6773 97.6203 49.448V49.432ZM102.112 49.432C102.112 49.2027 102.166 49 102.272 48.824C102.374 48.6427 102.515 48.5013 102.696 48.4C102.872 48.2933 103.075 48.24 103.304 48.24H107.817C108.046 48.24 108.249 48.2933 108.425 48.4C108.606 48.5013 108.747 48.6427 108.849 48.824C108.955 49 109.009 49.2027 109.009 49.432V49.448C109.009 49.6773 108.955 49.8827 108.849 50.064C108.747 50.24 108.606 50.3813 108.425 50.488C108.249 50.5893 108.046 50.64 107.817 50.64H103.304C103.075 50.64 102.872 50.5893 102.696 50.488C102.515 50.3813 102.374 50.24 102.272 50.064C102.166 49.8827 102.112 49.6773 102.112 49.448V49.432ZM106.605 49.432C106.605 49.2027 106.658 49 106.765 48.824C106.866 48.6427 107.007 48.5013 107.189 48.4C107.365 48.2933 107.567 48.24 107.797 48.24H112.309C112.538 48.24 112.741 48.2933 112.917 48.4C113.098 48.5013 113.239 48.6427 113.341 48.824C113.447 49 113.501 49.2027 113.501 49.432V49.448C113.501 49.6773 113.447 49.8827 113.341 50.064C113.239 50.24 113.098 50.3813 112.917 50.488C112.741 50.5893 112.538 50.64 112.309 50.64H107.797C107.567 50.64 107.365 50.5893 107.189 50.488C107.007 50.3813 106.866 50.24 106.765 50.064C106.658 49.8827 106.605 49.6773 106.605 49.448V49.432ZM111.097 49.432C111.097 49.2027 111.15 49 111.257 48.824C111.358 48.6427 111.5 48.5013 111.681 48.4C111.857 48.2933 112.06 48.24 112.289 48.24H116.801C117.03 48.24 117.233 48.2933 117.409 48.4C117.59 48.5013 117.732 48.6427 117.833 48.824C117.94 49 117.993 49.2027 117.993 49.432V49.448C117.993 49.6773 117.94 49.8827 117.833 50.064C117.732 50.24 117.59 50.3813 117.409 50.488C117.233 50.5893 117.03 50.64 116.801 50.64H112.289C112.06 50.64 111.857 50.5893 111.681 50.488C111.5 50.3813 111.358 50.24 111.257 50.064C111.15 49.8827 111.097 49.6773 111.097 49.448V49.432ZM115.589 49.432C115.589 49.2027 115.642 49 115.749 48.824C115.85 48.6427 115.992 48.5013 116.173 48.4C116.349 48.2933 116.552 48.24 116.781 48.24H119.085C119.314 48.24 119.517 48.2933 119.693 48.4C119.874 48.5013 120.016 48.6427 120.117 48.824C120.224 49 120.277 49.2027 120.277 49.432V49.448C120.277 49.6773 120.224 49.8827 120.117 50.064C120.016 50.24 119.874 50.3813 119.693 50.488C119.517 50.5893 119.314 50.64 119.085 50.64H116.781C116.552 50.64 116.349 50.5893 116.173 50.488C115.992 50.3813 115.85 50.24 115.749 50.064C115.642 49.8827 115.589 49.6773 115.589 49.448V49.432ZM122.675 49.432C122.675 49.2027 122.728 49 122.835 48.824C122.936 48.6427 123.078 48.5013 123.259 48.4C123.435 48.2933 123.638 48.24 123.867 48.24H128.379C128.608 48.24 128.811 48.2933 128.987 48.4C129.168 48.5013 129.31 48.6427 129.411 48.824C129.518 49 129.571 49.2027 129.571 49.432V49.448C129.571 49.6773 129.518 49.8827 129.411 50.064C129.31 50.24 129.168 50.3813 128.987 50.488C128.811 50.5893 128.608 50.64 128.379 50.64H123.867C123.638 50.64 123.435 50.5893 123.259 50.488C123.078 50.3813 122.936 50.24 122.835 50.064C122.728 49.8827 122.675 49.6773 122.675 49.448V49.432ZM127.167 49.432C127.167 49.2027 127.221 49 127.327 48.824C127.429 48.6427 127.57 48.5013 127.751 48.4C127.927 48.2933 128.13 48.24 128.359 48.24H132.871C133.101 48.24 133.303 48.2933 133.479 48.4C133.661 48.5013 133.802 48.6427 133.903 48.824C134.01 49 134.063 49.2027 134.063 49.432V49.448C134.063 49.6773 134.01 49.8827 133.903 50.064C133.802 50.24 133.661 50.3813 133.479 50.488C133.303 50.5893 133.101 50.64 132.871 50.64H128.359C128.13 50.64 127.927 50.5893 127.751 50.488C127.57 50.3813 127.429 50.24 127.327 50.064C127.221 49.8827 127.167 49.6773 127.167 49.448V49.432ZM131.659 49.432C131.659 49.2027 131.713 49 131.819 48.824C131.921 48.6427 132.062 48.5013 132.243 48.4C132.419 48.2933 132.622 48.24 132.851 48.24H137.363C137.593 48.24 137.795 48.2933 137.971 48.4C138.153 48.5013 138.294 48.6427 138.395 48.824C138.502 49 138.555 49.2027 138.555 49.432V49.448C138.555 49.6773 138.502 49.8827 138.395 50.064C138.294 50.24 138.153 50.3813 137.971 50.488C137.795 50.5893 137.593 50.64 137.363 50.64H132.851C132.622 50.64 132.419 50.5893 132.243 50.488C132.062 50.3813 131.921 50.24 131.819 50.064C131.713 49.8827 131.659 49.6773 131.659 49.448V49.432ZM136.152 49.432C136.152 49.2027 136.205 49 136.312 48.824C136.413 48.6427 136.554 48.5013 136.736 48.4C136.912 48.2933 137.114 48.24 137.344 48.24H141.856C142.085 48.24 142.288 48.2933 142.464 48.4C142.645 48.5013 142.786 48.6427 142.888 48.824C142.994 49 143.048 49.2027 143.048 49.432V49.448C143.048 49.6773 142.994 49.8827 142.888 50.064C142.786 50.24 142.645 50.3813 142.464 50.488C142.288 50.5893 142.085 50.64 141.856 50.64H137.344C137.114 50.64 136.912 50.5893 136.736 50.488C136.554 50.3813 136.413 50.24 136.312 50.064C136.205 49.8827 136.152 49.6773 136.152 49.448V49.432ZM140.644 49.432C140.644 49.2027 140.697 49 140.804 48.824C140.905 48.6427 141.046 48.5013 141.228 48.4C141.404 48.2933 141.606 48.24 141.836 48.24H146.348C146.577 48.24 146.78 48.2933 146.956 48.4C147.137 48.5013 147.278 48.6427 147.38 48.824C147.486 49 147.54 49.2027 147.54 49.432V49.448C147.54 49.6773 147.486 49.8827 147.38 50.064C147.278 50.24 147.137 50.3813 146.956 50.488C146.78 50.5893 146.577 50.64 146.348 50.64H141.836C141.606 50.64 141.404 50.5893 141.228 50.488C141.046 50.3813 140.905 50.24 140.804 50.064C140.697 49.8827 140.644 49.6773 140.644 49.448V49.432ZM145.136 49.432C145.136 49.2027 145.189 49 145.296 48.824C145.397 48.6427 145.539 48.5013 145.72 48.4C145.896 48.2933 146.099 48.24 146.328 48.24H150.84C151.069 48.24 151.272 48.2933 151.448 48.4C151.629 48.5013 151.771 48.6427 151.872 48.824C151.979 49 152.032 49.2027 152.032 49.432V49.448C152.032 49.6773 151.979 49.8827 151.872 50.064C151.771 50.24 151.629 50.3813 151.448 50.488C151.272 50.5893 151.069 50.64 150.84 50.64H146.328C146.099 50.64 145.896 50.5893 145.72 50.488C145.539 50.3813 145.397 50.24 145.296 50.064C145.189 49.8827 145.136 49.6773 145.136 49.448V49.432ZM154.425 49.432C154.425 49.2027 154.478 49 154.585 48.824C154.686 48.6427 154.828 48.5013 155.009 48.4C155.185 48.2933 155.388 48.24 155.617 48.24H160.129C160.358 48.24 160.561 48.2933 160.737 48.4C160.918 48.5013 161.06 48.6427 161.161 48.824C161.268 49 161.321 49.2027 161.321 49.432V49.448C161.321 49.6773 161.268 49.8827 161.161 50.064C161.06 50.24 160.918 50.3813 160.737 50.488C160.561 50.5893 160.358 50.64 160.129 50.64H155.617C155.388 50.64 155.185 50.5893 155.009 50.488C154.828 50.3813 154.686 50.24 154.585 50.064C154.478 49.8827 154.425 49.6773 154.425 49.448V49.432ZM158.917 49.432C158.917 49.2027 158.971 49 159.077 48.824C159.179 48.6427 159.32 48.5013 159.501 48.4C159.677 48.2933 159.88 48.24 160.109 48.24H162.413C162.643 48.24 162.845 48.2933 163.021 48.4C163.203 48.5013 163.344 48.6427 163.445 48.824C163.552 49 163.605 49.2027 163.605 49.432V49.448C163.605 49.6773 163.552 49.8827 163.445 50.064C163.344 50.24 163.203 50.3813 163.021 50.488C162.845 50.5893 162.643 50.64 162.413 50.64H160.109C159.88 50.64 159.677 50.5893 159.501 50.488C159.32 50.3813 159.179 50.24 159.077 50.064C158.971 49.8827 158.917 49.6773 158.917 49.448V49.432ZM161.206 49.432C161.206 49.2027 161.26 49 161.366 48.824C161.468 48.6427 161.609 48.5013 161.79 48.4C161.966 48.2933 162.169 48.24 162.398 48.24H164.702C164.932 48.24 165.134 48.2933 165.31 48.4C165.492 48.5013 165.633 48.6427 165.734 48.824C165.841 49 165.894 49.2027 165.894 49.432V49.448C165.894 49.6773 165.841 49.8827 165.734 50.064C165.633 50.24 165.492 50.3813 165.31 50.488C165.134 50.5893 164.932 50.64 164.702 50.64H162.398C162.169 50.64 161.966 50.5893 161.79 50.488C161.609 50.3813 161.468 50.24 161.366 50.064C161.26 49.8827 161.206 49.6773 161.206 49.448V49.432ZM168.292 49.432C168.292 49.2027 168.346 49 168.452 48.824C168.554 48.6427 168.695 48.5013 168.876 48.4C169.052 48.2933 169.255 48.24 169.484 48.24H173.996C174.226 48.24 174.428 48.2933 174.604 48.4C174.786 48.5013 174.927 48.6427 175.028 48.824C175.135 49 175.188 49.2027 175.188 49.432V49.448C175.188 49.6773 175.135 49.8827 175.028 50.064C174.927 50.24 174.786 50.3813 174.604 50.488C174.428 50.5893 174.226 50.64 173.996 50.64H169.484C169.255 50.64 169.052 50.5893 168.876 50.488C168.695 50.3813 168.554 50.24 168.452 50.064C168.346 49.8827 168.292 49.6773 168.292 49.448V49.432ZM172.784 49.432C172.784 49.2027 172.838 49 172.944 48.824C173.046 48.6427 173.187 48.5013 173.368 48.4C173.544 48.2933 173.747 48.24 173.976 48.24H178.488C178.718 48.24 178.92 48.2933 179.096 48.4C179.278 48.5013 179.419 48.6427 179.52 48.824C179.627 49 179.68 49.2027 179.68 49.432V49.448C179.68 49.6773 179.627 49.8827 179.52 50.064C179.419 50.24 179.278 50.3813 179.096 50.488C178.92 50.5893 178.718 50.64 178.488 50.64H173.976C173.747 50.64 173.544 50.5893 173.368 50.488C173.187 50.3813 173.046 50.24 172.944 50.064C172.838 49.8827 172.784 49.6773 172.784 49.448V49.432ZM177.277 49.432C177.277 49.2027 177.33 49 177.437 48.824C177.538 48.6427 177.679 48.5013 177.861 48.4C178.037 48.2933 178.239 48.24 178.469 48.24H180.773C181.002 48.24 181.205 48.2933 181.381 48.4C181.562 48.5013 181.703 48.6427 181.805 48.824C181.911 49 181.965 49.2027 181.965 49.432V49.448C181.965 49.6773 181.911 49.8827 181.805 50.064C181.703 50.24 181.562 50.3813 181.381 50.488C181.205 50.5893 181.002 50.64 180.773 50.64H178.469C178.239 50.64 178.037 50.5893 177.861 50.488C177.679 50.3813 177.538 50.24 177.437 50.064C177.33 49.8827 177.277 49.6773 177.277 49.448V49.432ZM179.566 49.432C179.566 49.2027 179.619 49 179.726 48.824C179.827 48.6427 179.968 48.5013 180.15 48.4C180.326 48.2933 180.528 48.24 180.758 48.24H185.27C185.499 48.24 185.702 48.2933 185.878 48.4C186.059 48.5013 186.2 48.6427 186.302 48.824C186.408 49 186.462 49.2027 186.462 49.432V49.448C186.462 49.6773 186.408 49.8827 186.302 50.064C186.2 50.24 186.059 50.3813 185.878 50.488C185.702 50.5893 185.499 50.64 185.27 50.64H180.758C180.528 50.64 180.326 50.5893 180.15 50.488C179.968 50.3813 179.827 50.24 179.726 50.064C179.619 49.8827 179.566 49.6773 179.566 49.448V49.432ZM184.058 49.432C184.058 49.2027 184.111 49 184.218 48.824C184.319 48.6427 184.46 48.5013 184.642 48.4C184.818 48.2933 185.02 48.24 185.25 48.24H189.762C189.991 48.24 190.194 48.2933 190.37 48.4C190.551 48.5013 190.692 48.6427 190.794 48.824C190.9 49 190.954 49.2027 190.954 49.432V49.448C190.954 49.6773 190.9 49.8827 190.794 50.064C190.692 50.24 190.551 50.3813 190.37 50.488C190.194 50.5893 189.991 50.64 189.762 50.64H185.25C185.02 50.64 184.818 50.5893 184.642 50.488C184.46 50.3813 184.319 50.24 184.218 50.064C184.111 49.8827 184.058 49.6773 184.058 49.448V49.432ZM188.55 49.432C188.55 49.2027 188.603 49 188.71 48.824C188.811 48.6427 188.953 48.5013 189.134 48.4C189.31 48.2933 189.513 48.24 189.742 48.24H192.046C192.275 48.24 192.478 48.2933 192.654 48.4C192.835 48.5013 192.977 48.6427 193.078 48.824C193.185 49 193.238 49.2027 193.238 49.432V49.448C193.238 49.6773 193.185 49.8827 193.078 50.064C192.977 50.24 192.835 50.3813 192.654 50.488C192.478 50.5893 192.275 50.64 192.046 50.64H189.742C189.513 50.64 189.31 50.5893 189.134 50.488C188.953 50.3813 188.811 50.24 188.71 50.064C188.603 49.8827 188.55 49.6773 188.55 49.448V49.432ZM190.839 49.432C190.839 49.2027 190.892 49 190.999 48.824C191.1 48.6427 191.242 48.5013 191.423 48.4C191.599 48.2933 191.802 48.24 192.031 48.24H196.543C196.772 48.24 196.975 48.2933 197.151 48.4C197.332 48.5013 197.474 48.6427 197.575 48.824C197.682 49 197.735 49.2027 197.735 49.432V49.448C197.735 49.6773 197.682 49.8827 197.575 50.064C197.474 50.24 197.332 50.3813 197.151 50.488C196.975 50.5893 196.772 50.64 196.543 50.64H192.031C191.802 50.64 191.599 50.5893 191.423 50.488C191.242 50.3813 191.1 50.24 190.999 50.064C190.892 49.8827 190.839 49.6773 190.839 49.448V49.432ZM200.128 49.432C200.128 49.2027 200.181 49 200.288 48.824C200.389 48.6427 200.531 48.5013 200.712 48.4C200.888 48.2933 201.091 48.24 201.32 48.24H203.624C203.853 48.24 204.056 48.2933 204.232 48.4C204.413 48.5013 204.555 48.6427 204.656 48.824C204.763 49 204.816 49.2027 204.816 49.432V49.448C204.816 49.6773 204.763 49.8827 204.656 50.064C204.555 50.24 204.413 50.3813 204.232 50.488C204.056 50.5893 203.853 50.64 203.624 50.64H201.32C201.091 50.64 200.888 50.5893 200.712 50.488C200.531 50.3813 200.389 50.24 200.288 50.064C200.181 49.8827 200.128 49.6773 200.128 49.448V49.432ZM202.417 49.432C202.417 49.2027 202.471 49 202.577 48.824C202.679 48.6427 202.82 48.5013 203.001 48.4C203.177 48.2933 203.38 48.24 203.609 48.24H205.913C206.143 48.24 206.345 48.2933 206.521 48.4C206.703 48.5013 206.844 48.6427 206.945 48.824C207.052 49 207.105 49.2027 207.105 49.432V49.448C207.105 49.6773 207.052 49.8827 206.945 50.064C206.844 50.24 206.703 50.3813 206.521 50.488C206.345 50.5893 206.143 50.64 205.913 50.64H203.609C203.38 50.64 203.177 50.5893 203.001 50.488C202.82 50.3813 202.679 50.24 202.577 50.064C202.471 49.8827 202.417 49.6773 202.417 49.448V49.432ZM204.706 49.432C204.706 49.2027 204.76 49 204.866 48.824C204.968 48.6427 205.109 48.5013 205.29 48.4C205.466 48.2933 205.669 48.24 205.898 48.24H210.41C210.64 48.24 210.842 48.2933 211.018 48.4C211.2 48.5013 211.341 48.6427 211.442 48.824C211.549 49 211.602 49.2027 211.602 49.432V49.448C211.602 49.6773 211.549 49.8827 211.442 50.064C211.341 50.24 211.2 50.3813 211.018 50.488C210.842 50.5893 210.64 50.64 210.41 50.64H205.898C205.669 50.64 205.466 50.5893 205.29 50.488C205.109 50.3813 204.968 50.24 204.866 50.064C204.76 49.8827 204.706 49.6773 204.706 49.448V49.432ZM209.198 49.432C209.198 49.2027 209.252 49 209.358 48.824C209.46 48.6427 209.601 48.5013 209.782 48.4C209.958 48.2933 210.161 48.24 210.39 48.24H214.902C215.132 48.24 215.334 48.2933 215.51 48.4C215.692 48.5013 215.833 48.6427 215.934 48.824C216.041 49 216.094 49.2027 216.094 49.432V49.448C216.094 49.6773 216.041 49.8827 215.934 50.064C215.833 50.24 215.692 50.3813 215.51 50.488C215.334 50.5893 215.132 50.64 214.902 50.64H210.39C210.161 50.64 209.958 50.5893 209.782 50.488C209.601 50.3813 209.46 50.24 209.358 50.064C209.252 49.8827 209.198 49.6773 209.198 49.448V49.432ZM218.487 49.432C218.487 49.2027 218.541 49 218.647 48.824C218.749 48.6427 218.89 48.5013 219.071 48.4C219.247 48.2933 219.45 48.24 219.679 48.24H224.192C224.421 48.24 224.624 48.2933 224.8 48.4C224.981 48.5013 225.122 48.6427 225.224 48.824C225.33 49 225.384 49.2027 225.384 49.432V49.448C225.384 49.6773 225.33 49.8827 225.224 50.064C225.122 50.24 224.981 50.3813 224.8 50.488C224.624 50.5893 224.421 50.64 224.192 50.64H219.679C219.45 50.64 219.247 50.5893 219.071 50.488C218.89 50.3813 218.749 50.24 218.647 50.064C218.541 49.8827 218.487 49.6773 218.487 49.448V49.432ZM222.98 49.432C222.98 49.2027 223.033 49 223.14 48.824C223.241 48.6427 223.382 48.5013 223.564 48.4C223.74 48.2933 223.942 48.24 224.172 48.24H228.684C228.913 48.24 229.116 48.2933 229.292 48.4C229.473 48.5013 229.614 48.6427 229.716 48.824C229.822 49 229.876 49.2027 229.876 49.432V49.448C229.876 49.6773 229.822 49.8827 229.716 50.064C229.614 50.24 229.473 50.3813 229.292 50.488C229.116 50.5893 228.913 50.64 228.684 50.64H224.172C223.942 50.64 223.74 50.5893 223.564 50.488C223.382 50.3813 223.241 50.24 223.14 50.064C223.033 49.8827 222.98 49.6773 222.98 49.448V49.432ZM227.472 49.432C227.472 49.2027 227.525 49 227.632 48.824C227.733 48.6427 227.875 48.5013 228.056 48.4C228.232 48.2933 228.435 48.24 228.664 48.24H233.176C233.405 48.24 233.608 48.2933 233.784 48.4C233.965 48.5013 234.107 48.6427 234.208 48.824C234.315 49 234.368 49.2027 234.368 49.432V49.448C234.368 49.6773 234.315 49.8827 234.208 50.064C234.107 50.24 233.965 50.3813 233.784 50.488C233.608 50.5893 233.405 50.64 233.176 50.64H228.664C228.435 50.64 228.232 50.5893 228.056 50.488C227.875 50.3813 227.733 50.24 227.632 50.064C227.525 49.8827 227.472 49.6773 227.472 49.448V49.432ZM231.964 49.432C231.964 49.2027 232.017 49 232.124 48.824C232.225 48.6427 232.367 48.5013 232.548 48.4C232.724 48.2933 232.927 48.24 233.156 48.24H237.668C237.897 48.24 238.1 48.2933 238.276 48.4C238.457 48.5013 238.599 48.6427 238.7 48.824C238.807 49 238.86 49.2027 238.86 49.432V49.448C238.86 49.6773 238.807 49.8827 238.7 50.064C238.599 50.24 238.457 50.3813 238.276 50.488C238.1 50.5893 237.897 50.64 237.668 50.64H233.156C232.927 50.64 232.724 50.5893 232.548 50.488C232.367 50.3813 232.225 50.24 232.124 50.064C232.017 49.8827 231.964 49.6773 231.964 49.448V49.432ZM236.456 49.432C236.456 49.2027 236.51 49 236.616 48.824C236.718 48.6427 236.859 48.5013 237.04 48.4C237.216 48.2933 237.419 48.24 237.648 48.24H242.16C242.39 48.24 242.592 48.2933 242.768 48.4C242.95 48.5013 243.091 48.6427 243.192 48.824C243.299 49 243.352 49.2027 243.352 49.432V49.448C243.352 49.6773 243.299 49.8827 243.192 50.064C243.091 50.24 242.95 50.3813 242.768 50.488C242.592 50.5893 242.39 50.64 242.16 50.64H237.648C237.419 50.64 237.216 50.5893 237.04 50.488C236.859 50.3813 236.718 50.24 236.616 50.064C236.51 49.8827 236.456 49.6773 236.456 49.448V49.432Z" fill="#2F363D" fill-opacity="0.16"/>
<path d="M56.8 61.432C56.8 61.2027 56.8533 61 56.96 60.824C57.0613 60.6427 57.2027 60.5013 57.384 60.4C57.56 60.2933 57.7627 60.24 57.992 60.24H62.504C62.7333 60.24 62.936 60.2933 63.112 60.4C63.2933 60.5013 63.4347 60.6427 63.536 60.824C63.6427 61 63.696 61.2027 63.696 61.432V61.448C63.696 61.6773 63.6427 61.8827 63.536 62.064C63.4347 62.24 63.2933 62.3813 63.112 62.488C62.936 62.5893 62.7333 62.64 62.504 62.64H57.992C57.7627 62.64 57.56 62.5893 57.384 62.488C57.2027 62.3813 57.0613 62.24 56.96 62.064C56.8533 61.8827 56.8 61.6773 56.8 61.448V61.432ZM61.2922 61.432C61.2922 61.2027 61.3455 61 61.4522 60.824C61.5535 60.6427 61.6949 60.5013 61.8762 60.4C62.0522 60.2933 62.2549 60.24 62.4842 60.24H66.9962C67.2255 60.24 67.4282 60.2933 67.6042 60.4C67.7855 60.5013 67.9269 60.6427 68.0282 60.824C68.1349 61 68.1882 61.2027 68.1882 61.432V61.448C68.1882 61.6773 68.1349 61.8827 68.0282 62.064C67.9269 62.24 67.7855 62.3813 67.6042 62.488C67.4282 62.5893 67.2255 62.64 66.9962 62.64H62.4842C62.2549 62.64 62.0522 62.5893 61.8762 62.488C61.6949 62.3813 61.5535 62.24 61.4522 62.064C61.3455 61.8827 61.2922 61.6773 61.2922 61.448V61.432ZM65.7844 61.432C65.7844 61.2027 65.8377 61 65.9444 60.824C66.0457 60.6427 66.187 60.5013 66.3684 60.4C66.5444 60.2933 66.747 60.24 66.9764 60.24H71.4884C71.7177 60.24 71.9204 60.2933 72.0964 60.4C72.2777 60.5013 72.419 60.6427 72.5204 60.824C72.627 61 72.6804 61.2027 72.6804 61.432V61.448C72.6804 61.6773 72.627 61.8827 72.5204 62.064C72.419 62.24 72.2777 62.3813 72.0964 62.488C71.9204 62.5893 71.7177 62.64 71.4884 62.64H66.9764C66.747 62.64 66.5444 62.5893 66.3684 62.488C66.187 62.3813 66.0457 62.24 65.9444 62.064C65.8377 61.8827 65.7844 61.6773 65.7844 61.448V61.432ZM70.2766 61.432C70.2766 61.2027 70.3299 61 70.4366 60.824C70.5379 60.6427 70.6792 60.5013 70.8606 60.4C71.0366 60.2933 71.2392 60.24 71.4686 60.24H73.7726C74.0019 60.24 74.2046 60.2933 74.3806 60.4C74.5619 60.5013 74.7032 60.6427 74.8046 60.824C74.9112 61 74.9646 61.2027 74.9646 61.432V61.448C74.9646 61.6773 74.9112 61.8827 74.8046 62.064C74.7032 62.24 74.5619 62.3813 74.3806 62.488C74.2046 62.5893 74.0019 62.64 73.7726 62.64H71.4686C71.2392 62.64 71.0366 62.5893 70.8606 62.488C70.6792 62.3813 70.5379 62.24 70.4366 62.064C70.3299 61.8827 70.2766 61.6773 70.2766 61.448V61.432ZM72.5656 61.432C72.5656 61.2027 72.619 61 72.7256 60.824C72.827 60.6427 72.9683 60.5013 73.1496 60.4C73.3256 60.2933 73.5283 60.24 73.7576 60.24H78.2696C78.499 60.24 78.7016 60.2933 78.8776 60.4C79.059 60.5013 79.2003 60.6427 79.3016 60.824C79.4083 61 79.4616 61.2027 79.4616 61.432V61.448C79.4616 61.6773 79.4083 61.8827 79.3016 62.064C79.2003 62.24 79.059 62.3813 78.8776 62.488C78.7016 62.5893 78.499 62.64 78.2696 62.64H73.7576C73.5283 62.64 73.3256 62.5893 73.1496 62.488C72.9683 62.3813 72.827 62.24 72.7256 62.064C72.619 61.8827 72.5656 61.6773 72.5656 61.448V61.432ZM81.8547 61.432C81.8547 61.2027 81.908 61 82.0147 60.824C82.116 60.6427 82.2574 60.5013 82.4387 60.4C82.6147 60.2933 82.8174 60.24 83.0467 60.24H87.5587C87.788 60.24 87.9907 60.2933 88.1667 60.4C88.348 60.5013 88.4894 60.6427 88.5907 60.824C88.6974 61 88.7507 61.2027 88.7507 61.432V61.448C88.7507 61.6773 88.6974 61.8827 88.5907 62.064C88.4894 62.24 88.348 62.3813 88.1667 62.488C87.9907 62.5893 87.788 62.64 87.5587 62.64H83.0467C82.8174 62.64 82.6147 62.5893 82.4387 62.488C82.2574 62.3813 82.116 62.24 82.0147 62.064C81.908 61.8827 81.8547 61.6773 81.8547 61.448V61.432ZM86.3469 61.432C86.3469 61.2027 86.4002 61 86.5069 60.824C86.6082 60.6427 86.7495 60.5013 86.9309 60.4C87.1069 60.2933 87.3095 60.24 87.5389 60.24H92.0509C92.2802 60.24 92.4829 60.2933 92.6589 60.4C92.8402 60.5013 92.9815 60.6427 93.0829 60.824C93.1895 61 93.2429 61.2027 93.2429 61.432V61.448C93.2429 61.6773 93.1895 61.8827 93.0829 62.064C92.9815 62.24 92.8402 62.3813 92.6589 62.488C92.4829 62.5893 92.2802 62.64 92.0509 62.64H87.5389C87.3095 62.64 87.1069 62.5893 86.9309 62.488C86.7495 62.3813 86.6082 62.24 86.5069 62.064C86.4002 61.8827 86.3469 61.6773 86.3469 61.448V61.432ZM90.8391 61.432C90.8391 61.2027 90.8924 61 90.9991 60.824C91.1004 60.6427 91.2417 60.5013 91.4231 60.4C91.5991 60.2933 91.8017 60.24 92.0311 60.24H94.3351C94.5644 60.24 94.7671 60.2933 94.9431 60.4C95.1244 60.5013 95.2657 60.6427 95.3671 60.824C95.4737 61 95.5271 61.2027 95.5271 61.432V61.448C95.5271 61.6773 95.4737 61.8827 95.3671 62.064C95.2657 62.24 95.1244 62.3813 94.9431 62.488C94.7671 62.5893 94.5644 62.64 94.3351 62.64H92.0311C91.8017 62.64 91.5991 62.5893 91.4231 62.488C91.2417 62.3813 91.1004 62.24 90.9991 62.064C90.8924 61.8827 90.8391 61.6773 90.8391 61.448V61.432ZM93.1281 61.432C93.1281 61.2027 93.1815 61 93.2881 60.824C93.3895 60.6427 93.5308 60.5013 93.7121 60.4C93.8881 60.2933 94.0908 60.24 94.3201 60.24H98.8321C99.0615 60.24 99.2641 60.2933 99.4401 60.4C99.6215 60.5013 99.7628 60.6427 99.8641 60.824C99.9708 61 100.024 61.2027 100.024 61.432V61.448C100.024 61.6773 99.9708 61.8827 99.8641 62.064C99.7628 62.24 99.6215 62.3813 99.4401 62.488C99.2641 62.5893 99.0615 62.64 98.8321 62.64H94.3201C94.0908 62.64 93.8881 62.5893 93.7121 62.488C93.5308 62.3813 93.3895 62.24 93.2881 62.064C93.1815 61.8827 93.1281 61.6773 93.1281 61.448V61.432ZM97.6203 61.432C97.6203 61.2027 97.6736 61 97.7803 60.824C97.8816 60.6427 98.023 60.5013 98.2043 60.4C98.3803 60.2933 98.583 60.24 98.8123 60.24H103.324C103.554 60.24 103.756 60.2933 103.932 60.4C104.114 60.5013 104.255 60.6427 104.356 60.824C104.463 61 104.516 61.2027 104.516 61.432V61.448C104.516 61.6773 104.463 61.8827 104.356 62.064C104.255 62.24 104.114 62.3813 103.932 62.488C103.756 62.5893 103.554 62.64 103.324 62.64H98.8123C98.583 62.64 98.3803 62.5893 98.2043 62.488C98.023 62.3813 97.8816 62.24 97.7803 62.064C97.6736 61.8827 97.6203 61.6773 97.6203 61.448V61.432ZM102.112 61.432C102.112 61.2027 102.166 61 102.272 60.824C102.374 60.6427 102.515 60.5013 102.696 60.4C102.872 60.2933 103.075 60.24 103.304 60.24H107.817C108.046 60.24 108.249 60.2933 108.425 60.4C108.606 60.5013 108.747 60.6427 108.849 60.824C108.955 61 109.009 61.2027 109.009 61.432V61.448C109.009 61.6773 108.955 61.8827 108.849 62.064C108.747 62.24 108.606 62.3813 108.425 62.488C108.249 62.5893 108.046 62.64 107.817 62.64H103.304C103.075 62.64 102.872 62.5893 102.696 62.488C102.515 62.3813 102.374 62.24 102.272 62.064C102.166 61.8827 102.112 61.6773 102.112 61.448V61.432ZM106.605 61.432C106.605 61.2027 106.658 61 106.765 60.824C106.866 60.6427 107.007 60.5013 107.189 60.4C107.365 60.2933 107.567 60.24 107.797 60.24H112.309C112.538 60.24 112.741 60.2933 112.917 60.4C113.098 60.5013 113.239 60.6427 113.341 60.824C113.447 61 113.501 61.2027 113.501 61.432V61.448C113.501 61.6773 113.447 61.8827 113.341 62.064C113.239 62.24 113.098 62.3813 112.917 62.488C112.741 62.5893 112.538 62.64 112.309 62.64H107.797C107.567 62.64 107.365 62.5893 107.189 62.488C107.007 62.3813 106.866 62.24 106.765 62.064C106.658 61.8827 106.605 61.6773 106.605 61.448V61.432ZM111.097 61.432C111.097 61.2027 111.15 61 111.257 60.824C111.358 60.6427 111.5 60.5013 111.681 60.4C111.857 60.2933 112.06 60.24 112.289 60.24H116.801C117.03 60.24 117.233 60.2933 117.409 60.4C117.59 60.5013 117.732 60.6427 117.833 60.824C117.94 61 117.993 61.2027 117.993 61.432V61.448C117.993 61.6773 117.94 61.8827 117.833 62.064C117.732 62.24 117.59 62.3813 117.409 62.488C117.233 62.5893 117.03 62.64 116.801 62.64H112.289C112.06 62.64 111.857 62.5893 111.681 62.488C111.5 62.3813 111.358 62.24 111.257 62.064C111.15 61.8827 111.097 61.6773 111.097 61.448V61.432ZM115.589 61.432C115.589 61.2027 115.642 61 115.749 60.824C115.85 60.6427 115.992 60.5013 116.173 60.4C116.349 60.2933 116.552 60.24 116.781 60.24H119.085C119.314 60.24 119.517 60.2933 119.693 60.4C119.874 60.5013 120.016 60.6427 120.117 60.824C120.224 61 120.277 61.2027 120.277 61.432V61.448C120.277 61.6773 120.224 61.8827 120.117 62.064C120.016 62.24 119.874 62.3813 119.693 62.488C119.517 62.5893 119.314 62.64 119.085 62.64H116.781C116.552 62.64 116.349 62.5893 116.173 62.488C115.992 62.3813 115.85 62.24 115.749 62.064C115.642 61.8827 115.589 61.6773 115.589 61.448V61.432ZM122.675 61.432C122.675 61.2027 122.728 61 122.835 60.824C122.936 60.6427 123.078 60.5013 123.259 60.4C123.435 60.2933 123.638 60.24 123.867 60.24H128.379C128.608 60.24 128.811 60.2933 128.987 60.4C129.168 60.5013 129.31 60.6427 129.411 60.824C129.518 61 129.571 61.2027 129.571 61.432V61.448C129.571 61.6773 129.518 61.8827 129.411 62.064C129.31 62.24 129.168 62.3813 128.987 62.488C128.811 62.5893 128.608 62.64 128.379 62.64H123.867C123.638 62.64 123.435 62.5893 123.259 62.488C123.078 62.3813 122.936 62.24 122.835 62.064C122.728 61.8827 122.675 61.6773 122.675 61.448V61.432ZM127.167 61.432C127.167 61.2027 127.221 61 127.327 60.824C127.429 60.6427 127.57 60.5013 127.751 60.4C127.927 60.2933 128.13 60.24 128.359 60.24H132.871C133.101 60.24 133.303 60.2933 133.479 60.4C133.661 60.5013 133.802 60.6427 133.903 60.824C134.01 61 134.063 61.2027 134.063 61.432V61.448C134.063 61.6773 134.01 61.8827 133.903 62.064C133.802 62.24 133.661 62.3813 133.479 62.488C133.303 62.5893 133.101 62.64 132.871 62.64H128.359C128.13 62.64 127.927 62.5893 127.751 62.488C127.57 62.3813 127.429 62.24 127.327 62.064C127.221 61.8827 127.167 61.6773 127.167 61.448V61.432ZM131.659 61.432C131.659 61.2027 131.713 61 131.819 60.824C131.921 60.6427 132.062 60.5013 132.243 60.4C132.419 60.2933 132.622 60.24 132.851 60.24H137.363C137.593 60.24 137.795 60.2933 137.971 60.4C138.153 60.5013 138.294 60.6427 138.395 60.824C138.502 61 138.555 61.2027 138.555 61.432V61.448C138.555 61.6773 138.502 61.8827 138.395 62.064C138.294 62.24 138.153 62.3813 137.971 62.488C137.795 62.5893 137.593 62.64 137.363 62.64H132.851C132.622 62.64 132.419 62.5893 132.243 62.488C132.062 62.3813 131.921 62.24 131.819 62.064C131.713 61.8827 131.659 61.6773 131.659 61.448V61.432ZM136.152 61.432C136.152 61.2027 136.205 61 136.312 60.824C136.413 60.6427 136.554 60.5013 136.736 60.4C136.912 60.2933 137.114 60.24 137.344 60.24H141.856C142.085 60.24 142.288 60.2933 142.464 60.4C142.645 60.5013 142.786 60.6427 142.888 60.824C142.994 61 143.048 61.2027 143.048 61.432V61.448C143.048 61.6773 142.994 61.8827 142.888 62.064C142.786 62.24 142.645 62.3813 142.464 62.488C142.288 62.5893 142.085 62.64 141.856 62.64H137.344C137.114 62.64 136.912 62.5893 136.736 62.488C136.554 62.3813 136.413 62.24 136.312 62.064C136.205 61.8827 136.152 61.6773 136.152 61.448V61.432ZM140.644 61.432C140.644 61.2027 140.697 61 140.804 60.824C140.905 60.6427 141.046 60.5013 141.228 60.4C141.404 60.2933 141.606 60.24 141.836 60.24H144.14C144.369 60.24 144.572 60.2933 144.748 60.4C144.929 60.5013 145.07 60.6427 145.172 60.824C145.278 61 145.332 61.2027 145.332 61.432V61.448C145.332 61.6773 145.278 61.8827 145.172 62.064C145.07 62.24 144.929 62.3813 144.748 62.488C144.572 62.5893 144.369 62.64 144.14 62.64H141.836C141.606 62.64 141.404 62.5893 141.228 62.488C141.046 62.3813 140.905 62.24 140.804 62.064C140.697 61.8827 140.644 61.6773 140.644 61.448V61.432ZM142.933 61.432C142.933 61.2027 142.986 61 143.093 60.824C143.194 60.6427 143.335 60.5013 143.517 60.4C143.693 60.2933 143.895 60.24 144.125 60.24H148.637C148.866 60.24 149.069 60.2933 149.245 60.4C149.426 60.5013 149.567 60.6427 149.669 60.824C149.775 61 149.829 61.2027 149.829 61.432V61.448C149.829 61.6773 149.775 61.8827 149.669 62.064C149.567 62.24 149.426 62.3813 149.245 62.488C149.069 62.5893 148.866 62.64 148.637 62.64H144.125C143.895 62.64 143.693 62.5893 143.517 62.488C143.335 62.3813 143.194 62.24 143.093 62.064C142.986 61.8827 142.933 61.6773 142.933 61.448V61.432ZM152.222 61.432C152.222 61.2027 152.275 61 152.382 60.824C152.483 60.6427 152.625 60.5013 152.806 60.4C152.982 60.2933 153.185 60.24 153.414 60.24H155.718C155.947 60.24 156.15 60.2933 156.326 60.4C156.507 60.5013 156.649 60.6427 156.75 60.824C156.857 61 156.91 61.2027 156.91 61.432V61.448C156.91 61.6773 156.857 61.8827 156.75 62.064C156.649 62.24 156.507 62.3813 156.326 62.488C156.15 62.5893 155.947 62.64 155.718 62.64H153.414C153.185 62.64 152.982 62.5893 152.806 62.488C152.625 62.3813 152.483 62.24 152.382 62.064C152.275 61.8827 152.222 61.6773 152.222 61.448V61.432ZM154.511 61.432C154.511 61.2027 154.564 61 154.671 60.824C154.772 60.6427 154.914 60.5013 155.095 60.4C155.271 60.2933 155.474 60.24 155.703 60.24H160.215C160.444 60.24 160.647 60.2933 160.823 60.4C161.004 60.5013 161.146 60.6427 161.247 60.824C161.354 61 161.407 61.2027 161.407 61.432V61.448C161.407 61.6773 161.354 61.8827 161.247 62.064C161.146 62.24 161.004 62.3813 160.823 62.488C160.647 62.5893 160.444 62.64 160.215 62.64H155.703C155.474 62.64 155.271 62.5893 155.095 62.488C154.914 62.3813 154.772 62.24 154.671 62.064C154.564 61.8827 154.511 61.6773 154.511 61.448V61.432ZM159.003 61.432C159.003 61.2027 159.056 61 159.163 60.824C159.264 60.6427 159.406 60.5013 159.587 60.4C159.763 60.2933 159.966 60.24 160.195 60.24H164.707C164.936 60.24 165.139 60.2933 165.315 60.4C165.496 60.5013 165.638 60.6427 165.739 60.824C165.846 61 165.899 61.2027 165.899 61.432V61.448C165.899 61.6773 165.846 61.8827 165.739 62.064C165.638 62.24 165.496 62.3813 165.315 62.488C165.139 62.5893 164.936 62.64 164.707 62.64H160.195C159.966 62.64 159.763 62.5893 159.587 62.488C159.406 62.3813 159.264 62.24 159.163 62.064C159.056 61.8827 159.003 61.6773 159.003 61.448V61.432ZM168.292 61.432C168.292 61.2027 168.346 61 168.452 60.824C168.554 60.6427 168.695 60.5013 168.876 60.4C169.052 60.2933 169.255 60.24 169.484 60.24H171.788C172.018 60.24 172.22 60.2933 172.396 60.4C172.578 60.5013 172.719 60.6427 172.82 60.824C172.927 61 172.98 61.2027 172.98 61.432V61.448C172.98 61.6773 172.927 61.8827 172.82 62.064C172.719 62.24 172.578 62.3813 172.396 62.488C172.22 62.5893 172.018 62.64 171.788 62.64H169.484C169.255 62.64 169.052 62.5893 168.876 62.488C168.695 62.3813 168.554 62.24 168.452 62.064C168.346 61.8827 168.292 61.6773 168.292 61.448V61.432ZM170.581 61.432C170.581 61.2027 170.635 61 170.741 60.824C170.843 60.6427 170.984 60.5013 171.165 60.4C171.341 60.2933 171.544 60.24 171.773 60.24H174.077C174.307 60.24 174.509 60.2933 174.685 60.4C174.867 60.5013 175.008 60.6427 175.109 60.824C175.216 61 175.269 61.2027 175.269 61.432V61.448C175.269 61.6773 175.216 61.8827 175.109 62.064C175.008 62.24 174.867 62.3813 174.685 62.488C174.509 62.5893 174.307 62.64 174.077 62.64H171.773C171.544 62.64 171.341 62.5893 171.165 62.488C170.984 62.3813 170.843 62.24 170.741 62.064C170.635 61.8827 170.581 61.6773 170.581 61.448V61.432ZM172.87 61.432C172.87 61.2027 172.924 61 173.03 60.824C173.132 60.6427 173.273 60.5013 173.454 60.4C173.63 60.2933 173.833 60.24 174.062 60.24H176.366C176.596 60.24 176.798 60.2933 176.974 60.4C177.156 60.5013 177.297 60.6427 177.398 60.824C177.505 61 177.558 61.2027 177.558 61.432V61.448C177.558 61.6773 177.505 61.8827 177.398 62.064C177.297 62.24 177.156 62.3813 176.974 62.488C176.798 62.5893 176.596 62.64 176.366 62.64H174.062C173.833 62.64 173.63 62.5893 173.454 62.488C173.273 62.3813 173.132 62.24 173.03 62.064C172.924 61.8827 172.87 61.6773 172.87 61.448V61.432ZM175.159 61.432C175.159 61.2027 175.213 61 175.319 60.824C175.421 60.6427 175.562 60.5013 175.743 60.4C175.919 60.2933 176.122 60.24 176.351 60.24H180.863C181.093 60.24 181.295 60.2933 181.471 60.4C181.653 60.5013 181.794 60.6427 181.895 60.824C182.002 61 182.055 61.2027 182.055 61.432V61.448C182.055 61.6773 182.002 61.8827 181.895 62.064C181.794 62.24 181.653 62.3813 181.471 62.488C181.295 62.5893 181.093 62.64 180.863 62.64H176.351C176.122 62.64 175.919 62.5893 175.743 62.488C175.562 62.3813 175.421 62.24 175.319 62.064C175.213 61.8827 175.159 61.6773 175.159 61.448V61.432Z" fill="#2F363D" fill-opacity="0.16"/>
<path d="M56.8 73.432C56.8 73.2027 56.8533 73 56.96 72.824C57.0613 72.6427 57.2027 72.5013 57.384 72.4C57.56 72.2933 57.7627 72.24 57.992 72.24H62.504C62.7333 72.24 62.936 72.2933 63.112 72.4C63.2933 72.5013 63.4347 72.6427 63.536 72.824C63.6427 73 63.696 73.2027 63.696 73.432V73.448C63.696 73.6773 63.6427 73.8827 63.536 74.064C63.4347 74.24 63.2933 74.3813 63.112 74.488C62.936 74.5893 62.7333 74.64 62.504 74.64H57.992C57.7627 74.64 57.56 74.5893 57.384 74.488C57.2027 74.3813 57.0613 74.24 56.96 74.064C56.8533 73.8827 56.8 73.6773 56.8 73.448V73.432ZM61.2922 73.432C61.2922 73.2027 61.3455 73 61.4522 72.824C61.5535 72.6427 61.6949 72.5013 61.8762 72.4C62.0522 72.2933 62.2549 72.24 62.4842 72.24H66.9962C67.2255 72.24 67.4282 72.2933 67.6042 72.4C67.7855 72.5013 67.9269 72.6427 68.0282 72.824C68.1349 73 68.1882 73.2027 68.1882 73.432V73.448C68.1882 73.6773 68.1349 73.8827 68.0282 74.064C67.9269 74.24 67.7855 74.3813 67.6042 74.488C67.4282 74.5893 67.2255 74.64 66.9962 74.64H62.4842C62.2549 74.64 62.0522 74.5893 61.8762 74.488C61.6949 74.3813 61.5535 74.24 61.4522 74.064C61.3455 73.8827 61.2922 73.6773 61.2922 73.448V73.432ZM65.7844 73.432C65.7844 73.2027 65.8377 73 65.9444 72.824C66.0457 72.6427 66.187 72.5013 66.3684 72.4C66.5444 72.2933 66.747 72.24 66.9764 72.24H71.4884C71.7177 72.24 71.9204 72.2933 72.0964 72.4C72.2777 72.5013 72.419 72.6427 72.5204 72.824C72.627 73 72.6804 73.2027 72.6804 73.432V73.448C72.6804 73.6773 72.627 73.8827 72.5204 74.064C72.419 74.24 72.2777 74.3813 72.0964 74.488C71.9204 74.5893 71.7177 74.64 71.4884 74.64H66.9764C66.747 74.64 66.5444 74.5893 66.3684 74.488C66.187 74.3813 66.0457 74.24 65.9444 74.064C65.8377 73.8827 65.7844 73.6773 65.7844 73.448V73.432ZM70.2766 73.432C70.2766 73.2027 70.3299 73 70.4366 72.824C70.5379 72.6427 70.6792 72.5013 70.8606 72.4C71.0366 72.2933 71.2392 72.24 71.4686 72.24H73.7726C74.0019 72.24 74.2046 72.2933 74.3806 72.4C74.5619 72.5013 74.7032 72.6427 74.8046 72.824C74.9112 73 74.9646 73.2027 74.9646 73.432V73.448C74.9646 73.6773 74.9112 73.8827 74.8046 74.064C74.7032 74.24 74.5619 74.3813 74.3806 74.488C74.2046 74.5893 74.0019 74.64 73.7726 74.64H71.4686C71.2392 74.64 71.0366 74.5893 70.8606 74.488C70.6792 74.3813 70.5379 74.24 70.4366 74.064C70.3299 73.8827 70.2766 73.6773 70.2766 73.448V73.432ZM72.5656 73.432C72.5656 73.2027 72.619 73 72.7256 72.824C72.827 72.6427 72.9683 72.5013 73.1496 72.4C73.3256 72.2933 73.5283 72.24 73.7576 72.24H78.2696C78.499 72.24 78.7016 72.2933 78.8776 72.4C79.059 72.5013 79.2003 72.6427 79.3016 72.824C79.4083 73 79.4616 73.2027 79.4616 73.432V73.448C79.4616 73.6773 79.4083 73.8827 79.3016 74.064C79.2003 74.24 79.059 74.3813 78.8776 74.488C78.7016 74.5893 78.499 74.64 78.2696 74.64H73.7576C73.5283 74.64 73.3256 74.5893 73.1496 74.488C72.9683 74.3813 72.827 74.24 72.7256 74.064C72.619 73.8827 72.5656 73.6773 72.5656 73.448V73.432ZM81.8547 73.432C81.8547 73.2027 81.908 73 82.0147 72.824C82.116 72.6427 82.2574 72.5013 82.4387 72.4C82.6147 72.2933 82.8174 72.24 83.0467 72.24H87.5587C87.788 72.24 87.9907 72.2933 88.1667 72.4C88.348 72.5013 88.4894 72.6427 88.5907 72.824C88.6974 73 88.7507 73.2027 88.7507 73.432V73.448C88.7507 73.6773 88.6974 73.8827 88.5907 74.064C88.4894 74.24 88.348 74.3813 88.1667 74.488C87.9907 74.5893 87.788 74.64 87.5587 74.64H83.0467C82.8174 74.64 82.6147 74.5893 82.4387 74.488C82.2574 74.3813 82.116 74.24 82.0147 74.064C81.908 73.8827 81.8547 73.6773 81.8547 73.448V73.432ZM86.3469 73.432C86.3469 73.2027 86.4002 73 86.5069 72.824C86.6082 72.6427 86.7495 72.5013 86.9309 72.4C87.1069 72.2933 87.3095 72.24 87.5389 72.24H92.0509C92.2802 72.24 92.4829 72.2933 92.6589 72.4C92.8402 72.5013 92.9815 72.6427 93.0829 72.824C93.1895 73 93.2429 73.2027 93.2429 73.432V73.448C93.2429 73.6773 93.1895 73.8827 93.0829 74.064C92.9815 74.24 92.8402 74.3813 92.6589 74.488C92.4829 74.5893 92.2802 74.64 92.0509 74.64H87.5389C87.3095 74.64 87.1069 74.5893 86.9309 74.488C86.7495 74.3813 86.6082 74.24 86.5069 74.064C86.4002 73.8827 86.3469 73.6773 86.3469 73.448V73.432ZM90.8391 73.432C90.8391 73.2027 90.8924 73 90.9991 72.824C91.1004 72.6427 91.2417 72.5013 91.4231 72.4C91.5991 72.2933 91.8017 72.24 92.0311 72.24H94.3351C94.5644 72.24 94.7671 72.2933 94.9431 72.4C95.1244 72.5013 95.2657 72.6427 95.3671 72.824C95.4737 73 95.5271 73.2027 95.5271 73.432V73.448C95.5271 73.6773 95.4737 73.8827 95.3671 74.064C95.2657 74.24 95.1244 74.3813 94.9431 74.488C94.7671 74.5893 94.5644 74.64 94.3351 74.64H92.0311C91.8017 74.64 91.5991 74.5893 91.4231 74.488C91.2417 74.3813 91.1004 74.24 90.9991 74.064C90.8924 73.8827 90.8391 73.6773 90.8391 73.448V73.432ZM93.1281 73.432C93.1281 73.2027 93.1815 73 93.2881 72.824C93.3895 72.6427 93.5308 72.5013 93.7121 72.4C93.8881 72.2933 94.0908 72.24 94.3201 72.24H98.8321C99.0615 72.24 99.2641 72.2933 99.4401 72.4C99.6215 72.5013 99.7628 72.6427 99.8641 72.824C99.9708 73 100.024 73.2027 100.024 73.432V73.448C100.024 73.6773 99.9708 73.8827 99.8641 74.064C99.7628 74.24 99.6215 74.3813 99.4401 74.488C99.2641 74.5893 99.0615 74.64 98.8321 74.64H94.3201C94.0908 74.64 93.8881 74.5893 93.7121 74.488C93.5308 74.3813 93.3895 74.24 93.2881 74.064C93.1815 73.8827 93.1281 73.6773 93.1281 73.448V73.432ZM97.6203 73.432C97.6203 73.2027 97.6736 73 97.7803 72.824C97.8816 72.6427 98.023 72.5013 98.2043 72.4C98.3803 72.2933 98.583 72.24 98.8123 72.24H103.324C103.554 72.24 103.756 72.2933 103.932 72.4C104.114 72.5013 104.255 72.6427 104.356 72.824C104.463 73 104.516 73.2027 104.516 73.432V73.448C104.516 73.6773 104.463 73.8827 104.356 74.064C104.255 74.24 104.114 74.3813 103.932 74.488C103.756 74.5893 103.554 74.64 103.324 74.64H98.8123C98.583 74.64 98.3803 74.5893 98.2043 74.488C98.023 74.3813 97.8816 74.24 97.7803 74.064C97.6736 73.8827 97.6203 73.6773 97.6203 73.448V73.432ZM102.112 73.432C102.112 73.2027 102.166 73 102.272 72.824C102.374 72.6427 102.515 72.5013 102.696 72.4C102.872 72.2933 103.075 72.24 103.304 72.24H107.817C108.046 72.24 108.249 72.2933 108.425 72.4C108.606 72.5013 108.747 72.6427 108.849 72.824C108.955 73 109.009 73.2027 109.009 73.432V73.448C109.009 73.6773 108.955 73.8827 108.849 74.064C108.747 74.24 108.606 74.3813 108.425 74.488C108.249 74.5893 108.046 74.64 107.817 74.64H103.304C103.075 74.64 102.872 74.5893 102.696 74.488C102.515 74.3813 102.374 74.24 102.272 74.064C102.166 73.8827 102.112 73.6773 102.112 73.448V73.432ZM106.605 73.432C106.605 73.2027 106.658 73 106.765 72.824C106.866 72.6427 107.007 72.5013 107.189 72.4C107.365 72.2933 107.567 72.24 107.797 72.24H112.309C112.538 72.24 112.741 72.2933 112.917 72.4C113.098 72.5013 113.239 72.6427 113.341 72.824C113.447 73 113.501 73.2027 113.501 73.432V73.448C113.501 73.6773 113.447 73.8827 113.341 74.064C113.239 74.24 113.098 74.3813 112.917 74.488C112.741 74.5893 112.538 74.64 112.309 74.64H107.797C107.567 74.64 107.365 74.5893 107.189 74.488C107.007 74.3813 106.866 74.24 106.765 74.064C106.658 73.8827 106.605 73.6773 106.605 73.448V73.432ZM111.097 73.432C111.097 73.2027 111.15 73 111.257 72.824C111.358 72.6427 111.5 72.5013 111.681 72.4C111.857 72.2933 112.06 72.24 112.289 72.24H116.801C117.03 72.24 117.233 72.2933 117.409 72.4C117.59 72.5013 117.732 72.6427 117.833 72.824C117.94 73 117.993 73.2027 117.993 73.432V73.448C117.993 73.6773 117.94 73.8827 117.833 74.064C117.732 74.24 117.59 74.3813 117.409 74.488C117.233 74.5893 117.03 74.64 116.801 74.64H112.289C112.06 74.64 111.857 74.5893 111.681 74.488C111.5 74.3813 111.358 74.24 111.257 74.064C111.15 73.8827 111.097 73.6773 111.097 73.448V73.432ZM115.589 73.432C115.589 73.2027 115.642 73 115.749 72.824C115.85 72.6427 115.992 72.5013 116.173 72.4C116.349 72.2933 116.552 72.24 116.781 72.24H119.085C119.314 72.24 119.517 72.2933 119.693 72.4C119.874 72.5013 120.016 72.6427 120.117 72.824C120.224 73 120.277 73.2027 120.277 73.432V73.448C120.277 73.6773 120.224 73.8827 120.117 74.064C120.016 74.24 119.874 74.3813 119.693 74.488C119.517 74.5893 119.314 74.64 119.085 74.64H116.781C116.552 74.64 116.349 74.5893 116.173 74.488C115.992 74.3813 115.85 74.24 115.749 74.064C115.642 73.8827 115.589 73.6773 115.589 73.448V73.432ZM122.675 73.432C122.675 73.2027 122.728 73 122.835 72.824C122.936 72.6427 123.078 72.5013 123.259 72.4C123.435 72.2933 123.638 72.24 123.867 72.24H128.379C128.608 72.24 128.811 72.2933 128.987 72.4C129.168 72.5013 129.31 72.6427 129.411 72.824C129.518 73 129.571 73.2027 129.571 73.432V73.448C129.571 73.6773 129.518 73.8827 129.411 74.064C129.31 74.24 129.168 74.3813 128.987 74.488C128.811 74.5893 128.608 74.64 128.379 74.64H123.867C123.638 74.64 123.435 74.5893 123.259 74.488C123.078 74.3813 122.936 74.24 122.835 74.064C122.728 73.8827 122.675 73.6773 122.675 73.448V73.432ZM127.167 73.432C127.167 73.2027 127.221 73 127.327 72.824C127.429 72.6427 127.57 72.5013 127.751 72.4C127.927 72.2933 128.13 72.24 128.359 72.24H132.871C133.101 72.24 133.303 72.2933 133.479 72.4C133.661 72.5013 133.802 72.6427 133.903 72.824C134.01 73 134.063 73.2027 134.063 73.432V73.448C134.063 73.6773 134.01 73.8827 133.903 74.064C133.802 74.24 133.661 74.3813 133.479 74.488C133.303 74.5893 133.101 74.64 132.871 74.64H128.359C128.13 74.64 127.927 74.5893 127.751 74.488C127.57 74.3813 127.429 74.24 127.327 74.064C127.221 73.8827 127.167 73.6773 127.167 73.448V73.432ZM131.659 73.432C131.659 73.2027 131.713 73 131.819 72.824C131.921 72.6427 132.062 72.5013 132.243 72.4C132.419 72.2933 132.622 72.24 132.851 72.24H135.155C135.385 72.24 135.587 72.2933 135.763 72.4C135.945 72.5013 136.086 72.6427 136.187 72.824C136.294 73 136.347 73.2027 136.347 73.432V73.448C136.347 73.6773 136.294 73.8827 136.187 74.064C136.086 74.24 135.945 74.3813 135.763 74.488C135.587 74.5893 135.385 74.64 135.155 74.64H132.851C132.622 74.64 132.419 74.5893 132.243 74.488C132.062 74.3813 131.921 74.24 131.819 74.064C131.713 73.8827 131.659 73.6773 131.659 73.448V73.432ZM133.948 73.432C133.948 73.2027 134.002 73 134.108 72.824C134.21 72.6427 134.351 72.5013 134.532 72.4C134.708 72.2933 134.911 72.24 135.14 72.24H137.444C137.674 72.24 137.876 72.2933 138.052 72.4C138.234 72.5013 138.375 72.6427 138.476 72.824C138.583 73 138.636 73.2027 138.636 73.432V73.448C138.636 73.6773 138.583 73.8827 138.476 74.064C138.375 74.24 138.234 74.3813 138.052 74.488C137.876 74.5893 137.674 74.64 137.444 74.64H135.14C134.911 74.64 134.708 74.5893 134.532 74.488C134.351 74.3813 134.21 74.24 134.108 74.064C134.002 73.8827 133.948 73.6773 133.948 73.448V73.432ZM141.034 73.432C141.034 73.2027 141.088 73 141.194 72.824C141.296 72.6427 141.437 72.5013 141.618 72.4C141.794 72.2933 141.997 72.24 142.226 72.24H146.738C146.968 72.24 147.17 72.2933 147.346 72.4C147.528 72.5013 147.669 72.6427 147.77 72.824C147.877 73 147.93 73.2027 147.93 73.432V73.448C147.93 73.6773 147.877 73.8827 147.77 74.064C147.669 74.24 147.528 74.3813 147.346 74.488C147.17 74.5893 146.968 74.64 146.738 74.64H142.226C141.997 74.64 141.794 74.5893 141.618 74.488C141.437 74.3813 141.296 74.24 141.194 74.064C141.088 73.8827 141.034 73.6773 141.034 73.448V73.432ZM145.527 73.432C145.527 73.2027 145.58 73 145.687 72.824C145.788 72.6427 145.929 72.5013 146.111 72.4C146.287 72.2933 146.489 72.24 146.719 72.24H149.023C149.252 72.24 149.455 72.2933 149.631 72.4C149.812 72.5013 149.953 72.6427 150.055 72.824C150.161 73 150.215 73.2027 150.215 73.432V73.448C150.215 73.6773 150.161 73.8827 150.055 74.064C149.953 74.24 149.812 74.3813 149.631 74.488C149.455 74.5893 149.252 74.64 149.023 74.64H146.719C146.489 74.64 146.287 74.5893 146.111 74.488C145.929 74.3813 145.788 74.24 145.687 74.064C145.58 73.8827 145.527 73.6773 145.527 73.448V73.432ZM147.816 73.432C147.816 73.2027 147.869 73 147.976 72.824C148.077 72.6427 148.218 72.5013 148.4 72.4C148.576 72.2933 148.778 72.24 149.008 72.24H153.52C153.749 72.24 153.952 72.2933 154.128 72.4C154.309 72.5013 154.45 72.6427 154.552 72.824C154.658 73 154.712 73.2027 154.712 73.432V73.448C154.712 73.6773 154.658 73.8827 154.552 74.064C154.45 74.24 154.309 74.3813 154.128 74.488C153.952 74.5893 153.749 74.64 153.52 74.64H149.008C148.778 74.64 148.576 74.5893 148.4 74.488C148.218 74.3813 148.077 74.24 147.976 74.064C147.869 73.8827 147.816 73.6773 147.816 73.448V73.432ZM152.308 73.432C152.308 73.2027 152.361 73 152.468 72.824C152.569 72.6427 152.71 72.5013 152.892 72.4C153.068 72.2933 153.27 72.24 153.5 72.24H158.012C158.241 72.24 158.444 72.2933 158.62 72.4C158.801 72.5013 158.942 72.6427 159.044 72.824C159.15 73 159.204 73.2027 159.204 73.432V73.448C159.204 73.6773 159.15 73.8827 159.044 74.064C158.942 74.24 158.801 74.3813 158.62 74.488C158.444 74.5893 158.241 74.64 158.012 74.64H153.5C153.27 74.64 153.068 74.5893 152.892 74.488C152.71 74.3813 152.569 74.24 152.468 74.064C152.361 73.8827 152.308 73.6773 152.308 73.448V73.432ZM156.8 73.432C156.8 73.2027 156.853 73 156.96 72.824C157.061 72.6427 157.203 72.5013 157.384 72.4C157.56 72.2933 157.763 72.24 157.992 72.24H160.296C160.525 72.24 160.728 72.2933 160.904 72.4C161.085 72.5013 161.227 72.6427 161.328 72.824C161.435 73 161.488 73.2027 161.488 73.432V73.448C161.488 73.6773 161.435 73.8827 161.328 74.064C161.227 74.24 161.085 74.3813 160.904 74.488C160.728 74.5893 160.525 74.64 160.296 74.64H157.992C157.763 74.64 157.56 74.5893 157.384 74.488C157.203 74.3813 157.061 74.24 156.96 74.064C156.853 73.8827 156.8 73.6773 156.8 73.448V73.432ZM159.089 73.432C159.089 73.2027 159.142 73 159.249 72.824C159.35 72.6427 159.492 72.5013 159.673 72.4C159.849 72.2933 160.052 72.24 160.281 72.24H164.793C165.022 72.24 165.225 72.2933 165.401 72.4C165.582 72.5013 165.724 72.6427 165.825 72.824C165.932 73 165.985 73.2027 165.985 73.432V73.448C165.985 73.6773 165.932 73.8827 165.825 74.064C165.724 74.24 165.582 74.3813 165.401 74.488C165.225 74.5893 165.022 74.64 164.793 74.64H160.281C160.052 74.64 159.849 74.5893 159.673 74.488C159.492 74.3813 159.35 74.24 159.249 74.064C159.142 73.8827 159.089 73.6773 159.089 73.448V73.432ZM163.581 73.432C163.581 73.2027 163.635 73 163.741 72.824C163.843 72.6427 163.984 72.5013 164.165 72.4C164.341 72.2933 164.544 72.24 164.773 72.24H169.285C169.515 72.24 169.717 72.2933 169.893 72.4C170.075 72.5013 170.216 72.6427 170.317 72.824C170.424 73 170.477 73.2027 170.477 73.432V73.448C170.477 73.6773 170.424 73.8827 170.317 74.064C170.216 74.24 170.075 74.3813 169.893 74.488C169.717 74.5893 169.515 74.64 169.285 74.64H164.773C164.544 74.64 164.341 74.5893 164.165 74.488C163.984 74.3813 163.843 74.24 163.741 74.064C163.635 73.8827 163.581 73.6773 163.581 73.448V73.432Z" fill="#2F363D" fill-opacity="0.16"/>
<g clip-path="url(#clip1_13_6)">
<path d="M36.3927 7.70239V8.40968C36.3927 8.95804 35.8999 9.41957 35.3379 9.41957H33.6515C33.1895 9.41957 32.8073 9.79255 32.8073 10.229V11.7457C32.8073 12.1773 33.2052 12.4312 33.6515 12.5551C34.186 12.7033 34.6985 12.7301 35.3379 12.5551C35.763 12.439 36.1822 12.2053 36.1822 11.7457V11.1386H34.4957V10.9363H36.1822H37.0264C37.5171 10.9363 37.6999 10.6134 37.8706 10.1287C38.0469 9.62979 38.0394 9.14998 37.8706 8.50993C37.7493 8.0491 37.5177 7.70239 37.0264 7.70239H36.3927ZM35.4442 11.5433C35.6192 11.5433 35.761 11.6786 35.761 11.8459C35.761 12.0138 35.6192 12.1504 35.4442 12.1504C35.2698 12.1504 35.1274 12.0138 35.1274 11.8459C35.1274 11.6786 35.2698 11.5433 35.4442 11.5433Z" fill="url(#paint0_linear_13_6)"/>
<path d="M34.4583 6.00005C34.1697 6.00132 33.894 6.02454 33.6515 6.06503C32.937 6.18411 32.8073 6.43335 32.8073 6.89299V7.50004H34.4957V7.70239H32.8073H32.1736C31.6829 7.70239 31.2533 7.98063 31.1189 8.50993C30.9638 9.11663 30.957 9.49523 31.1189 10.1287C31.2389 10.6003 31.5255 10.9363 32.0162 10.9363H32.5967V10.2085C32.5967 9.68282 33.0789 9.21908 33.6515 9.21908H35.338C35.8074 9.21908 36.1822 8.85444 36.1822 8.40968V6.89299C36.1822 6.46133 35.7962 6.13707 35.338 6.06503C35.0479 6.01948 34.747 5.99879 34.4583 6.00005ZM33.5452 6.48829C33.7196 6.48829 33.8621 6.62484 33.8621 6.79274C33.8621 6.96005 33.7196 7.09534 33.5452 7.09534C33.3702 7.09534 33.2284 6.96005 33.2284 6.79274C33.2284 6.62484 33.3702 6.48829 33.5452 6.48829Z" fill="url(#paint1_linear_13_6)"/>
</g>
<a xlink:href="command:manim-notebook-walkthrough.showCommands">
    <rect x="53.25" y="14.25" width="225.5" height="13.5" rx="0.75" fill="#2188FF" fill-opacity="0"/>
</a>
</g>
<defs>
<filter id="filter0_d_13_6" x="44" y="2" width="245" height="87" filterUnits="userSpaceOnUse" color-interpolation-filters="sRGB">
<feFlood flood-opacity="0" result="BackgroundImageFix"/>
<feColorMatrix in="SourceAlpha" type="matrix" values="0 0 0 0 0 0 0 0 0 0 0 0 0 0 0 0 0 0 127 0" result="hardAlpha"/>
<feOffset/>
<feGaussianBlur stdDeviation="2"/>
<feComposite in2="hardAlpha" operator="out"/>
<feColorMatrix type="matrix" values="0 0 0 0 0 0 0 0 0 0 0 0 0 0 0 0 0 0 0.1 0"/>
<feBlend mode="normal" in2="BackgroundImageFix" result="effect1_dropShadow_13_6"/>
<feBlend mode="normal" in="SourceGraphic" in2="effect1_dropShadow_13_6" result="shape"/>
</filter>
<linearGradient id="paint0_linear_13_6" x1="35.4036" y1="11.7949" x2="34.1126" y2="9.8772" gradientUnits="userSpaceOnUse">
<stop stop-color="#FFD43B"/>
<stop offset="1" stop-color="#FFE873"/>
</linearGradient>
<linearGradient id="paint1_linear_13_6" x1="31" y1="6" x2="34.7008" y2="9.3429" gradientUnits="userSpaceOnUse">
<stop stop-color="#5A9FD4"/>
<stop offset="1" stop-color="#306998"/>
</linearGradient>
<clipPath id="clip0_13_6">
<rect width="332" height="93" fill="white"/>
</clipPath>
<clipPath id="clip1_13_6">
<rect width="7" height="8" fill="white" transform="translate(31 6)"/>
</clipPath>
</defs>
</svg>
