<svg width="307" height="118" viewBox="0 0 307 118" fill="none" xmlns="http://www.w3.org/2000/svg">
  <g>
    <path d="M0 38H307M0 111H307" stroke="var(--vscode-activityBarBadge-background, #2B7BD6)" />
    <g>
      <path d="M9.986 9.012L10.994 9.138V18H10.112L10.016 17.166C9.78 17.502 9.508 17.748 9.2 17.904C8.896 18.06 8.57 18.138 8.222 18.138C7.674 18.138 7.222 18 6.866 17.724C6.51 17.448 6.246 17.064 6.074 16.572C5.902 16.076 5.816 15.502 5.816 14.85C5.816 14.218 5.914 13.654 6.11 13.158C6.306 12.658 6.588 12.266 6.956 11.982C7.328 11.694 7.774 11.55 8.294 11.55C8.658 11.55 8.978 11.614 9.254 11.742C9.53 11.866 9.774 12.05 9.986 12.294V9.012ZM8.558 12.36C8.03 12.36 7.624 12.566 7.34 12.978C7.056 13.39 6.914 14.014 6.914 14.85C6.914 15.394 6.972 15.85 7.088 16.218C7.204 16.586 7.374 16.862 7.598 17.046C7.826 17.23 8.104 17.322 8.432 17.322C8.792 17.322 9.098 17.22 9.35 17.016C9.606 16.812 9.818 16.582 9.986 16.326V13.17C9.814 12.914 9.606 12.716 9.362 12.576C9.118 12.432 8.85 12.36 8.558 12.36ZM14.1933 15.198C14.2133 15.686 14.3073 16.086 14.4753 16.398C14.6433 16.706 14.8653 16.934 15.1413 17.082C15.4173 17.226 15.7173 17.298 16.0413 17.298C16.3653 17.298 16.6573 17.25 16.9173 17.154C17.1813 17.058 17.4513 16.916 17.7273 16.728L18.2013 17.394C17.9053 17.626 17.5673 17.808 17.1873 17.94C16.8113 18.072 16.4253 18.138 16.0293 18.138C15.4173 18.138 14.8953 18 14.4633 17.724C14.0313 17.448 13.7013 17.064 13.4733 16.572C13.2493 16.076 13.1373 15.502 13.1373 14.85C13.1373 14.21 13.2513 13.642 13.4793 13.146C13.7073 12.65 14.0273 12.26 14.4393 11.976C14.8513 11.692 15.3373 11.55 15.8973 11.55C16.4293 11.55 16.8873 11.676 17.2713 11.928C17.6553 12.176 17.9493 12.532 18.1533 12.996C18.3613 13.456 18.4653 14.006 18.4653 14.646C18.4653 14.754 18.4633 14.856 18.4593 14.952C18.4553 15.044 18.4493 15.126 18.4413 15.198H14.1933ZM15.9093 12.378C15.4413 12.378 15.0493 12.544 14.7333 12.876C14.4213 13.208 14.2433 13.722 14.1993 14.418H17.4933C17.4813 13.742 17.3333 13.234 17.0493 12.894C16.7653 12.55 16.3853 12.378 15.9093 12.378ZM24.3286 9.012C24.6686 9.012 24.9766 9.042 25.2526 9.102C25.5286 9.162 25.7906 9.246 26.0386 9.354L25.7146 10.104C25.5106 10.016 25.2946 9.95 25.0666 9.906C24.8386 9.862 24.6026 9.84 24.3586 9.84C23.9186 9.84 23.5866 9.926 23.3626 10.098C23.1426 10.27 23.0326 10.534 23.0326 10.89V12.174H25.1746L25.0666 12.966H23.0326V18H22.0246V12.966H20.5186V12.174H22.0246V10.914C22.0246 10.522 22.1246 10.184 22.3246 9.9C22.5286 9.616 22.8046 9.398 23.1526 9.246C23.5006 9.09 23.8926 9.012 24.3286 9.012Z" fill="#D73A49" />
      <path d="M37.8433 17.268C38.1593 17.268 38.4533 17.216 38.7253 17.112C39.0013 17.008 39.2553 16.876 39.4873 16.716L39.9792 17.376C39.7033 17.612 39.3713 17.798 38.9833 17.934C38.5953 18.07 38.2153 18.138 37.8433 18.138C37.2153 18.138 36.6793 18.004 36.2353 17.736C35.7953 17.464 35.4593 17.084 35.2273 16.596C34.9953 16.104 34.8793 15.528 34.8793 14.868C34.8793 14.236 34.9953 13.67 35.2273 13.17C35.4633 12.666 35.8013 12.27 36.2413 11.982C36.6853 11.694 37.2233 11.55 37.8553 11.55C38.2593 11.55 38.6373 11.612 38.9893 11.736C39.3453 11.856 39.6713 12.038 39.9673 12.282L39.4753 12.954C39.2073 12.766 38.9373 12.626 38.6653 12.534C38.3973 12.438 38.1233 12.39 37.8433 12.39C37.2993 12.39 36.8513 12.594 36.4993 13.002C36.1473 13.41 35.9713 14.032 35.9713 14.868C35.9713 15.428 36.0513 15.886 36.2113 16.242C36.3753 16.594 36.5973 16.854 36.8773 17.022C37.1613 17.186 37.4833 17.268 37.8433 17.268ZM44.5886 11.55C45.1846 11.55 45.6826 11.686 46.0826 11.958C46.4866 12.226 46.7886 12.606 46.9886 13.098C47.1926 13.59 47.2946 14.17 47.2946 14.838C47.2946 15.482 47.1906 16.052 46.9826 16.548C46.7746 17.044 46.4686 17.434 46.0646 17.718C45.6646 17.998 45.1686 18.138 44.5766 18.138C43.9846 18.138 43.4866 18.002 43.0826 17.73C42.6786 17.458 42.3726 17.076 42.1646 16.584C41.9606 16.088 41.8586 15.51 41.8586 14.85C41.8586 14.198 41.9626 13.624 42.1706 13.128C42.3786 12.632 42.6846 12.246 43.0886 11.97C43.4966 11.69 43.9966 11.55 44.5886 11.55ZM44.5886 12.372C44.0446 12.372 43.6326 12.574 43.3526 12.978C43.0766 13.378 42.9386 14.002 42.9386 14.85C42.9386 15.682 43.0746 16.3 43.3466 16.704C43.6226 17.108 44.0326 17.31 44.5766 17.31C45.1206 17.31 45.5286 17.108 45.8006 16.704C46.0766 16.3 46.2146 15.678 46.2146 14.838C46.2146 13.998 46.0786 13.378 45.8066 12.978C45.5346 12.574 45.1286 12.372 44.5886 12.372ZM49.3779 18V11.682H50.2359L50.3139 12.558C50.5699 12.234 50.8899 11.986 51.2739 11.814C51.6619 11.638 52.0379 11.55 52.4019 11.55C53.0219 11.55 53.4719 11.714 53.7519 12.042C54.0359 12.37 54.1779 12.826 54.1779 13.41V18H53.1699V14.154C53.1699 13.722 53.1459 13.374 53.0979 13.11C53.0499 12.842 52.9499 12.648 52.7979 12.528C52.6459 12.404 52.4099 12.342 52.0899 12.342C51.8419 12.342 51.6079 12.396 51.3879 12.504C51.1719 12.612 50.9779 12.748 50.8059 12.912C50.6379 13.072 50.4979 13.234 50.3859 13.398V18H49.3779ZM58.7212 17.304C59.2052 17.304 59.5872 17.214 59.8672 17.034C60.1512 16.85 60.2932 16.606 60.2932 16.302C60.2932 16.11 60.2572 15.944 60.1852 15.804C60.1172 15.664 59.9752 15.538 59.7592 15.426C59.5432 15.314 59.2112 15.202 58.7632 15.09C58.3272 14.982 57.9472 14.858 57.6232 14.718C57.3032 14.574 57.0532 14.388 56.8732 14.16C56.6972 13.932 56.6092 13.636 56.6092 13.272C56.6092 12.916 56.7092 12.61 56.9092 12.354C57.1132 12.094 57.3952 11.896 57.7552 11.76C58.1152 11.62 58.5332 11.55 59.0092 11.55C59.5172 11.55 59.9592 11.618 60.3352 11.754C60.7152 11.886 61.0372 12.05 61.3012 12.246L60.8572 12.93C60.6172 12.766 60.3532 12.632 60.0652 12.528C59.7772 12.42 59.4292 12.366 59.0212 12.366C58.5252 12.366 58.1732 12.444 57.9652 12.6C57.7572 12.752 57.6532 12.95 57.6532 13.194C57.6532 13.378 57.7032 13.532 57.8032 13.656C57.9072 13.776 58.0812 13.886 58.3252 13.986C58.5692 14.082 58.9052 14.188 59.3332 14.304C59.7452 14.412 60.1032 14.542 60.4072 14.694C60.7152 14.846 60.9552 15.046 61.1272 15.294C61.2992 15.542 61.3852 15.862 61.3852 16.254C61.3852 16.702 61.2572 17.066 61.0012 17.346C60.7452 17.622 60.4132 17.824 60.0052 17.952C59.6012 18.076 59.1732 18.138 58.7212 18.138C58.1492 18.138 57.6612 18.056 57.2572 17.892C56.8572 17.724 56.5212 17.522 56.2492 17.286L56.8252 16.62C57.0732 16.824 57.3572 16.99 57.6772 17.118C58.0012 17.242 58.3492 17.304 58.7212 17.304ZM68.7845 17.682C68.5685 17.826 68.3065 17.938 67.9985 18.018C67.6905 18.098 67.3885 18.138 67.0925 18.138C66.4125 18.138 65.8885 17.96 65.5205 17.604C65.1525 17.248 64.9685 16.79 64.9685 16.23V12.462H63.5165V11.682H64.9685V10.248L65.9765 10.128V11.682H68.1605L68.0405 12.462H65.9765V16.218C65.9765 16.57 66.0685 16.838 66.2525 17.022C66.4405 17.206 66.7505 17.298 67.1825 17.298C67.4185 17.298 67.6365 17.27 67.8365 17.214C68.0365 17.158 68.2225 17.086 68.3945 16.998L68.7845 17.682ZM71.0238 18V17.226H72.0078V12.456H71.0238V11.682H72.7758L72.9618 13.176C73.2058 12.656 73.5018 12.254 73.8498 11.97C74.1978 11.686 74.6578 11.544 75.2298 11.544C75.4058 11.544 75.5618 11.558 75.6978 11.586C75.8378 11.61 75.9798 11.642 76.1238 11.682L75.8298 12.582C75.6978 12.546 75.5778 12.52 75.4698 12.504C75.3618 12.484 75.2378 12.474 75.0978 12.474C74.6138 12.474 74.1978 12.646 73.8498 12.99C73.5018 13.334 73.2238 13.854 73.0158 14.55V17.226H74.2998V18H71.0238ZM75.1518 13.818V12.444L75.2538 11.682H76.1238L75.9798 13.818H75.1518ZM79.1671 11.682V16.158C79.1671 16.574 79.2531 16.874 79.4251 17.058C79.5971 17.242 79.8651 17.334 80.2291 17.334C80.5771 17.334 80.9051 17.236 81.2131 17.04C81.5251 16.84 81.7671 16.604 81.9391 16.332V11.682H82.9471V18H82.0891L82.0051 17.148C81.7571 17.468 81.4511 17.714 81.0871 17.886C80.7231 18.054 80.3551 18.138 79.9831 18.138C79.3711 18.138 78.9131 17.976 78.6091 17.652C78.3091 17.324 78.1591 16.866 78.1591 16.278V11.682H79.1671ZM88.2104 17.268C88.5264 17.268 88.8204 17.216 89.0924 17.112C89.3684 17.008 89.6224 16.876 89.8544 16.716L90.3464 17.376C90.0704 17.612 89.7384 17.798 89.3504 17.934C88.9624 18.07 88.5824 18.138 88.2104 18.138C87.5824 18.138 87.0464 18.004 86.6024 17.736C86.1624 17.464 85.8264 17.084 85.5944 16.596C85.3624 16.104 85.2464 15.528 85.2464 14.868C85.2464 14.236 85.3624 13.67 85.5944 13.17C85.8304 12.666 86.1684 12.27 86.6084 11.982C87.0524 11.694 87.5904 11.55 88.2224 11.55C88.6264 11.55 89.0044 11.612 89.3564 11.736C89.7124 11.856 90.0384 12.038 90.3344 12.282L89.8424 12.954C89.5744 12.766 89.3044 12.626 89.0324 12.534C88.7644 12.438 88.4904 12.39 88.2104 12.39C87.6664 12.39 87.2184 12.594 86.8664 13.002C86.5144 13.41 86.3384 14.032 86.3384 14.868C86.3384 15.428 86.4184 15.886 86.5784 16.242C86.7424 16.594 86.9644 16.854 87.2444 17.022C87.5284 17.186 87.8504 17.268 88.2104 17.268ZM97.5658 17.682C97.3498 17.826 97.0878 17.938 96.7798 18.018C96.4718 18.098 96.1698 18.138 95.8738 18.138C95.1938 18.138 94.6698 17.96 94.3018 17.604C93.9338 17.248 93.7498 16.79 93.7498 16.23V12.462H92.2978V11.682H93.7498V10.248L94.7578 10.128V11.682H96.9418L96.8218 12.462H94.7578V16.218C94.7578 16.57 94.8498 16.838 95.0338 17.022C95.2218 17.206 95.5318 17.298 95.9638 17.298C96.1998 17.298 96.4178 17.27 96.6178 17.214C96.8178 17.158 97.0038 17.086 97.1758 16.998L97.5658 17.682Z" fill="#6F42C1" />
      <path d="M101.089 13.8C101.089 14.424 101.143 14.984 101.251 15.48C101.359 15.972 101.519 16.424 101.731 16.836C101.943 17.244 102.209 17.632 102.529 18C102.853 18.372 103.229 18.748 103.657 19.128L103.129 19.68C102.481 19.148 101.925 18.604 101.461 18.048C101.001 17.492 100.647 16.872 100.399 16.188C100.155 15.504 100.033 14.708 100.033 13.8C100.033 12.888 100.155 12.09 100.399 11.406C100.647 10.722 101.001 10.102 101.461 9.546C101.925 8.99 102.481 8.448 103.129 7.92L103.657 8.472C103.225 8.856 102.847 9.234 102.523 9.606C102.203 9.974 101.937 10.362 101.725 10.77C101.513 11.174 101.353 11.624 101.245 12.12C101.141 12.612 101.089 13.172 101.089 13.8Z" fill="#005CC5" />
      <path d="M109.088 17.304C109.572 17.304 109.954 17.214 110.234 17.034C110.518 16.85 110.66 16.606 110.66 16.302C110.66 16.11 110.624 15.944 110.552 15.804C110.484 15.664 110.342 15.538 110.126 15.426C109.91 15.314 109.578 15.202 109.13 15.09C108.694 14.982 108.314 14.858 107.99 14.718C107.67 14.574 107.42 14.388 107.24 14.16C107.064 13.932 106.976 13.636 106.976 13.272C106.976 12.916 107.076 12.61 107.276 12.354C107.48 12.094 107.762 11.896 108.122 11.76C108.482 11.62 108.9 11.55 109.376 11.55C109.884 11.55 110.326 11.618 110.702 11.754C111.082 11.886 111.404 12.05 111.668 12.246L111.224 12.93C110.984 12.766 110.72 12.632 110.432 12.528C110.144 12.42 109.796 12.366 109.388 12.366C108.892 12.366 108.54 12.444 108.332 12.6C108.124 12.752 108.02 12.95 108.02 13.194C108.02 13.378 108.07 13.532 108.17 13.656C108.274 13.776 108.448 13.886 108.692 13.986C108.936 14.082 109.272 14.188 109.7 14.304C110.112 14.412 110.47 14.542 110.774 14.694C111.082 14.846 111.322 15.046 111.494 15.294C111.666 15.542 111.752 15.862 111.752 16.254C111.752 16.702 111.624 17.066 111.368 17.346C111.112 17.622 110.78 17.824 110.372 17.952C109.968 18.076 109.54 18.138 109.088 18.138C108.516 18.138 108.028 18.056 107.624 17.892C107.224 17.724 106.888 17.522 106.616 17.286L107.192 16.62C107.44 16.824 107.724 16.99 108.044 17.118C108.368 17.242 108.716 17.304 109.088 17.304ZM114.928 15.198C114.948 15.686 115.042 16.086 115.21 16.398C115.378 16.706 115.6 16.934 115.876 17.082C116.152 17.226 116.452 17.298 116.776 17.298C117.1 17.298 117.392 17.25 117.652 17.154C117.916 17.058 118.186 16.916 118.462 16.728L118.936 17.394C118.64 17.626 118.302 17.808 117.922 17.94C117.546 18.072 117.16 18.138 116.764 18.138C116.152 18.138 115.63 18 115.198 17.724C114.766 17.448 114.436 17.064 114.208 16.572C113.984 16.076 113.872 15.502 113.872 14.85C113.872 14.21 113.986 13.642 114.214 13.146C114.442 12.65 114.762 12.26 115.174 11.976C115.586 11.692 116.072 11.55 116.632 11.55C117.164 11.55 117.622 11.676 118.006 11.928C118.39 12.176 118.684 12.532 118.888 12.996C119.096 13.456 119.2 14.006 119.2 14.646C119.2 14.754 119.198 14.856 119.194 14.952C119.19 15.044 119.184 15.126 119.176 15.198H114.928ZM116.644 12.378C116.176 12.378 115.784 12.544 115.468 12.876C115.156 13.208 114.978 13.722 114.934 14.418H118.228C118.216 13.742 118.068 13.234 117.784 12.894C117.5 12.55 117.12 12.378 116.644 12.378ZM123.791 9.138V16.44C123.791 16.752 123.887 16.974 124.079 17.106C124.275 17.234 124.527 17.298 124.835 17.298C125.027 17.298 125.209 17.278 125.381 17.238C125.553 17.198 125.725 17.144 125.897 17.076L126.167 17.814C125.995 17.898 125.781 17.972 125.525 18.036C125.273 18.104 124.987 18.138 124.667 18.138C124.107 18.138 123.653 17.984 123.305 17.676C122.957 17.364 122.783 16.934 122.783 16.386V9.936H120.845V9.138H123.791ZM132.258 9.012C132.598 9.012 132.906 9.042 133.182 9.102C133.458 9.162 133.72 9.246 133.968 9.354L133.644 10.104C133.44 10.016 133.224 9.95 132.996 9.906C132.768 9.862 132.532 9.84 132.288 9.84C131.848 9.84 131.516 9.926 131.292 10.098C131.072 10.27 130.962 10.534 130.962 10.89V12.174H133.104L132.996 12.966H130.962V18H129.954V12.966H128.448V12.174H129.954V10.914C129.954 10.522 130.054 10.184 130.254 9.9C130.458 9.616 130.734 9.398 131.082 9.246C131.43 9.09 131.822 9.012 132.258 9.012ZM144.333 16.2C144.333 15.94 144.425 15.714 144.609 15.522C144.797 15.33 145.027 15.234 145.299 15.234C145.579 15.234 145.811 15.33 145.995 15.522C146.183 15.714 146.277 15.94 146.277 16.2C146.277 16.472 146.183 16.704 145.995 16.896C145.811 17.084 145.579 17.178 145.299 17.178C145.027 17.178 144.797 17.084 144.609 16.896C144.425 16.704 144.333 16.472 144.333 16.2ZM144.333 11.874C144.333 11.69 144.375 11.526 144.459 11.382C144.543 11.238 144.659 11.124 144.807 11.04C144.955 10.952 145.119 10.908 145.299 10.908C145.579 10.908 145.811 11.002 145.995 11.19C146.183 11.378 146.277 11.606 146.277 11.874C146.277 12.138 146.183 12.368 145.995 12.564C145.811 12.756 145.579 12.852 145.299 12.852C145.027 12.852 144.797 12.756 144.609 12.564C144.425 12.368 144.333 12.138 144.333 11.874Z" fill="var(--vscode-editor-foreground, #24292E)" />
      <path d="M139.166 13.8C139.166 13.172 139.112 12.612 139.004 12.12C138.9 11.624 138.742 11.174 138.53 10.77C138.318 10.362 138.05 9.974 137.726 9.606C137.406 9.234 137.03 8.856 136.598 8.472L137.126 7.92C137.778 8.448 138.334 8.99 138.794 9.546C139.254 10.102 139.606 10.722 139.85 11.406C140.098 12.09 140.222 12.888 140.222 13.8C140.222 14.708 140.098 15.504 139.85 16.188C139.606 16.872 139.254 17.492 138.794 18.048C138.334 18.604 137.778 19.148 137.126 19.68L136.598 19.128C137.026 18.748 137.4 18.372 137.72 18C138.044 17.632 138.312 17.244 138.524 16.836C138.736 16.424 138.896 15.972 139.004 15.48C139.112 14.984 139.166 14.424 139.166 13.8Z" fill="#005CC7" />
    </g>
    <g>
      <path d="M36.892 48.642L36.592 51.018H38.32V52.266H36.424L36.196 54H34.63L34.858 52.266H33.718L33.49 54H31.924L32.14 52.266H31.426V51.018H32.308L32.62 48.642H31.87V47.388H32.788L33.004 45.684H34.582L34.348 47.388H35.494L35.722 45.684H37.288L37.06 47.388H38.32V48.642H36.892ZM33.874 51.018H35.014L35.326 48.642H34.186L33.874 51.018ZM44.0873 48.642L43.7873 51.018H44.5373V52.266H43.6193L43.3913 54H41.8253L42.0533 52.266H40.9133L40.6853 54H39.1193L39.3353 52.266H38.0753V51.018H39.5033L39.8153 48.642H38.0753V47.388H39.9833L40.1993 45.684H41.7773L41.5433 47.388H42.6893L42.9173 45.684H44.4833L44.2553 47.388H44.9813V48.642H44.0873ZM41.0693 51.018H42.2093L42.5213 48.642H41.3813L41.0693 51.018ZM59.1079 45.684L59.5759 54H57.8599L57.7579 50.442C57.7499 50.11 57.7459 49.814 57.7459 49.554C57.7499 49.294 57.7559 49.05 57.7639 48.822C57.7719 48.59 57.7839 48.358 57.7999 48.126C57.8199 47.89 57.8399 47.634 57.8599 47.358L56.9239 52.584H55.4359L54.4279 47.358C54.4519 47.622 54.4719 47.872 54.4879 48.108C54.5079 48.34 54.5219 48.574 54.5299 48.81C54.5379 49.046 54.5439 49.3 54.5479 49.572C54.5519 49.84 54.5499 50.14 54.5419 50.472L54.4819 54H52.7959L53.2639 45.684H55.2859L56.2099 51.06L57.0859 45.684H59.1079ZM66.6453 47.628L64.5213 54C64.3333 54.564 64.0833 55.036 63.7713 55.416C63.4633 55.8 63.0773 56.096 62.6133 56.304C62.1533 56.512 61.5993 56.634 60.9513 56.67L60.7353 55.332C61.1553 55.28 61.4933 55.202 61.7493 55.098C62.0093 54.994 62.2173 54.852 62.3733 54.672C62.5333 54.496 62.6713 54.272 62.7873 54H62.1393L60.1173 47.628H62.1213L63.3573 52.788L64.7013 47.628H66.6453ZM79.0679 44.898C79.5319 44.898 79.9419 44.936 80.2979 45.012C80.6539 45.084 80.9719 45.18 81.2519 45.3L80.7299 46.536C80.5099 46.452 80.2839 46.392 80.0519 46.356C79.8199 46.316 79.5899 46.296 79.3619 46.296C78.9859 46.296 78.7159 46.364 78.5519 46.5C78.3919 46.636 78.3119 46.862 78.3119 47.178V48.03H80.3879L80.1779 49.344H78.3119V54H76.4279V49.344H75.0899V48.03H76.4279V47.106C76.4279 46.686 76.5279 46.31 76.7279 45.978C76.9279 45.646 77.2239 45.384 77.6159 45.192C78.0079 44.996 78.4919 44.898 79.0679 44.898ZM86.1012 48.03V52.704H87.7212V54H82.3992V52.704H84.2052V49.344H82.4592V48.03H86.1012ZM84.9552 44.592C85.2832 44.592 85.5512 44.694 85.7592 44.898C85.9672 45.102 86.0712 45.356 86.0712 45.66C86.0712 45.964 85.9672 46.22 85.7592 46.428C85.5512 46.632 85.2832 46.734 84.9552 46.734C84.6232 46.734 84.3512 46.632 84.1392 46.428C83.9312 46.22 83.8272 45.964 83.8272 45.66C83.8272 45.356 83.9312 45.102 84.1392 44.898C84.3512 44.694 84.6232 44.592 84.9552 44.592ZM89.4625 54V52.728H90.3025V48.888H89.4625V47.628H91.7485L92.0965 49.062C92.3245 48.514 92.6145 48.106 92.9665 47.838C93.3225 47.57 93.7565 47.436 94.2685 47.436C94.4845 47.436 94.6765 47.454 94.8445 47.49C95.0125 47.522 95.1705 47.568 95.3185 47.628L94.7425 49.194C94.6265 49.162 94.5105 49.138 94.3945 49.122C94.2785 49.106 94.1505 49.098 94.0105 49.098C93.5945 49.098 93.2285 49.268 92.9125 49.608C92.6005 49.948 92.3625 50.38 92.1985 50.904V52.728H93.4585V54H89.4625ZM93.7765 50.292V48.432L94.0585 47.628H95.3185L94.9645 50.292H93.7765ZM99.1538 52.848C99.4698 52.848 99.7238 52.798 99.9158 52.698C100.112 52.598 100.21 52.448 100.21 52.248C100.21 52.112 100.172 51.998 100.096 51.906C100.02 51.814 99.8738 51.726 99.6578 51.642C99.4418 51.558 99.1218 51.458 98.6978 51.342C98.3098 51.238 97.9658 51.106 97.6658 50.946C97.3698 50.786 97.1378 50.58 96.9698 50.328C96.8058 50.076 96.7238 49.762 96.7238 49.386C96.7238 49.006 96.8298 48.668 97.0418 48.372C97.2538 48.076 97.5658 47.844 97.9778 47.676C98.3898 47.504 98.8938 47.418 99.4898 47.418C100.058 47.418 100.552 47.492 100.972 47.64C101.396 47.784 101.762 47.968 102.07 48.192L101.314 49.308C101.05 49.144 100.766 49.014 100.462 48.918C100.158 48.818 99.8518 48.768 99.5438 48.768C99.2358 48.768 99.0058 48.81 98.8538 48.894C98.7058 48.974 98.6318 49.096 98.6318 49.26C98.6318 49.368 98.6698 49.462 98.7458 49.542C98.8258 49.618 98.9738 49.698 99.1898 49.782C99.4058 49.862 99.7218 49.962 100.138 50.082C100.55 50.198 100.908 50.332 101.212 50.484C101.52 50.636 101.758 50.84 101.926 51.096C102.094 51.348 102.178 51.682 102.178 52.098C102.178 52.562 102.04 52.952 101.764 53.268C101.488 53.58 101.122 53.814 100.666 53.97C100.21 54.126 99.7098 54.204 99.1658 54.204C98.5498 54.204 98.0058 54.116 97.5338 53.94C97.0618 53.764 96.6598 53.532 96.3278 53.244L97.2818 52.176C97.5298 52.368 97.8098 52.528 98.1218 52.656C98.4378 52.784 98.7818 52.848 99.1538 52.848ZM109.529 53.628C109.281 53.788 108.981 53.924 108.629 54.036C108.277 54.148 107.881 54.204 107.441 54.204C106.609 54.204 105.991 53.992 105.587 53.568C105.183 53.14 104.981 52.56 104.981 51.828V48.936H103.643V47.628H104.981V46.248L106.877 46.02V47.628H108.929L108.743 48.936H106.877V51.828C106.877 52.144 106.949 52.37 107.093 52.506C107.237 52.642 107.467 52.71 107.783 52.71C108.007 52.71 108.211 52.684 108.395 52.632C108.583 52.576 108.751 52.506 108.899 52.422L109.529 53.628ZM123.866 45.684L124.334 54H122.618L122.516 50.442C122.508 50.11 122.504 49.814 122.504 49.554C122.508 49.294 122.514 49.05 122.522 48.822C122.53 48.59 122.542 48.358 122.558 48.126C122.578 47.89 122.598 47.634 122.618 47.358L121.682 52.584H120.194L119.186 47.358C119.21 47.622 119.23 47.872 119.246 48.108C119.266 48.34 119.28 48.574 119.288 48.81C119.296 49.046 119.302 49.3 119.306 49.572C119.31 49.84 119.308 50.14 119.3 50.472L119.24 54H117.554L118.022 45.684H120.044L120.968 51.06L121.844 45.684H123.866ZM130.743 52.164C130.743 52.404 130.775 52.578 130.839 52.686C130.907 52.794 131.015 52.876 131.163 52.932L130.773 54.18C130.397 54.144 130.079 54.062 129.819 53.934C129.563 53.802 129.361 53.604 129.213 53.34C128.969 53.632 128.657 53.85 128.277 53.994C127.897 54.134 127.509 54.204 127.113 54.204C126.457 54.204 125.933 54.018 125.541 53.646C125.153 53.27 124.959 52.788 124.959 52.2C124.959 51.508 125.229 50.974 125.769 50.598C126.313 50.222 127.077 50.034 128.061 50.034H128.919V49.794C128.919 49.462 128.811 49.216 128.595 49.056C128.383 48.896 128.071 48.816 127.659 48.816C127.455 48.816 127.193 48.846 126.873 48.906C126.553 48.962 126.233 49.044 125.913 49.152L125.475 47.892C125.887 47.736 126.315 47.618 126.759 47.538C127.207 47.458 127.607 47.418 127.959 47.418C128.907 47.418 129.607 47.612 130.059 48C130.515 48.384 130.743 48.94 130.743 49.668V52.164ZM127.767 52.848C127.971 52.848 128.185 52.788 128.409 52.668C128.633 52.544 128.803 52.37 128.919 52.146V51.114H128.451C127.923 51.114 127.535 51.196 127.287 51.36C127.039 51.52 126.915 51.756 126.915 52.068C126.915 52.312 126.989 52.504 127.137 52.644C127.289 52.78 127.499 52.848 127.767 52.848ZM132.574 54V47.628H134.23L134.362 48.366C134.646 48.046 134.946 47.808 135.262 47.652C135.578 47.496 135.938 47.418 136.342 47.418C136.886 47.418 137.314 47.584 137.626 47.916C137.938 48.248 138.094 48.716 138.094 49.32V54H136.198V49.866C136.198 49.606 136.18 49.4 136.144 49.248C136.108 49.092 136.044 48.982 135.952 48.918C135.864 48.85 135.742 48.816 135.586 48.816C135.454 48.816 135.324 48.846 135.196 48.906C135.072 48.962 134.95 49.044 134.83 49.152C134.71 49.26 134.59 49.39 134.47 49.542V54H132.574ZM143.664 47.628V52.704H145.284V54H139.962V52.704H141.768V48.924H140.022V47.628H143.664ZM142.518 44.292C142.846 44.292 143.114 44.394 143.322 44.598C143.53 44.802 143.634 45.056 143.634 45.36C143.634 45.664 143.53 45.92 143.322 46.128C143.114 46.332 142.846 46.434 142.518 46.434C142.186 46.434 141.914 46.332 141.702 46.128C141.494 45.92 141.39 45.664 141.39 45.36C141.39 45.056 141.494 44.802 141.702 44.598C141.914 44.394 142.186 44.292 142.518 44.292ZM151.675 47.418C151.979 47.418 152.229 47.482 152.425 47.61C152.621 47.738 152.767 47.94 152.863 48.216C152.959 48.488 153.007 48.844 153.007 49.284V54H151.381V49.5C151.381 49.276 151.359 49.118 151.315 49.026C151.275 48.934 151.191 48.888 151.063 48.888C150.963 48.888 150.859 48.918 150.751 48.978C150.647 49.034 150.531 49.142 150.403 49.302V54H149.071V49.5C149.071 49.276 149.049 49.118 149.005 49.026C148.965 48.934 148.881 48.888 148.753 48.888C148.653 48.888 148.549 48.918 148.441 48.978C148.337 49.034 148.221 49.142 148.093 49.302V54H146.443V47.628H147.835L147.961 48.246C148.161 47.974 148.363 47.768 148.567 47.628C148.771 47.488 149.013 47.418 149.293 47.418C149.533 47.418 149.737 47.48 149.905 47.604C150.077 47.724 150.199 47.914 150.271 48.174C150.463 47.95 150.675 47.768 150.907 47.628C151.139 47.488 151.395 47.418 151.675 47.418ZM164.812 45.474C165.408 45.474 165.914 45.554 166.33 45.714C166.75 45.87 167.134 46.092 167.482 46.38L166.516 47.544C166.288 47.356 166.036 47.208 165.76 47.1C165.484 46.988 165.184 46.932 164.86 46.932C164.512 46.932 164.194 47.032 163.906 47.232C163.618 47.428 163.388 47.74 163.216 48.168C163.044 48.592 162.958 49.144 162.958 49.824C162.958 50.492 163.04 51.038 163.204 51.462C163.372 51.882 163.602 52.192 163.894 52.392C164.186 52.588 164.52 52.686 164.896 52.686C165.312 52.686 165.658 52.608 165.934 52.452C166.21 52.296 166.464 52.126 166.696 51.942L167.59 53.082C167.278 53.39 166.894 53.654 166.438 53.874C165.982 54.094 165.432 54.204 164.788 54.204C164.036 54.204 163.368 54.038 162.784 53.706C162.204 53.37 161.748 52.878 161.416 52.23C161.088 51.578 160.924 50.776 160.924 49.824C160.924 48.896 161.094 48.108 161.434 47.46C161.778 46.812 162.244 46.32 162.832 45.984C163.42 45.644 164.08 45.474 164.812 45.474ZM170.195 51.366C170.239 51.714 170.329 51.996 170.465 52.212C170.605 52.424 170.783 52.58 170.999 52.68C171.215 52.776 171.457 52.824 171.725 52.824C172.017 52.824 172.299 52.776 172.571 52.68C172.843 52.584 173.105 52.456 173.357 52.296L174.119 53.328C173.819 53.584 173.455 53.794 173.027 53.958C172.603 54.122 172.119 54.204 171.575 54.204C170.847 54.204 170.237 54.06 169.745 53.772C169.253 53.48 168.883 53.08 168.635 52.572C168.387 52.064 168.263 51.48 168.263 50.82C168.263 50.192 168.383 49.622 168.623 49.11C168.863 48.594 169.213 48.184 169.673 47.88C170.137 47.572 170.703 47.418 171.371 47.418C171.979 47.418 172.505 47.548 172.949 47.808C173.397 48.068 173.743 48.442 173.987 48.93C174.235 49.418 174.359 50.004 174.359 50.688C174.359 50.796 174.355 50.912 174.347 51.036C174.343 51.16 174.335 51.27 174.323 51.366H170.195ZM171.371 48.69C171.031 48.69 170.757 48.812 170.549 49.056C170.341 49.3 170.215 49.69 170.171 50.226H172.511C172.507 49.762 172.417 49.39 172.241 49.11C172.065 48.83 171.775 48.69 171.371 48.69ZM179.07 45.096V51.996C179.07 52.252 179.142 52.436 179.286 52.548C179.434 52.656 179.636 52.71 179.892 52.71C180.056 52.71 180.214 52.692 180.366 52.656C180.518 52.616 180.66 52.57 180.792 52.518L181.248 53.784C181.032 53.896 180.772 53.994 180.468 54.078C180.164 54.162 179.81 54.204 179.406 54.204C178.638 54.204 178.074 53.984 177.714 53.544C177.354 53.1 177.174 52.506 177.174 51.762V46.392H175.296V45.096H179.07ZM186.266 45.096V51.996C186.266 52.252 186.338 52.436 186.482 52.548C186.63 52.656 186.832 52.71 187.088 52.71C187.252 52.71 187.41 52.692 187.562 52.656C187.714 52.616 187.856 52.57 187.988 52.518L188.444 53.784C188.228 53.896 187.968 53.994 187.664 54.078C187.36 54.162 187.006 54.204 186.602 54.204C185.834 54.204 185.27 53.984 184.91 53.544C184.55 53.1 184.37 52.506 184.37 51.762V46.392H182.492V45.096H186.266Z" fill="var(--vscode-activityBarBadge-background, #2B7BD6)" />
      <path d="M35.062 69.268C35.378 69.268 35.672 69.216 35.944 69.112C36.22 69.008 36.474 68.876 36.706 68.716L37.198 69.376C36.922 69.612 36.59 69.798 36.202 69.934C35.814 70.07 35.434 70.138 35.062 70.138C34.434 70.138 33.898 70.004 33.454 69.736C33.014 69.464 32.678 69.084 32.446 68.596C32.214 68.104 32.098 67.528 32.098 66.868C32.098 66.236 32.214 65.67 32.446 65.17C32.682 64.666 33.02 64.27 33.46 63.982C33.904 63.694 34.442 63.55 35.074 63.55C35.478 63.55 35.856 63.612 36.208 63.736C36.564 63.856 36.89 64.038 37.186 64.282L36.694 64.954C36.426 64.766 36.156 64.626 35.884 64.534C35.616 64.438 35.342 64.39 35.062 64.39C34.518 64.39 34.07 64.594 33.718 65.002C33.366 65.41 33.19 66.032 33.19 66.868C33.19 67.428 33.27 67.886 33.43 68.242C33.594 68.594 33.816 68.854 34.096 69.022C34.38 69.186 34.702 69.268 35.062 69.268ZM42.5993 63.682V69.202H44.3813V70H39.6413V69.202H41.5913V64.48H39.7013V63.682H42.5993ZM41.7953 60.724C42.0193 60.724 42.1973 60.792 42.3293 60.928C42.4653 61.064 42.5333 61.23 42.5333 61.426C42.5333 61.63 42.4653 61.802 42.3293 61.942C42.1973 62.078 42.0193 62.146 41.7953 62.146C41.5833 62.146 41.4093 62.078 41.2733 61.942C41.1373 61.802 41.0693 61.63 41.0693 61.426C41.0693 61.23 41.1373 61.064 41.2733 60.928C41.4093 60.792 41.5833 60.724 41.7953 60.724ZM46.6566 70V69.226H47.6406V64.456H46.6566V63.682H48.4086L48.5946 65.176C48.8386 64.656 49.1346 64.254 49.4826 63.97C49.8306 63.686 50.2906 63.544 50.8626 63.544C51.0386 63.544 51.1946 63.558 51.3306 63.586C51.4706 63.61 51.6126 63.642 51.7566 63.682L51.4626 64.582C51.3306 64.546 51.2106 64.52 51.1026 64.504C50.9946 64.484 50.8706 64.474 50.7306 64.474C50.2466 64.474 49.8306 64.646 49.4826 64.99C49.1346 65.334 48.8566 65.854 48.6486 66.55V69.226H49.9326V70H46.6566ZM50.7846 65.818V64.444L50.8866 63.682H51.7566L51.6126 65.818H50.7846ZM56.6479 69.268C56.9639 69.268 57.2579 69.216 57.5299 69.112C57.8059 69.008 58.0599 68.876 58.2919 68.716L58.7839 69.376C58.5079 69.612 58.1759 69.798 57.7879 69.934C57.3999 70.07 57.0199 70.138 56.6479 70.138C56.0199 70.138 55.4839 70.004 55.0399 69.736C54.5999 69.464 54.2639 69.084 54.0319 68.596C53.7999 68.104 53.6839 67.528 53.6839 66.868C53.6839 66.236 53.7999 65.67 54.0319 65.17C54.2679 64.666 54.6059 64.27 55.0459 63.982C55.4899 63.694 56.0279 63.55 56.6599 63.55C57.0639 63.55 57.4419 63.612 57.7939 63.736C58.1499 63.856 58.4759 64.038 58.7719 64.282L58.2799 64.954C58.0119 64.766 57.7419 64.626 57.4699 64.534C57.2019 64.438 56.9279 64.39 56.6479 64.39C56.1039 64.39 55.6559 64.594 55.3039 65.002C54.9519 65.41 54.7759 66.032 54.7759 66.868C54.7759 67.428 54.8559 67.886 55.0159 68.242C55.1799 68.594 55.4019 68.854 55.6819 69.022C55.9659 69.186 56.2879 69.268 56.6479 69.268ZM63.4473 61.138V68.44C63.4473 68.752 63.5433 68.974 63.7353 69.106C63.9313 69.234 64.1833 69.298 64.4913 69.298C64.6833 69.298 64.8653 69.278 65.0373 69.238C65.2093 69.198 65.3813 69.144 65.5533 69.076L65.8233 69.814C65.6513 69.898 65.4373 69.972 65.1813 70.036C64.9293 70.104 64.6433 70.138 64.3233 70.138C63.7633 70.138 63.3093 69.984 62.9613 69.676C62.6133 69.364 62.4393 68.934 62.4393 68.386V61.936H60.5013V61.138H63.4473ZM68.9746 67.198C68.9946 67.686 69.0886 68.086 69.2566 68.398C69.4246 68.706 69.6466 68.934 69.9226 69.082C70.1986 69.226 70.4986 69.298 70.8226 69.298C71.1466 69.298 71.4386 69.25 71.6986 69.154C71.9626 69.058 72.2326 68.916 72.5086 68.728L72.9826 69.394C72.6866 69.626 72.3486 69.808 71.9686 69.94C71.5926 70.072 71.2066 70.138 70.8106 70.138C70.1986 70.138 69.6766 70 69.2446 69.724C68.8126 69.448 68.4826 69.064 68.2546 68.572C68.0306 68.076 67.9186 67.502 67.9186 66.85C67.9186 66.21 68.0326 65.642 68.2606 65.146C68.4886 64.65 68.8086 64.26 69.2206 63.976C69.6326 63.692 70.1186 63.55 70.6786 63.55C71.2106 63.55 71.6686 63.676 72.0526 63.928C72.4366 64.176 72.7306 64.532 72.9346 64.996C73.1426 65.456 73.2466 66.006 73.2466 66.646C73.2466 66.754 73.2446 66.856 73.2406 66.952C73.2366 67.044 73.2306 67.126 73.2226 67.198H68.9746ZM70.6906 64.378C70.2226 64.378 69.8306 64.544 69.5146 64.876C69.2026 65.208 69.0246 65.722 68.9806 66.418H72.2746C72.2626 65.742 72.1146 65.234 71.8306 64.894C71.5466 64.55 71.1666 64.378 70.6906 64.378ZM35.062 85.268C35.378 85.268 35.672 85.216 35.944 85.112C36.22 85.008 36.474 84.876 36.706 84.716L37.198 85.376C36.922 85.612 36.59 85.798 36.202 85.934C35.814 86.07 35.434 86.138 35.062 86.138C34.434 86.138 33.898 86.004 33.454 85.736C33.014 85.464 32.678 85.084 32.446 84.596C32.214 84.104 32.098 83.528 32.098 82.868C32.098 82.236 32.214 81.67 32.446 81.17C32.682 80.666 33.02 80.27 33.46 79.982C33.904 79.694 34.442 79.55 35.074 79.55C35.478 79.55 35.856 79.612 36.208 79.736C36.564 79.856 36.89 80.038 37.186 80.282L36.694 80.954C36.426 80.766 36.156 80.626 35.884 80.534C35.616 80.438 35.342 80.39 35.062 80.39C34.518 80.39 34.07 80.594 33.718 81.002C33.366 81.41 33.19 82.032 33.19 82.868C33.19 83.428 33.27 83.886 33.43 84.242C33.594 84.594 33.816 84.854 34.096 85.022C34.38 85.186 34.702 85.268 35.062 85.268ZM42.5993 79.682V85.202H44.3813V86H39.6413V85.202H41.5913V80.48H39.7013V79.682H42.5993ZM41.7953 76.724C42.0193 76.724 42.1973 76.792 42.3293 76.928C42.4653 77.064 42.5333 77.23 42.5333 77.426C42.5333 77.63 42.4653 77.802 42.3293 77.942C42.1973 78.078 42.0193 78.146 41.7953 78.146C41.5833 78.146 41.4093 78.078 41.2733 77.942C41.1373 77.802 41.0693 77.63 41.0693 77.426C41.0693 77.23 41.1373 77.064 41.2733 76.928C41.4093 76.792 41.5833 76.724 41.7953 76.724ZM46.6566 86V85.226H47.6406V80.456H46.6566V79.682H48.4086L48.5946 81.176C48.8386 80.656 49.1346 80.254 49.4826 79.97C49.8306 79.686 50.2906 79.544 50.8626 79.544C51.0386 79.544 51.1946 79.558 51.3306 79.586C51.4706 79.61 51.6126 79.642 51.7566 79.682L51.4626 80.582C51.3306 80.546 51.2106 80.52 51.1026 80.504C50.9946 80.484 50.8706 80.474 50.7306 80.474C50.2466 80.474 49.8306 80.646 49.4826 80.99C49.1346 81.334 48.8566 81.854 48.6486 82.55V85.226H49.9326V86H46.6566ZM50.7846 81.818V80.444L50.8866 79.682H51.7566L51.6126 81.818H50.7846ZM56.6479 85.268C56.9639 85.268 57.2579 85.216 57.5299 85.112C57.8059 85.008 58.0599 84.876 58.2919 84.716L58.7839 85.376C58.5079 85.612 58.1759 85.798 57.7879 85.934C57.3999 86.07 57.0199 86.138 56.6479 86.138C56.0199 86.138 55.4839 86.004 55.0399 85.736C54.5999 85.464 54.2639 85.084 54.0319 84.596C53.7999 84.104 53.6839 83.528 53.6839 82.868C53.6839 82.236 53.7999 81.67 54.0319 81.17C54.2679 80.666 54.6059 80.27 55.0459 79.982C55.4899 79.694 56.0279 79.55 56.6599 79.55C57.0639 79.55 57.4419 79.612 57.7939 79.736C58.1499 79.856 58.4759 80.038 58.7719 80.282L58.2799 80.954C58.0119 80.766 57.7419 80.626 57.4699 80.534C57.2019 80.438 56.9279 80.39 56.6479 80.39C56.1039 80.39 55.6559 80.594 55.3039 81.002C54.9519 81.41 54.7759 82.032 54.7759 82.868C54.7759 83.428 54.8559 83.886 55.0159 84.242C55.1799 84.594 55.4019 84.854 55.6819 85.022C55.9659 85.186 56.2879 85.268 56.6479 85.268ZM63.4473 77.138V84.44C63.4473 84.752 63.5433 84.974 63.7353 85.106C63.9313 85.234 64.1833 85.298 64.4913 85.298C64.6833 85.298 64.8653 85.278 65.0373 85.238C65.2093 85.198 65.3813 85.144 65.5533 85.076L65.8233 85.814C65.6513 85.898 65.4373 85.972 65.1813 86.036C64.9293 86.104 64.6433 86.138 64.3233 86.138C63.7633 86.138 63.3093 85.984 62.9613 85.676C62.6133 85.364 62.4393 84.934 62.4393 84.386V77.936H60.5013V77.138H63.4473ZM68.9746 83.198C68.9946 83.686 69.0886 84.086 69.2566 84.398C69.4246 84.706 69.6466 84.934 69.9226 85.082C70.1986 85.226 70.4986 85.298 70.8226 85.298C71.1466 85.298 71.4386 85.25 71.6986 85.154C71.9626 85.058 72.2326 84.916 72.5086 84.728L72.9826 85.394C72.6866 85.626 72.3486 85.808 71.9686 85.94C71.5926 86.072 71.2066 86.138 70.8106 86.138C70.1986 86.138 69.6766 86 69.2446 85.724C68.8126 85.448 68.4826 85.064 68.2546 84.572C68.0306 84.076 67.9186 83.502 67.9186 82.85C67.9186 82.21 68.0326 81.642 68.2606 81.146C68.4886 80.65 68.8086 80.26 69.2206 79.976C69.6326 79.692 70.1186 79.55 70.6786 79.55C71.2106 79.55 71.6686 79.676 72.0526 79.928C72.4366 80.176 72.7306 80.532 72.9346 80.996C73.1426 81.456 73.2466 82.006 73.2466 82.646C73.2466 82.754 73.2446 82.856 73.2406 82.952C73.2366 83.044 73.2306 83.126 73.2226 83.198H68.9746ZM70.6906 80.378C70.2226 80.378 69.8306 80.544 69.5146 80.876C69.2026 81.208 69.0246 81.722 68.9806 82.418H72.2746C72.2626 81.742 72.1146 81.234 71.8306 80.894C71.5466 80.55 71.1666 80.378 70.6906 80.378ZM76.7099 85.076C76.7099 84.88 76.7559 84.704 76.8479 84.548C76.9399 84.388 77.0639 84.262 77.2199 84.17C77.3799 84.074 77.5599 84.026 77.7599 84.026C77.9639 84.026 78.1459 84.074 78.3059 84.17C78.4659 84.262 78.5919 84.388 78.6839 84.548C78.7759 84.704 78.8219 84.88 78.8219 85.076C78.8219 85.272 78.7759 85.452 78.6839 85.616C78.5919 85.776 78.4659 85.904 78.3059 86C78.1459 86.092 77.9639 86.138 77.7599 86.138C77.5599 86.138 77.3799 86.092 77.2199 86C77.0639 85.904 76.9399 85.776 76.8479 85.616C76.7559 85.452 76.7099 85.272 76.7099 85.076ZM207.288 84.026C207.564 84.026 207.794 84.12 207.978 84.308C208.166 84.496 208.26 84.722 208.26 84.986C208.26 85.13 208.242 85.276 208.206 85.424C208.174 85.572 208.114 85.74 208.026 85.928L207.054 88.154H206.142L206.717 85.784C206.598 85.696 206.502 85.582 206.43 85.442C206.362 85.298 206.328 85.146 206.328 84.986C206.328 84.718 206.42 84.492 206.604 84.308C206.788 84.12 207.016 84.026 207.288 84.026ZM34.354 101.304C34.838 101.304 35.22 101.214 35.5 101.034C35.784 100.85 35.926 100.606 35.926 100.302C35.926 100.11 35.89 99.944 35.818 99.804C35.75 99.664 35.608 99.538 35.392 99.426C35.176 99.314 34.844 99.202 34.396 99.09C33.96 98.982 33.58 98.858 33.256 98.718C32.936 98.574 32.686 98.388 32.506 98.16C32.33 97.932 32.242 97.636 32.242 97.272C32.242 96.916 32.342 96.61 32.542 96.354C32.746 96.094 33.028 95.896 33.388 95.76C33.748 95.62 34.166 95.55 34.642 95.55C35.15 95.55 35.592 95.618 35.968 95.754C36.348 95.886 36.67 96.05 36.934 96.246L36.49 96.93C36.25 96.766 35.986 96.632 35.698 96.528C35.41 96.42 35.062 96.366 34.654 96.366C34.158 96.366 33.806 96.444 33.598 96.6C33.39 96.752 33.286 96.95 33.286 97.194C33.286 97.378 33.336 97.532 33.436 97.656C33.54 97.776 33.714 97.886 33.958 97.986C34.202 98.082 34.538 98.188 34.966 98.304C35.378 98.412 35.736 98.542 36.04 98.694C36.348 98.846 36.588 99.046 36.76 99.294C36.932 99.542 37.018 99.862 37.018 100.254C37.018 100.702 36.89 101.066 36.634 101.346C36.378 101.622 36.046 101.824 35.638 101.952C35.234 102.076 34.806 102.138 34.354 102.138C33.782 102.138 33.294 102.056 32.89 101.892C32.49 101.724 32.154 101.522 31.882 101.286L32.458 100.62C32.706 100.824 32.99 100.99 33.31 101.118C33.634 101.242 33.982 101.304 34.354 101.304ZM40.1933 99.198C40.2133 99.686 40.3073 100.086 40.4753 100.398C40.6433 100.706 40.8653 100.934 41.1413 101.082C41.4173 101.226 41.7173 101.298 42.0413 101.298C42.3653 101.298 42.6573 101.25 42.9173 101.154C43.1813 101.058 43.4513 100.916 43.7273 100.728L44.2013 101.394C43.9053 101.626 43.5673 101.808 43.1873 101.94C42.8113 102.072 42.4253 102.138 42.0293 102.138C41.4173 102.138 40.8953 102 40.4633 101.724C40.0313 101.448 39.7013 101.064 39.4733 100.572C39.2493 100.076 39.1373 99.502 39.1373 98.85C39.1373 98.21 39.2513 97.642 39.4793 97.146C39.7073 96.65 40.0273 96.26 40.4393 95.976C40.8513 95.692 41.3373 95.55 41.8973 95.55C42.4293 95.55 42.8873 95.676 43.2713 95.928C43.6553 96.176 43.9493 96.532 44.1533 96.996C44.3613 97.456 44.4653 98.006 44.4653 98.646C44.4653 98.754 44.4633 98.856 44.4593 98.952C44.4553 99.044 44.4493 99.126 44.4413 99.198H40.1933ZM41.9093 96.378C41.4413 96.378 41.0493 96.544 40.7333 96.876C40.4213 97.208 40.2433 97.722 40.1993 98.418H43.4933C43.4813 97.742 43.3333 97.234 43.0493 96.894C42.7653 96.55 42.3853 96.378 41.9093 96.378ZM49.0566 93.138V100.44C49.0566 100.752 49.1526 100.974 49.3446 101.106C49.5406 101.234 49.7926 101.298 50.1006 101.298C50.2926 101.298 50.4746 101.278 50.6466 101.238C50.8186 101.198 50.9906 101.144 51.1626 101.076L51.4326 101.814C51.2606 101.898 51.0466 101.972 50.7906 102.036C50.5386 102.104 50.2526 102.138 49.9326 102.138C49.3726 102.138 48.9186 101.984 48.5706 101.676C48.2226 101.364 48.0486 100.934 48.0486 100.386V93.936H46.1106V93.138H49.0566ZM57.5239 93.012C57.8639 93.012 58.1719 93.042 58.4479 93.102C58.7239 93.162 58.9859 93.246 59.2339 93.354L58.9099 94.104C58.7059 94.016 58.4899 93.95 58.2619 93.906C58.0339 93.862 57.7979 93.84 57.5539 93.84C57.1139 93.84 56.7819 93.926 56.5579 94.098C56.3379 94.27 56.2279 94.534 56.2279 94.89V96.174H58.3699L58.2619 96.966H56.2279V102H55.2199V96.966H53.7139V96.174H55.2199V94.914C55.2199 94.522 55.3199 94.184 55.5199 93.9C55.7239 93.616 55.9999 93.398 56.3479 93.246C56.6959 93.09 57.0879 93.012 57.5239 93.012ZM62.3193 101.076C62.3193 100.88 62.3653 100.704 62.4573 100.548C62.5493 100.388 62.6733 100.262 62.8293 100.17C62.9893 100.074 63.1693 100.026 63.3693 100.026C63.5733 100.026 63.7553 100.074 63.9153 100.17C64.0753 100.262 64.2013 100.388 64.2933 100.548C64.3853 100.704 64.4313 100.88 64.4313 101.076C64.4313 101.272 64.3853 101.452 64.2933 101.616C64.2013 101.776 64.0753 101.904 63.9153 102C63.7553 102.092 63.5733 102.138 63.3693 102.138C63.1693 102.138 62.9893 102.092 62.8293 102C62.6733 101.904 62.5493 101.776 62.4573 101.616C62.3653 101.452 62.3193 101.272 62.3193 101.076ZM200.554 101.268C200.87 101.268 201.164 101.216 201.436 101.112C201.712 101.008 201.966 100.876 202.198 100.716L202.69 101.376C202.414 101.612 202.082 101.798 201.694 101.934C201.306 102.07 200.926 102.138 200.554 102.138C199.926 102.138 199.39 102.004 198.946 101.736C198.506 101.464 198.17 101.084 197.938 100.596C197.706 100.104 197.59 99.528 197.59 98.868C197.59 98.236 197.706 97.67 197.938 97.17C198.174 96.666 198.512 96.27 198.952 95.982C199.396 95.694 199.934 95.55 200.566 95.55C200.97 95.55 201.348 95.612 201.7 95.736C202.056 95.856 202.382 96.038 202.678 96.282L202.186 96.954C201.918 96.766 201.648 96.626 201.376 96.534C201.108 96.438 200.834 96.39 200.554 96.39C200.01 96.39 199.562 96.594 199.21 97.002C198.858 97.41 198.682 98.032 198.682 98.868C198.682 99.428 198.762 99.886 198.922 100.242C199.086 100.594 199.308 100.854 199.588 101.022C199.872 101.186 200.194 101.268 200.554 101.268ZM208.092 95.682V101.202H209.874V102H205.134V101.202H207.084V96.48H205.194V95.682H208.092ZM207.288 92.724C207.512 92.724 207.69 92.792 207.822 92.928C207.958 93.064 208.026 93.23 208.026 93.426C208.026 93.63 207.958 93.802 207.822 93.942C207.69 94.078 207.512 94.146 207.288 94.146C207.076 94.146 206.902 94.078 206.766 93.942C206.63 93.802 206.562 93.63 206.562 93.426C206.562 93.23 206.63 93.064 206.766 92.928C206.902 92.792 207.076 92.724 207.288 92.724ZM212.149 102V101.226H213.133V96.456H212.149V95.682H213.901L214.087 97.176C214.331 96.656 214.627 96.254 214.975 95.97C215.323 95.686 215.783 95.544 216.355 95.544C216.531 95.544 216.687 95.558 216.823 95.586C216.963 95.61 217.105 95.642 217.249 95.682L216.955 96.582C216.823 96.546 216.703 96.52 216.595 96.504C216.487 96.484 216.363 96.474 216.223 96.474C215.739 96.474 215.323 96.646 214.975 96.99C214.627 97.334 214.349 97.854 214.141 98.55V101.226H215.425V102H212.149ZM216.277 97.818V96.444L216.379 95.682H217.249L217.105 97.818H216.277ZM222.14 101.268C222.456 101.268 222.75 101.216 223.022 101.112C223.298 101.008 223.552 100.876 223.784 100.716L224.276 101.376C224 101.612 223.668 101.798 223.28 101.934C222.892 102.07 222.512 102.138 222.14 102.138C221.512 102.138 220.976 102.004 220.532 101.736C220.092 101.464 219.756 101.084 219.524 100.596C219.292 100.104 219.176 99.528 219.176 98.868C219.176 98.236 219.292 97.67 219.524 97.17C219.76 96.666 220.098 96.27 220.538 95.982C220.982 95.694 221.52 95.55 222.152 95.55C222.556 95.55 222.934 95.612 223.286 95.736C223.642 95.856 223.968 96.038 224.264 96.282L223.772 96.954C223.504 96.766 223.234 96.626 222.962 96.534C222.694 96.438 222.42 96.39 222.14 96.39C221.596 96.39 221.148 96.594 220.796 97.002C220.444 97.41 220.268 98.032 220.268 98.868C220.268 99.428 220.348 99.886 220.508 100.242C220.672 100.594 220.894 100.854 221.174 101.022C221.458 101.186 221.78 101.268 222.14 101.268ZM228.939 93.138V100.44C228.939 100.752 229.035 100.974 229.227 101.106C229.423 101.234 229.675 101.298 229.983 101.298C230.175 101.298 230.357 101.278 230.529 101.238C230.701 101.198 230.873 101.144 231.045 101.076L231.315 101.814C231.143 101.898 230.929 101.972 230.673 102.036C230.421 102.104 230.135 102.138 229.815 102.138C229.255 102.138 228.801 101.984 228.453 101.676C228.105 101.364 227.931 100.934 227.931 100.386V93.936H225.993V93.138H228.939ZM234.467 99.198C234.487 99.686 234.581 100.086 234.749 100.398C234.917 100.706 235.139 100.934 235.415 101.082C235.691 101.226 235.991 101.298 236.315 101.298C236.639 101.298 236.931 101.25 237.191 101.154C237.455 101.058 237.725 100.916 238.001 100.728L238.475 101.394C238.179 101.626 237.841 101.808 237.461 101.94C237.085 102.072 236.699 102.138 236.303 102.138C235.691 102.138 235.169 102 234.737 101.724C234.305 101.448 233.975 101.064 233.747 100.572C233.523 100.076 233.411 99.502 233.411 98.85C233.411 98.21 233.525 97.642 233.753 97.146C233.981 96.65 234.301 96.26 234.713 95.976C235.125 95.692 235.611 95.55 236.171 95.55C236.703 95.55 237.161 95.676 237.545 95.928C237.929 96.176 238.223 96.532 238.427 96.996C238.635 97.456 238.739 98.006 238.739 98.646C238.739 98.754 238.737 98.856 238.733 98.952C238.729 99.044 238.723 99.126 238.715 99.198H234.467ZM236.183 96.378C235.715 96.378 235.323 96.544 235.007 96.876C234.695 97.208 234.517 97.722 234.473 98.418H237.767C237.755 97.742 237.607 97.234 237.323 96.894C237.039 96.55 236.659 96.378 236.183 96.378Z" fill="var(--vscode-editor-foreground, #24292E)" />
      <path d="M87.3012 64.696V65.566H82.6332V64.696H87.3012ZM87.3012 66.97V67.846H82.6332V66.97H87.3012ZM259.989 80.696V81.566H255.321V80.696H259.989ZM259.989 82.97V83.846H255.321V82.97H259.989Z" fill="#D73A49" />
      <path d="M100.054 61.606C100.594 61.606 101.046 61.674 101.41 61.81C101.774 61.946 102.12 62.146 102.448 62.41L101.866 63.088C101.606 62.868 101.33 62.712 101.038 62.62C100.75 62.524 100.448 62.476 100.132 62.476C99.6798 62.476 99.2618 62.584 98.8778 62.8C98.4938 63.012 98.1838 63.366 97.9478 63.862C97.7158 64.354 97.5998 65.022 97.5998 65.866C97.5998 66.686 97.7098 67.344 97.9298 67.84C98.1538 68.336 98.4558 68.694 98.8358 68.914C99.2158 69.134 99.6398 69.244 100.108 69.244C100.572 69.244 100.952 69.174 101.248 69.034C101.548 68.894 101.808 68.734 102.028 68.554L102.568 69.238C102.316 69.482 101.988 69.694 101.584 69.874C101.18 70.05 100.684 70.138 100.096 70.138C99.4278 70.138 98.8218 69.974 98.2778 69.646C97.7378 69.318 97.3098 68.838 96.9938 68.206C96.6778 67.57 96.5198 66.79 96.5198 65.866C96.5198 64.938 96.6798 64.158 96.9998 63.526C97.3238 62.894 97.7538 62.416 98.2898 62.092C98.8298 61.768 99.4178 61.606 100.054 61.606ZM107.357 63.682V69.202H109.139V70H104.399V69.202H106.349V64.48H104.459V63.682H107.357ZM106.553 60.724C106.777 60.724 106.955 60.792 107.087 60.928C107.223 61.064 107.291 61.23 107.291 61.426C107.291 61.63 107.223 61.802 107.087 61.942C106.955 62.078 106.777 62.146 106.553 62.146C106.341 62.146 106.167 62.078 106.031 61.942C105.895 61.802 105.827 61.63 105.827 61.426C105.827 61.23 105.895 61.064 106.031 60.928C106.167 60.792 106.341 60.724 106.553 60.724ZM111.414 70V69.226H112.398V64.456H111.414V63.682H113.166L113.352 65.176C113.596 64.656 113.892 64.254 114.24 63.97C114.588 63.686 115.048 63.544 115.62 63.544C115.796 63.544 115.952 63.558 116.088 63.586C116.228 63.61 116.37 63.642 116.514 63.682L116.22 64.582C116.088 64.546 115.968 64.52 115.86 64.504C115.752 64.484 115.628 64.474 115.488 64.474C115.004 64.474 114.588 64.646 114.24 64.99C113.892 65.334 113.614 65.854 113.406 66.55V69.226H114.69V70H111.414ZM115.542 65.818V64.444L115.644 63.682H116.514L116.37 65.818H115.542ZM121.406 69.268C121.722 69.268 122.016 69.216 122.288 69.112C122.564 69.008 122.818 68.876 123.05 68.716L123.542 69.376C123.266 69.612 122.934 69.798 122.546 69.934C122.158 70.07 121.778 70.138 121.406 70.138C120.778 70.138 120.242 70.004 119.798 69.736C119.358 69.464 119.022 69.084 118.79 68.596C118.558 68.104 118.442 67.528 118.442 66.868C118.442 66.236 118.558 65.67 118.79 65.17C119.026 64.666 119.364 64.27 119.804 63.982C120.248 63.694 120.786 63.55 121.418 63.55C121.822 63.55 122.2 63.612 122.552 63.736C122.908 63.856 123.234 64.038 123.53 64.282L123.038 64.954C122.77 64.766 122.5 64.626 122.228 64.534C121.96 64.438 121.686 64.39 121.406 64.39C120.862 64.39 120.414 64.594 120.062 65.002C119.71 65.41 119.534 66.032 119.534 66.868C119.534 67.428 119.614 67.886 119.774 68.242C119.938 68.594 120.16 68.854 120.44 69.022C120.724 69.186 121.046 69.268 121.406 69.268ZM128.205 61.138V68.44C128.205 68.752 128.301 68.974 128.493 69.106C128.689 69.234 128.941 69.298 129.249 69.298C129.441 69.298 129.623 69.278 129.795 69.238C129.967 69.198 130.139 69.144 130.311 69.076L130.581 69.814C130.409 69.898 130.195 69.972 129.939 70.036C129.687 70.104 129.401 70.138 129.081 70.138C128.521 70.138 128.067 69.984 127.719 69.676C127.371 69.364 127.197 68.934 127.197 68.386V61.936H125.259V61.138H128.205ZM133.732 67.198C133.752 67.686 133.846 68.086 134.014 68.398C134.182 68.706 134.404 68.934 134.68 69.082C134.956 69.226 135.256 69.298 135.58 69.298C135.904 69.298 136.196 69.25 136.456 69.154C136.72 69.058 136.99 68.916 137.266 68.728L137.74 69.394C137.444 69.626 137.106 69.808 136.726 69.94C136.35 70.072 135.964 70.138 135.568 70.138C134.956 70.138 134.434 70 134.002 69.724C133.57 69.448 133.24 69.064 133.012 68.572C132.788 68.076 132.676 67.502 132.676 66.85C132.676 66.21 132.79 65.642 133.018 65.146C133.246 64.65 133.566 64.26 133.978 63.976C134.39 63.692 134.876 63.55 135.436 63.55C135.968 63.55 136.426 63.676 136.81 63.928C137.194 64.176 137.488 64.532 137.692 64.996C137.9 65.456 138.004 66.006 138.004 66.646C138.004 66.754 138.002 66.856 137.998 66.952C137.994 67.044 137.988 67.126 137.98 67.198H133.732ZM135.448 64.378C134.98 64.378 134.588 64.544 134.272 64.876C133.96 65.208 133.782 65.722 133.738 66.418H137.032C137.02 65.742 136.872 65.234 136.588 64.894C136.304 64.55 135.924 64.378 135.448 64.378ZM84.7212 85.304C85.2052 85.304 85.5872 85.214 85.8672 85.034C86.1512 84.85 86.2932 84.606 86.2932 84.302C86.2932 84.11 86.2572 83.944 86.1852 83.804C86.1172 83.664 85.9752 83.538 85.7592 83.426C85.5432 83.314 85.2112 83.202 84.7632 83.09C84.3272 82.982 83.9472 82.858 83.6232 82.718C83.3032 82.574 83.0532 82.388 82.8732 82.16C82.6972 81.932 82.6092 81.636 82.6092 81.272C82.6092 80.916 82.7092 80.61 82.9092 80.354C83.1132 80.094 83.3952 79.896 83.7552 79.76C84.1152 79.62 84.5332 79.55 85.0092 79.55C85.5172 79.55 85.9592 79.618 86.3352 79.754C86.7152 79.886 87.0372 80.05 87.3012 80.246L86.8572 80.93C86.6172 80.766 86.3532 80.632 86.0652 80.528C85.7772 80.42 85.4292 80.366 85.0212 80.366C84.5252 80.366 84.1732 80.444 83.9652 80.6C83.7572 80.752 83.6532 80.95 83.6532 81.194C83.6532 81.378 83.7032 81.532 83.8032 81.656C83.9072 81.776 84.0812 81.886 84.3252 81.986C84.5692 82.082 84.9052 82.188 85.3332 82.304C85.7452 82.412 86.1032 82.542 86.4072 82.694C86.7152 82.846 86.9552 83.046 87.1272 83.294C87.2992 83.542 87.3852 83.862 87.3852 84.254C87.3852 84.702 87.2572 85.066 87.0012 85.346C86.7452 85.622 86.4132 85.824 86.0052 85.952C85.6012 86.076 85.1732 86.138 84.7212 86.138C84.1492 86.138 83.6612 86.056 83.2572 85.892C82.8572 85.724 82.5212 85.522 82.2492 85.286L82.8252 84.62C83.0732 84.824 83.3572 84.99 83.6772 85.118C84.0012 85.242 84.3492 85.304 84.7212 85.304ZM90.5605 83.198C90.5805 83.686 90.6745 84.086 90.8425 84.398C91.0105 84.706 91.2325 84.934 91.5085 85.082C91.7845 85.226 92.0845 85.298 92.4085 85.298C92.7325 85.298 93.0245 85.25 93.2845 85.154C93.5485 85.058 93.8185 84.916 94.0945 84.728L94.5685 85.394C94.2725 85.626 93.9345 85.808 93.5545 85.94C93.1785 86.072 92.7925 86.138 92.3965 86.138C91.7845 86.138 91.2625 86 90.8305 85.724C90.3985 85.448 90.0685 85.064 89.8405 84.572C89.6165 84.076 89.5045 83.502 89.5045 82.85C89.5045 82.21 89.6185 81.642 89.8465 81.146C90.0745 80.65 90.3945 80.26 90.8065 79.976C91.2185 79.692 91.7045 79.55 92.2645 79.55C92.7965 79.55 93.2545 79.676 93.6385 79.928C94.0225 80.176 94.3165 80.532 94.5205 80.996C94.7285 81.456 94.8325 82.006 94.8325 82.646C94.8325 82.754 94.8305 82.856 94.8265 82.952C94.8225 83.044 94.8165 83.126 94.8085 83.198H90.5605ZM92.2765 80.378C91.8085 80.378 91.4165 80.544 91.1005 80.876C90.7885 81.208 90.6105 81.722 90.5665 82.418H93.8605C93.8485 81.742 93.7005 81.234 93.4165 80.894C93.1325 80.55 92.7525 80.378 92.2765 80.378ZM101.98 85.682C101.764 85.826 101.502 85.938 101.194 86.018C100.886 86.098 100.584 86.138 100.288 86.138C99.6078 86.138 99.0838 85.96 98.7158 85.604C98.3478 85.248 98.1638 84.79 98.1638 84.23V80.462H96.7118V79.682H98.1638V78.248L99.1718 78.128V79.682H101.356L101.236 80.462H99.1718V84.218C99.1718 84.57 99.2638 84.838 99.4478 85.022C99.6358 85.206 99.9458 85.298 100.378 85.298C100.614 85.298 100.832 85.27 101.032 85.214C101.232 85.158 101.418 85.086 101.59 84.998L101.98 85.682ZM103.553 88.178V87.296H109.553V88.178H103.553ZM113.502 85.304C113.986 85.304 114.368 85.214 114.648 85.034C114.932 84.85 115.074 84.606 115.074 84.302C115.074 84.11 115.038 83.944 114.966 83.804C114.898 83.664 114.756 83.538 114.54 83.426C114.324 83.314 113.992 83.202 113.544 83.09C113.108 82.982 112.728 82.858 112.404 82.718C112.084 82.574 111.834 82.388 111.654 82.16C111.478 81.932 111.39 81.636 111.39 81.272C111.39 80.916 111.49 80.61 111.69 80.354C111.894 80.094 112.176 79.896 112.536 79.76C112.896 79.62 113.314 79.55 113.79 79.55C114.298 79.55 114.74 79.618 115.116 79.754C115.496 79.886 115.818 80.05 116.082 80.246L115.638 80.93C115.398 80.766 115.134 80.632 114.846 80.528C114.558 80.42 114.21 80.366 113.802 80.366C113.306 80.366 112.954 80.444 112.746 80.6C112.538 80.752 112.434 80.95 112.434 81.194C112.434 81.378 112.484 81.532 112.584 81.656C112.688 81.776 112.862 81.886 113.106 81.986C113.35 82.082 113.686 82.188 114.114 82.304C114.526 82.412 114.884 82.542 115.188 82.694C115.496 82.846 115.736 83.046 115.908 83.294C116.08 83.542 116.166 83.862 116.166 84.254C116.166 84.702 116.038 85.066 115.782 85.346C115.526 85.622 115.194 85.824 114.786 85.952C114.382 86.076 113.954 86.138 113.502 86.138C112.93 86.138 112.442 86.056 112.038 85.892C111.638 85.724 111.302 85.522 111.03 85.286L111.606 84.62C111.854 84.824 112.138 84.99 112.458 85.118C112.782 85.242 113.13 85.304 113.502 85.304ZM123.566 85.682C123.35 85.826 123.088 85.938 122.78 86.018C122.472 86.098 122.17 86.138 121.874 86.138C121.194 86.138 120.67 85.96 120.302 85.604C119.934 85.248 119.75 84.79 119.75 84.23V80.462H118.298V79.682H119.75V78.248L120.758 78.128V79.682H122.942L122.822 80.462H120.758V84.218C120.758 84.57 120.85 84.838 121.034 85.022C121.222 85.206 121.532 85.298 121.964 85.298C122.2 85.298 122.418 85.27 122.618 85.214C122.818 85.158 123.004 85.086 123.176 84.998L123.566 85.682ZM125.805 86V85.226H126.789V80.456H125.805V79.682H127.557L127.743 81.176C127.987 80.656 128.283 80.254 128.631 79.97C128.979 79.686 129.439 79.544 130.011 79.544C130.187 79.544 130.343 79.558 130.479 79.586C130.619 79.61 130.761 79.642 130.905 79.682L130.611 80.582C130.479 80.546 130.359 80.52 130.251 80.504C130.143 80.484 130.019 80.474 129.879 80.474C129.395 80.474 128.979 80.646 128.631 80.99C128.283 81.334 128.005 81.854 127.797 82.55V85.226H129.081V86H125.805ZM129.933 81.818V80.444L130.035 79.682H130.905L130.761 81.818H129.933ZM135.346 79.55C135.942 79.55 136.44 79.686 136.84 79.958C137.244 80.226 137.546 80.606 137.746 81.098C137.95 81.59 138.052 82.17 138.052 82.838C138.052 83.482 137.948 84.052 137.74 84.548C137.532 85.044 137.226 85.434 136.822 85.718C136.422 85.998 135.926 86.138 135.334 86.138C134.742 86.138 134.244 86.002 133.84 85.73C133.436 85.458 133.13 85.076 132.922 84.584C132.718 84.088 132.616 83.51 132.616 82.85C132.616 82.198 132.72 81.624 132.928 81.128C133.136 80.632 133.442 80.246 133.846 79.97C134.254 79.69 134.754 79.55 135.346 79.55ZM135.346 80.372C134.802 80.372 134.39 80.574 134.11 80.978C133.834 81.378 133.696 82.002 133.696 82.85C133.696 83.682 133.832 84.3 134.104 84.704C134.38 85.108 134.79 85.31 135.334 85.31C135.878 85.31 136.286 85.108 136.558 84.704C136.834 84.3 136.972 83.678 136.972 82.838C136.972 81.998 136.836 81.378 136.564 80.978C136.292 80.574 135.886 80.372 135.346 80.372ZM145.428 79.682L142.584 82.526L145.758 86H144.432L141.324 82.55L144.12 79.682H145.428ZM141.21 77.012V86H140.202V77.138L141.21 77.012ZM148.123 83.198C148.143 83.686 148.237 84.086 148.405 84.398C148.573 84.706 148.795 84.934 149.071 85.082C149.347 85.226 149.647 85.298 149.971 85.298C150.295 85.298 150.587 85.25 150.847 85.154C151.111 85.058 151.381 84.916 151.657 84.728L152.131 85.394C151.835 85.626 151.497 85.808 151.117 85.94C150.741 86.072 150.355 86.138 149.959 86.138C149.347 86.138 148.825 86 148.393 85.724C147.961 85.448 147.631 85.064 147.403 84.572C147.179 84.076 147.067 83.502 147.067 82.85C147.067 82.21 147.181 81.642 147.409 81.146C147.637 80.65 147.957 80.26 148.369 79.976C148.781 79.692 149.267 79.55 149.827 79.55C150.359 79.55 150.817 79.676 151.201 79.928C151.585 80.176 151.879 80.532 152.083 80.996C152.291 81.456 152.395 82.006 152.395 82.646C152.395 82.754 152.393 82.856 152.389 82.952C152.385 83.044 152.379 83.126 152.371 83.198H148.123ZM149.839 80.378C149.371 80.378 148.979 80.544 148.663 80.876C148.351 81.208 148.173 81.722 148.129 82.418H151.423C151.411 81.742 151.263 81.234 150.979 80.894C150.695 80.55 150.315 80.378 149.839 80.378ZM71.0086 95.55C71.5686 95.55 72.0146 95.686 72.3466 95.958C72.6826 96.23 72.9246 96.614 73.0726 97.11C73.2206 97.602 73.2946 98.178 73.2946 98.838C73.2946 99.474 73.2046 100.042 73.0246 100.542C72.8486 101.038 72.5806 101.428 72.2206 101.712C71.8606 101.996 71.4066 102.138 70.8586 102.138C70.1666 102.138 69.6106 101.894 69.1906 101.406V104.418L68.1826 104.544V95.682H69.0406L69.1246 96.564C69.3566 96.24 69.6326 95.99 69.9526 95.814C70.2766 95.638 70.6286 95.55 71.0086 95.55ZM70.7686 96.36C70.4206 96.36 70.1126 96.466 69.8446 96.678C69.5806 96.886 69.3626 97.118 69.1906 97.374V100.506C69.3546 100.75 69.5606 100.944 69.8086 101.088C70.0606 101.228 70.3366 101.298 70.6366 101.298C71.1606 101.298 71.5546 101.098 71.8186 100.698C72.0826 100.298 72.2146 99.676 72.2146 98.832C72.2146 98.28 72.1626 97.822 72.0586 97.458C71.9546 97.09 71.7966 96.816 71.5846 96.636C71.3726 96.452 71.1006 96.36 70.7686 96.36ZM77.8379 93.138V100.44C77.8379 100.752 77.9339 100.974 78.1259 101.106C78.3219 101.234 78.5739 101.298 78.8819 101.298C79.0739 101.298 79.2559 101.278 79.4279 101.238C79.5999 101.198 79.7719 101.144 79.9439 101.076L80.2139 101.814C80.0419 101.898 79.8279 101.972 79.5719 102.036C79.3199 102.104 79.0339 102.138 78.7139 102.138C78.1539 102.138 77.6999 101.984 77.3519 101.676C77.0039 101.364 76.8299 100.934 76.8299 100.386V93.936H74.8919V93.138H77.8379ZM87.0972 100.62C87.0972 100.872 87.1392 101.056 87.2232 101.172C87.3072 101.288 87.4372 101.374 87.6132 101.43L87.3672 102.138C87.0952 102.102 86.8572 102.016 86.6532 101.88C86.4492 101.74 86.3012 101.53 86.2092 101.25C85.9812 101.542 85.6972 101.764 85.3572 101.916C85.0172 102.064 84.6412 102.138 84.2292 102.138C83.5972 102.138 83.0992 101.96 82.7352 101.604C82.3712 101.248 82.1892 100.776 82.1892 100.188C82.1892 99.536 82.4432 99.036 82.9512 98.688C83.4592 98.34 84.1932 98.166 85.1532 98.166H86.0832V97.638C86.0832 97.182 85.9492 96.86 85.6812 96.672C85.4172 96.48 85.0492 96.384 84.5772 96.384C84.3692 96.384 84.1252 96.41 83.8452 96.462C83.5652 96.51 83.2612 96.592 82.9332 96.708L82.6692 95.946C83.0572 95.802 83.4212 95.7 83.7612 95.64C84.1012 95.58 84.4252 95.55 84.7332 95.55C85.5212 95.55 86.1112 95.734 86.5032 96.102C86.8992 96.466 87.0972 96.962 87.0972 97.59V100.62ZM84.4872 101.37C84.7992 101.37 85.0972 101.292 85.3812 101.136C85.6652 100.976 85.8992 100.756 86.0832 100.476V98.85H85.1712C84.4752 98.85 83.9832 98.97 83.6952 99.21C83.4112 99.45 83.2692 99.772 83.2692 100.176C83.2692 100.568 83.3692 100.866 83.5692 101.07C83.7732 101.27 84.0792 101.37 84.4872 101.37ZM95.0245 95.682L92.8045 102.042C92.6565 102.47 92.4685 102.862 92.2405 103.218C92.0165 103.574 91.7225 103.868 91.3585 104.1C90.9985 104.336 90.5405 104.482 89.9845 104.538L89.8285 103.734C90.2645 103.662 90.6085 103.552 90.8605 103.404C91.1125 103.256 91.3105 103.066 91.4545 102.834C91.6025 102.602 91.7325 102.324 91.8445 102H91.5085L89.3005 95.682H90.3805L92.1925 101.232L93.9805 95.682H95.0245ZM109.391 99.714C109.391 100.186 109.273 100.606 109.037 100.974C108.801 101.338 108.459 101.624 108.011 101.832C107.563 102.036 107.017 102.138 106.373 102.138C105.769 102.138 105.221 102.046 104.729 101.862C104.241 101.678 103.823 101.418 103.475 101.082L104.093 100.386C104.381 100.654 104.711 100.868 105.083 101.028C105.455 101.184 105.891 101.262 106.391 101.262C106.727 101.262 107.041 101.208 107.333 101.1C107.625 100.988 107.861 100.82 108.041 100.596C108.221 100.368 108.311 100.08 108.311 99.732C108.311 99.464 108.259 99.236 108.155 99.048C108.051 98.86 107.867 98.694 107.603 98.55C107.339 98.402 106.971 98.258 106.499 98.118C105.955 97.958 105.483 97.778 105.083 97.578C104.687 97.374 104.379 97.124 104.159 96.828C103.943 96.532 103.835 96.166 103.835 95.73C103.835 95.318 103.949 94.952 104.177 94.632C104.405 94.312 104.719 94.062 105.119 93.882C105.523 93.698 105.987 93.606 106.511 93.606C107.083 93.606 107.579 93.688 107.999 93.852C108.423 94.012 108.807 94.244 109.151 94.548L108.539 95.226C108.243 94.962 107.925 94.772 107.585 94.656C107.245 94.536 106.899 94.476 106.547 94.476C106.247 94.476 105.971 94.522 105.719 94.614C105.471 94.702 105.271 94.836 105.119 95.016C104.971 95.192 104.897 95.418 104.897 95.694C104.897 95.93 104.961 96.134 105.089 96.306C105.217 96.478 105.433 96.636 105.737 96.78C106.041 96.92 106.455 97.068 106.979 97.224C107.407 97.348 107.803 97.504 108.167 97.692C108.535 97.876 108.831 98.128 109.055 98.448C109.279 98.764 109.391 99.186 109.391 99.714ZM112.362 93.042V96.546C112.61 96.214 112.914 95.966 113.274 95.802C113.638 95.634 114.006 95.55 114.378 95.55C114.994 95.55 115.444 95.714 115.728 96.042C116.012 96.37 116.154 96.826 116.154 97.41V102H115.146V97.434C115.146 97.054 115.058 96.778 114.882 96.606C114.706 96.43 114.43 96.342 114.054 96.342C113.814 96.342 113.586 96.396 113.37 96.504C113.154 96.612 112.96 96.746 112.788 96.906C112.616 97.066 112.474 97.23 112.362 97.398V102H111.354V93.15L112.362 93.042ZM120.956 95.55C121.552 95.55 122.05 95.686 122.45 95.958C122.854 96.226 123.156 96.606 123.356 97.098C123.56 97.59 123.662 98.17 123.662 98.838C123.662 99.482 123.558 100.052 123.35 100.548C123.142 101.044 122.836 101.434 122.432 101.718C122.032 101.998 121.536 102.138 120.944 102.138C120.352 102.138 119.854 102.002 119.45 101.73C119.046 101.458 118.74 101.076 118.532 100.584C118.328 100.088 118.226 99.51 118.226 98.85C118.226 98.198 118.33 97.624 118.538 97.128C118.746 96.632 119.052 96.246 119.456 95.97C119.864 95.69 120.364 95.55 120.956 95.55ZM120.956 96.372C120.412 96.372 120 96.574 119.72 96.978C119.444 97.378 119.306 98.002 119.306 98.85C119.306 99.682 119.442 100.3 119.714 100.704C119.99 101.108 120.4 101.31 120.944 101.31C121.488 101.31 121.896 101.108 122.168 100.704C122.444 100.3 122.582 99.678 122.582 98.838C122.582 97.998 122.446 97.378 122.174 96.978C121.902 96.574 121.496 96.372 120.956 96.372ZM130.425 102H128.997L128.181 97.362L127.293 102H125.901L124.749 95.682H125.781L126.585 101.376L127.593 96.486H128.787L129.741 101.376L130.545 95.682H131.529L130.425 102ZM136.03 93.606C136.57 93.606 137.022 93.674 137.386 93.81C137.75 93.946 138.096 94.146 138.424 94.41L137.842 95.088C137.582 94.868 137.306 94.712 137.014 94.62C136.726 94.524 136.424 94.476 136.108 94.476C135.656 94.476 135.238 94.584 134.854 94.8C134.47 95.012 134.16 95.366 133.924 95.862C133.692 96.354 133.576 97.022 133.576 97.866C133.576 98.686 133.686 99.344 133.906 99.84C134.13 100.336 134.432 100.694 134.812 100.914C135.192 101.134 135.616 101.244 136.084 101.244C136.548 101.244 136.928 101.174 137.224 101.034C137.524 100.894 137.784 100.734 138.004 100.554L138.544 101.238C138.292 101.482 137.964 101.694 137.56 101.874C137.156 102.05 136.66 102.138 136.072 102.138C135.404 102.138 134.798 101.974 134.254 101.646C133.714 101.318 133.286 100.838 132.97 100.206C132.654 99.57 132.496 98.79 132.496 97.866C132.496 96.938 132.656 96.158 132.976 95.526C133.3 94.894 133.73 94.416 134.266 94.092C134.806 93.768 135.394 93.606 136.03 93.606ZM140.196 102V101.226H141.18V96.456H140.196V95.682H141.948L142.134 97.176C142.378 96.656 142.674 96.254 143.022 95.97C143.37 95.686 143.83 95.544 144.402 95.544C144.578 95.544 144.734 95.558 144.87 95.586C145.01 95.61 145.152 95.642 145.296 95.682L145.002 96.582C144.87 96.546 144.75 96.52 144.642 96.504C144.534 96.484 144.41 96.474 144.27 96.474C143.786 96.474 143.37 96.646 143.022 96.99C142.674 97.334 142.396 97.854 142.188 98.55V101.226H143.472V102H140.196ZM144.324 97.818V96.444L144.426 95.682H145.296L145.152 97.818H144.324ZM148.123 99.198C148.143 99.686 148.237 100.086 148.405 100.398C148.573 100.706 148.795 100.934 149.071 101.082C149.347 101.226 149.647 101.298 149.971 101.298C150.295 101.298 150.587 101.25 150.847 101.154C151.111 101.058 151.381 100.916 151.657 100.728L152.131 101.394C151.835 101.626 151.497 101.808 151.117 101.94C150.741 102.072 150.355 102.138 149.959 102.138C149.347 102.138 148.825 102 148.393 101.724C147.961 101.448 147.631 101.064 147.403 100.572C147.179 100.076 147.067 99.502 147.067 98.85C147.067 98.21 147.181 97.642 147.409 97.146C147.637 96.65 147.957 96.26 148.369 95.976C148.781 95.692 149.267 95.55 149.827 95.55C150.359 95.55 150.817 95.676 151.201 95.928C151.585 96.176 151.879 96.532 152.083 96.996C152.291 97.456 152.395 98.006 152.395 98.646C152.395 98.754 152.393 98.856 152.389 98.952C152.385 99.044 152.379 99.126 152.371 99.198H148.123ZM149.839 96.378C149.371 96.378 148.979 96.544 148.663 96.876C148.351 97.208 148.173 97.722 148.129 98.418H151.423C151.411 97.742 151.263 97.234 150.979 96.894C150.695 96.55 150.315 96.378 149.839 96.378ZM159.05 100.62C159.05 100.872 159.092 101.056 159.176 101.172C159.26 101.288 159.39 101.374 159.566 101.43L159.32 102.138C159.048 102.102 158.81 102.016 158.606 101.88C158.402 101.74 158.254 101.53 158.162 101.25C157.934 101.542 157.65 101.764 157.31 101.916C156.97 102.064 156.594 102.138 156.182 102.138C155.55 102.138 155.052 101.96 154.688 101.604C154.324 101.248 154.142 100.776 154.142 100.188C154.142 99.536 154.396 99.036 154.904 98.688C155.412 98.34 156.146 98.166 157.106 98.166H158.036V97.638C158.036 97.182 157.902 96.86 157.634 96.672C157.37 96.48 157.002 96.384 156.53 96.384C156.322 96.384 156.078 96.41 155.798 96.462C155.518 96.51 155.214 96.592 154.886 96.708L154.622 95.946C155.01 95.802 155.374 95.7 155.714 95.64C156.054 95.58 156.378 95.55 156.686 95.55C157.474 95.55 158.064 95.734 158.456 96.102C158.852 96.466 159.05 96.962 159.05 97.59V100.62ZM156.44 101.37C156.752 101.37 157.05 101.292 157.334 101.136C157.618 100.976 157.852 100.756 158.036 100.476V98.85H157.124C156.428 98.85 155.936 98.97 155.648 99.21C155.364 99.45 155.222 99.772 155.222 100.176C155.222 100.568 155.322 100.866 155.522 101.07C155.726 101.27 156.032 101.37 156.44 101.37ZM166.738 101.682C166.522 101.826 166.26 101.938 165.952 102.018C165.644 102.098 165.342 102.138 165.046 102.138C164.366 102.138 163.842 101.96 163.474 101.604C163.106 101.248 162.922 100.79 162.922 100.23V96.462H161.47V95.682H162.922V94.248L163.93 94.128V95.682H166.114L165.994 96.462H163.93V100.218C163.93 100.57 164.022 100.838 164.206 101.022C164.394 101.206 164.704 101.298 165.136 101.298C165.372 101.298 165.59 101.27 165.79 101.214C165.99 101.158 166.176 101.086 166.348 100.998L166.738 101.682ZM172.115 95.682V101.202H173.897V102H169.157V101.202H171.107V96.48H169.217V95.682H172.115ZM171.311 92.724C171.535 92.724 171.713 92.792 171.845 92.928C171.981 93.064 172.049 93.23 172.049 93.426C172.049 93.63 171.981 93.802 171.845 93.942C171.713 94.078 171.535 94.146 171.311 94.146C171.099 94.146 170.925 94.078 170.789 93.942C170.653 93.802 170.585 93.63 170.585 93.426C170.585 93.23 170.653 93.064 170.789 92.928C170.925 92.792 171.099 92.724 171.311 92.724ZM178.518 95.55C179.114 95.55 179.612 95.686 180.012 95.958C180.416 96.226 180.718 96.606 180.918 97.098C181.122 97.59 181.224 98.17 181.224 98.838C181.224 99.482 181.12 100.052 180.912 100.548C180.704 101.044 180.398 101.434 179.994 101.718C179.594 101.998 179.098 102.138 178.506 102.138C177.914 102.138 177.416 102.002 177.012 101.73C176.608 101.458 176.302 101.076 176.094 100.584C175.89 100.088 175.788 99.51 175.788 98.85C175.788 98.198 175.892 97.624 176.1 97.128C176.308 96.632 176.614 96.246 177.018 95.97C177.426 95.69 177.926 95.55 178.518 95.55ZM178.518 96.372C177.974 96.372 177.562 96.574 177.282 96.978C177.006 97.378 176.868 98.002 176.868 98.85C176.868 99.682 177.004 100.3 177.276 100.704C177.552 101.108 177.962 101.31 178.506 101.31C179.05 101.31 179.458 101.108 179.73 100.704C180.006 100.3 180.144 99.678 180.144 98.838C180.144 97.998 180.008 97.378 179.736 96.978C179.464 96.574 179.058 96.372 178.518 96.372ZM183.308 102V95.682H184.166L184.244 96.558C184.5 96.234 184.82 95.986 185.204 95.814C185.592 95.638 185.968 95.55 186.332 95.55C186.952 95.55 187.402 95.714 187.682 96.042C187.966 96.37 188.108 96.826 188.108 97.41V102H187.1V98.154C187.1 97.722 187.076 97.374 187.028 97.11C186.98 96.842 186.88 96.648 186.728 96.528C186.576 96.404 186.34 96.342 186.02 96.342C185.772 96.342 185.538 96.396 185.318 96.504C185.102 96.612 184.908 96.748 184.736 96.912C184.568 97.072 184.428 97.234 184.316 97.398V102H183.308Z" fill="#6F42C1" />
      <path d="M141.48 65.8C141.48 66.424 141.534 66.984 141.642 67.48C141.75 67.972 141.91 68.424 142.122 68.836C142.334 69.244 142.6 69.632 142.92 70C143.244 70.372 143.62 70.748 144.048 71.128L143.52 71.68C142.872 71.148 142.316 70.604 141.852 70.048C141.392 69.492 141.038 68.872 140.79 68.188C140.546 67.504 140.424 66.708 140.424 65.8C140.424 64.888 140.546 64.09 140.79 63.406C141.038 62.722 141.392 62.102 141.852 61.546C142.316 60.99 142.872 60.448 143.52 59.92L144.048 60.472C143.616 60.856 143.238 61.234 142.914 61.606C142.594 61.974 142.328 62.362 142.116 62.77C141.904 63.174 141.744 63.624 141.636 64.12C141.532 64.612 141.48 65.172 141.48 65.8ZM150.775 65.8C150.775 65.172 150.721 64.612 150.613 64.12C150.509 63.624 150.351 63.174 150.139 62.77C149.927 62.362 149.659 61.974 149.335 61.606C149.015 61.234 148.639 60.856 148.207 60.472L148.735 59.92C149.387 60.448 149.943 60.99 150.403 61.546C150.863 62.102 151.215 62.722 151.459 63.406C151.707 64.09 151.831 64.888 151.831 65.8C151.831 66.708 151.707 67.504 151.459 68.188C151.215 68.872 150.863 69.492 150.403 70.048C149.943 70.604 149.387 71.148 148.735 71.68L148.207 71.128C148.635 70.748 149.009 70.372 149.329 70C149.653 69.632 149.921 69.244 150.133 68.836C150.345 68.424 150.505 67.972 150.613 67.48C150.721 66.984 150.775 66.424 150.775 65.8ZM155.87 81.8C155.87 82.424 155.924 82.984 156.032 83.48C156.14 83.972 156.3 84.424 156.512 84.836C156.724 85.244 156.99 85.632 157.31 86C157.634 86.372 158.01 86.748 158.438 87.128L157.91 87.68C157.262 87.148 156.706 86.604 156.242 86.048C155.782 85.492 155.428 84.872 155.18 84.188C154.936 83.504 154.814 82.708 154.814 81.8C154.814 80.888 154.936 80.09 155.18 79.406C155.428 78.722 155.782 78.102 156.242 77.546C156.706 76.99 157.262 76.448 157.91 75.92L158.438 76.472C158.006 76.856 157.628 77.234 157.304 77.606C156.984 77.974 156.718 78.362 156.506 78.77C156.294 79.174 156.134 79.624 156.026 80.12C155.922 80.612 155.87 81.172 155.87 81.8ZM165.892 83.678C165.892 83.262 165.81 82.942 165.646 82.718C165.486 82.49 165.272 82.332 165.004 82.244C164.736 82.156 164.442 82.112 164.122 82.112H162.712V85.142H164.074C164.278 85.142 164.486 85.122 164.698 85.082C164.91 85.042 165.106 84.97 165.286 84.866C165.47 84.762 165.616 84.616 165.724 84.428C165.836 84.236 165.892 83.986 165.892 83.678ZM165.562 79.874C165.562 79.406 165.416 79.074 165.124 78.878C164.836 78.678 164.442 78.578 163.942 78.578H162.712V81.254H164.044C164.532 81.254 164.906 81.146 165.166 80.93C165.43 80.71 165.562 80.358 165.562 79.874ZM166.99 83.642C166.99 84.09 166.9 84.466 166.72 84.77C166.544 85.074 166.306 85.316 166.006 85.496C165.71 85.676 165.378 85.806 165.01 85.886C164.646 85.962 164.274 86 163.894 86H161.674V77.738H163.708C164.072 77.738 164.426 77.772 164.77 77.84C165.118 77.904 165.43 78.016 165.706 78.176C165.986 78.332 166.21 78.544 166.378 78.812C166.546 79.08 166.63 79.416 166.63 79.82C166.63 80.176 166.556 80.478 166.408 80.726C166.264 80.97 166.074 81.166 165.838 81.314C165.606 81.462 165.358 81.566 165.094 81.626C165.402 81.674 165.7 81.768 165.988 81.908C166.28 82.044 166.52 82.252 166.708 82.532C166.896 82.808 166.99 83.178 166.99 83.642ZM169.337 86V77.738H170.381V85.07H174.149L174.029 86H169.337ZM181.236 77.738V83.324C181.236 83.88 181.122 84.37 180.894 84.794C180.67 85.218 180.352 85.548 179.94 85.784C179.532 86.02 179.05 86.138 178.494 86.138C177.926 86.138 177.438 86.02 177.03 85.784C176.626 85.544 176.316 85.212 176.1 84.788C175.884 84.364 175.776 83.876 175.776 83.324V77.738H176.808V83.36C176.808 83.988 176.954 84.458 177.246 84.77C177.542 85.082 177.958 85.238 178.494 85.238C179.034 85.238 179.45 85.082 179.742 84.77C180.038 84.458 180.186 83.988 180.186 83.36V77.738H181.236ZM184.652 78.59V81.374H187.712V82.232H184.652V85.166H188.408V86H183.608V77.738H188.3L188.18 78.59H184.652ZM189.897 88.178V87.296H195.897V88.178H189.897ZM199.042 78.59V81.374H202.102V82.232H199.042V85.166H202.798V86H197.998V77.738H202.69L202.57 78.59H199.042ZM264.538 77.606L265.378 77.96L263.182 83.186H267.592V83.99H262.114V83.258L264.538 77.606ZM266.524 80.84V86H265.552L265.546 83.378L265.684 80.84H266.524ZM273.095 81.8C273.095 81.172 273.041 80.612 272.933 80.12C272.829 79.624 272.671 79.174 272.459 78.77C272.247 78.362 271.979 77.974 271.655 77.606C271.335 77.234 270.959 76.856 270.527 76.472L271.055 75.92C271.707 76.448 272.263 76.99 272.723 77.546C273.183 78.102 273.535 78.722 273.779 79.406C274.027 80.09 274.151 80.888 274.151 81.8C274.151 82.708 274.027 83.504 273.779 84.188C273.535 84.872 273.183 85.492 272.723 86.048C272.263 86.604 271.707 87.148 271.055 87.68L270.527 87.128C270.955 86.748 271.329 86.372 271.649 86C271.973 85.632 272.241 85.244 272.453 84.836C272.665 84.424 272.825 83.972 272.933 83.48C273.041 82.984 273.095 82.424 273.095 81.8ZM98.3078 97.8C98.3078 98.424 98.3618 98.984 98.4698 99.48C98.5778 99.972 98.7378 100.424 98.9498 100.836C99.1618 101.244 99.4278 101.632 99.7478 102C100.072 102.372 100.448 102.748 100.876 103.128L100.348 103.68C99.6998 103.148 99.1438 102.604 98.6798 102.048C98.2198 101.492 97.8658 100.872 97.6178 100.188C97.3738 99.504 97.2518 98.708 97.2518 97.8C97.2518 96.888 97.3738 96.09 97.6178 95.406C97.8658 94.722 98.2198 94.102 98.6798 93.546C99.1438 92.99 99.6998 92.448 100.348 91.92L100.876 92.472C100.444 92.856 100.066 93.234 99.7418 93.606C99.4218 93.974 99.1558 94.362 98.9438 94.77C98.7318 95.174 98.5718 95.624 98.4638 96.12C98.3598 96.612 98.3078 97.172 98.3078 97.8ZM251.509 97.8C251.509 97.172 251.455 96.612 251.347 96.12C251.243 95.624 251.085 95.174 250.873 94.77C250.661 94.362 250.393 93.974 250.069 93.606C249.749 93.234 249.373 92.856 248.941 92.472L249.469 91.92C250.121 92.448 250.677 92.99 251.137 93.546C251.597 94.102 251.949 94.722 252.193 95.406C252.441 96.09 252.565 96.888 252.565 97.8C252.565 98.708 252.441 99.504 252.193 100.188C251.949 100.872 251.597 101.492 251.137 102.048C250.677 102.604 250.121 103.148 249.469 103.68L248.941 103.128C249.369 102.748 249.743 102.372 250.063 102C250.387 101.632 250.655 101.244 250.867 100.836C251.079 100.424 251.239 99.972 251.347 99.48C251.455 98.984 251.509 98.424 251.509 97.8Z" fill="#005CC5" />
      <path d="M223.964 86H222.536L221.72 81.362L220.832 86H219.44L218.288 79.682H219.32L220.124 85.376L221.132 80.486H222.326L223.28 85.376L224.084 79.682H225.068L223.964 86ZM229.677 79.682V85.202H231.459V86H226.719V85.202H228.669V80.48H226.779V79.682H229.677ZM228.873 76.724C229.097 76.724 229.275 76.792 229.407 76.928C229.543 77.064 229.611 77.23 229.611 77.426C229.611 77.63 229.543 77.802 229.407 77.942C229.275 78.078 229.097 78.146 228.873 78.146C228.661 78.146 228.487 78.078 228.351 77.942C228.215 77.802 228.147 77.63 228.147 77.426C228.147 77.23 228.215 77.064 228.351 76.928C228.487 76.792 228.661 76.724 228.873 76.724ZM237.455 77.012L238.463 77.138V86H237.581L237.485 85.166C237.249 85.502 236.977 85.748 236.669 85.904C236.365 86.06 236.039 86.138 235.691 86.138C235.143 86.138 234.691 86 234.335 85.724C233.979 85.448 233.715 85.064 233.543 84.572C233.371 84.076 233.285 83.502 233.285 82.85C233.285 82.218 233.383 81.654 233.579 81.158C233.775 80.658 234.057 80.266 234.425 79.982C234.797 79.694 235.243 79.55 235.763 79.55C236.127 79.55 236.447 79.614 236.723 79.742C236.999 79.866 237.243 80.05 237.455 80.294V77.012ZM236.027 80.36C235.499 80.36 235.093 80.566 234.809 80.978C234.525 81.39 234.383 82.014 234.383 82.85C234.383 83.394 234.441 83.85 234.557 84.218C234.673 84.586 234.843 84.862 235.067 85.046C235.295 85.23 235.573 85.322 235.901 85.322C236.261 85.322 236.567 85.22 236.819 85.016C237.075 84.812 237.287 84.582 237.455 84.326V81.17C237.283 80.914 237.075 80.716 236.831 80.576C236.587 80.432 236.319 80.36 236.027 80.36ZM245.886 85.682C245.67 85.826 245.408 85.938 245.1 86.018C244.792 86.098 244.49 86.138 244.194 86.138C243.514 86.138 242.99 85.96 242.622 85.604C242.254 85.248 242.07 84.79 242.07 84.23V80.462H240.618V79.682H242.07V78.248L243.078 78.128V79.682H245.262L245.142 80.462H243.078V84.218C243.078 84.57 243.17 84.838 243.354 85.022C243.542 85.206 243.852 85.298 244.284 85.298C244.52 85.298 244.738 85.27 244.938 85.214C245.138 85.158 245.324 85.086 245.496 84.998L245.886 85.682ZM249.073 77.042V80.546C249.321 80.214 249.625 79.966 249.985 79.802C250.349 79.634 250.717 79.55 251.089 79.55C251.705 79.55 252.155 79.714 252.439 80.042C252.723 80.37 252.865 80.826 252.865 81.41V86H251.857V81.434C251.857 81.054 251.769 80.778 251.593 80.606C251.417 80.43 251.141 80.342 250.765 80.342C250.525 80.342 250.297 80.396 250.081 80.504C249.865 80.612 249.671 80.746 249.499 80.906C249.327 81.066 249.185 81.23 249.073 81.398V86H248.065V77.15L249.073 77.042ZM191.847 97.8C191.847 98.424 191.901 98.984 192.009 99.48C192.117 99.972 192.277 100.424 192.489 100.836C192.701 101.244 192.967 101.632 193.287 102C193.611 102.372 193.987 102.748 194.415 103.128L193.887 103.68C193.239 103.148 192.683 102.604 192.219 102.048C191.759 101.492 191.405 100.872 191.157 100.188C190.913 99.504 190.791 98.708 190.791 97.8C190.791 96.888 190.913 96.09 191.157 95.406C191.405 94.722 191.759 94.102 192.219 93.546C192.683 92.99 193.239 92.448 193.887 91.92L194.415 92.472C193.983 92.856 193.605 93.234 193.281 93.606C192.961 93.974 192.695 94.362 192.483 94.77C192.271 95.174 192.111 95.624 192.003 96.12C191.899 96.612 191.847 97.172 191.847 97.8ZM244.314 97.8C244.314 97.172 244.26 96.612 244.152 96.12C244.048 95.624 243.89 95.174 243.678 94.77C243.466 94.362 243.198 93.974 242.874 93.606C242.554 93.234 242.178 92.856 241.746 92.472L242.274 91.92C242.926 92.448 243.482 92.99 243.942 93.546C244.402 94.102 244.754 94.722 244.998 95.406C245.246 96.09 245.37 96.888 245.37 97.8C245.37 98.708 245.246 99.504 244.998 100.188C244.754 100.872 244.402 101.492 243.942 102.048C243.482 102.604 242.926 103.148 242.274 103.68L241.746 103.128C242.174 102.748 242.548 102.372 242.868 102C243.192 101.632 243.46 101.244 243.672 100.836C243.884 100.424 244.044 99.972 244.152 99.48C244.26 98.984 244.314 98.424 244.314 97.8Z" fill="#E36209" />
    </g>
    <g filter="url(#filter0_d_4_2)">
      <path d="M31.3 27.6L36.7 30.3L31.3 33V27.6ZM47.6322 28.24C47.6322 27.8833 47.5622 27.6017 47.4222 27.395C47.2822 27.185 47.0905 27.035 46.8472 26.945C46.6039 26.8517 46.3255 26.805 46.0122 26.805H45.0172V29.745H45.9772C46.3005 29.745 46.5855 29.7017 46.8322 29.615C47.0789 29.525 47.2739 29.3717 47.4172 29.155C47.5605 28.935 47.6322 28.63 47.6322 28.24ZM48.5622 28.23C48.5622 28.7667 48.4472 29.1967 48.2172 29.52C47.9905 29.8433 47.6772 30.0783 47.2772 30.225C46.8772 30.3717 46.4172 30.445 45.8972 30.445H45.0172V33H44.1472V26.115H45.9072C46.7272 26.115 47.3739 26.2883 47.8472 26.635C48.3239 26.9783 48.5622 27.51 48.5622 28.23ZM50.0433 33V32.355H50.8633V28.38H50.0433V27.735H51.5033L51.6583 28.98C51.8616 28.5467 52.1083 28.2117 52.3983 27.975C52.6883 27.7383 53.0716 27.62 53.5483 27.62C53.6949 27.62 53.8249 27.6317 53.9383 27.655C54.0549 27.675 54.1733 27.7017 54.2933 27.735L54.0483 28.485C53.9383 28.455 53.8383 28.4333 53.7483 28.42C53.6583 28.4033 53.5549 28.395 53.4383 28.395C53.0349 28.395 52.6883 28.5383 52.3983 28.825C52.1083 29.1117 51.8766 29.545 51.7033 30.125V32.355H52.7733V33H50.0433ZM53.4833 29.515V28.37L53.5683 27.735H54.2933L54.1733 29.515H53.4833ZM56.6494 30.665C56.666 31.0717 56.7444 31.405 56.8844 31.665C57.0244 31.9217 57.2094 32.1117 57.4394 32.235C57.6694 32.355 57.9194 32.415 58.1894 32.415C58.4594 32.415 58.7027 32.375 58.9194 32.295C59.1394 32.215 59.3644 32.0967 59.5944 31.94L59.9894 32.495C59.7427 32.6883 59.461 32.84 59.1444 32.95C58.831 33.06 58.5094 33.115 58.1794 33.115C57.6694 33.115 57.2344 33 56.8744 32.77C56.5144 32.54 56.2394 32.22 56.0494 31.81C55.8627 31.3967 55.7694 30.9183 55.7694 30.375C55.7694 29.8417 55.8644 29.3683 56.0544 28.955C56.2444 28.5417 56.511 28.2167 56.8544 27.98C57.1977 27.7433 57.6027 27.625 58.0694 27.625C58.5127 27.625 58.8944 27.73 59.2144 27.94C59.5344 28.1467 59.7794 28.4433 59.9494 28.83C60.1227 29.2133 60.2094 29.6717 60.2094 30.205C60.2094 30.295 60.2077 30.38 60.2044 30.46C60.201 30.5367 60.196 30.605 60.1894 30.665H56.6494ZM58.0794 28.315C57.6894 28.315 57.3627 28.4533 57.0994 28.73C56.8394 29.0067 56.691 29.435 56.6544 30.015H59.3994C59.3894 29.4517 59.266 29.0283 59.0294 28.745C58.7927 28.4583 58.476 28.315 58.0794 28.315ZM66.3755 27.735L64.4605 33H63.4855L61.5855 27.735H62.4755L64.0005 32.235L65.5055 27.735H66.3755ZM70.6466 27.735V32.335H72.1316V33H68.1816V32.335H69.8066V28.4H68.2316V27.735H70.6466ZM69.9766 25.27C70.1632 25.27 70.3116 25.3267 70.4216 25.44C70.5349 25.5533 70.5916 25.6917 70.5916 25.855C70.5916 26.025 70.5349 26.1683 70.4216 26.285C70.3116 26.3983 70.1632 26.455 69.9766 26.455C69.7999 26.455 69.6549 26.3983 69.5416 26.285C69.4282 26.1683 69.3716 26.025 69.3716 25.855C69.3716 25.6917 69.4282 25.5533 69.5416 25.44C69.6549 25.3267 69.7999 25.27 69.9766 25.27ZM74.6377 30.665C74.6543 31.0717 74.7327 31.405 74.8727 31.665C75.0127 31.9217 75.1977 32.1117 75.4277 32.235C75.6577 32.355 75.9077 32.415 76.1777 32.415C76.4477 32.415 76.691 32.375 76.9077 32.295C77.1277 32.215 77.3527 32.0967 77.5827 31.94L77.9777 32.495C77.731 32.6883 77.4493 32.84 77.1327 32.95C76.8193 33.06 76.4977 33.115 76.1677 33.115C75.6577 33.115 75.2227 33 74.8627 32.77C74.5027 32.54 74.2277 32.22 74.0377 31.81C73.851 31.3967 73.7577 30.9183 73.7577 30.375C73.7577 29.8417 73.8527 29.3683 74.0427 28.955C74.2327 28.5417 74.4993 28.2167 74.8427 27.98C75.186 27.7433 75.591 27.625 76.0577 27.625C76.501 27.625 76.8827 27.73 77.2027 27.94C77.5227 28.1467 77.7677 28.4433 77.9377 28.83C78.111 29.2133 78.1977 29.6717 78.1977 30.205C78.1977 30.295 78.196 30.38 78.1927 30.46C78.1893 30.5367 78.1843 30.605 78.1777 30.665H74.6377ZM76.0677 28.315C75.6777 28.315 75.351 28.4533 75.0877 28.73C74.8277 29.0067 74.6793 29.435 74.6427 30.015H77.3877C77.3777 29.4517 77.2543 29.0283 77.0177 28.745C76.781 28.4583 76.4643 28.315 76.0677 28.315ZM83.8738 33H82.6838L82.0038 29.135L81.2638 33H80.1038L79.1438 27.735H80.0038L80.6738 32.48L81.5138 28.405H82.5088L83.3038 32.48L83.9738 27.735H84.7938L83.8738 33ZM96.2659 26.115L96.6559 33H95.8209L95.6059 29.405C95.5959 29.1617 95.5859 28.915 95.5759 28.665C95.5659 28.415 95.5593 28.175 95.5559 27.945C95.5526 27.715 95.5509 27.51 95.5509 27.33C95.5509 27.15 95.5509 27.01 95.5509 26.91L94.3909 31.765H93.5209L92.2759 26.91C92.2793 27.0067 92.2826 27.15 92.2859 27.34C92.2893 27.5267 92.2909 27.7383 92.2909 27.975C92.2943 28.2117 92.2926 28.455 92.2859 28.705C92.2826 28.9517 92.2759 29.1817 92.2659 29.395L92.0809 33H91.2659L91.6559 26.115H92.8659L93.9809 30.83L95.0459 26.115H96.2659ZM101.732 31.85C101.732 32.06 101.767 32.2133 101.837 32.31C101.907 32.4067 102.015 32.4783 102.162 32.525L101.957 33.115C101.73 33.085 101.532 33.0133 101.362 32.9C101.192 32.7833 101.069 32.6083 100.992 32.375C100.802 32.6183 100.565 32.8033 100.282 32.93C99.9987 33.0533 99.6854 33.115 99.342 33.115C98.8154 33.115 98.4004 32.9667 98.097 32.67C97.7937 32.3733 97.642 31.98 97.642 31.49C97.642 30.9467 97.8537 30.53 98.277 30.24C98.7004 29.95 99.312 29.805 100.112 29.805H100.887V29.365C100.887 28.985 100.775 28.7167 100.552 28.56C100.332 28.4 100.025 28.32 99.632 28.32C99.4587 28.32 99.2554 28.3417 99.022 28.385C98.7887 28.425 98.5354 28.4933 98.262 28.59L98.042 27.955C98.3654 27.835 98.6687 27.75 98.952 27.7C99.2354 27.65 99.5054 27.625 99.762 27.625C100.419 27.625 100.91 27.7783 101.237 28.085C101.567 28.3883 101.732 28.8017 101.732 29.325V31.85ZM99.557 32.475C99.817 32.475 100.065 32.41 100.302 32.28C100.539 32.1467 100.734 31.9633 100.887 31.73V30.375H100.127C99.547 30.375 99.137 30.475 98.897 30.675C98.6604 30.875 98.542 31.1433 98.542 31.48C98.542 31.8067 98.6254 32.055 98.792 32.225C98.962 32.3917 99.217 32.475 99.557 32.475ZM103.958 33V27.735H104.673L104.738 28.465C104.951 28.195 105.218 27.9883 105.538 27.845C105.861 27.6983 106.175 27.625 106.478 27.625C106.995 27.625 107.37 27.7617 107.603 28.035C107.84 28.3083 107.958 28.6883 107.958 29.175V33H107.118V29.795C107.118 29.435 107.098 29.145 107.058 28.925C107.018 28.7017 106.935 28.54 106.808 28.44C106.681 28.3367 106.485 28.285 106.218 28.285C106.011 28.285 105.816 28.33 105.633 28.42C105.453 28.51 105.291 28.6233 105.148 28.76C105.008 28.8933 104.891 29.0283 104.798 29.165V33H103.958ZM112.619 27.735V32.335H114.104V33H110.154V32.335H111.779V28.4H110.204V27.735H112.619ZM111.949 25.27C112.136 25.27 112.284 25.3267 112.394 25.44C112.508 25.5533 112.564 25.6917 112.564 25.855C112.564 26.025 112.508 26.1683 112.394 26.285C112.284 26.3983 112.136 26.455 111.949 26.455C111.773 26.455 111.628 26.3983 111.514 26.285C111.401 26.1683 111.344 26.025 111.344 25.855C111.344 25.6917 111.401 25.5533 111.514 25.44C111.628 25.3267 111.773 25.27 111.949 25.27ZM119.42 27.625C119.59 27.625 119.752 27.6617 119.905 27.735C120.062 27.8083 120.19 27.95 120.29 28.16C120.39 28.37 120.44 28.6767 120.44 29.08V33H119.66V29.215C119.66 28.885 119.64 28.6467 119.6 28.5C119.56 28.3533 119.445 28.28 119.255 28.28C119.099 28.28 118.942 28.33 118.785 28.43C118.632 28.5267 118.482 28.6867 118.335 28.91V33H117.55V29.215C117.55 28.885 117.53 28.6467 117.49 28.5C117.45 28.3533 117.335 28.28 117.145 28.28C116.982 28.28 116.824 28.33 116.67 28.43C116.52 28.5267 116.372 28.6867 116.225 28.91V33H115.45V27.735H116.11L116.16 28.345C116.304 28.1417 116.464 27.9717 116.64 27.835C116.82 27.695 117.042 27.625 117.305 27.625C117.505 27.625 117.694 27.6733 117.87 27.77C118.047 27.8633 118.177 28.0467 118.26 28.32C118.404 28.1133 118.565 27.9467 118.745 27.82C118.925 27.69 119.15 27.625 119.42 27.625ZM130.518 26.005C130.968 26.005 131.344 26.0617 131.648 26.175C131.951 26.2883 132.239 26.455 132.513 26.675L132.028 27.24C131.811 27.0567 131.581 26.9267 131.338 26.85C131.098 26.77 130.846 26.73 130.583 26.73C130.206 26.73 129.858 26.82 129.538 27C129.218 27.1767 128.959 27.4717 128.763 27.885C128.569 28.295 128.473 28.8517 128.473 29.555C128.473 30.2383 128.564 30.7867 128.748 31.2C128.934 31.6133 129.186 31.9117 129.503 32.095C129.819 32.2783 130.173 32.37 130.563 32.37C130.949 32.37 131.266 32.3117 131.513 32.195C131.763 32.0783 131.979 31.945 132.163 31.795L132.613 32.365C132.403 32.5683 132.129 32.745 131.793 32.895C131.456 33.0417 131.043 33.115 130.553 33.115C129.996 33.115 129.491 32.9783 129.038 32.705C128.588 32.4317 128.231 32.0317 127.968 31.505C127.704 30.975 127.573 30.325 127.573 29.555C127.573 28.7817 127.706 28.1317 127.973 27.605C128.243 27.0783 128.601 26.68 129.048 26.41C129.498 26.14 129.988 26.005 130.518 26.005ZM134.599 30.665C134.615 31.0717 134.694 31.405 134.834 31.665C134.974 31.9217 135.159 32.1117 135.389 32.235C135.619 32.355 135.869 32.415 136.139 32.415C136.409 32.415 136.652 32.375 136.869 32.295C137.089 32.215 137.314 32.0967 137.544 31.94L137.939 32.495C137.692 32.6883 137.41 32.84 137.094 32.95C136.78 33.06 136.459 33.115 136.129 33.115C135.619 33.115 135.184 33 134.824 32.77C134.464 32.54 134.189 32.22 133.999 31.81C133.812 31.3967 133.719 30.9183 133.719 30.375C133.719 29.8417 133.814 29.3683 134.004 28.955C134.194 28.5417 134.46 28.2167 134.804 27.98C135.147 27.7433 135.552 27.625 136.019 27.625C136.462 27.625 136.844 27.73 137.164 27.94C137.484 28.1467 137.729 28.4433 137.899 28.83C138.072 29.2133 138.159 29.6717 138.159 30.205C138.159 30.295 138.157 30.38 138.154 30.46C138.15 30.5367 138.145 30.605 138.139 30.665H134.599ZM136.029 28.315C135.639 28.315 135.312 28.4533 135.049 28.73C134.789 29.0067 134.64 29.435 134.604 30.015H137.349C137.339 29.4517 137.215 29.0283 136.979 28.745C136.742 28.4583 136.425 28.315 136.029 28.315ZM141.985 25.615V31.7C141.985 31.96 142.065 32.145 142.225 32.255C142.388 32.3617 142.598 32.415 142.855 32.415C143.015 32.415 143.166 32.3983 143.31 32.365C143.453 32.3317 143.596 32.2867 143.74 32.23L143.965 32.845C143.821 32.915 143.643 32.9767 143.43 33.03C143.22 33.0867 142.981 33.115 142.715 33.115C142.248 33.115 141.87 32.9867 141.58 32.73C141.29 32.47 141.145 32.1117 141.145 31.655V26.28H139.53V25.615H141.985ZM147.981 25.615V31.7C147.981 31.96 148.061 32.145 148.221 32.255C148.384 32.3617 148.594 32.415 148.851 32.415C149.011 32.415 149.162 32.3983 149.306 32.365C149.449 32.3317 149.592 32.2867 149.736 32.23L149.961 32.845C149.817 32.915 149.639 32.9767 149.426 33.03C149.216 33.0867 148.977 33.115 148.711 33.115C148.244 33.115 147.866 32.9867 147.576 32.73C147.286 32.47 147.141 32.1117 147.141 31.655V26.28H145.526V25.615H147.981Z" fill="var(--vscode-editorCodeLens-foreground, #6A737D)" />
    </g>
    <g clip-path="url(#clip0_4_2)" filter="url(#filter1_d_4_2)">
      <path fill-rule="evenodd" clip-rule="evenodd" d="M159.748 22.2548C160.377 22.0863 161.023 22.4595 161.192 23.0882L161.896 25.717C162.064 26.3457 161.691 26.9919 161.063 27.1604C160.434 27.3289 159.788 26.9558 159.619 26.327L158.915 23.6983C158.746 23.0695 159.119 22.4233 159.748 22.2548ZM154.113 27.9001C153.944 28.5288 154.317 29.1751 154.946 29.3436L157.575 30.0479C158.203 30.2164 158.85 29.8433 159.018 29.2146C159.187 28.5858 158.814 27.9396 158.185 27.7711L155.556 27.0667C154.927 26.8983 154.281 27.2714 154.113 27.9001ZM161.026 30.9881C160.616 29.7594 161.786 28.5902 163.014 29.0001L174.201 32.7325C175.647 33.2148 175.629 35.2661 174.175 35.7224L170.989 36.722L175.232 40.9649C175.846 41.5786 175.846 42.5734 175.232 43.1872C174.619 43.8009 173.624 43.8009 173.01 43.1872L168.757 38.9345L167.749 42.1484C167.292 43.6026 165.241 43.621 164.759 42.1753L161.026 30.9881ZM157.248 35.7578C156.787 36.218 156.041 36.218 155.581 35.7578C155.121 35.2975 155.121 34.5513 155.581 34.091L157.505 32.1666C157.965 31.7063 158.712 31.7063 159.172 32.1666C159.632 32.6269 159.632 33.3731 159.172 33.8334L157.248 35.7578ZM167.399 25.4C167.859 24.9397 167.859 24.1935 167.399 23.7332C166.939 23.273 166.193 23.273 165.732 23.7332L163.808 25.6576C163.348 26.1179 163.348 26.8641 163.808 27.3244C164.268 27.7847 165.014 27.7847 165.475 27.3244L167.399 25.4Z" fill="var(--vscode-activityBarBadge-background, #2B7BD6)" />
    </g>
  </g>
  <defs>
    <filter id="filter0_d_4_2" x="29.4" y="24.37" width="122.461" height="11.645" filterUnits="userSpaceOnUse" color-interpolation-filters="sRGB">
      <feFlood flood-opacity="0" result="BackgroundImageFix" />
      <feColorMatrix in="SourceAlpha" type="matrix" values="0 0 0 0 0 0 0 0 0 0 0 0 0 0 0 0 0 0 127 0" result="hardAlpha" />
      <feOffset dy="1" />
      <feGaussianBlur stdDeviation="0.95" />
      <feComposite in2="hardAlpha" operator="out" />
      <feColorMatrix type="matrix" values="0 0 0 0 0 0 0 0 0 0 0 0 0 0 0 0 0 0 0.1 0" />
      <feBlend mode="normal" in2="BackgroundImageFix" result="effect1_dropShadow_4_2" />
      <feBlend mode="normal" in="SourceGraphic" in2="effect1_dropShadow_4_2" result="shape" />
    </filter>
    <filter id="filter1_d_4_2" x="153.4" y="21.4" width="25.2" height="25.2" filterUnits="userSpaceOnUse" color-interpolation-filters="sRGB">
      <feFlood flood-opacity="0" result="BackgroundImageFix" />
      <feColorMatrix in="SourceAlpha" type="matrix" values="0 0 0 0 0 0 0 0 0 0 0 0 0 0 0 0 0 0 127 0" result="hardAlpha" />
      <feOffset dx="1" dy="1" />
      <feGaussianBlur stdDeviation="0.8" />
      <feColorMatrix type="matrix" values="0 0 0 0 0 0 0 0 0 0 0 0 0 0 0 0 0 0 0.1 0" />
      <feBlend mode="normal" in2="BackgroundImageFix" result="effect1_dropShadow_4_2" />
      <feBlend mode="normal" in="SourceGraphic" in2="effect1_dropShadow_4_2" result="shape" />
    </filter>
    <clipPath id="clip0_4_2">
      <rect width="22" height="22" fill="#FFFFFF" transform="translate(154 22)" />
    </clipPath>
  </defs>
</svg>