<svg width="325" height="167" viewBox="0 0 325 167" fill="none" xmlns="http://www.w3.org/2000/svg">
  <g>
    <rect width="325" height="167" fill="var(--vscode-activityBar-background, #FFFFFF)" />
    <g filter="url(#filter0_d_10_101)">
      <rect width="307" height="145" transform="translate(9 11)" fill="var(--vscode-activityBar-background, #FFFFFF)" />
      <path d="M9 74H316M9 147H316" stroke="#2B7BD6" />
      <g>
        <path d="M21.986 43.012L22.994 43.138V52H22.112L22.016 51.166C21.78 51.502 21.508 51.748 21.2 51.904C20.896 52.06 20.57 52.138 20.222 52.138C19.674 52.138 19.222 52 18.866 51.724C18.51 51.448 18.246 51.064 18.074 50.572C17.902 50.076 17.816 49.502 17.816 48.85C17.816 48.218 17.914 47.654 18.11 47.158C18.306 46.658 18.588 46.266 18.956 45.982C19.328 45.694 19.774 45.55 20.294 45.55C20.658 45.55 20.978 45.614 21.254 45.742C21.53 45.866 21.774 46.05 21.986 46.294V43.012ZM20.558 46.36C20.03 46.36 19.624 46.566 19.34 46.978C19.056 47.39 18.914 48.014 18.914 48.85C18.914 49.394 18.972 49.85 19.088 50.218C19.204 50.586 19.374 50.862 19.598 51.046C19.826 51.23 20.104 51.322 20.432 51.322C20.792 51.322 21.098 51.22 21.35 51.016C21.606 50.812 21.818 50.582 21.986 50.326V47.17C21.814 46.914 21.606 46.716 21.362 46.576C21.118 46.432 20.85 46.36 20.558 46.36ZM26.1933 49.198C26.2133 49.686 26.3073 50.086 26.4753 50.398C26.6433 50.706 26.8653 50.934 27.1413 51.082C27.4173 51.226 27.7173 51.298 28.0413 51.298C28.3653 51.298 28.6573 51.25 28.9173 51.154C29.1813 51.058 29.4513 50.916 29.7273 50.728L30.2013 51.394C29.9053 51.626 29.5673 51.808 29.1873 51.94C28.8113 52.072 28.4253 52.138 28.0293 52.138C27.4173 52.138 26.8953 52 26.4633 51.724C26.0313 51.448 25.7013 51.064 25.4733 50.572C25.2493 50.076 25.1373 49.502 25.1373 48.85C25.1373 48.21 25.2513 47.642 25.4793 47.146C25.7073 46.65 26.0273 46.26 26.4393 45.976C26.8513 45.692 27.3373 45.55 27.8973 45.55C28.4293 45.55 28.8873 45.676 29.2713 45.928C29.6553 46.176 29.9493 46.532 30.1533 46.996C30.3613 47.456 30.4653 48.006 30.4653 48.646C30.4653 48.754 30.4633 48.856 30.4593 48.952C30.4553 49.044 30.4493 49.126 30.4413 49.198H26.1933ZM27.9093 46.378C27.4413 46.378 27.0493 46.544 26.7333 46.876C26.4213 47.208 26.2433 47.722 26.1993 48.418H29.4933C29.4813 47.742 29.3333 47.234 29.0493 46.894C28.7653 46.55 28.3853 46.378 27.9093 46.378ZM36.3286 43.012C36.6686 43.012 36.9766 43.042 37.2526 43.102C37.5286 43.162 37.7906 43.246 38.0386 43.354L37.7146 44.104C37.5106 44.016 37.2946 43.95 37.0666 43.906C36.8386 43.862 36.6026 43.84 36.3586 43.84C35.9186 43.84 35.5866 43.926 35.3626 44.098C35.1426 44.27 35.0326 44.534 35.0326 44.89V46.174H37.1746L37.0666 46.966H35.0326V52H34.0246V46.966H32.5186V46.174H34.0246V44.914C34.0246 44.522 34.1246 44.184 34.3246 43.9C34.5286 43.616 34.8046 43.398 35.1526 43.246C35.5006 43.09 35.8926 43.012 36.3286 43.012Z" fill="var(--vscode-charts-red, #D73A49)" />
        <path d="M49.8433 51.268C50.1593 51.268 50.4533 51.216 50.7253 51.112C51.0013 51.008 51.2553 50.876 51.4873 50.716L51.9792 51.376C51.7033 51.612 51.3713 51.798 50.9833 51.934C50.5953 52.07 50.2153 52.138 49.8433 52.138C49.2153 52.138 48.6793 52.004 48.2353 51.736C47.7953 51.464 47.4593 51.084 47.2273 50.596C46.9953 50.104 46.8793 49.528 46.8793 48.868C46.8793 48.236 46.9953 47.67 47.2273 47.17C47.4633 46.666 47.8013 46.27 48.2413 45.982C48.6853 45.694 49.2233 45.55 49.8553 45.55C50.2593 45.55 50.6373 45.612 50.9893 45.736C51.3453 45.856 51.6713 46.038 51.9673 46.282L51.4753 46.954C51.2073 46.766 50.9373 46.626 50.6653 46.534C50.3973 46.438 50.1233 46.39 49.8433 46.39C49.2993 46.39 48.8513 46.594 48.4993 47.002C48.1473 47.41 47.9713 48.032 47.9713 48.868C47.9713 49.428 48.0513 49.886 48.2113 50.242C48.3753 50.594 48.5973 50.854 48.8773 51.022C49.1613 51.186 49.4833 51.268 49.8433 51.268ZM56.5886 45.55C57.1846 45.55 57.6826 45.686 58.0826 45.958C58.4866 46.226 58.7886 46.606 58.9886 47.098C59.1926 47.59 59.2946 48.17 59.2946 48.838C59.2946 49.482 59.1906 50.052 58.9826 50.548C58.7746 51.044 58.4686 51.434 58.0646 51.718C57.6646 51.998 57.1686 52.138 56.5766 52.138C55.9846 52.138 55.4866 52.002 55.0826 51.73C54.6786 51.458 54.3726 51.076 54.1646 50.584C53.9606 50.088 53.8586 49.51 53.8586 48.85C53.8586 48.198 53.9626 47.624 54.1706 47.128C54.3786 46.632 54.6846 46.246 55.0886 45.97C55.4966 45.69 55.9966 45.55 56.5886 45.55ZM56.5886 46.372C56.0446 46.372 55.6326 46.574 55.3526 46.978C55.0766 47.378 54.9386 48.002 54.9386 48.85C54.9386 49.682 55.0746 50.3 55.3466 50.704C55.6226 51.108 56.0326 51.31 56.5766 51.31C57.1206 51.31 57.5286 51.108 57.8006 50.704C58.0766 50.3 58.2146 49.678 58.2146 48.838C58.2146 47.998 58.0786 47.378 57.8066 46.978C57.5346 46.574 57.1286 46.372 56.5886 46.372ZM61.3779 52V45.682H62.2359L62.3139 46.558C62.5699 46.234 62.8899 45.986 63.2739 45.814C63.6619 45.638 64.0379 45.55 64.4019 45.55C65.0219 45.55 65.4719 45.714 65.7519 46.042C66.0359 46.37 66.1779 46.826 66.1779 47.41V52H65.1699V48.154C65.1699 47.722 65.1459 47.374 65.0979 47.11C65.0499 46.842 64.9499 46.648 64.7979 46.528C64.6459 46.404 64.4099 46.342 64.0899 46.342C63.8419 46.342 63.6079 46.396 63.3879 46.504C63.1719 46.612 62.9779 46.748 62.8059 46.912C62.6379 47.072 62.4979 47.234 62.3859 47.398V52H61.3779ZM70.7212 51.304C71.2052 51.304 71.5872 51.214 71.8672 51.034C72.1512 50.85 72.2932 50.606 72.2932 50.302C72.2932 50.11 72.2572 49.944 72.1852 49.804C72.1172 49.664 71.9752 49.538 71.7592 49.426C71.5432 49.314 71.2112 49.202 70.7632 49.09C70.3272 48.982 69.9472 48.858 69.6232 48.718C69.3032 48.574 69.0532 48.388 68.8732 48.16C68.6972 47.932 68.6092 47.636 68.6092 47.272C68.6092 46.916 68.7092 46.61 68.9092 46.354C69.1132 46.094 69.3952 45.896 69.7552 45.76C70.1152 45.62 70.5332 45.55 71.0092 45.55C71.5172 45.55 71.9592 45.618 72.3352 45.754C72.7152 45.886 73.0372 46.05 73.3012 46.246L72.8572 46.93C72.6172 46.766 72.3532 46.632 72.0652 46.528C71.7772 46.42 71.4292 46.366 71.0212 46.366C70.5252 46.366 70.1732 46.444 69.9652 46.6C69.7572 46.752 69.6532 46.95 69.6532 47.194C69.6532 47.378 69.7032 47.532 69.8032 47.656C69.9072 47.776 70.0812 47.886 70.3252 47.986C70.5692 48.082 70.9052 48.188 71.3332 48.304C71.7452 48.412 72.1032 48.542 72.4072 48.694C72.7152 48.846 72.9552 49.046 73.1272 49.294C73.2992 49.542 73.3852 49.862 73.3852 50.254C73.3852 50.702 73.2572 51.066 73.0012 51.346C72.7452 51.622 72.4132 51.824 72.0052 51.952C71.6012 52.076 71.1732 52.138 70.7212 52.138C70.1492 52.138 69.6612 52.056 69.2572 51.892C68.8572 51.724 68.5212 51.522 68.2492 51.286L68.8252 50.62C69.0732 50.824 69.3572 50.99 69.6772 51.118C70.0012 51.242 70.3492 51.304 70.7212 51.304ZM80.7845 51.682C80.5685 51.826 80.3065 51.938 79.9985 52.018C79.6905 52.098 79.3885 52.138 79.0925 52.138C78.4125 52.138 77.8885 51.96 77.5205 51.604C77.1525 51.248 76.9685 50.79 76.9685 50.23V46.462H75.5165V45.682H76.9685V44.248L77.9765 44.128V45.682H80.1605L80.0405 46.462H77.9765V50.218C77.9765 50.57 78.0685 50.838 78.2525 51.022C78.4405 51.206 78.7505 51.298 79.1825 51.298C79.4185 51.298 79.6365 51.27 79.8365 51.214C80.0365 51.158 80.2225 51.086 80.3945 50.998L80.7845 51.682ZM83.0238 52V51.226H84.0078V46.456H83.0238V45.682H84.7758L84.9618 47.176C85.2058 46.656 85.5018 46.254 85.8498 45.97C86.1978 45.686 86.6578 45.544 87.2298 45.544C87.4058 45.544 87.5618 45.558 87.6978 45.586C87.8378 45.61 87.9798 45.642 88.1238 45.682L87.8298 46.582C87.6978 46.546 87.5778 46.52 87.4698 46.504C87.3618 46.484 87.2378 46.474 87.0978 46.474C86.6138 46.474 86.1978 46.646 85.8498 46.99C85.5018 47.334 85.2238 47.854 85.0158 48.55V51.226H86.2998V52H83.0238ZM87.1518 47.818V46.444L87.2538 45.682H88.1238L87.9798 47.818H87.1518ZM91.1671 45.682V50.158C91.1671 50.574 91.2531 50.874 91.4251 51.058C91.5971 51.242 91.8651 51.334 92.2291 51.334C92.5771 51.334 92.9051 51.236 93.2131 51.04C93.5251 50.84 93.7671 50.604 93.9391 50.332V45.682H94.9471V52H94.0891L94.0051 51.148C93.7571 51.468 93.4511 51.714 93.0871 51.886C92.7231 52.054 92.3551 52.138 91.9831 52.138C91.3711 52.138 90.9131 51.976 90.6091 51.652C90.3091 51.324 90.1591 50.866 90.1591 50.278V45.682H91.1671ZM100.21 51.268C100.526 51.268 100.82 51.216 101.092 51.112C101.368 51.008 101.622 50.876 101.854 50.716L102.346 51.376C102.07 51.612 101.738 51.798 101.35 51.934C100.962 52.07 100.582 52.138 100.21 52.138C99.5824 52.138 99.0464 52.004 98.6024 51.736C98.1624 51.464 97.8264 51.084 97.5944 50.596C97.3624 50.104 97.2464 49.528 97.2464 48.868C97.2464 48.236 97.3624 47.67 97.5944 47.17C97.8304 46.666 98.1684 46.27 98.6084 45.982C99.0524 45.694 99.5904 45.55 100.222 45.55C100.626 45.55 101.004 45.612 101.356 45.736C101.712 45.856 102.038 46.038 102.334 46.282L101.842 46.954C101.574 46.766 101.304 46.626 101.032 46.534C100.764 46.438 100.49 46.39 100.21 46.39C99.6664 46.39 99.2184 46.594 98.8664 47.002C98.5144 47.41 98.3384 48.032 98.3384 48.868C98.3384 49.428 98.4184 49.886 98.5784 50.242C98.7424 50.594 98.9644 50.854 99.2444 51.022C99.5284 51.186 99.8504 51.268 100.21 51.268ZM109.566 51.682C109.35 51.826 109.088 51.938 108.78 52.018C108.472 52.098 108.17 52.138 107.874 52.138C107.194 52.138 106.67 51.96 106.302 51.604C105.934 51.248 105.75 50.79 105.75 50.23V46.462H104.298V45.682H105.75V44.248L106.758 44.128V45.682H108.942L108.822 46.462H106.758V50.218C106.758 50.57 106.85 50.838 107.034 51.022C107.222 51.206 107.532 51.298 107.964 51.298C108.2 51.298 108.418 51.27 108.618 51.214C108.818 51.158 109.004 51.086 109.176 50.998L109.566 51.682Z" fill="var(--vscode-editorBracketHighlight-foreground3, #6F42C1)" />
        <path d="M113.089 47.8C113.089 48.424 113.143 48.984 113.251 49.48C113.359 49.972 113.519 50.424 113.731 50.836C113.943 51.244 114.209 51.632 114.529 52C114.853 52.372 115.229 52.748 115.657 53.128L115.129 53.68C114.481 53.148 113.925 52.604 113.461 52.048C113.001 51.492 112.647 50.872 112.399 50.188C112.155 49.504 112.033 48.708 112.033 47.8C112.033 46.888 112.155 46.09 112.399 45.406C112.647 44.722 113.001 44.102 113.461 43.546C113.925 42.99 114.481 42.448 115.129 41.92L115.657 42.472C115.225 42.856 114.847 43.234 114.523 43.606C114.203 43.974 113.937 44.362 113.725 44.77C113.513 45.174 113.353 45.624 113.245 46.12C113.141 46.612 113.089 47.172 113.089 47.8Z" fill="var(--vscode-badge-foreground, #005CC5)" />
        <path d="M121.088 51.304C121.572 51.304 121.954 51.214 122.234 51.034C122.518 50.85 122.66 50.606 122.66 50.302C122.66 50.11 122.624 49.944 122.552 49.804C122.484 49.664 122.342 49.538 122.126 49.426C121.91 49.314 121.578 49.202 121.13 49.09C120.694 48.982 120.314 48.858 119.99 48.718C119.67 48.574 119.42 48.388 119.24 48.16C119.064 47.932 118.976 47.636 118.976 47.272C118.976 46.916 119.076 46.61 119.276 46.354C119.48 46.094 119.762 45.896 120.122 45.76C120.482 45.62 120.9 45.55 121.376 45.55C121.884 45.55 122.326 45.618 122.702 45.754C123.082 45.886 123.404 46.05 123.668 46.246L123.224 46.93C122.984 46.766 122.72 46.632 122.432 46.528C122.144 46.42 121.796 46.366 121.388 46.366C120.892 46.366 120.54 46.444 120.332 46.6C120.124 46.752 120.02 46.95 120.02 47.194C120.02 47.378 120.07 47.532 120.17 47.656C120.274 47.776 120.448 47.886 120.692 47.986C120.936 48.082 121.272 48.188 121.7 48.304C122.112 48.412 122.47 48.542 122.774 48.694C123.082 48.846 123.322 49.046 123.494 49.294C123.666 49.542 123.752 49.862 123.752 50.254C123.752 50.702 123.624 51.066 123.368 51.346C123.112 51.622 122.78 51.824 122.372 51.952C121.968 52.076 121.54 52.138 121.088 52.138C120.516 52.138 120.028 52.056 119.624 51.892C119.224 51.724 118.888 51.522 118.616 51.286L119.192 50.62C119.44 50.824 119.724 50.99 120.044 51.118C120.368 51.242 120.716 51.304 121.088 51.304ZM126.928 49.198C126.948 49.686 127.042 50.086 127.21 50.398C127.378 50.706 127.6 50.934 127.876 51.082C128.152 51.226 128.452 51.298 128.776 51.298C129.1 51.298 129.392 51.25 129.652 51.154C129.916 51.058 130.186 50.916 130.462 50.728L130.936 51.394C130.64 51.626 130.302 51.808 129.922 51.94C129.546 52.072 129.16 52.138 128.764 52.138C128.152 52.138 127.63 52 127.198 51.724C126.766 51.448 126.436 51.064 126.208 50.572C125.984 50.076 125.872 49.502 125.872 48.85C125.872 48.21 125.986 47.642 126.214 47.146C126.442 46.65 126.762 46.26 127.174 45.976C127.586 45.692 128.072 45.55 128.632 45.55C129.164 45.55 129.622 45.676 130.006 45.928C130.39 46.176 130.684 46.532 130.888 46.996C131.096 47.456 131.2 48.006 131.2 48.646C131.2 48.754 131.198 48.856 131.194 48.952C131.19 49.044 131.184 49.126 131.176 49.198H126.928ZM128.644 46.378C128.176 46.378 127.784 46.544 127.468 46.876C127.156 47.208 126.978 47.722 126.934 48.418H130.228C130.216 47.742 130.068 47.234 129.784 46.894C129.5 46.55 129.12 46.378 128.644 46.378ZM135.791 43.138V50.44C135.791 50.752 135.887 50.974 136.079 51.106C136.275 51.234 136.527 51.298 136.835 51.298C137.027 51.298 137.209 51.278 137.381 51.238C137.553 51.198 137.725 51.144 137.897 51.076L138.167 51.814C137.995 51.898 137.781 51.972 137.525 52.036C137.273 52.104 136.987 52.138 136.667 52.138C136.107 52.138 135.653 51.984 135.305 51.676C134.957 51.364 134.783 50.934 134.783 50.386V43.936H132.845V43.138H135.791ZM144.258 43.012C144.598 43.012 144.906 43.042 145.182 43.102C145.458 43.162 145.72 43.246 145.968 43.354L145.644 44.104C145.44 44.016 145.224 43.95 144.996 43.906C144.768 43.862 144.532 43.84 144.288 43.84C143.848 43.84 143.516 43.926 143.292 44.098C143.072 44.27 142.962 44.534 142.962 44.89V46.174H145.104L144.996 46.966H142.962V52H141.954V46.966H140.448V46.174H141.954V44.914C141.954 44.522 142.054 44.184 142.254 43.9C142.458 43.616 142.734 43.398 143.082 43.246C143.43 43.09 143.822 43.012 144.258 43.012ZM156.333 50.2C156.333 49.94 156.425 49.714 156.609 49.522C156.797 49.33 157.027 49.234 157.299 49.234C157.579 49.234 157.811 49.33 157.995 49.522C158.183 49.714 158.277 49.94 158.277 50.2C158.277 50.472 158.183 50.704 157.995 50.896C157.811 51.084 157.579 51.178 157.299 51.178C157.027 51.178 156.797 51.084 156.609 50.896C156.425 50.704 156.333 50.472 156.333 50.2ZM156.333 45.874C156.333 45.69 156.375 45.526 156.459 45.382C156.543 45.238 156.659 45.124 156.807 45.04C156.955 44.952 157.119 44.908 157.299 44.908C157.579 44.908 157.811 45.002 157.995 45.19C158.183 45.378 158.277 45.606 158.277 45.874C158.277 46.138 158.183 46.368 157.995 46.564C157.811 46.756 157.579 46.852 157.299 46.852C157.027 46.852 156.797 46.756 156.609 46.564C156.425 46.368 156.333 46.138 156.333 45.874Z" fill="var(--vscode-editor-foreground, #24292E)" />
        <path d="M151.166 47.8C151.166 47.172 151.112 46.612 151.004 46.12C150.9 45.624 150.742 45.174 150.53 44.77C150.318 44.362 150.05 43.974 149.726 43.606C149.406 43.234 149.03 42.856 148.598 42.472L149.126 41.92C149.778 42.448 150.334 42.99 150.794 43.546C151.254 44.102 151.606 44.722 151.85 45.406C152.098 46.09 152.222 46.888 152.222 47.8C152.222 48.708 152.098 49.504 151.85 50.188C151.606 50.872 151.254 51.492 150.794 52.048C150.334 52.604 149.778 53.148 149.126 53.68L148.598 53.128C149.026 52.748 149.4 52.372 149.72 52C150.044 51.632 150.312 51.244 150.524 50.836C150.736 50.424 150.896 49.972 151.004 49.48C151.112 48.984 151.166 48.424 151.166 47.8Z" fill="var(--vscode-badge-foreground, #005CC7)" />
      </g>
      <g>
        <path d="M49.892 84.642L49.592 87.018H51.32V88.266H49.424L49.196 90H47.63L47.858 88.266H46.718L46.49 90H44.924L45.14 88.266H44.426V87.018H45.308L45.62 84.642H44.87V83.388H45.788L46.004 81.684H47.582L47.348 83.388H48.494L48.722 81.684H50.288L50.06 83.388H51.32V84.642H49.892ZM46.874 87.018H48.014L48.326 84.642H47.186L46.874 87.018ZM57.0873 84.642L56.7873 87.018H57.5373V88.266H56.6193L56.3913 90H54.8253L55.0533 88.266H53.9133L53.6853 90H52.1193L52.3353 88.266H51.0753V87.018H52.5033L52.8153 84.642H51.0753V83.388H52.9833L53.1993 81.684H54.7773L54.5433 83.388H55.6893L55.9173 81.684H57.4833L57.2553 83.388H57.9813V84.642H57.0873ZM54.0693 87.018H55.2093L55.5213 84.642H54.3813L54.0693 87.018ZM72.1079 81.684L72.5759 90H70.8599L70.7579 86.442C70.7499 86.11 70.7459 85.814 70.7459 85.554C70.7499 85.294 70.7559 85.05 70.7639 84.822C70.7719 84.59 70.7839 84.358 70.7999 84.126C70.8199 83.89 70.8399 83.634 70.8599 83.358L69.9239 88.584H68.4359L67.4279 83.358C67.4519 83.622 67.4719 83.872 67.4879 84.108C67.5079 84.34 67.5219 84.574 67.5299 84.81C67.5379 85.046 67.5439 85.3 67.5479 85.572C67.5519 85.84 67.5499 86.14 67.5419 86.472L67.4819 90H65.7959L66.2639 81.684H68.2859L69.2099 87.06L70.0859 81.684H72.1079ZM79.6453 83.628L77.5213 90C77.3333 90.564 77.0833 91.036 76.7713 91.416C76.4633 91.8 76.0773 92.096 75.6133 92.304C75.1533 92.512 74.5993 92.634 73.9513 92.67L73.7353 91.332C74.1553 91.28 74.4933 91.202 74.7493 91.098C75.0093 90.994 75.2173 90.852 75.3733 90.672C75.5333 90.496 75.6713 90.272 75.7873 90H75.1393L73.1173 83.628H75.1213L76.3573 88.788L77.7013 83.628H79.6453ZM92.0679 80.898C92.5319 80.898 92.9419 80.936 93.2979 81.012C93.6539 81.084 93.9719 81.18 94.2519 81.3L93.7299 82.536C93.5099 82.452 93.2839 82.392 93.0519 82.356C92.8199 82.316 92.5899 82.296 92.3619 82.296C91.9859 82.296 91.7159 82.364 91.5519 82.5C91.3919 82.636 91.3119 82.862 91.3119 83.178V84.03H93.3879L93.1779 85.344H91.3119V90H89.4279V85.344H88.0899V84.03H89.4279V83.106C89.4279 82.686 89.5279 82.31 89.7279 81.978C89.9279 81.646 90.2239 81.384 90.6159 81.192C91.0079 80.996 91.4919 80.898 92.0679 80.898ZM99.1012 84.03V88.704H100.721V90H95.3992V88.704H97.2052V85.344H95.4592V84.03H99.1012ZM97.9552 80.592C98.2832 80.592 98.5512 80.694 98.7592 80.898C98.9672 81.102 99.0712 81.356 99.0712 81.66C99.0712 81.964 98.9672 82.22 98.7592 82.428C98.5512 82.632 98.2832 82.734 97.9552 82.734C97.6232 82.734 97.3512 82.632 97.1392 82.428C96.9312 82.22 96.8272 81.964 96.8272 81.66C96.8272 81.356 96.9312 81.102 97.1392 80.898C97.3512 80.694 97.6232 80.592 97.9552 80.592ZM102.463 90V88.728H103.303V84.888H102.463V83.628H104.749L105.097 85.062C105.325 84.514 105.615 84.106 105.967 83.838C106.323 83.57 106.757 83.436 107.269 83.436C107.485 83.436 107.677 83.454 107.845 83.49C108.013 83.522 108.171 83.568 108.319 83.628L107.743 85.194C107.627 85.162 107.511 85.138 107.395 85.122C107.279 85.106 107.151 85.098 107.011 85.098C106.595 85.098 106.229 85.268 105.913 85.608C105.601 85.948 105.363 86.38 105.199 86.904V88.728H106.459V90H102.463ZM106.777 86.292V84.432L107.059 83.628H108.319L107.965 86.292H106.777ZM112.154 88.848C112.47 88.848 112.724 88.798 112.916 88.698C113.112 88.598 113.21 88.448 113.21 88.248C113.21 88.112 113.172 87.998 113.096 87.906C113.02 87.814 112.874 87.726 112.658 87.642C112.442 87.558 112.122 87.458 111.698 87.342C111.31 87.238 110.966 87.106 110.666 86.946C110.37 86.786 110.138 86.58 109.97 86.328C109.806 86.076 109.724 85.762 109.724 85.386C109.724 85.006 109.83 84.668 110.042 84.372C110.254 84.076 110.566 83.844 110.978 83.676C111.39 83.504 111.894 83.418 112.49 83.418C113.058 83.418 113.552 83.492 113.972 83.64C114.396 83.784 114.762 83.968 115.07 84.192L114.314 85.308C114.05 85.144 113.766 85.014 113.462 84.918C113.158 84.818 112.852 84.768 112.544 84.768C112.236 84.768 112.006 84.81 111.854 84.894C111.706 84.974 111.632 85.096 111.632 85.26C111.632 85.368 111.67 85.462 111.746 85.542C111.826 85.618 111.974 85.698 112.19 85.782C112.406 85.862 112.722 85.962 113.138 86.082C113.55 86.198 113.908 86.332 114.212 86.484C114.52 86.636 114.758 86.84 114.926 87.096C115.094 87.348 115.178 87.682 115.178 88.098C115.178 88.562 115.04 88.952 114.764 89.268C114.488 89.58 114.122 89.814 113.666 89.97C113.21 90.126 112.71 90.204 112.166 90.204C111.55 90.204 111.006 90.116 110.534 89.94C110.062 89.764 109.66 89.532 109.328 89.244L110.282 88.176C110.53 88.368 110.81 88.528 111.122 88.656C111.438 88.784 111.782 88.848 112.154 88.848ZM122.529 89.628C122.281 89.788 121.981 89.924 121.629 90.036C121.277 90.148 120.881 90.204 120.441 90.204C119.609 90.204 118.991 89.992 118.587 89.568C118.183 89.14 117.981 88.56 117.981 87.828V84.936H116.643V83.628H117.981V82.248L119.877 82.02V83.628H121.929L121.743 84.936H119.877V87.828C119.877 88.144 119.949 88.37 120.093 88.506C120.237 88.642 120.467 88.71 120.783 88.71C121.007 88.71 121.211 88.684 121.395 88.632C121.583 88.576 121.751 88.506 121.899 88.422L122.529 89.628ZM136.866 81.684L137.334 90H135.618L135.516 86.442C135.508 86.11 135.504 85.814 135.504 85.554C135.508 85.294 135.514 85.05 135.522 84.822C135.53 84.59 135.542 84.358 135.558 84.126C135.578 83.89 135.598 83.634 135.618 83.358L134.682 88.584H133.194L132.186 83.358C132.21 83.622 132.23 83.872 132.246 84.108C132.266 84.34 132.28 84.574 132.288 84.81C132.296 85.046 132.302 85.3 132.306 85.572C132.31 85.84 132.308 86.14 132.3 86.472L132.24 90H130.554L131.022 81.684H133.044L133.968 87.06L134.844 81.684H136.866ZM143.743 88.164C143.743 88.404 143.775 88.578 143.839 88.686C143.907 88.794 144.015 88.876 144.163 88.932L143.773 90.18C143.397 90.144 143.079 90.062 142.819 89.934C142.563 89.802 142.361 89.604 142.213 89.34C141.969 89.632 141.657 89.85 141.277 89.994C140.897 90.134 140.509 90.204 140.113 90.204C139.457 90.204 138.933 90.018 138.541 89.646C138.153 89.27 137.959 88.788 137.959 88.2C137.959 87.508 138.229 86.974 138.769 86.598C139.313 86.222 140.077 86.034 141.061 86.034H141.919V85.794C141.919 85.462 141.811 85.216 141.595 85.056C141.383 84.896 141.071 84.816 140.659 84.816C140.455 84.816 140.193 84.846 139.873 84.906C139.553 84.962 139.233 85.044 138.913 85.152L138.475 83.892C138.887 83.736 139.315 83.618 139.759 83.538C140.207 83.458 140.607 83.418 140.959 83.418C141.907 83.418 142.607 83.612 143.059 84C143.515 84.384 143.743 84.94 143.743 85.668V88.164ZM140.767 88.848C140.971 88.848 141.185 88.788 141.409 88.668C141.633 88.544 141.803 88.37 141.919 88.146V87.114H141.451C140.923 87.114 140.535 87.196 140.287 87.36C140.039 87.52 139.915 87.756 139.915 88.068C139.915 88.312 139.989 88.504 140.137 88.644C140.289 88.78 140.499 88.848 140.767 88.848ZM145.574 90V83.628H147.23L147.362 84.366C147.646 84.046 147.946 83.808 148.262 83.652C148.578 83.496 148.938 83.418 149.342 83.418C149.886 83.418 150.314 83.584 150.626 83.916C150.938 84.248 151.094 84.716 151.094 85.32V90H149.198V85.866C149.198 85.606 149.18 85.4 149.144 85.248C149.108 85.092 149.044 84.982 148.952 84.918C148.864 84.85 148.742 84.816 148.586 84.816C148.454 84.816 148.324 84.846 148.196 84.906C148.072 84.962 147.95 85.044 147.83 85.152C147.71 85.26 147.59 85.39 147.47 85.542V90H145.574ZM156.664 83.628V88.704H158.284V90H152.962V88.704H154.768V84.924H153.022V83.628H156.664ZM155.518 80.292C155.846 80.292 156.114 80.394 156.322 80.598C156.53 80.802 156.634 81.056 156.634 81.36C156.634 81.664 156.53 81.92 156.322 82.128C156.114 82.332 155.846 82.434 155.518 82.434C155.186 82.434 154.914 82.332 154.702 82.128C154.494 81.92 154.39 81.664 154.39 81.36C154.39 81.056 154.494 80.802 154.702 80.598C154.914 80.394 155.186 80.292 155.518 80.292ZM164.675 83.418C164.979 83.418 165.229 83.482 165.425 83.61C165.621 83.738 165.767 83.94 165.863 84.216C165.959 84.488 166.007 84.844 166.007 85.284V90H164.381V85.5C164.381 85.276 164.359 85.118 164.315 85.026C164.275 84.934 164.191 84.888 164.063 84.888C163.963 84.888 163.859 84.918 163.751 84.978C163.647 85.034 163.531 85.142 163.403 85.302V90H162.071V85.5C162.071 85.276 162.049 85.118 162.005 85.026C161.965 84.934 161.881 84.888 161.753 84.888C161.653 84.888 161.549 84.918 161.441 84.978C161.337 85.034 161.221 85.142 161.093 85.302V90H159.443V83.628H160.835L160.961 84.246C161.161 83.974 161.363 83.768 161.567 83.628C161.771 83.488 162.013 83.418 162.293 83.418C162.533 83.418 162.737 83.48 162.905 83.604C163.077 83.724 163.199 83.914 163.271 84.174C163.463 83.95 163.675 83.768 163.907 83.628C164.139 83.488 164.395 83.418 164.675 83.418ZM177.812 81.474C178.408 81.474 178.914 81.554 179.33 81.714C179.75 81.87 180.134 82.092 180.482 82.38L179.516 83.544C179.288 83.356 179.036 83.208 178.76 83.1C178.484 82.988 178.184 82.932 177.86 82.932C177.512 82.932 177.194 83.032 176.906 83.232C176.618 83.428 176.388 83.74 176.216 84.168C176.044 84.592 175.958 85.144 175.958 85.824C175.958 86.492 176.04 87.038 176.204 87.462C176.372 87.882 176.602 88.192 176.894 88.392C177.186 88.588 177.52 88.686 177.896 88.686C178.312 88.686 178.658 88.608 178.934 88.452C179.21 88.296 179.464 88.126 179.696 87.942L180.59 89.082C180.278 89.39 179.894 89.654 179.438 89.874C178.982 90.094 178.432 90.204 177.788 90.204C177.036 90.204 176.368 90.038 175.784 89.706C175.204 89.37 174.748 88.878 174.416 88.23C174.088 87.578 173.924 86.776 173.924 85.824C173.924 84.896 174.094 84.108 174.434 83.46C174.778 82.812 175.244 82.32 175.832 81.984C176.42 81.644 177.08 81.474 177.812 81.474ZM183.195 87.366C183.239 87.714 183.329 87.996 183.465 88.212C183.605 88.424 183.783 88.58 183.999 88.68C184.215 88.776 184.457 88.824 184.725 88.824C185.017 88.824 185.299 88.776 185.571 88.68C185.843 88.584 186.105 88.456 186.357 88.296L187.119 89.328C186.819 89.584 186.455 89.794 186.027 89.958C185.603 90.122 185.119 90.204 184.575 90.204C183.847 90.204 183.237 90.06 182.745 89.772C182.253 89.48 181.883 89.08 181.635 88.572C181.387 88.064 181.263 87.48 181.263 86.82C181.263 86.192 181.383 85.622 181.623 85.11C181.863 84.594 182.213 84.184 182.673 83.88C183.137 83.572 183.703 83.418 184.371 83.418C184.979 83.418 185.505 83.548 185.949 83.808C186.397 84.068 186.743 84.442 186.987 84.93C187.235 85.418 187.359 86.004 187.359 86.688C187.359 86.796 187.355 86.912 187.347 87.036C187.343 87.16 187.335 87.27 187.323 87.366H183.195ZM184.371 84.69C184.031 84.69 183.757 84.812 183.549 85.056C183.341 85.3 183.215 85.69 183.171 86.226H185.511C185.507 85.762 185.417 85.39 185.241 85.11C185.065 84.83 184.775 84.69 184.371 84.69ZM192.07 81.096V87.996C192.07 88.252 192.142 88.436 192.286 88.548C192.434 88.656 192.636 88.71 192.892 88.71C193.056 88.71 193.214 88.692 193.366 88.656C193.518 88.616 193.66 88.57 193.792 88.518L194.248 89.784C194.032 89.896 193.772 89.994 193.468 90.078C193.164 90.162 192.81 90.204 192.406 90.204C191.638 90.204 191.074 89.984 190.714 89.544C190.354 89.1 190.174 88.506 190.174 87.762V82.392H188.296V81.096H192.07ZM199.266 81.096V87.996C199.266 88.252 199.338 88.436 199.482 88.548C199.63 88.656 199.832 88.71 200.088 88.71C200.252 88.71 200.41 88.692 200.562 88.656C200.714 88.616 200.856 88.57 200.988 88.518L201.444 89.784C201.228 89.896 200.968 89.994 200.664 90.078C200.36 90.162 200.006 90.204 199.602 90.204C198.834 90.204 198.27 89.984 197.91 89.544C197.55 89.1 197.37 88.506 197.37 87.762V82.392H195.492V81.096H199.266Z" fill="var(--vscode-editorGroup-dropBackground, #2B7BD6)" />
        <path d="M48.062 105.268C48.378 105.268 48.672 105.216 48.944 105.112C49.22 105.008 49.474 104.876 49.706 104.716L50.198 105.376C49.922 105.612 49.59 105.798 49.202 105.934C48.814 106.07 48.434 106.138 48.062 106.138C47.434 106.138 46.898 106.004 46.454 105.736C46.014 105.464 45.678 105.084 45.446 104.596C45.214 104.104 45.098 103.528 45.098 102.868C45.098 102.236 45.214 101.67 45.446 101.17C45.682 100.666 46.02 100.27 46.46 99.982C46.904 99.694 47.442 99.55 48.074 99.55C48.478 99.55 48.856 99.612 49.208 99.736C49.564 99.856 49.89 100.038 50.186 100.282L49.694 100.954C49.426 100.766 49.156 100.626 48.884 100.534C48.616 100.438 48.342 100.39 48.062 100.39C47.518 100.39 47.07 100.594 46.718 101.002C46.366 101.41 46.19 102.032 46.19 102.868C46.19 103.428 46.27 103.886 46.43 104.242C46.594 104.594 46.816 104.854 47.096 105.022C47.38 105.186 47.702 105.268 48.062 105.268ZM55.5993 99.682V105.202H57.3813V106H52.6413V105.202H54.5913V100.48H52.7013V99.682H55.5993ZM54.7953 96.724C55.0193 96.724 55.1973 96.792 55.3293 96.928C55.4653 97.064 55.5333 97.23 55.5333 97.426C55.5333 97.63 55.4653 97.802 55.3293 97.942C55.1973 98.078 55.0193 98.146 54.7953 98.146C54.5833 98.146 54.4093 98.078 54.2733 97.942C54.1373 97.802 54.0693 97.63 54.0693 97.426C54.0693 97.23 54.1373 97.064 54.2733 96.928C54.4093 96.792 54.5833 96.724 54.7953 96.724ZM59.6566 106V105.226H60.6406V100.456H59.6566V99.682H61.4086L61.5946 101.176C61.8386 100.656 62.1346 100.254 62.4826 99.97C62.8306 99.686 63.2906 99.544 63.8626 99.544C64.0386 99.544 64.1946 99.558 64.3306 99.586C64.4706 99.61 64.6126 99.642 64.7566 99.682L64.4626 100.582C64.3306 100.546 64.2106 100.52 64.1026 100.504C63.9946 100.484 63.8706 100.474 63.7306 100.474C63.2466 100.474 62.8306 100.646 62.4826 100.99C62.1346 101.334 61.8566 101.854 61.6486 102.55V105.226H62.9326V106H59.6566ZM63.7846 101.818V100.444L63.8866 99.682H64.7566L64.6126 101.818H63.7846ZM69.6479 105.268C69.9639 105.268 70.2579 105.216 70.5299 105.112C70.8059 105.008 71.0599 104.876 71.2919 104.716L71.7839 105.376C71.5079 105.612 71.1759 105.798 70.7879 105.934C70.3999 106.07 70.0199 106.138 69.6479 106.138C69.0199 106.138 68.4839 106.004 68.0399 105.736C67.5999 105.464 67.2639 105.084 67.0319 104.596C66.7999 104.104 66.6839 103.528 66.6839 102.868C66.6839 102.236 66.7999 101.67 67.0319 101.17C67.2679 100.666 67.6059 100.27 68.0459 99.982C68.4899 99.694 69.0279 99.55 69.6599 99.55C70.0639 99.55 70.4419 99.612 70.7939 99.736C71.1499 99.856 71.4759 100.038 71.7719 100.282L71.2799 100.954C71.0119 100.766 70.7419 100.626 70.4699 100.534C70.2019 100.438 69.9279 100.39 69.6479 100.39C69.1039 100.39 68.6559 100.594 68.3039 101.002C67.9519 101.41 67.7759 102.032 67.7759 102.868C67.7759 103.428 67.8559 103.886 68.0159 104.242C68.1799 104.594 68.4019 104.854 68.6819 105.022C68.9659 105.186 69.2879 105.268 69.6479 105.268ZM76.4473 97.138V104.44C76.4473 104.752 76.5433 104.974 76.7353 105.106C76.9313 105.234 77.1833 105.298 77.4913 105.298C77.6833 105.298 77.8653 105.278 78.0373 105.238C78.2093 105.198 78.3813 105.144 78.5533 105.076L78.8233 105.814C78.6513 105.898 78.4373 105.972 78.1813 106.036C77.9293 106.104 77.6433 106.138 77.3233 106.138C76.7633 106.138 76.3093 105.984 75.9613 105.676C75.6133 105.364 75.4393 104.934 75.4393 104.386V97.936H73.5013V97.138H76.4473ZM81.9746 103.198C81.9946 103.686 82.0886 104.086 82.2566 104.398C82.4246 104.706 82.6466 104.934 82.9226 105.082C83.1986 105.226 83.4986 105.298 83.8226 105.298C84.1466 105.298 84.4386 105.25 84.6986 105.154C84.9626 105.058 85.2326 104.916 85.5086 104.728L85.9826 105.394C85.6866 105.626 85.3486 105.808 84.9686 105.94C84.5926 106.072 84.2066 106.138 83.8106 106.138C83.1986 106.138 82.6766 106 82.2446 105.724C81.8126 105.448 81.4826 105.064 81.2546 104.572C81.0306 104.076 80.9186 103.502 80.9186 102.85C80.9186 102.21 81.0326 101.642 81.2606 101.146C81.4886 100.65 81.8086 100.26 82.2206 99.976C82.6326 99.692 83.1186 99.55 83.6786 99.55C84.2106 99.55 84.6686 99.676 85.0526 99.928C85.4366 100.176 85.7306 100.532 85.9346 100.996C86.1426 101.456 86.2466 102.006 86.2466 102.646C86.2466 102.754 86.2446 102.856 86.2406 102.952C86.2366 103.044 86.2306 103.126 86.2226 103.198H81.9746ZM83.6906 100.378C83.2226 100.378 82.8306 100.544 82.5146 100.876C82.2026 101.208 82.0246 101.722 81.9806 102.418H85.2746C85.2626 101.742 85.1146 101.234 84.8306 100.894C84.5466 100.55 84.1666 100.378 83.6906 100.378ZM48.062 121.268C48.378 121.268 48.672 121.216 48.944 121.112C49.22 121.008 49.474 120.876 49.706 120.716L50.198 121.376C49.922 121.612 49.59 121.798 49.202 121.934C48.814 122.07 48.434 122.138 48.062 122.138C47.434 122.138 46.898 122.004 46.454 121.736C46.014 121.464 45.678 121.084 45.446 120.596C45.214 120.104 45.098 119.528 45.098 118.868C45.098 118.236 45.214 117.67 45.446 117.17C45.682 116.666 46.02 116.27 46.46 115.982C46.904 115.694 47.442 115.55 48.074 115.55C48.478 115.55 48.856 115.612 49.208 115.736C49.564 115.856 49.89 116.038 50.186 116.282L49.694 116.954C49.426 116.766 49.156 116.626 48.884 116.534C48.616 116.438 48.342 116.39 48.062 116.39C47.518 116.39 47.07 116.594 46.718 117.002C46.366 117.41 46.19 118.032 46.19 118.868C46.19 119.428 46.27 119.886 46.43 120.242C46.594 120.594 46.816 120.854 47.096 121.022C47.38 121.186 47.702 121.268 48.062 121.268ZM55.5993 115.682V121.202H57.3813V122H52.6413V121.202H54.5913V116.48H52.7013V115.682H55.5993ZM54.7953 112.724C55.0193 112.724 55.1973 112.792 55.3293 112.928C55.4653 113.064 55.5333 113.23 55.5333 113.426C55.5333 113.63 55.4653 113.802 55.3293 113.942C55.1973 114.078 55.0193 114.146 54.7953 114.146C54.5833 114.146 54.4093 114.078 54.2733 113.942C54.1373 113.802 54.0693 113.63 54.0693 113.426C54.0693 113.23 54.1373 113.064 54.2733 112.928C54.4093 112.792 54.5833 112.724 54.7953 112.724ZM59.6566 122V121.226H60.6406V116.456H59.6566V115.682H61.4086L61.5946 117.176C61.8386 116.656 62.1346 116.254 62.4826 115.97C62.8306 115.686 63.2906 115.544 63.8626 115.544C64.0386 115.544 64.1946 115.558 64.3306 115.586C64.4706 115.61 64.6126 115.642 64.7566 115.682L64.4626 116.582C64.3306 116.546 64.2106 116.52 64.1026 116.504C63.9946 116.484 63.8706 116.474 63.7306 116.474C63.2466 116.474 62.8306 116.646 62.4826 116.99C62.1346 117.334 61.8566 117.854 61.6486 118.55V121.226H62.9326V122H59.6566ZM63.7846 117.818V116.444L63.8866 115.682H64.7566L64.6126 117.818H63.7846ZM69.6479 121.268C69.9639 121.268 70.2579 121.216 70.5299 121.112C70.8059 121.008 71.0599 120.876 71.2919 120.716L71.7839 121.376C71.5079 121.612 71.1759 121.798 70.7879 121.934C70.3999 122.07 70.0199 122.138 69.6479 122.138C69.0199 122.138 68.4839 122.004 68.0399 121.736C67.5999 121.464 67.2639 121.084 67.0319 120.596C66.7999 120.104 66.6839 119.528 66.6839 118.868C66.6839 118.236 66.7999 117.67 67.0319 117.17C67.2679 116.666 67.6059 116.27 68.0459 115.982C68.4899 115.694 69.0279 115.55 69.6599 115.55C70.0639 115.55 70.4419 115.612 70.7939 115.736C71.1499 115.856 71.4759 116.038 71.7719 116.282L71.2799 116.954C71.0119 116.766 70.7419 116.626 70.4699 116.534C70.2019 116.438 69.9279 116.39 69.6479 116.39C69.1039 116.39 68.6559 116.594 68.3039 117.002C67.9519 117.41 67.7759 118.032 67.7759 118.868C67.7759 119.428 67.8559 119.886 68.0159 120.242C68.1799 120.594 68.4019 120.854 68.6819 121.022C68.9659 121.186 69.2879 121.268 69.6479 121.268ZM76.4473 113.138V120.44C76.4473 120.752 76.5433 120.974 76.7353 121.106C76.9313 121.234 77.1833 121.298 77.4913 121.298C77.6833 121.298 77.8653 121.278 78.0373 121.238C78.2093 121.198 78.3813 121.144 78.5533 121.076L78.8233 121.814C78.6513 121.898 78.4373 121.972 78.1813 122.036C77.9293 122.104 77.6433 122.138 77.3233 122.138C76.7633 122.138 76.3093 121.984 75.9613 121.676C75.6133 121.364 75.4393 120.934 75.4393 120.386V113.936H73.5013V113.138H76.4473ZM81.9746 119.198C81.9946 119.686 82.0886 120.086 82.2566 120.398C82.4246 120.706 82.6466 120.934 82.9226 121.082C83.1986 121.226 83.4986 121.298 83.8226 121.298C84.1466 121.298 84.4386 121.25 84.6986 121.154C84.9626 121.058 85.2326 120.916 85.5086 120.728L85.9826 121.394C85.6866 121.626 85.3486 121.808 84.9686 121.94C84.5926 122.072 84.2066 122.138 83.8106 122.138C83.1986 122.138 82.6766 122 82.2446 121.724C81.8126 121.448 81.4826 121.064 81.2546 120.572C81.0306 120.076 80.9186 119.502 80.9186 118.85C80.9186 118.21 81.0326 117.642 81.2606 117.146C81.4886 116.65 81.8086 116.26 82.2206 115.976C82.6326 115.692 83.1186 115.55 83.6786 115.55C84.2106 115.55 84.6686 115.676 85.0526 115.928C85.4366 116.176 85.7306 116.532 85.9346 116.996C86.1426 117.456 86.2466 118.006 86.2466 118.646C86.2466 118.754 86.2446 118.856 86.2406 118.952C86.2366 119.044 86.2306 119.126 86.2226 119.198H81.9746ZM83.6906 116.378C83.2226 116.378 82.8306 116.544 82.5146 116.876C82.2026 117.208 82.0246 117.722 81.9806 118.418H85.2746C85.2626 117.742 85.1146 117.234 84.8306 116.894C84.5466 116.55 84.1666 116.378 83.6906 116.378ZM89.7099 121.076C89.7099 120.88 89.7559 120.704 89.8479 120.548C89.9399 120.388 90.0639 120.262 90.2199 120.17C90.3799 120.074 90.5599 120.026 90.7599 120.026C90.9639 120.026 91.1459 120.074 91.3059 120.17C91.4659 120.262 91.5919 120.388 91.6839 120.548C91.7759 120.704 91.8219 120.88 91.8219 121.076C91.8219 121.272 91.7759 121.452 91.6839 121.616C91.5919 121.776 91.4659 121.904 91.3059 122C91.1459 122.092 90.9639 122.138 90.7599 122.138C90.5599 122.138 90.3799 122.092 90.2199 122C90.0639 121.904 89.9399 121.776 89.8479 121.616C89.7559 121.452 89.7099 121.272 89.7099 121.076ZM220.288 120.026C220.564 120.026 220.794 120.12 220.978 120.308C221.166 120.496 221.26 120.722 221.26 120.986C221.26 121.13 221.242 121.276 221.206 121.424C221.174 121.572 221.114 121.74 221.026 121.928L220.054 124.154H219.142L219.717 121.784C219.598 121.696 219.502 121.582 219.43 121.442C219.362 121.298 219.328 121.146 219.328 120.986C219.328 120.718 219.42 120.492 219.604 120.308C219.788 120.12 220.016 120.026 220.288 120.026ZM47.354 137.304C47.838 137.304 48.22 137.214 48.5 137.034C48.784 136.85 48.926 136.606 48.926 136.302C48.926 136.11 48.89 135.944 48.818 135.804C48.75 135.664 48.608 135.538 48.392 135.426C48.176 135.314 47.844 135.202 47.396 135.09C46.96 134.982 46.58 134.858 46.256 134.718C45.936 134.574 45.686 134.388 45.506 134.16C45.33 133.932 45.242 133.636 45.242 133.272C45.242 132.916 45.342 132.61 45.542 132.354C45.746 132.094 46.028 131.896 46.388 131.76C46.748 131.62 47.166 131.55 47.642 131.55C48.15 131.55 48.592 131.618 48.968 131.754C49.348 131.886 49.67 132.05 49.934 132.246L49.49 132.93C49.25 132.766 48.986 132.632 48.698 132.528C48.41 132.42 48.062 132.366 47.654 132.366C47.158 132.366 46.806 132.444 46.598 132.6C46.39 132.752 46.286 132.95 46.286 133.194C46.286 133.378 46.336 133.532 46.436 133.656C46.54 133.776 46.714 133.886 46.958 133.986C47.202 134.082 47.538 134.188 47.966 134.304C48.378 134.412 48.736 134.542 49.04 134.694C49.348 134.846 49.588 135.046 49.76 135.294C49.932 135.542 50.018 135.862 50.018 136.254C50.018 136.702 49.89 137.066 49.634 137.346C49.378 137.622 49.046 137.824 48.638 137.952C48.234 138.076 47.806 138.138 47.354 138.138C46.782 138.138 46.294 138.056 45.89 137.892C45.49 137.724 45.154 137.522 44.882 137.286L45.458 136.62C45.706 136.824 45.99 136.99 46.31 137.118C46.634 137.242 46.982 137.304 47.354 137.304ZM53.1933 135.198C53.2133 135.686 53.3073 136.086 53.4753 136.398C53.6433 136.706 53.8653 136.934 54.1413 137.082C54.4173 137.226 54.7173 137.298 55.0413 137.298C55.3653 137.298 55.6573 137.25 55.9173 137.154C56.1813 137.058 56.4513 136.916 56.7273 136.728L57.2013 137.394C56.9053 137.626 56.5673 137.808 56.1873 137.94C55.8113 138.072 55.4253 138.138 55.0293 138.138C54.4173 138.138 53.8953 138 53.4633 137.724C53.0313 137.448 52.7013 137.064 52.4733 136.572C52.2493 136.076 52.1373 135.502 52.1373 134.85C52.1373 134.21 52.2513 133.642 52.4793 133.146C52.7073 132.65 53.0273 132.26 53.4393 131.976C53.8513 131.692 54.3373 131.55 54.8973 131.55C55.4293 131.55 55.8873 131.676 56.2713 131.928C56.6553 132.176 56.9493 132.532 57.1533 132.996C57.3613 133.456 57.4653 134.006 57.4653 134.646C57.4653 134.754 57.4633 134.856 57.4593 134.952C57.4553 135.044 57.4493 135.126 57.4413 135.198H53.1933ZM54.9093 132.378C54.4413 132.378 54.0493 132.544 53.7333 132.876C53.4213 133.208 53.2433 133.722 53.1993 134.418H56.4933C56.4813 133.742 56.3333 133.234 56.0493 132.894C55.7653 132.55 55.3853 132.378 54.9093 132.378ZM62.0566 129.138V136.44C62.0566 136.752 62.1526 136.974 62.3446 137.106C62.5406 137.234 62.7926 137.298 63.1006 137.298C63.2926 137.298 63.4746 137.278 63.6466 137.238C63.8186 137.198 63.9906 137.144 64.1626 137.076L64.4326 137.814C64.2606 137.898 64.0466 137.972 63.7906 138.036C63.5386 138.104 63.2526 138.138 62.9326 138.138C62.3726 138.138 61.9186 137.984 61.5706 137.676C61.2226 137.364 61.0486 136.934 61.0486 136.386V129.936H59.1106V129.138H62.0566ZM70.5239 129.012C70.8639 129.012 71.1719 129.042 71.4479 129.102C71.7239 129.162 71.9859 129.246 72.2339 129.354L71.9099 130.104C71.7059 130.016 71.4899 129.95 71.2619 129.906C71.0339 129.862 70.7979 129.84 70.5539 129.84C70.1139 129.84 69.7819 129.926 69.5579 130.098C69.3379 130.27 69.2279 130.534 69.2279 130.89V132.174H71.3699L71.2619 132.966H69.2279V138H68.2199V132.966H66.7139V132.174H68.2199V130.914C68.2199 130.522 68.3199 130.184 68.5199 129.9C68.7239 129.616 68.9999 129.398 69.3479 129.246C69.6959 129.09 70.0879 129.012 70.5239 129.012ZM75.3193 137.076C75.3193 136.88 75.3653 136.704 75.4573 136.548C75.5493 136.388 75.6733 136.262 75.8293 136.17C75.9893 136.074 76.1693 136.026 76.3693 136.026C76.5733 136.026 76.7553 136.074 76.9153 136.17C77.0753 136.262 77.2013 136.388 77.2933 136.548C77.3853 136.704 77.4313 136.88 77.4313 137.076C77.4313 137.272 77.3853 137.452 77.2933 137.616C77.2013 137.776 77.0753 137.904 76.9153 138C76.7553 138.092 76.5733 138.138 76.3693 138.138C76.1693 138.138 75.9893 138.092 75.8293 138C75.6733 137.904 75.5493 137.776 75.4573 137.616C75.3653 137.452 75.3193 137.272 75.3193 137.076ZM213.554 137.268C213.87 137.268 214.164 137.216 214.436 137.112C214.712 137.008 214.966 136.876 215.198 136.716L215.69 137.376C215.414 137.612 215.082 137.798 214.694 137.934C214.306 138.07 213.926 138.138 213.554 138.138C212.926 138.138 212.39 138.004 211.946 137.736C211.506 137.464 211.17 137.084 210.938 136.596C210.706 136.104 210.59 135.528 210.59 134.868C210.59 134.236 210.706 133.67 210.938 133.17C211.174 132.666 211.512 132.27 211.952 131.982C212.396 131.694 212.934 131.55 213.566 131.55C213.97 131.55 214.348 131.612 214.7 131.736C215.056 131.856 215.382 132.038 215.678 132.282L215.186 132.954C214.918 132.766 214.648 132.626 214.376 132.534C214.108 132.438 213.834 132.39 213.554 132.39C213.01 132.39 212.562 132.594 212.21 133.002C211.858 133.41 211.682 134.032 211.682 134.868C211.682 135.428 211.762 135.886 211.922 136.242C212.086 136.594 212.308 136.854 212.588 137.022C212.872 137.186 213.194 137.268 213.554 137.268ZM221.092 131.682V137.202H222.874V138H218.134V137.202H220.084V132.48H218.194V131.682H221.092ZM220.288 128.724C220.512 128.724 220.69 128.792 220.822 128.928C220.958 129.064 221.026 129.23 221.026 129.426C221.026 129.63 220.958 129.802 220.822 129.942C220.69 130.078 220.512 130.146 220.288 130.146C220.076 130.146 219.902 130.078 219.766 129.942C219.63 129.802 219.562 129.63 219.562 129.426C219.562 129.23 219.63 129.064 219.766 128.928C219.902 128.792 220.076 128.724 220.288 128.724ZM225.149 138V137.226H226.133V132.456H225.149V131.682H226.901L227.087 133.176C227.331 132.656 227.627 132.254 227.975 131.97C228.323 131.686 228.783 131.544 229.355 131.544C229.531 131.544 229.687 131.558 229.823 131.586C229.963 131.61 230.105 131.642 230.249 131.682L229.955 132.582C229.823 132.546 229.703 132.52 229.595 132.504C229.487 132.484 229.363 132.474 229.223 132.474C228.739 132.474 228.323 132.646 227.975 132.99C227.627 133.334 227.349 133.854 227.141 134.55V137.226H228.425V138H225.149ZM229.277 133.818V132.444L229.379 131.682H230.249L230.105 133.818H229.277ZM235.14 137.268C235.456 137.268 235.75 137.216 236.022 137.112C236.298 137.008 236.552 136.876 236.784 136.716L237.276 137.376C237 137.612 236.668 137.798 236.28 137.934C235.892 138.07 235.512 138.138 235.14 138.138C234.512 138.138 233.976 138.004 233.532 137.736C233.092 137.464 232.756 137.084 232.524 136.596C232.292 136.104 232.176 135.528 232.176 134.868C232.176 134.236 232.292 133.67 232.524 133.17C232.76 132.666 233.098 132.27 233.538 131.982C233.982 131.694 234.52 131.55 235.152 131.55C235.556 131.55 235.934 131.612 236.286 131.736C236.642 131.856 236.968 132.038 237.264 132.282L236.772 132.954C236.504 132.766 236.234 132.626 235.962 132.534C235.694 132.438 235.42 132.39 235.14 132.39C234.596 132.39 234.148 132.594 233.796 133.002C233.444 133.41 233.268 134.032 233.268 134.868C233.268 135.428 233.348 135.886 233.508 136.242C233.672 136.594 233.894 136.854 234.174 137.022C234.458 137.186 234.78 137.268 235.14 137.268ZM241.939 129.138V136.44C241.939 136.752 242.035 136.974 242.227 137.106C242.423 137.234 242.675 137.298 242.983 137.298C243.175 137.298 243.357 137.278 243.529 137.238C243.701 137.198 243.873 137.144 244.045 137.076L244.315 137.814C244.143 137.898 243.929 137.972 243.673 138.036C243.421 138.104 243.135 138.138 242.815 138.138C242.255 138.138 241.801 137.984 241.453 137.676C241.105 137.364 240.931 136.934 240.931 136.386V129.936H238.993V129.138H241.939ZM247.467 135.198C247.487 135.686 247.581 136.086 247.749 136.398C247.917 136.706 248.139 136.934 248.415 137.082C248.691 137.226 248.991 137.298 249.315 137.298C249.639 137.298 249.931 137.25 250.191 137.154C250.455 137.058 250.725 136.916 251.001 136.728L251.475 137.394C251.179 137.626 250.841 137.808 250.461 137.94C250.085 138.072 249.699 138.138 249.303 138.138C248.691 138.138 248.169 138 247.737 137.724C247.305 137.448 246.975 137.064 246.747 136.572C246.523 136.076 246.411 135.502 246.411 134.85C246.411 134.21 246.525 133.642 246.753 133.146C246.981 132.65 247.301 132.26 247.713 131.976C248.125 131.692 248.611 131.55 249.171 131.55C249.703 131.55 250.161 131.676 250.545 131.928C250.929 132.176 251.223 132.532 251.427 132.996C251.635 133.456 251.739 134.006 251.739 134.646C251.739 134.754 251.737 134.856 251.733 134.952C251.729 135.044 251.723 135.126 251.715 135.198H247.467ZM249.183 132.378C248.715 132.378 248.323 132.544 248.007 132.876C247.695 133.208 247.517 133.722 247.473 134.418H250.767C250.755 133.742 250.607 133.234 250.323 132.894C250.039 132.55 249.659 132.378 249.183 132.378Z" fill="var(--vscode-editor-foreground, #24292E)" />
        <path d="M100.301 100.696V101.566H95.6332V100.696H100.301ZM100.301 102.97V103.846H95.6332V102.97H100.301ZM272.989 116.696V117.566H268.321V116.696H272.989ZM272.989 118.97V119.846H268.321V118.97H272.989Z" fill="var(--vscode-diffEditor-removedTextBackground, #D73A49)" />
        <path d="M113.054 97.606C113.594 97.606 114.046 97.674 114.41 97.81C114.774 97.946 115.12 98.146 115.448 98.41L114.866 99.088C114.606 98.868 114.33 98.712 114.038 98.62C113.75 98.524 113.448 98.476 113.132 98.476C112.68 98.476 112.262 98.584 111.878 98.8C111.494 99.012 111.184 99.366 110.948 99.862C110.716 100.354 110.6 101.022 110.6 101.866C110.6 102.686 110.71 103.344 110.93 103.84C111.154 104.336 111.456 104.694 111.836 104.914C112.216 105.134 112.64 105.244 113.108 105.244C113.572 105.244 113.952 105.174 114.248 105.034C114.548 104.894 114.808 104.734 115.028 104.554L115.568 105.238C115.316 105.482 114.988 105.694 114.584 105.874C114.18 106.05 113.684 106.138 113.096 106.138C112.428 106.138 111.822 105.974 111.278 105.646C110.738 105.318 110.31 104.838 109.994 104.206C109.678 103.57 109.52 102.79 109.52 101.866C109.52 100.938 109.68 100.158 110 99.526C110.324 98.894 110.754 98.416 111.29 98.092C111.83 97.768 112.418 97.606 113.054 97.606ZM120.357 99.682V105.202H122.139V106H117.399V105.202H119.349V100.48H117.459V99.682H120.357ZM119.553 96.724C119.777 96.724 119.955 96.792 120.087 96.928C120.223 97.064 120.291 97.23 120.291 97.426C120.291 97.63 120.223 97.802 120.087 97.942C119.955 98.078 119.777 98.146 119.553 98.146C119.341 98.146 119.167 98.078 119.031 97.942C118.895 97.802 118.827 97.63 118.827 97.426C118.827 97.23 118.895 97.064 119.031 96.928C119.167 96.792 119.341 96.724 119.553 96.724ZM124.414 106V105.226H125.398V100.456H124.414V99.682H126.166L126.352 101.176C126.596 100.656 126.892 100.254 127.24 99.97C127.588 99.686 128.048 99.544 128.62 99.544C128.796 99.544 128.952 99.558 129.088 99.586C129.228 99.61 129.37 99.642 129.514 99.682L129.22 100.582C129.088 100.546 128.968 100.52 128.86 100.504C128.752 100.484 128.628 100.474 128.488 100.474C128.004 100.474 127.588 100.646 127.24 100.99C126.892 101.334 126.614 101.854 126.406 102.55V105.226H127.69V106H124.414ZM128.542 101.818V100.444L128.644 99.682H129.514L129.37 101.818H128.542ZM134.406 105.268C134.722 105.268 135.016 105.216 135.288 105.112C135.564 105.008 135.818 104.876 136.05 104.716L136.542 105.376C136.266 105.612 135.934 105.798 135.546 105.934C135.158 106.07 134.778 106.138 134.406 106.138C133.778 106.138 133.242 106.004 132.798 105.736C132.358 105.464 132.022 105.084 131.79 104.596C131.558 104.104 131.442 103.528 131.442 102.868C131.442 102.236 131.558 101.67 131.79 101.17C132.026 100.666 132.364 100.27 132.804 99.982C133.248 99.694 133.786 99.55 134.418 99.55C134.822 99.55 135.2 99.612 135.552 99.736C135.908 99.856 136.234 100.038 136.53 100.282L136.038 100.954C135.77 100.766 135.5 100.626 135.228 100.534C134.96 100.438 134.686 100.39 134.406 100.39C133.862 100.39 133.414 100.594 133.062 101.002C132.71 101.41 132.534 102.032 132.534 102.868C132.534 103.428 132.614 103.886 132.774 104.242C132.938 104.594 133.16 104.854 133.44 105.022C133.724 105.186 134.046 105.268 134.406 105.268ZM141.205 97.138V104.44C141.205 104.752 141.301 104.974 141.493 105.106C141.689 105.234 141.941 105.298 142.249 105.298C142.441 105.298 142.623 105.278 142.795 105.238C142.967 105.198 143.139 105.144 143.311 105.076L143.581 105.814C143.409 105.898 143.195 105.972 142.939 106.036C142.687 106.104 142.401 106.138 142.081 106.138C141.521 106.138 141.067 105.984 140.719 105.676C140.371 105.364 140.197 104.934 140.197 104.386V97.936H138.259V97.138H141.205ZM146.732 103.198C146.752 103.686 146.846 104.086 147.014 104.398C147.182 104.706 147.404 104.934 147.68 105.082C147.956 105.226 148.256 105.298 148.58 105.298C148.904 105.298 149.196 105.25 149.456 105.154C149.72 105.058 149.99 104.916 150.266 104.728L150.74 105.394C150.444 105.626 150.106 105.808 149.726 105.94C149.35 106.072 148.964 106.138 148.568 106.138C147.956 106.138 147.434 106 147.002 105.724C146.57 105.448 146.24 105.064 146.012 104.572C145.788 104.076 145.676 103.502 145.676 102.85C145.676 102.21 145.79 101.642 146.018 101.146C146.246 100.65 146.566 100.26 146.978 99.976C147.39 99.692 147.876 99.55 148.436 99.55C148.968 99.55 149.426 99.676 149.81 99.928C150.194 100.176 150.488 100.532 150.692 100.996C150.9 101.456 151.004 102.006 151.004 102.646C151.004 102.754 151.002 102.856 150.998 102.952C150.994 103.044 150.988 103.126 150.98 103.198H146.732ZM148.448 100.378C147.98 100.378 147.588 100.544 147.272 100.876C146.96 101.208 146.782 101.722 146.738 102.418H150.032C150.02 101.742 149.872 101.234 149.588 100.894C149.304 100.55 148.924 100.378 148.448 100.378ZM97.7212 121.304C98.2052 121.304 98.5872 121.214 98.8672 121.034C99.1512 120.85 99.2932 120.606 99.2932 120.302C99.2932 120.11 99.2572 119.944 99.1852 119.804C99.1172 119.664 98.9752 119.538 98.7592 119.426C98.5432 119.314 98.2112 119.202 97.7632 119.09C97.3272 118.982 96.9472 118.858 96.6232 118.718C96.3032 118.574 96.0532 118.388 95.8732 118.16C95.6972 117.932 95.6092 117.636 95.6092 117.272C95.6092 116.916 95.7092 116.61 95.9092 116.354C96.1132 116.094 96.3952 115.896 96.7552 115.76C97.1152 115.62 97.5332 115.55 98.0092 115.55C98.5172 115.55 98.9592 115.618 99.3352 115.754C99.7152 115.886 100.037 116.05 100.301 116.246L99.8572 116.93C99.6172 116.766 99.3532 116.632 99.0652 116.528C98.7772 116.42 98.4292 116.366 98.0212 116.366C97.5252 116.366 97.1732 116.444 96.9652 116.6C96.7572 116.752 96.6532 116.95 96.6532 117.194C96.6532 117.378 96.7032 117.532 96.8032 117.656C96.9072 117.776 97.0812 117.886 97.3252 117.986C97.5692 118.082 97.9052 118.188 98.3332 118.304C98.7452 118.412 99.1032 118.542 99.4072 118.694C99.7152 118.846 99.9552 119.046 100.127 119.294C100.299 119.542 100.385 119.862 100.385 120.254C100.385 120.702 100.257 121.066 100.001 121.346C99.7452 121.622 99.4132 121.824 99.0052 121.952C98.6012 122.076 98.1732 122.138 97.7212 122.138C97.1492 122.138 96.6612 122.056 96.2572 121.892C95.8572 121.724 95.5212 121.522 95.2492 121.286L95.8252 120.62C96.0732 120.824 96.3572 120.99 96.6772 121.118C97.0012 121.242 97.3492 121.304 97.7212 121.304ZM103.561 119.198C103.581 119.686 103.675 120.086 103.843 120.398C104.011 120.706 104.233 120.934 104.509 121.082C104.785 121.226 105.085 121.298 105.409 121.298C105.733 121.298 106.025 121.25 106.285 121.154C106.549 121.058 106.819 120.916 107.095 120.728L107.569 121.394C107.273 121.626 106.935 121.808 106.555 121.94C106.179 122.072 105.793 122.138 105.397 122.138C104.785 122.138 104.263 122 103.831 121.724C103.399 121.448 103.069 121.064 102.841 120.572C102.617 120.076 102.505 119.502 102.505 118.85C102.505 118.21 102.619 117.642 102.847 117.146C103.075 116.65 103.395 116.26 103.807 115.976C104.219 115.692 104.705 115.55 105.265 115.55C105.797 115.55 106.255 115.676 106.639 115.928C107.023 116.176 107.317 116.532 107.521 116.996C107.729 117.456 107.833 118.006 107.833 118.646C107.833 118.754 107.831 118.856 107.827 118.952C107.823 119.044 107.817 119.126 107.809 119.198H103.561ZM105.277 116.378C104.809 116.378 104.417 116.544 104.101 116.876C103.789 117.208 103.611 117.722 103.567 118.418H106.861C106.849 117.742 106.701 117.234 106.417 116.894C106.133 116.55 105.753 116.378 105.277 116.378ZM114.98 121.682C114.764 121.826 114.502 121.938 114.194 122.018C113.886 122.098 113.584 122.138 113.288 122.138C112.608 122.138 112.084 121.96 111.716 121.604C111.348 121.248 111.164 120.79 111.164 120.23V116.462H109.712V115.682H111.164V114.248L112.172 114.128V115.682H114.356L114.236 116.462H112.172V120.218C112.172 120.57 112.264 120.838 112.448 121.022C112.636 121.206 112.946 121.298 113.378 121.298C113.614 121.298 113.832 121.27 114.032 121.214C114.232 121.158 114.418 121.086 114.59 120.998L114.98 121.682ZM116.553 124.178V123.296H122.553V124.178H116.553ZM126.502 121.304C126.986 121.304 127.368 121.214 127.648 121.034C127.932 120.85 128.074 120.606 128.074 120.302C128.074 120.11 128.038 119.944 127.966 119.804C127.898 119.664 127.756 119.538 127.54 119.426C127.324 119.314 126.992 119.202 126.544 119.09C126.108 118.982 125.728 118.858 125.404 118.718C125.084 118.574 124.834 118.388 124.654 118.16C124.478 117.932 124.39 117.636 124.39 117.272C124.39 116.916 124.49 116.61 124.69 116.354C124.894 116.094 125.176 115.896 125.536 115.76C125.896 115.62 126.314 115.55 126.79 115.55C127.298 115.55 127.74 115.618 128.116 115.754C128.496 115.886 128.818 116.05 129.082 116.246L128.638 116.93C128.398 116.766 128.134 116.632 127.846 116.528C127.558 116.42 127.21 116.366 126.802 116.366C126.306 116.366 125.954 116.444 125.746 116.6C125.538 116.752 125.434 116.95 125.434 117.194C125.434 117.378 125.484 117.532 125.584 117.656C125.688 117.776 125.862 117.886 126.106 117.986C126.35 118.082 126.686 118.188 127.114 118.304C127.526 118.412 127.884 118.542 128.188 118.694C128.496 118.846 128.736 119.046 128.908 119.294C129.08 119.542 129.166 119.862 129.166 120.254C129.166 120.702 129.038 121.066 128.782 121.346C128.526 121.622 128.194 121.824 127.786 121.952C127.382 122.076 126.954 122.138 126.502 122.138C125.93 122.138 125.442 122.056 125.038 121.892C124.638 121.724 124.302 121.522 124.03 121.286L124.606 120.62C124.854 120.824 125.138 120.99 125.458 121.118C125.782 121.242 126.13 121.304 126.502 121.304ZM136.566 121.682C136.35 121.826 136.088 121.938 135.78 122.018C135.472 122.098 135.17 122.138 134.874 122.138C134.194 122.138 133.67 121.96 133.302 121.604C132.934 121.248 132.75 120.79 132.75 120.23V116.462H131.298V115.682H132.75V114.248L133.758 114.128V115.682H135.942L135.822 116.462H133.758V120.218C133.758 120.57 133.85 120.838 134.034 121.022C134.222 121.206 134.532 121.298 134.964 121.298C135.2 121.298 135.418 121.27 135.618 121.214C135.818 121.158 136.004 121.086 136.176 120.998L136.566 121.682ZM138.805 122V121.226H139.789V116.456H138.805V115.682H140.557L140.743 117.176C140.987 116.656 141.283 116.254 141.631 115.97C141.979 115.686 142.439 115.544 143.011 115.544C143.187 115.544 143.343 115.558 143.479 115.586C143.619 115.61 143.761 115.642 143.905 115.682L143.611 116.582C143.479 116.546 143.359 116.52 143.251 116.504C143.143 116.484 143.019 116.474 142.879 116.474C142.395 116.474 141.979 116.646 141.631 116.99C141.283 117.334 141.005 117.854 140.797 118.55V121.226H142.081V122H138.805ZM142.933 117.818V116.444L143.035 115.682H143.905L143.761 117.818H142.933ZM148.346 115.55C148.942 115.55 149.44 115.686 149.84 115.958C150.244 116.226 150.546 116.606 150.746 117.098C150.95 117.59 151.052 118.17 151.052 118.838C151.052 119.482 150.948 120.052 150.74 120.548C150.532 121.044 150.226 121.434 149.822 121.718C149.422 121.998 148.926 122.138 148.334 122.138C147.742 122.138 147.244 122.002 146.84 121.73C146.436 121.458 146.13 121.076 145.922 120.584C145.718 120.088 145.616 119.51 145.616 118.85C145.616 118.198 145.72 117.624 145.928 117.128C146.136 116.632 146.442 116.246 146.846 115.97C147.254 115.69 147.754 115.55 148.346 115.55ZM148.346 116.372C147.802 116.372 147.39 116.574 147.11 116.978C146.834 117.378 146.696 118.002 146.696 118.85C146.696 119.682 146.832 120.3 147.104 120.704C147.38 121.108 147.79 121.31 148.334 121.31C148.878 121.31 149.286 121.108 149.558 120.704C149.834 120.3 149.972 119.678 149.972 118.838C149.972 117.998 149.836 117.378 149.564 116.978C149.292 116.574 148.886 116.372 148.346 116.372ZM158.428 115.682L155.584 118.526L158.758 122H157.432L154.324 118.55L157.12 115.682H158.428ZM154.21 113.012V122H153.202V113.138L154.21 113.012ZM161.123 119.198C161.143 119.686 161.237 120.086 161.405 120.398C161.573 120.706 161.795 120.934 162.071 121.082C162.347 121.226 162.647 121.298 162.971 121.298C163.295 121.298 163.587 121.25 163.847 121.154C164.111 121.058 164.381 120.916 164.657 120.728L165.131 121.394C164.835 121.626 164.497 121.808 164.117 121.94C163.741 122.072 163.355 122.138 162.959 122.138C162.347 122.138 161.825 122 161.393 121.724C160.961 121.448 160.631 121.064 160.403 120.572C160.179 120.076 160.067 119.502 160.067 118.85C160.067 118.21 160.181 117.642 160.409 117.146C160.637 116.65 160.957 116.26 161.369 115.976C161.781 115.692 162.267 115.55 162.827 115.55C163.359 115.55 163.817 115.676 164.201 115.928C164.585 116.176 164.879 116.532 165.083 116.996C165.291 117.456 165.395 118.006 165.395 118.646C165.395 118.754 165.393 118.856 165.389 118.952C165.385 119.044 165.379 119.126 165.371 119.198H161.123ZM162.839 116.378C162.371 116.378 161.979 116.544 161.663 116.876C161.351 117.208 161.173 117.722 161.129 118.418H164.423C164.411 117.742 164.263 117.234 163.979 116.894C163.695 116.55 163.315 116.378 162.839 116.378ZM84.0086 131.55C84.5686 131.55 85.0146 131.686 85.3466 131.958C85.6826 132.23 85.9246 132.614 86.0726 133.11C86.2206 133.602 86.2946 134.178 86.2946 134.838C86.2946 135.474 86.2046 136.042 86.0246 136.542C85.8486 137.038 85.5806 137.428 85.2206 137.712C84.8606 137.996 84.4066 138.138 83.8586 138.138C83.1666 138.138 82.6106 137.894 82.1906 137.406V140.418L81.1826 140.544V131.682H82.0406L82.1246 132.564C82.3566 132.24 82.6326 131.99 82.9526 131.814C83.2766 131.638 83.6286 131.55 84.0086 131.55ZM83.7686 132.36C83.4206 132.36 83.1126 132.466 82.8446 132.678C82.5806 132.886 82.3626 133.118 82.1906 133.374V136.506C82.3546 136.75 82.5606 136.944 82.8086 137.088C83.0606 137.228 83.3366 137.298 83.6366 137.298C84.1606 137.298 84.5546 137.098 84.8186 136.698C85.0826 136.298 85.2146 135.676 85.2146 134.832C85.2146 134.28 85.1626 133.822 85.0586 133.458C84.9546 133.09 84.7966 132.816 84.5846 132.636C84.3726 132.452 84.1006 132.36 83.7686 132.36ZM90.8379 129.138V136.44C90.8379 136.752 90.9339 136.974 91.1259 137.106C91.3219 137.234 91.5739 137.298 91.8819 137.298C92.0739 137.298 92.2559 137.278 92.4279 137.238C92.5999 137.198 92.7719 137.144 92.9439 137.076L93.2139 137.814C93.0419 137.898 92.8279 137.972 92.5719 138.036C92.3199 138.104 92.0339 138.138 91.7139 138.138C91.1539 138.138 90.6999 137.984 90.3519 137.676C90.0039 137.364 89.8299 136.934 89.8299 136.386V129.936H87.8919V129.138H90.8379ZM100.097 136.62C100.097 136.872 100.139 137.056 100.223 137.172C100.307 137.288 100.437 137.374 100.613 137.43L100.367 138.138C100.095 138.102 99.8572 138.016 99.6532 137.88C99.4492 137.74 99.3012 137.53 99.2092 137.25C98.9812 137.542 98.6972 137.764 98.3572 137.916C98.0172 138.064 97.6412 138.138 97.2292 138.138C96.5972 138.138 96.0992 137.96 95.7352 137.604C95.3712 137.248 95.1892 136.776 95.1892 136.188C95.1892 135.536 95.4432 135.036 95.9512 134.688C96.4592 134.34 97.1932 134.166 98.1532 134.166H99.0832V133.638C99.0832 133.182 98.9492 132.86 98.6812 132.672C98.4172 132.48 98.0492 132.384 97.5772 132.384C97.3692 132.384 97.1252 132.41 96.8452 132.462C96.5652 132.51 96.2612 132.592 95.9332 132.708L95.6692 131.946C96.0572 131.802 96.4212 131.7 96.7612 131.64C97.1012 131.58 97.4252 131.55 97.7332 131.55C98.5212 131.55 99.1112 131.734 99.5032 132.102C99.8992 132.466 100.097 132.962 100.097 133.59V136.62ZM97.4872 137.37C97.7992 137.37 98.0972 137.292 98.3812 137.136C98.6652 136.976 98.8992 136.756 99.0832 136.476V134.85H98.1712C97.4752 134.85 96.9832 134.97 96.6952 135.21C96.4112 135.45 96.2692 135.772 96.2692 136.176C96.2692 136.568 96.3692 136.866 96.5692 137.07C96.7732 137.27 97.0792 137.37 97.4872 137.37ZM108.025 131.682L105.805 138.042C105.657 138.47 105.469 138.862 105.241 139.218C105.017 139.574 104.723 139.868 104.359 140.1C103.999 140.336 103.541 140.482 102.985 140.538L102.829 139.734C103.265 139.662 103.609 139.552 103.861 139.404C104.113 139.256 104.311 139.066 104.455 138.834C104.603 138.602 104.733 138.324 104.845 138H104.509L102.301 131.682H103.381L105.193 137.232L106.981 131.682H108.025ZM122.391 135.714C122.391 136.186 122.273 136.606 122.037 136.974C121.801 137.338 121.459 137.624 121.011 137.832C120.563 138.036 120.017 138.138 119.373 138.138C118.769 138.138 118.221 138.046 117.729 137.862C117.241 137.678 116.823 137.418 116.475 137.082L117.093 136.386C117.381 136.654 117.711 136.868 118.083 137.028C118.455 137.184 118.891 137.262 119.391 137.262C119.727 137.262 120.041 137.208 120.333 137.1C120.625 136.988 120.861 136.82 121.041 136.596C121.221 136.368 121.311 136.08 121.311 135.732C121.311 135.464 121.259 135.236 121.155 135.048C121.051 134.86 120.867 134.694 120.603 134.55C120.339 134.402 119.971 134.258 119.499 134.118C118.955 133.958 118.483 133.778 118.083 133.578C117.687 133.374 117.379 133.124 117.159 132.828C116.943 132.532 116.835 132.166 116.835 131.73C116.835 131.318 116.949 130.952 117.177 130.632C117.405 130.312 117.719 130.062 118.119 129.882C118.523 129.698 118.987 129.606 119.511 129.606C120.083 129.606 120.579 129.688 120.999 129.852C121.423 130.012 121.807 130.244 122.151 130.548L121.539 131.226C121.243 130.962 120.925 130.772 120.585 130.656C120.245 130.536 119.899 130.476 119.547 130.476C119.247 130.476 118.971 130.522 118.719 130.614C118.471 130.702 118.271 130.836 118.119 131.016C117.971 131.192 117.897 131.418 117.897 131.694C117.897 131.93 117.961 132.134 118.089 132.306C118.217 132.478 118.433 132.636 118.737 132.78C119.041 132.92 119.455 133.068 119.979 133.224C120.407 133.348 120.803 133.504 121.167 133.692C121.535 133.876 121.831 134.128 122.055 134.448C122.279 134.764 122.391 135.186 122.391 135.714ZM125.362 129.042V132.546C125.61 132.214 125.914 131.966 126.274 131.802C126.638 131.634 127.006 131.55 127.378 131.55C127.994 131.55 128.444 131.714 128.728 132.042C129.012 132.37 129.154 132.826 129.154 133.41V138H128.146V133.434C128.146 133.054 128.058 132.778 127.882 132.606C127.706 132.43 127.43 132.342 127.054 132.342C126.814 132.342 126.586 132.396 126.37 132.504C126.154 132.612 125.96 132.746 125.788 132.906C125.616 133.066 125.474 133.23 125.362 133.398V138H124.354V129.15L125.362 129.042ZM133.956 131.55C134.552 131.55 135.05 131.686 135.45 131.958C135.854 132.226 136.156 132.606 136.356 133.098C136.56 133.59 136.662 134.17 136.662 134.838C136.662 135.482 136.558 136.052 136.35 136.548C136.142 137.044 135.836 137.434 135.432 137.718C135.032 137.998 134.536 138.138 133.944 138.138C133.352 138.138 132.854 138.002 132.45 137.73C132.046 137.458 131.74 137.076 131.532 136.584C131.328 136.088 131.226 135.51 131.226 134.85C131.226 134.198 131.33 133.624 131.538 133.128C131.746 132.632 132.052 132.246 132.456 131.97C132.864 131.69 133.364 131.55 133.956 131.55ZM133.956 132.372C133.412 132.372 133 132.574 132.72 132.978C132.444 133.378 132.306 134.002 132.306 134.85C132.306 135.682 132.442 136.3 132.714 136.704C132.99 137.108 133.4 137.31 133.944 137.31C134.488 137.31 134.896 137.108 135.168 136.704C135.444 136.3 135.582 135.678 135.582 134.838C135.582 133.998 135.446 133.378 135.174 132.978C134.902 132.574 134.496 132.372 133.956 132.372ZM143.425 138H141.997L141.181 133.362L140.293 138H138.901L137.749 131.682H138.781L139.585 137.376L140.593 132.486H141.787L142.741 137.376L143.545 131.682H144.529L143.425 138ZM149.03 129.606C149.57 129.606 150.022 129.674 150.386 129.81C150.75 129.946 151.096 130.146 151.424 130.41L150.842 131.088C150.582 130.868 150.306 130.712 150.014 130.62C149.726 130.524 149.424 130.476 149.108 130.476C148.656 130.476 148.238 130.584 147.854 130.8C147.47 131.012 147.16 131.366 146.924 131.862C146.692 132.354 146.576 133.022 146.576 133.866C146.576 134.686 146.686 135.344 146.906 135.84C147.13 136.336 147.432 136.694 147.812 136.914C148.192 137.134 148.616 137.244 149.084 137.244C149.548 137.244 149.928 137.174 150.224 137.034C150.524 136.894 150.784 136.734 151.004 136.554L151.544 137.238C151.292 137.482 150.964 137.694 150.56 137.874C150.156 138.05 149.66 138.138 149.072 138.138C148.404 138.138 147.798 137.974 147.254 137.646C146.714 137.318 146.286 136.838 145.97 136.206C145.654 135.57 145.496 134.79 145.496 133.866C145.496 132.938 145.656 132.158 145.976 131.526C146.3 130.894 146.73 130.416 147.266 130.092C147.806 129.768 148.394 129.606 149.03 129.606ZM153.196 138V137.226H154.18V132.456H153.196V131.682H154.948L155.134 133.176C155.378 132.656 155.674 132.254 156.022 131.97C156.37 131.686 156.83 131.544 157.402 131.544C157.578 131.544 157.734 131.558 157.87 131.586C158.01 131.61 158.152 131.642 158.296 131.682L158.002 132.582C157.87 132.546 157.75 132.52 157.642 132.504C157.534 132.484 157.41 132.474 157.27 132.474C156.786 132.474 156.37 132.646 156.022 132.99C155.674 133.334 155.396 133.854 155.188 134.55V137.226H156.472V138H153.196ZM157.324 133.818V132.444L157.426 131.682H158.296L158.152 133.818H157.324ZM161.123 135.198C161.143 135.686 161.237 136.086 161.405 136.398C161.573 136.706 161.795 136.934 162.071 137.082C162.347 137.226 162.647 137.298 162.971 137.298C163.295 137.298 163.587 137.25 163.847 137.154C164.111 137.058 164.381 136.916 164.657 136.728L165.131 137.394C164.835 137.626 164.497 137.808 164.117 137.94C163.741 138.072 163.355 138.138 162.959 138.138C162.347 138.138 161.825 138 161.393 137.724C160.961 137.448 160.631 137.064 160.403 136.572C160.179 136.076 160.067 135.502 160.067 134.85C160.067 134.21 160.181 133.642 160.409 133.146C160.637 132.65 160.957 132.26 161.369 131.976C161.781 131.692 162.267 131.55 162.827 131.55C163.359 131.55 163.817 131.676 164.201 131.928C164.585 132.176 164.879 132.532 165.083 132.996C165.291 133.456 165.395 134.006 165.395 134.646C165.395 134.754 165.393 134.856 165.389 134.952C165.385 135.044 165.379 135.126 165.371 135.198H161.123ZM162.839 132.378C162.371 132.378 161.979 132.544 161.663 132.876C161.351 133.208 161.173 133.722 161.129 134.418H164.423C164.411 133.742 164.263 133.234 163.979 132.894C163.695 132.55 163.315 132.378 162.839 132.378ZM172.05 136.62C172.05 136.872 172.092 137.056 172.176 137.172C172.26 137.288 172.39 137.374 172.566 137.43L172.32 138.138C172.048 138.102 171.81 138.016 171.606 137.88C171.402 137.74 171.254 137.53 171.162 137.25C170.934 137.542 170.65 137.764 170.31 137.916C169.97 138.064 169.594 138.138 169.182 138.138C168.55 138.138 168.052 137.96 167.688 137.604C167.324 137.248 167.142 136.776 167.142 136.188C167.142 135.536 167.396 135.036 167.904 134.688C168.412 134.34 169.146 134.166 170.106 134.166H171.036V133.638C171.036 133.182 170.902 132.86 170.634 132.672C170.37 132.48 170.002 132.384 169.53 132.384C169.322 132.384 169.078 132.41 168.798 132.462C168.518 132.51 168.214 132.592 167.886 132.708L167.622 131.946C168.01 131.802 168.374 131.7 168.714 131.64C169.054 131.58 169.378 131.55 169.686 131.55C170.474 131.55 171.064 131.734 171.456 132.102C171.852 132.466 172.05 132.962 172.05 133.59V136.62ZM169.44 137.37C169.752 137.37 170.05 137.292 170.334 137.136C170.618 136.976 170.852 136.756 171.036 136.476V134.85H170.124C169.428 134.85 168.936 134.97 168.648 135.21C168.364 135.45 168.222 135.772 168.222 136.176C168.222 136.568 168.322 136.866 168.522 137.07C168.726 137.27 169.032 137.37 169.44 137.37ZM179.738 137.682C179.522 137.826 179.26 137.938 178.952 138.018C178.644 138.098 178.342 138.138 178.046 138.138C177.366 138.138 176.842 137.96 176.474 137.604C176.106 137.248 175.922 136.79 175.922 136.23V132.462H174.47V131.682H175.922V130.248L176.93 130.128V131.682H179.114L178.994 132.462H176.93V136.218C176.93 136.57 177.022 136.838 177.206 137.022C177.394 137.206 177.704 137.298 178.136 137.298C178.372 137.298 178.59 137.27 178.79 137.214C178.99 137.158 179.176 137.086 179.348 136.998L179.738 137.682ZM185.115 131.682V137.202H186.897V138H182.157V137.202H184.107V132.48H182.217V131.682H185.115ZM184.311 128.724C184.535 128.724 184.713 128.792 184.845 128.928C184.981 129.064 185.049 129.23 185.049 129.426C185.049 129.63 184.981 129.802 184.845 129.942C184.713 130.078 184.535 130.146 184.311 130.146C184.099 130.146 183.925 130.078 183.789 129.942C183.653 129.802 183.585 129.63 183.585 129.426C183.585 129.23 183.653 129.064 183.789 128.928C183.925 128.792 184.099 128.724 184.311 128.724ZM191.518 131.55C192.114 131.55 192.612 131.686 193.012 131.958C193.416 132.226 193.718 132.606 193.918 133.098C194.122 133.59 194.224 134.17 194.224 134.838C194.224 135.482 194.12 136.052 193.912 136.548C193.704 137.044 193.398 137.434 192.994 137.718C192.594 137.998 192.098 138.138 191.506 138.138C190.914 138.138 190.416 138.002 190.012 137.73C189.608 137.458 189.302 137.076 189.094 136.584C188.89 136.088 188.788 135.51 188.788 134.85C188.788 134.198 188.892 133.624 189.1 133.128C189.308 132.632 189.614 132.246 190.018 131.97C190.426 131.69 190.926 131.55 191.518 131.55ZM191.518 132.372C190.974 132.372 190.562 132.574 190.282 132.978C190.006 133.378 189.868 134.002 189.868 134.85C189.868 135.682 190.004 136.3 190.276 136.704C190.552 137.108 190.962 137.31 191.506 137.31C192.05 137.31 192.458 137.108 192.73 136.704C193.006 136.3 193.144 135.678 193.144 134.838C193.144 133.998 193.008 133.378 192.736 132.978C192.464 132.574 192.058 132.372 191.518 132.372ZM196.308 138V131.682H197.166L197.244 132.558C197.5 132.234 197.82 131.986 198.204 131.814C198.592 131.638 198.968 131.55 199.332 131.55C199.952 131.55 200.402 131.714 200.682 132.042C200.966 132.37 201.108 132.826 201.108 133.41V138H200.1V134.154C200.1 133.722 200.076 133.374 200.028 133.11C199.98 132.842 199.88 132.648 199.728 132.528C199.576 132.404 199.34 132.342 199.02 132.342C198.772 132.342 198.538 132.396 198.318 132.504C198.102 132.612 197.908 132.748 197.736 132.912C197.568 133.072 197.428 133.234 197.316 133.398V138H196.308Z" fill="var(--vscode-editorBracketHighlight-foreground3, #6F42C1)" />
        <path d="M154.48 101.8C154.48 102.424 154.534 102.984 154.642 103.48C154.75 103.972 154.91 104.424 155.122 104.836C155.334 105.244 155.6 105.632 155.92 106C156.244 106.372 156.62 106.748 157.048 107.128L156.52 107.68C155.872 107.148 155.316 106.604 154.852 106.048C154.392 105.492 154.038 104.872 153.79 104.188C153.546 103.504 153.424 102.708 153.424 101.8C153.424 100.888 153.546 100.09 153.79 99.406C154.038 98.722 154.392 98.102 154.852 97.546C155.316 96.99 155.872 96.448 156.52 95.92L157.048 96.472C156.616 96.856 156.238 97.234 155.914 97.606C155.594 97.974 155.328 98.362 155.116 98.77C154.904 99.174 154.744 99.624 154.636 100.12C154.532 100.612 154.48 101.172 154.48 101.8ZM163.775 101.8C163.775 101.172 163.721 100.612 163.613 100.12C163.509 99.624 163.351 99.174 163.139 98.77C162.927 98.362 162.659 97.974 162.335 97.606C162.015 97.234 161.639 96.856 161.207 96.472L161.735 95.92C162.387 96.448 162.943 96.99 163.403 97.546C163.863 98.102 164.215 98.722 164.459 99.406C164.707 100.09 164.831 100.888 164.831 101.8C164.831 102.708 164.707 103.504 164.459 104.188C164.215 104.872 163.863 105.492 163.403 106.048C162.943 106.604 162.387 107.148 161.735 107.68L161.207 107.128C161.635 106.748 162.009 106.372 162.329 106C162.653 105.632 162.921 105.244 163.133 104.836C163.345 104.424 163.505 103.972 163.613 103.48C163.721 102.984 163.775 102.424 163.775 101.8ZM168.87 117.8C168.87 118.424 168.924 118.984 169.032 119.48C169.14 119.972 169.3 120.424 169.512 120.836C169.724 121.244 169.99 121.632 170.31 122C170.634 122.372 171.01 122.748 171.438 123.128L170.91 123.68C170.262 123.148 169.706 122.604 169.242 122.048C168.782 121.492 168.428 120.872 168.18 120.188C167.936 119.504 167.814 118.708 167.814 117.8C167.814 116.888 167.936 116.09 168.18 115.406C168.428 114.722 168.782 114.102 169.242 113.546C169.706 112.99 170.262 112.448 170.91 111.92L171.438 112.472C171.006 112.856 170.628 113.234 170.304 113.606C169.984 113.974 169.718 114.362 169.506 114.77C169.294 115.174 169.134 115.624 169.026 116.12C168.922 116.612 168.87 117.172 168.87 117.8ZM178.892 119.678C178.892 119.262 178.81 118.942 178.646 118.718C178.486 118.49 178.272 118.332 178.004 118.244C177.736 118.156 177.442 118.112 177.122 118.112H175.712V121.142H177.074C177.278 121.142 177.486 121.122 177.698 121.082C177.91 121.042 178.106 120.97 178.286 120.866C178.47 120.762 178.616 120.616 178.724 120.428C178.836 120.236 178.892 119.986 178.892 119.678ZM178.562 115.874C178.562 115.406 178.416 115.074 178.124 114.878C177.836 114.678 177.442 114.578 176.942 114.578H175.712V117.254H177.044C177.532 117.254 177.906 117.146 178.166 116.93C178.43 116.71 178.562 116.358 178.562 115.874ZM179.99 119.642C179.99 120.09 179.9 120.466 179.72 120.77C179.544 121.074 179.306 121.316 179.006 121.496C178.71 121.676 178.378 121.806 178.01 121.886C177.646 121.962 177.274 122 176.894 122H174.674V113.738H176.708C177.072 113.738 177.426 113.772 177.77 113.84C178.118 113.904 178.43 114.016 178.706 114.176C178.986 114.332 179.21 114.544 179.378 114.812C179.546 115.08 179.63 115.416 179.63 115.82C179.63 116.176 179.556 116.478 179.408 116.726C179.264 116.97 179.074 117.166 178.838 117.314C178.606 117.462 178.358 117.566 178.094 117.626C178.402 117.674 178.7 117.768 178.988 117.908C179.28 118.044 179.52 118.252 179.708 118.532C179.896 118.808 179.99 119.178 179.99 119.642ZM182.337 122V113.738H183.381V121.07H187.149L187.029 122H182.337ZM194.236 113.738V119.324C194.236 119.88 194.122 120.37 193.894 120.794C193.67 121.218 193.352 121.548 192.94 121.784C192.532 122.02 192.05 122.138 191.494 122.138C190.926 122.138 190.438 122.02 190.03 121.784C189.626 121.544 189.316 121.212 189.1 120.788C188.884 120.364 188.776 119.876 188.776 119.324V113.738H189.808V119.36C189.808 119.988 189.954 120.458 190.246 120.77C190.542 121.082 190.958 121.238 191.494 121.238C192.034 121.238 192.45 121.082 192.742 120.77C193.038 120.458 193.186 119.988 193.186 119.36V113.738H194.236ZM197.652 114.59V117.374H200.712V118.232H197.652V121.166H201.408V122H196.608V113.738H201.3L201.18 114.59H197.652ZM202.897 124.178V123.296H208.897V124.178H202.897ZM212.042 114.59V117.374H215.102V118.232H212.042V121.166H215.798V122H210.998V113.738H215.69L215.57 114.59H212.042ZM277.538 113.606L278.378 113.96L276.182 119.186H280.592V119.99H275.114V119.258L277.538 113.606ZM279.524 116.84V122H278.552L278.546 119.378L278.684 116.84H279.524ZM286.095 117.8C286.095 117.172 286.041 116.612 285.933 116.12C285.829 115.624 285.671 115.174 285.459 114.77C285.247 114.362 284.979 113.974 284.655 113.606C284.335 113.234 283.959 112.856 283.527 112.472L284.055 111.92C284.707 112.448 285.263 112.99 285.723 113.546C286.183 114.102 286.535 114.722 286.779 115.406C287.027 116.09 287.151 116.888 287.151 117.8C287.151 118.708 287.027 119.504 286.779 120.188C286.535 120.872 286.183 121.492 285.723 122.048C285.263 122.604 284.707 123.148 284.055 123.68L283.527 123.128C283.955 122.748 284.329 122.372 284.649 122C284.973 121.632 285.241 121.244 285.453 120.836C285.665 120.424 285.825 119.972 285.933 119.48C286.041 118.984 286.095 118.424 286.095 117.8ZM111.308 133.8C111.308 134.424 111.362 134.984 111.47 135.48C111.578 135.972 111.738 136.424 111.95 136.836C112.162 137.244 112.428 137.632 112.748 138C113.072 138.372 113.448 138.748 113.876 139.128L113.348 139.68C112.7 139.148 112.144 138.604 111.68 138.048C111.22 137.492 110.866 136.872 110.618 136.188C110.374 135.504 110.252 134.708 110.252 133.8C110.252 132.888 110.374 132.09 110.618 131.406C110.866 130.722 111.22 130.102 111.68 129.546C112.144 128.99 112.7 128.448 113.348 127.92L113.876 128.472C113.444 128.856 113.066 129.234 112.742 129.606C112.422 129.974 112.156 130.362 111.944 130.77C111.732 131.174 111.572 131.624 111.464 132.12C111.36 132.612 111.308 133.172 111.308 133.8ZM264.509 133.8C264.509 133.172 264.455 132.612 264.347 132.12C264.243 131.624 264.085 131.174 263.873 130.77C263.661 130.362 263.393 129.974 263.069 129.606C262.749 129.234 262.373 128.856 261.941 128.472L262.469 127.92C263.121 128.448 263.677 128.99 264.137 129.546C264.597 130.102 264.949 130.722 265.193 131.406C265.441 132.09 265.565 132.888 265.565 133.8C265.565 134.708 265.441 135.504 265.193 136.188C264.949 136.872 264.597 137.492 264.137 138.048C263.677 138.604 263.121 139.148 262.469 139.68L261.941 139.128C262.369 138.748 262.743 138.372 263.063 138C263.387 137.632 263.655 137.244 263.867 136.836C264.079 136.424 264.239 135.972 264.347 135.48C264.455 134.984 264.509 134.424 264.509 133.8Z" fill="var(--vscode-badge-foreground, #005CC5)" />
        <path d="M236.964 122H235.536L234.72 117.362L233.832 122H232.44L231.288 115.682H232.32L233.124 121.376L234.132 116.486H235.326L236.28 121.376L237.084 115.682H238.068L236.964 122ZM242.677 115.682V121.202H244.459V122H239.719V121.202H241.669V116.48H239.779V115.682H242.677ZM241.873 112.724C242.097 112.724 242.275 112.792 242.407 112.928C242.543 113.064 242.611 113.23 242.611 113.426C242.611 113.63 242.543 113.802 242.407 113.942C242.275 114.078 242.097 114.146 241.873 114.146C241.661 114.146 241.487 114.078 241.351 113.942C241.215 113.802 241.147 113.63 241.147 113.426C241.147 113.23 241.215 113.064 241.351 112.928C241.487 112.792 241.661 112.724 241.873 112.724ZM250.455 113.012L251.463 113.138V122H250.581L250.485 121.166C250.249 121.502 249.977 121.748 249.669 121.904C249.365 122.06 249.039 122.138 248.691 122.138C248.143 122.138 247.691 122 247.335 121.724C246.979 121.448 246.715 121.064 246.543 120.572C246.371 120.076 246.285 119.502 246.285 118.85C246.285 118.218 246.383 117.654 246.579 117.158C246.775 116.658 247.057 116.266 247.425 115.982C247.797 115.694 248.243 115.55 248.763 115.55C249.127 115.55 249.447 115.614 249.723 115.742C249.999 115.866 250.243 116.05 250.455 116.294V113.012ZM249.027 116.36C248.499 116.36 248.093 116.566 247.809 116.978C247.525 117.39 247.383 118.014 247.383 118.85C247.383 119.394 247.441 119.85 247.557 120.218C247.673 120.586 247.843 120.862 248.067 121.046C248.295 121.23 248.573 121.322 248.901 121.322C249.261 121.322 249.567 121.22 249.819 121.016C250.075 120.812 250.287 120.582 250.455 120.326V117.17C250.283 116.914 250.075 116.716 249.831 116.576C249.587 116.432 249.319 116.36 249.027 116.36ZM258.886 121.682C258.67 121.826 258.408 121.938 258.1 122.018C257.792 122.098 257.49 122.138 257.194 122.138C256.514 122.138 255.99 121.96 255.622 121.604C255.254 121.248 255.07 120.79 255.07 120.23V116.462H253.618V115.682H255.07V114.248L256.078 114.128V115.682H258.262L258.142 116.462H256.078V120.218C256.078 120.57 256.17 120.838 256.354 121.022C256.542 121.206 256.852 121.298 257.284 121.298C257.52 121.298 257.738 121.27 257.938 121.214C258.138 121.158 258.324 121.086 258.496 120.998L258.886 121.682ZM262.073 113.042V116.546C262.321 116.214 262.625 115.966 262.985 115.802C263.349 115.634 263.717 115.55 264.089 115.55C264.705 115.55 265.155 115.714 265.439 116.042C265.723 116.37 265.865 116.826 265.865 117.41V122H264.857V117.434C264.857 117.054 264.769 116.778 264.593 116.606C264.417 116.43 264.141 116.342 263.765 116.342C263.525 116.342 263.297 116.396 263.081 116.504C262.865 116.612 262.671 116.746 262.499 116.906C262.327 117.066 262.185 117.23 262.073 117.398V122H261.065V113.15L262.073 113.042ZM204.847 133.8C204.847 134.424 204.901 134.984 205.009 135.48C205.117 135.972 205.277 136.424 205.489 136.836C205.701 137.244 205.967 137.632 206.287 138C206.611 138.372 206.987 138.748 207.415 139.128L206.887 139.68C206.239 139.148 205.683 138.604 205.219 138.048C204.759 137.492 204.405 136.872 204.157 136.188C203.913 135.504 203.791 134.708 203.791 133.8C203.791 132.888 203.913 132.09 204.157 131.406C204.405 130.722 204.759 130.102 205.219 129.546C205.683 128.99 206.239 128.448 206.887 127.92L207.415 128.472C206.983 128.856 206.605 129.234 206.281 129.606C205.961 129.974 205.695 130.362 205.483 130.77C205.271 131.174 205.111 131.624 205.003 132.12C204.899 132.612 204.847 133.172 204.847 133.8ZM257.314 133.8C257.314 133.172 257.26 132.612 257.152 132.12C257.048 131.624 256.89 131.174 256.678 130.77C256.466 130.362 256.198 129.974 255.874 129.606C255.554 129.234 255.178 128.856 254.746 128.472L255.274 127.92C255.926 128.448 256.482 128.99 256.942 129.546C257.402 130.102 257.754 130.722 257.998 131.406C258.246 132.09 258.37 132.888 258.37 133.8C258.37 134.708 258.246 135.504 257.998 136.188C257.754 136.872 257.402 137.492 256.942 138.048C256.482 138.604 255.926 139.148 255.274 139.68L254.746 139.128C255.174 138.748 255.548 138.372 255.868 138C256.192 137.632 256.46 137.244 256.672 136.836C256.884 136.424 257.044 135.972 257.152 135.48C257.26 134.984 257.314 134.424 257.314 133.8Z" fill="var(--vscode-editorBracketHighlight-foreground2, #E36209)" />
      </g>
      <path d="M44.3 63.6L49.7 66.3L44.3 69V63.6ZM60.6322 64.24C60.6322 63.8833 60.5622 63.6017 60.4222 63.395C60.2822 63.185 60.0905 63.035 59.8472 62.945C59.6039 62.8517 59.3255 62.805 59.0122 62.805H58.0172V65.745H58.9772C59.3005 65.745 59.5855 65.7017 59.8322 65.615C60.0789 65.525 60.2739 65.3717 60.4172 65.155C60.5605 64.935 60.6322 64.63 60.6322 64.24ZM61.5622 64.23C61.5622 64.7667 61.4472 65.1967 61.2172 65.52C60.9905 65.8433 60.6772 66.0783 60.2772 66.225C59.8772 66.3717 59.4172 66.445 58.8972 66.445H58.0172V69H57.1472V62.115H58.9072C59.7272 62.115 60.3739 62.2883 60.8472 62.635C61.3239 62.9783 61.5622 63.51 61.5622 64.23ZM63.0433 69V68.355H63.8633V64.38H63.0433V63.735H64.5033L64.6583 64.98C64.8616 64.5467 65.1083 64.2117 65.3983 63.975C65.6883 63.7383 66.0716 63.62 66.5483 63.62C66.6949 63.62 66.8249 63.6317 66.9383 63.655C67.0549 63.675 67.1733 63.7017 67.2933 63.735L67.0483 64.485C66.9383 64.455 66.8383 64.4333 66.7483 64.42C66.6583 64.4033 66.5549 64.395 66.4383 64.395C66.0349 64.395 65.6883 64.5383 65.3983 64.825C65.1083 65.1117 64.8766 65.545 64.7033 66.125V68.355H65.7733V69H63.0433ZM66.4833 65.515V64.37L66.5683 63.735H67.2933L67.1733 65.515H66.4833ZM69.6494 66.665C69.666 67.0717 69.7444 67.405 69.8844 67.665C70.0244 67.9217 70.2094 68.1117 70.4394 68.235C70.6694 68.355 70.9194 68.415 71.1894 68.415C71.4594 68.415 71.7027 68.375 71.9194 68.295C72.1394 68.215 72.3644 68.0967 72.5944 67.94L72.9894 68.495C72.7427 68.6883 72.461 68.84 72.1444 68.95C71.831 69.06 71.5094 69.115 71.1794 69.115C70.6694 69.115 70.2344 69 69.8744 68.77C69.5144 68.54 69.2394 68.22 69.0494 67.81C68.8627 67.3967 68.7694 66.9183 68.7694 66.375C68.7694 65.8417 68.8644 65.3683 69.0544 64.955C69.2444 64.5417 69.511 64.2167 69.8544 63.98C70.1977 63.7433 70.6027 63.625 71.0694 63.625C71.5127 63.625 71.8944 63.73 72.2144 63.94C72.5344 64.1467 72.7794 64.4433 72.9494 64.83C73.1227 65.2133 73.2094 65.6717 73.2094 66.205C73.2094 66.295 73.2077 66.38 73.2044 66.46C73.201 66.5367 73.196 66.605 73.1894 66.665H69.6494ZM71.0794 64.315C70.6894 64.315 70.3627 64.4533 70.0994 64.73C69.8394 65.0067 69.691 65.435 69.6544 66.015H72.3994C72.3894 65.4517 72.266 65.0283 72.0294 64.745C71.7927 64.4583 71.476 64.315 71.0794 64.315ZM79.3755 63.735L77.4605 69H76.4855L74.5855 63.735H75.4755L77.0005 68.235L78.5055 63.735H79.3755ZM83.6466 63.735V68.335H85.1316V69H81.1816V68.335H82.8066V64.4H81.2316V63.735H83.6466ZM82.9766 61.27C83.1632 61.27 83.3116 61.3267 83.4216 61.44C83.5349 61.5533 83.5916 61.6917 83.5916 61.855C83.5916 62.025 83.5349 62.1683 83.4216 62.285C83.3116 62.3983 83.1632 62.455 82.9766 62.455C82.7999 62.455 82.6549 62.3983 82.5416 62.285C82.4282 62.1683 82.3716 62.025 82.3716 61.855C82.3716 61.6917 82.4282 61.5533 82.5416 61.44C82.6549 61.3267 82.7999 61.27 82.9766 61.27ZM87.6377 66.665C87.6543 67.0717 87.7327 67.405 87.8727 67.665C88.0127 67.9217 88.1977 68.1117 88.4277 68.235C88.6577 68.355 88.9077 68.415 89.1777 68.415C89.4477 68.415 89.691 68.375 89.9077 68.295C90.1277 68.215 90.3527 68.0967 90.5827 67.94L90.9777 68.495C90.731 68.6883 90.4493 68.84 90.1327 68.95C89.8193 69.06 89.4977 69.115 89.1677 69.115C88.6577 69.115 88.2227 69 87.8627 68.77C87.5027 68.54 87.2277 68.22 87.0377 67.81C86.851 67.3967 86.7577 66.9183 86.7577 66.375C86.7577 65.8417 86.8527 65.3683 87.0427 64.955C87.2327 64.5417 87.4993 64.2167 87.8427 63.98C88.186 63.7433 88.591 63.625 89.0577 63.625C89.501 63.625 89.8827 63.73 90.2027 63.94C90.5227 64.1467 90.7677 64.4433 90.9377 64.83C91.111 65.2133 91.1977 65.6717 91.1977 66.205C91.1977 66.295 91.196 66.38 91.1927 66.46C91.1893 66.5367 91.1843 66.605 91.1777 66.665H87.6377ZM89.0677 64.315C88.6777 64.315 88.351 64.4533 88.0877 64.73C87.8277 65.0067 87.6793 65.435 87.6427 66.015H90.3877C90.3777 65.4517 90.2543 65.0283 90.0177 64.745C89.781 64.4583 89.4643 64.315 89.0677 64.315ZM96.8738 69H95.6838L95.0038 65.135L94.2638 69H93.1038L92.1438 63.735H93.0038L93.6738 68.48L94.5138 64.405H95.5088L96.3038 68.48L96.9738 63.735H97.7938L96.8738 69ZM109.266 62.115L109.656 69H108.821L108.606 65.405C108.596 65.1617 108.586 64.915 108.576 64.665C108.566 64.415 108.559 64.175 108.556 63.945C108.553 63.715 108.551 63.51 108.551 63.33C108.551 63.15 108.551 63.01 108.551 62.91L107.391 67.765H106.521L105.276 62.91C105.279 63.0067 105.283 63.15 105.286 63.34C105.289 63.5267 105.291 63.7383 105.291 63.975C105.294 64.2117 105.293 64.455 105.286 64.705C105.283 64.9517 105.276 65.1817 105.266 65.395L105.081 69H104.266L104.656 62.115H105.866L106.981 66.83L108.046 62.115H109.266ZM114.732 67.85C114.732 68.06 114.767 68.2133 114.837 68.31C114.907 68.4067 115.015 68.4783 115.162 68.525L114.957 69.115C114.73 69.085 114.532 69.0133 114.362 68.9C114.192 68.7833 114.069 68.6083 113.992 68.375C113.802 68.6183 113.565 68.8033 113.282 68.93C112.999 69.0533 112.685 69.115 112.342 69.115C111.815 69.115 111.4 68.9667 111.097 68.67C110.794 68.3733 110.642 67.98 110.642 67.49C110.642 66.9467 110.854 66.53 111.277 66.24C111.7 65.95 112.312 65.805 113.112 65.805H113.887V65.365C113.887 64.985 113.775 64.7167 113.552 64.56C113.332 64.4 113.025 64.32 112.632 64.32C112.459 64.32 112.255 64.3417 112.022 64.385C111.789 64.425 111.535 64.4933 111.262 64.59L111.042 63.955C111.365 63.835 111.669 63.75 111.952 63.7C112.235 63.65 112.505 63.625 112.762 63.625C113.419 63.625 113.91 63.7783 114.237 64.085C114.567 64.3883 114.732 64.8017 114.732 65.325V67.85ZM112.557 68.475C112.817 68.475 113.065 68.41 113.302 68.28C113.539 68.1467 113.734 67.9633 113.887 67.73V66.375H113.127C112.547 66.375 112.137 66.475 111.897 66.675C111.66 66.875 111.542 67.1433 111.542 67.48C111.542 67.8067 111.625 68.055 111.792 68.225C111.962 68.3917 112.217 68.475 112.557 68.475ZM116.958 69V63.735H117.673L117.738 64.465C117.951 64.195 118.218 63.9883 118.538 63.845C118.861 63.6983 119.175 63.625 119.478 63.625C119.995 63.625 120.37 63.7617 120.603 64.035C120.84 64.3083 120.958 64.6883 120.958 65.175V69H120.118V65.795C120.118 65.435 120.098 65.145 120.058 64.925C120.018 64.7017 119.935 64.54 119.808 64.44C119.681 64.3367 119.485 64.285 119.218 64.285C119.011 64.285 118.816 64.33 118.633 64.42C118.453 64.51 118.291 64.6233 118.148 64.76C118.008 64.8933 117.891 65.0283 117.798 65.165V69H116.958ZM125.619 63.735V68.335H127.104V69H123.154V68.335H124.779V64.4H123.204V63.735H125.619ZM124.949 61.27C125.136 61.27 125.284 61.3267 125.394 61.44C125.508 61.5533 125.564 61.6917 125.564 61.855C125.564 62.025 125.508 62.1683 125.394 62.285C125.284 62.3983 125.136 62.455 124.949 62.455C124.773 62.455 124.628 62.3983 124.514 62.285C124.401 62.1683 124.344 62.025 124.344 61.855C124.344 61.6917 124.401 61.5533 124.514 61.44C124.628 61.3267 124.773 61.27 124.949 61.27ZM132.42 63.625C132.59 63.625 132.752 63.6617 132.905 63.735C133.062 63.8083 133.19 63.95 133.29 64.16C133.39 64.37 133.44 64.6767 133.44 65.08V69H132.66V65.215C132.66 64.885 132.64 64.6467 132.6 64.5C132.56 64.3533 132.445 64.28 132.255 64.28C132.099 64.28 131.942 64.33 131.785 64.43C131.632 64.5267 131.482 64.6867 131.335 64.91V69H130.55V65.215C130.55 64.885 130.53 64.6467 130.49 64.5C130.45 64.3533 130.335 64.28 130.145 64.28C129.982 64.28 129.824 64.33 129.67 64.43C129.52 64.5267 129.372 64.6867 129.225 64.91V69H128.45V63.735H129.11L129.16 64.345C129.304 64.1417 129.464 63.9717 129.64 63.835C129.82 63.695 130.042 63.625 130.305 63.625C130.505 63.625 130.694 63.6733 130.87 63.77C131.047 63.8633 131.177 64.0467 131.26 64.32C131.404 64.1133 131.565 63.9467 131.745 63.82C131.925 63.69 132.15 63.625 132.42 63.625ZM143.518 62.005C143.968 62.005 144.344 62.0617 144.648 62.175C144.951 62.2883 145.239 62.455 145.513 62.675L145.028 63.24C144.811 63.0567 144.581 62.9267 144.338 62.85C144.098 62.77 143.846 62.73 143.583 62.73C143.206 62.73 142.858 62.82 142.538 63C142.218 63.1767 141.959 63.4717 141.763 63.885C141.569 64.295 141.473 64.8517 141.473 65.555C141.473 66.2383 141.564 66.7867 141.748 67.2C141.934 67.6133 142.186 67.9117 142.503 68.095C142.819 68.2783 143.173 68.37 143.563 68.37C143.949 68.37 144.266 68.3117 144.513 68.195C144.763 68.0783 144.979 67.945 145.163 67.795L145.613 68.365C145.403 68.5683 145.129 68.745 144.793 68.895C144.456 69.0417 144.043 69.115 143.553 69.115C142.996 69.115 142.491 68.9783 142.038 68.705C141.588 68.4317 141.231 68.0317 140.968 67.505C140.704 66.975 140.573 66.325 140.573 65.555C140.573 64.7817 140.706 64.1317 140.973 63.605C141.243 63.0783 141.601 62.68 142.048 62.41C142.498 62.14 142.988 62.005 143.518 62.005ZM147.599 66.665C147.615 67.0717 147.694 67.405 147.834 67.665C147.974 67.9217 148.159 68.1117 148.389 68.235C148.619 68.355 148.869 68.415 149.139 68.415C149.409 68.415 149.652 68.375 149.869 68.295C150.089 68.215 150.314 68.0967 150.544 67.94L150.939 68.495C150.692 68.6883 150.41 68.84 150.094 68.95C149.78 69.06 149.459 69.115 149.129 69.115C148.619 69.115 148.184 69 147.824 68.77C147.464 68.54 147.189 68.22 146.999 67.81C146.812 67.3967 146.719 66.9183 146.719 66.375C146.719 65.8417 146.814 65.3683 147.004 64.955C147.194 64.5417 147.46 64.2167 147.804 63.98C148.147 63.7433 148.552 63.625 149.019 63.625C149.462 63.625 149.844 63.73 150.164 63.94C150.484 64.1467 150.729 64.4433 150.899 64.83C151.072 65.2133 151.159 65.6717 151.159 66.205C151.159 66.295 151.157 66.38 151.154 66.46C151.15 66.5367 151.145 66.605 151.139 66.665H147.599ZM149.029 64.315C148.639 64.315 148.312 64.4533 148.049 64.73C147.789 65.0067 147.64 65.435 147.604 66.015H150.349C150.339 65.4517 150.215 65.0283 149.979 64.745C149.742 64.4583 149.425 64.315 149.029 64.315ZM154.985 61.615V67.7C154.985 67.96 155.065 68.145 155.225 68.255C155.388 68.3617 155.598 68.415 155.855 68.415C156.015 68.415 156.166 68.3983 156.31 68.365C156.453 68.3317 156.596 68.2867 156.74 68.23L156.965 68.845C156.821 68.915 156.643 68.9767 156.43 69.03C156.22 69.0867 155.981 69.115 155.715 69.115C155.248 69.115 154.87 68.9867 154.58 68.73C154.29 68.47 154.145 68.1117 154.145 67.655V62.28H152.53V61.615H154.985ZM160.981 61.615V67.7C160.981 67.96 161.061 68.145 161.221 68.255C161.384 68.3617 161.594 68.415 161.851 68.415C162.011 68.415 162.162 68.3983 162.306 68.365C162.449 68.3317 162.592 68.2867 162.736 68.23L162.961 68.845C162.817 68.915 162.639 68.9767 162.426 69.03C162.216 69.0867 161.977 69.115 161.711 69.115C161.244 69.115 160.866 68.9867 160.576 68.73C160.286 68.47 160.141 68.1117 160.141 67.655V62.28H158.526V61.615H160.981Z" fill="var(--vscode-breadcrumb-foreground, #6A737D)" />
      <g clip-path="url(#clip0_10_101)" filter="url(#filter1_d_10_101)">
        <path fill-rule="evenodd" clip-rule="evenodd" d="M168.442 62.1969C168.928 62.0667 169.427 62.355 169.557 62.8409L170.101 64.8722C170.232 65.3581 169.943 65.8574 169.457 65.9876C168.972 66.1178 168.472 65.8295 168.342 65.3436L167.798 63.3123C167.668 62.8265 167.956 62.3271 168.442 62.1969ZM164.087 66.5592C163.957 67.045 164.245 67.5444 164.731 67.6746L166.762 68.2189C167.248 68.3491 167.747 68.0607 167.878 67.5749C168.008 67.0891 167.72 66.5897 167.234 66.4595L165.202 65.9152C164.717 65.785 164.217 66.0734 164.087 66.5592ZM169.429 68.9454C169.113 67.9959 170.016 67.0924 170.966 67.4092L179.61 70.2933C180.727 70.666 180.713 72.2511 179.589 72.6037L177.128 73.3761L180.407 76.6547C180.881 77.1289 180.881 77.8977 180.407 78.372C179.933 78.8462 179.164 78.8462 178.69 78.372L175.403 75.0858L174.624 77.5692C174.271 78.6929 172.686 78.7071 172.313 77.59L169.429 68.9454ZM166.509 72.631C166.154 72.9867 165.577 72.9867 165.222 72.631C164.866 72.2754 164.866 71.6987 165.222 71.3431L166.709 69.856C167.064 69.5004 167.641 69.5004 167.997 69.856C168.352 70.2117 168.352 70.7883 167.997 71.144L166.509 72.631ZM174.354 64.6273C174.71 64.2716 174.71 63.695 174.354 63.3393C173.998 62.9837 173.422 62.9837 173.066 63.3393L171.579 64.8264C171.223 65.182 171.223 65.7587 171.579 66.1143C171.935 66.47 172.511 66.47 172.867 66.1143L174.354 64.6273Z" fill="#2B7BD6" />
      </g>
      <rect x="9" y="11" width="307" height="19" fill="var(--vscode-editorGroupHeader-tabsBackground, #F6F8FA)" />
      <rect x="26" y="12" width="65" height="18" fill="var(--vscode-activityBar-background, #FFFFFF)" />
      <g clip-path="url(#clip1_10_101)">
        <path d="M36.3927 19.7024V20.4097C36.3927 20.958 35.8999 21.4196 35.3379 21.4196H33.6515C33.1895 21.4196 32.8073 21.7926 32.8073 22.229V23.7457C32.8073 24.1773 33.2052 24.4312 33.6515 24.5551C34.186 24.7033 34.6985 24.7301 35.3379 24.5551C35.763 24.439 36.1822 24.2053 36.1822 23.7457V23.1386H34.4957V22.9363H36.1822H37.0264C37.5171 22.9363 37.6999 22.6134 37.8706 22.1287C38.0469 21.6298 38.0394 21.15 37.8706 20.5099C37.7493 20.0491 37.5177 19.7024 37.0264 19.7024H36.3927ZM35.4442 23.5433C35.6192 23.5433 35.761 23.6786 35.761 23.8459C35.761 24.0138 35.6192 24.1504 35.4442 24.1504C35.2698 24.1504 35.1274 24.0138 35.1274 23.8459C35.1274 23.6786 35.2698 23.5433 35.4442 23.5433Z" fill="url(#paint0_linear_10_101)" />
        <path d="M34.4583 18.0001C34.1697 18.0013 33.894 18.0245 33.6515 18.065C32.937 18.1841 32.8073 18.4333 32.8073 18.893V19.5H34.4957V19.7024H32.8073H32.1736C31.6829 19.7024 31.2533 19.9806 31.1189 20.5099C30.9638 21.1166 30.957 21.4952 31.1189 22.1287C31.2389 22.6003 31.5255 22.9363 32.0162 22.9363H32.5967V22.2085C32.5967 21.6828 33.0789 21.2191 33.6515 21.2191H35.338C35.8074 21.2191 36.1822 20.8544 36.1822 20.4097V18.893C36.1822 18.4613 35.7962 18.1371 35.338 18.065C35.0479 18.0195 34.747 17.9988 34.4583 18.0001ZM33.5452 18.4883C33.7196 18.4883 33.8621 18.6248 33.8621 18.7927C33.8621 18.96 33.7196 19.0953 33.5452 19.0953C33.3702 19.0953 33.2284 18.96 33.2284 18.7927C33.2284 18.6248 33.3702 18.4883 33.5452 18.4883Z" fill="url(#paint1_linear_10_101)" />
      </g>
      <rect x="26" y="11" width="65" height="1" fill="var(--vscode-activityBar-activeBorder, #F9826C)" />
      <rect x="42" y="20" width="43" height="4" rx="2" fill="#B4B9BE" />
      <rect x="9" y="30" width="307" height="1" fill="var(--vscode-button-secondaryBackground, #E1E4E8)" />
    </g>
  </g>
  <defs>
    <filter id="filter0_d_10_101" x="3.2" y="5.2" width="318.6" height="156.6" filterUnits="userSpaceOnUse" color-interpolation-filters="sRGB">
      <feFlood flood-opacity="0" result="BackgroundImageFix" />
      <feColorMatrix in="SourceAlpha" type="matrix" values="0 0 0 0 0 0 0 0 0 0 0 0 0 0 0 0 0 0 127 0" result="hardAlpha" />
      <feMorphology radius="1" operator="erode" in="SourceAlpha" result="effect1_dropShadow_10_101" />
      <feOffset />
      <feGaussianBlur stdDeviation="3.4" />
      <feComposite in2="hardAlpha" operator="out" />
      <feColorMatrix type="matrix" values="0 0 0 0 0 0 0 0 0 0 0 0 0 0 0 0 0 0 0.5 0" />
      <feBlend mode="normal" in2="BackgroundImageFix" result="effect1_dropShadow_10_101" />
      <feBlend mode="normal" in="SourceGraphic" in2="effect1_dropShadow_10_101" result="shape" />
    </filter>
    <filter id="filter1_d_10_101" x="163.4" y="61.4" width="20.2" height="20.2" filterUnits="userSpaceOnUse" color-interpolation-filters="sRGB">
      <feFlood flood-opacity="0" result="BackgroundImageFix" />
      <feColorMatrix in="SourceAlpha" type="matrix" values="0 0 0 0 0 0 0 0 0 0 0 0 0 0 0 0 0 0 127 0" result="hardAlpha" />
      <feOffset dx="1" dy="1" />
      <feGaussianBlur stdDeviation="0.8" />
      <feColorMatrix type="matrix" values="0 0 0 0 0 0 0 0 0 0 0 0 0 0 0 0 0 0 0.1 0" />
      <feBlend mode="normal" in2="BackgroundImageFix" result="effect1_dropShadow_10_101" />
      <feBlend mode="normal" in="SourceGraphic" in2="effect1_dropShadow_10_101" result="shape" />
    </filter>
    <linearGradient id="paint0_linear_10_101" x1="35.4036" y1="23.7949" x2="34.1126" y2="21.8772" gradientUnits="userSpaceOnUse">
      <stop stop-color="#FFD43B" />
      <stop offset="1" stop-color="#FFE873" />
    </linearGradient>
    <linearGradient id="paint1_linear_10_101" x1="31" y1="18" x2="34.7008" y2="21.3429" gradientUnits="userSpaceOnUse">
      <stop stop-color="#5A9FD4" />
      <stop offset="1" stop-color="#306998" />
    </linearGradient>
    <clipPath id="clip0_10_101">
      <rect width="17" height="17" fill="var(--vscode-activityBar-background, #FFFFFF)" transform="translate(164 62)" />
    </clipPath>
    <clipPath id="clip1_10_101">
      <rect width="7" height="8" fill="var(--vscode-activityBar-background, #FFFFFF)" transform="translate(31 18)" />
    </clipPath>
  </defs>
</svg>