<svg width="307" height="130" viewBox="0 0 307 130" fill="none" xmlns="http://www.w3.org/2000/svg">
<g clip-path="url(#clip0_29_34)">
<rect width="307" height="130" rx="4" fill="white"/>
<path d="M0 4C0 1.79086 1.79086 0 4 0H303C305.209 0 307 1.79086 307 4V19H0V4Z" fill="#F6F8FA"/>
<rect x="17" y="1" width="52" height="18" fill="white"/>
<rect y="19" width="17" height="1" fill="#E1E4E8"/>
<rect x="69" y="19" width="238" height="1" fill="#E1E4E8"/>
<rect x="69" width="1" height="19" fill="#E1E4E8"/>
<rect x="16" width="1" height="19" fill="#E1E4E8"/>
<rect x="16" width="54" height="1" fill="#F9826C"/>
<path d="M39.3745 13L37.9185 8.45H38.419L39.7775 12.8635L39.836 13H39.3745ZM39.3745 13L39.4005 12.8635L40.629 8.45H41.1425V8.502L39.836 13H39.3745ZM36.5015 13L35.195 8.502V8.45H35.7085L36.937 12.8635L36.963 13H36.5015ZM36.5015 13L36.56 12.8635L37.9185 8.45H38.419L36.963 13H36.5015ZM41.79 13V9.75H42.2775V13H41.79ZM42.037 9.113C41.9373 9.113 41.8528 9.07833 41.7835 9.009C41.7141 8.93967 41.6795 8.85517 41.6795 8.7555C41.6795 8.65583 41.7141 8.57133 41.7835 8.502C41.8528 8.43267 41.9373 8.398 42.037 8.398C42.1366 8.398 42.2211 8.43267 42.2905 8.502C42.3598 8.57133 42.3945 8.65583 42.3945 8.7555C42.3945 8.85517 42.3598 8.93967 42.2905 9.009C42.2211 9.07833 42.1366 9.113 42.037 9.113ZM43.4774 12.3305V11.687L45.4794 9.75H46.0579V9.802L43.4774 12.3305ZM43.2824 13V8.32L43.7504 8.2615L43.7699 8.3135V13H43.2824ZM45.5184 13L44.3159 11.3035L44.6344 10.9785L46.0579 12.948V13H45.5184ZM46.5126 13V9.75H47.0001V13H46.5126ZM46.7596 9.113C46.66 9.113 46.5755 9.07833 46.5061 9.009C46.4368 8.93967 46.4021 8.85517 46.4021 8.7555C46.4021 8.65583 46.4368 8.57133 46.5061 8.502C46.5755 8.43267 46.66 8.398 46.7596 8.398C46.8593 8.398 46.9438 8.43267 47.0131 8.502C47.0825 8.57133 47.1171 8.65583 47.1171 8.7555C47.1171 8.85517 47.0825 8.93967 47.0131 9.009C46.9438 9.07833 46.8593 9.113 46.7596 9.113Z" fill="#2F363D"/>
<path fill-rule="evenodd" clip-rule="evenodd" d="M82.3925 89.0869C81.7781 89.0869 81.2785 88.5892 81.2785 87.9729C81.2785 87.3566 81.7781 86.859 82.3925 86.859H96.0611C96.6755 86.859 97.175 87.3585 97.175 87.9729C97.175 88.5874 96.6755 89.0869 96.0611 89.0869H82.3925ZM82.3925 84.79C81.7781 84.79 81.2785 84.2924 81.2785 83.6761C81.2785 83.0598 81.7781 82.5621 82.3925 82.5621H90.9773C91.5917 82.5621 92.0913 83.0616 92.0913 83.6761C92.0913 84.2905 91.5936 84.79 90.9773 84.79H82.3925ZM102.151 63.0152V64.6824C102.151 65.092 102.486 65.4269 102.896 65.4269H104.804L102.149 63.0152H102.151ZM109.754 60.0408L109.322 61.6505C109.214 62.0506 109.454 62.4602 109.848 62.5654L111.695 63.0612L109.754 60.0408ZM108.395 59.4091L107.896 61.2696C107.58 62.4506 108.284 63.6736 109.469 63.9914L111.775 64.6096L109.306 73.8273H106.762V66.2303C106.789 65.6101 106.646 65.101 106.167 64.6665L102.959 61.7514C102.618 61.4432 102.192 61.2767 101.734 61.2767H89.1167L90.7379 55.226C90.8145 54.9389 91.1035 54.7743 91.3887 54.8508L108.395 59.4091ZM92.4338 49.0848L75.4255 53.6422C75.1403 53.7188 74.9738 54.0078 75.0503 54.293L78.7234 68.0016H81.0567V63.2874C81.0567 62.1791 81.9582 61.2776 83.0664 61.2776H87.5855L89.3082 54.8464C89.5933 53.7822 90.7016 53.1409 91.7677 53.4261L98.8825 55.3326L97.9618 51.8987L95.6535 52.517C94.4725 52.8328 93.2494 52.1284 92.9317 50.9436L92.434 49.0832L92.4338 49.0848ZM93.9267 48.9528L97.1194 50.597L95.2742 51.0908C94.8761 51.198 94.4665 50.9587 94.3593 50.5644L93.9267 48.9528ZM100.674 62.7589V64.6845C100.674 65.9095 101.671 66.9086 102.898 66.9086H105.289V73.8319H95.8123L93.3336 69.933C92.5622 68.7214 91.2587 68.0017 89.8194 68.0017H82.5384V63.2891C82.5384 62.9982 82.7776 62.7589 83.0686 62.7589H100.674ZM109.343 94.0499C110.79 94.0499 111.969 92.8708 111.969 91.4238V77.6961C111.969 76.249 110.791 75.07 109.343 75.07H95.2208C95.0657 75.07 94.9681 75.0164 94.8858 74.8882L92.2214 70.6983C91.7333 69.9288 90.916 69.479 90.0069 69.479H79.4416C77.9946 69.479 76.8156 70.6581 76.8156 72.1051V91.4217C76.8156 92.8688 77.9927 94.0478 79.4416 94.0478H109.345L109.343 94.0499ZM79.4395 91.822H109.343C109.561 91.822 109.741 91.642 109.741 91.4238V77.6961C109.741 77.4779 109.561 77.2979 109.343 77.2979H95.2208C94.3116 77.2979 93.4943 76.8481 93.0043 76.0787L90.3399 71.8888C90.2576 71.7586 90.16 71.707 90.0049 71.707H79.4397C79.2215 71.707 79.0416 71.8869 79.0416 72.1051V91.4217C79.0416 91.6399 79.2215 91.8198 79.4397 91.8198L79.4395 91.822Z" fill="#2F363D"/>
<path d="M135.29 68V61H136.04V68H135.29ZM130.8 68V61H131.55V68H130.8ZM131.19 64.77V64.04H135.74V64.77H131.19ZM139.666 68.12C139.193 68.12 138.773 68.01 138.406 67.79C138.039 67.57 137.753 67.2633 137.546 66.87C137.339 66.4767 137.236 66.02 137.236 65.5C137.236 64.98 137.336 64.5233 137.536 64.13C137.743 63.7367 138.026 63.43 138.386 63.21C138.753 62.99 139.173 62.88 139.646 62.88C140.113 62.88 140.519 62.9933 140.866 63.22C141.219 63.44 141.496 63.7533 141.696 64.16C141.896 64.56 141.996 65.0267 141.996 65.56V65.65L141.846 65.79H137.676V65.06H141.556L141.226 65.2C141.199 64.8667 141.113 64.5833 140.966 64.35C140.819 64.11 140.633 63.9267 140.406 63.8C140.179 63.6733 139.926 63.61 139.646 63.61C139.339 63.61 139.059 63.6867 138.806 63.84C138.553 63.9867 138.353 64.1967 138.206 64.47C138.059 64.7433 137.986 65.06 137.986 65.42V65.55C137.986 65.91 138.056 66.23 138.196 66.51C138.343 66.7833 138.543 67 138.796 67.16C139.049 67.3133 139.339 67.39 139.666 67.39C139.993 67.39 140.273 67.3133 140.506 67.16C140.739 67.0067 140.923 66.7967 141.056 66.53H141.166L141.796 66.81C141.609 67.21 141.329 67.53 140.956 67.77C140.589 68.0033 140.159 68.12 139.666 68.12ZM144.673 68.12C144.333 68.12 144.026 68.0533 143.753 67.92C143.486 67.7867 143.276 67.6033 143.123 67.37C142.969 67.1367 142.893 66.8667 142.893 66.56C142.893 66.1267 143.046 65.7767 143.353 65.51C143.666 65.2367 144.096 65.08 144.643 65.04L146.563 64.9V65.6L144.813 65.73C144.426 65.7567 144.136 65.84 143.943 65.98C143.756 66.12 143.663 66.3133 143.663 66.56C143.663 66.8 143.759 67 143.953 67.16C144.153 67.3133 144.409 67.39 144.723 67.39C145.036 67.39 145.319 67.32 145.573 67.18C145.833 67.0333 146.036 66.84 146.183 66.6C146.336 66.3533 146.413 66.08 146.413 65.78V64.97C146.413 64.57 146.289 64.2433 146.043 63.99C145.803 63.73 145.476 63.6 145.063 63.6C144.749 63.6 144.479 63.6767 144.253 63.83C144.026 63.9767 143.866 64.1933 143.773 64.48H143.663L143.003 64.24C143.163 63.7933 143.423 63.4533 143.783 63.22C144.143 62.9867 144.573 62.87 145.073 62.87C145.746 62.87 146.263 63.0733 146.623 63.48C146.983 63.88 147.163 64.45 147.163 65.19V68H146.433V66.55L146.693 66.74C146.613 67.0067 146.473 67.2467 146.273 67.46C146.073 67.6667 145.836 67.83 145.563 67.95C145.289 68.0633 144.993 68.12 144.673 68.12ZM150.573 68.12C150.133 68.12 149.733 68.0067 149.373 67.78C149.019 67.5533 148.736 67.2433 148.523 66.85C148.316 66.4567 148.213 66.0067 148.213 65.5C148.213 64.9933 148.316 64.5433 148.523 64.15C148.736 63.7567 149.019 63.4467 149.373 63.22C149.733 62.9933 150.133 62.88 150.573 62.88C150.913 62.88 151.226 62.95 151.513 63.09C151.799 63.2233 152.046 63.4133 152.253 63.66C152.459 63.9 152.613 64.1867 152.713 64.52V66.48C152.613 66.8067 152.459 67.0933 152.253 67.34C152.046 67.5867 151.799 67.78 151.513 67.92C151.226 68.0533 150.913 68.12 150.573 68.12ZM150.603 67.39C150.936 67.39 151.229 67.31 151.483 67.15C151.743 66.99 151.946 66.77 152.093 66.49C152.246 66.2033 152.323 65.8733 152.323 65.5C152.323 65.1267 152.246 64.8 152.093 64.52C151.946 64.2333 151.743 64.01 151.483 63.85C151.229 63.69 150.936 63.61 150.603 63.61C150.289 63.61 150.006 63.69 149.753 63.85C149.506 64.01 149.313 64.2333 149.173 64.52C149.033 64.8 148.963 65.1267 148.963 65.5C148.963 65.8733 149.033 66.2033 149.173 66.49C149.313 66.77 149.506 66.99 149.753 67.15C150.006 67.31 150.289 67.39 150.603 67.39ZM152.343 68V66.13L152.463 65.5L152.323 64.87V60.8L153.043 60.71L153.073 60.79V68H152.343ZM158.876 68.12C158.396 68.12 157.969 68.01 157.596 67.79C157.229 67.57 156.939 67.2633 156.726 66.87C156.519 66.4767 156.416 66.02 156.416 65.5C156.416 64.98 156.519 64.5233 156.726 64.13C156.939 63.7367 157.229 63.43 157.596 63.21C157.969 62.99 158.396 62.88 158.876 62.88C159.362 62.88 159.789 62.99 160.156 63.21C160.522 63.43 160.809 63.7367 161.016 64.13C161.229 64.5233 161.336 64.98 161.336 65.5C161.336 66.02 161.229 66.4767 161.016 66.87C160.809 67.2633 160.522 67.57 160.156 67.79C159.789 68.01 159.362 68.12 158.876 68.12ZM158.876 67.39C159.209 67.39 159.502 67.3133 159.756 67.16C160.016 67 160.219 66.78 160.366 66.5C160.512 66.2133 160.586 65.88 160.586 65.5C160.586 65.1133 160.512 64.78 160.366 64.5C160.219 64.22 160.016 64.0033 159.756 63.85C159.502 63.69 159.209 63.61 158.876 63.61C158.542 63.61 158.246 63.69 157.986 63.85C157.732 64.0033 157.532 64.22 157.386 64.5C157.239 64.78 157.166 65.1133 157.166 65.5C157.166 65.88 157.239 66.2133 157.386 66.5C157.532 66.78 157.732 67 157.986 67.16C158.246 67.3133 158.542 67.39 158.876 67.39ZM163.933 68V67.24L165.653 63H166.433V63.08L164.403 68H163.933ZM163.673 68L161.643 63.08V63H162.423L164.143 67.24V68H163.673ZM169.168 68.12C168.695 68.12 168.275 68.01 167.908 67.79C167.541 67.57 167.255 67.2633 167.048 66.87C166.841 66.4767 166.738 66.02 166.738 65.5C166.738 64.98 166.838 64.5233 167.038 64.13C167.245 63.7367 167.528 63.43 167.888 63.21C168.255 62.99 168.675 62.88 169.148 62.88C169.615 62.88 170.021 62.9933 170.368 63.22C170.721 63.44 170.998 63.7533 171.198 64.16C171.398 64.56 171.498 65.0267 171.498 65.56V65.65L171.348 65.79H167.178V65.06H171.058L170.728 65.2C170.701 64.8667 170.615 64.5833 170.468 64.35C170.321 64.11 170.135 63.9267 169.908 63.8C169.681 63.6733 169.428 63.61 169.148 63.61C168.841 63.61 168.561 63.6867 168.308 63.84C168.055 63.9867 167.855 64.1967 167.708 64.47C167.561 64.7433 167.488 65.06 167.488 65.42V65.55C167.488 65.91 167.558 66.23 167.698 66.51C167.845 66.7833 168.045 67 168.298 67.16C168.551 67.3133 168.841 67.39 169.168 67.39C169.495 67.39 169.775 67.3133 170.008 67.16C170.241 67.0067 170.425 66.7967 170.558 66.53H170.668L171.298 66.81C171.111 67.21 170.831 67.53 170.458 67.77C170.091 68.0033 169.661 68.12 169.168 68.12ZM172.595 68V63H173.325V64.45L173.105 64.26C173.218 63.8733 173.435 63.5667 173.755 63.34C174.081 63.1133 174.448 63 174.855 63H175.375V63.73H174.735C174.461 63.73 174.218 63.7967 174.005 63.93C173.798 64.0633 173.635 64.2467 173.515 64.48C173.401 64.7133 173.345 64.9867 173.345 65.3V68H172.595ZM179.903 68C179.49 68 179.15 67.8667 178.883 67.6C178.616 67.3333 178.483 66.9733 178.483 66.52V61.64H179.233V66.47C179.233 66.7633 179.293 66.97 179.413 67.09C179.54 67.21 179.746 67.27 180.033 67.27H180.653L180.703 67.38V68H179.903ZM177.623 63.73V63H180.703V63.73H177.623ZM183.817 68.12C183.337 68.12 182.91 68.01 182.537 67.79C182.17 67.57 181.88 67.2633 181.667 66.87C181.46 66.4767 181.357 66.02 181.357 65.5C181.357 64.98 181.46 64.5233 181.667 64.13C181.88 63.7367 182.17 63.43 182.537 63.21C182.91 62.99 183.337 62.88 183.817 62.88C184.304 62.88 184.73 62.99 185.097 63.21C185.464 63.43 185.75 63.7367 185.957 64.13C186.17 64.5233 186.277 64.98 186.277 65.5C186.277 66.02 186.17 66.4767 185.957 66.87C185.75 67.2633 185.464 67.57 185.097 67.79C184.73 68.01 184.304 68.12 183.817 68.12ZM183.817 67.39C184.15 67.39 184.444 67.3133 184.697 67.16C184.957 67 185.16 66.78 185.307 66.5C185.454 66.2133 185.527 65.88 185.527 65.5C185.527 65.1133 185.454 64.78 185.307 64.5C185.16 64.22 184.957 64.0033 184.697 63.85C184.444 63.69 184.15 63.61 183.817 63.61C183.484 63.61 183.187 63.69 182.927 63.85C182.674 64.0033 182.474 64.22 182.327 64.5C182.18 64.78 182.107 65.1133 182.107 65.5C182.107 65.88 182.18 66.2133 182.327 66.5C182.474 66.78 182.674 67 182.927 67.16C183.187 67.3133 183.484 67.39 183.817 67.39ZM191.737 68.12C191.257 68.12 190.83 68.01 190.457 67.79C190.09 67.57 189.8 67.2633 189.587 66.87C189.38 66.4767 189.277 66.02 189.277 65.5C189.277 64.98 189.38 64.5233 189.587 64.13C189.8 63.7367 190.09 63.43 190.457 63.21C190.83 62.99 191.257 62.88 191.737 62.88C192.224 62.88 192.65 62.99 193.017 63.21C193.384 63.43 193.67 63.7367 193.877 64.13C194.09 64.5233 194.197 64.98 194.197 65.5C194.197 66.02 194.09 66.4767 193.877 66.87C193.67 67.2633 193.384 67.57 193.017 67.79C192.65 68.01 192.224 68.12 191.737 68.12ZM191.737 67.39C192.07 67.39 192.364 67.3133 192.617 67.16C192.877 67 193.08 66.78 193.227 66.5C193.374 66.2133 193.447 65.88 193.447 65.5C193.447 65.1133 193.374 64.78 193.227 64.5C193.08 64.22 192.877 64.0033 192.617 63.85C192.364 63.69 192.07 63.61 191.737 63.61C191.404 63.61 191.107 63.69 190.847 63.85C190.594 64.0033 190.394 64.22 190.247 64.5C190.1 64.78 190.027 65.1133 190.027 65.5C190.027 65.88 190.1 66.2133 190.247 66.5C190.394 66.78 190.594 67 190.847 67.16C191.107 67.3133 191.404 67.39 191.737 67.39ZM199.61 63V68H198.88V66.55L199.1 66.74C199.013 67.02 198.87 67.2633 198.67 67.47C198.476 67.6767 198.243 67.8367 197.97 67.95C197.696 68.0633 197.406 68.12 197.1 68.12C196.74 68.12 196.42 68.0433 196.14 67.89C195.866 67.7367 195.65 67.51 195.49 67.21C195.33 66.91 195.25 66.5367 195.25 66.09V63H196V65.92C196 66.2933 196.056 66.5867 196.17 66.8C196.283 67.0133 196.436 67.1633 196.63 67.25C196.823 67.3367 197.036 67.38 197.27 67.38C197.55 67.38 197.81 67.3133 198.05 67.18C198.29 67.0467 198.483 66.8533 198.63 66.6C198.783 66.3467 198.86 66.0467 198.86 65.7V63H199.61ZM201.013 68V63H201.743V64.45L201.523 64.26C201.636 63.8733 201.853 63.5667 202.173 63.34C202.499 63.1133 202.866 63 203.273 63H203.793V63.73H203.153C202.879 63.73 202.636 63.7967 202.423 63.93C202.216 64.0633 202.053 64.2467 201.933 64.48C201.819 64.7133 201.763 64.9867 201.763 65.3V68H201.013ZM207.248 68L205.638 63.08V63H206.388L207.728 67.2L207.948 68H207.248ZM207.248 68L207.528 67.2L208.958 63H209.638V63.08L207.948 68H207.248ZM210.648 68L208.958 63.08V63H209.638L211.068 67.2L211.348 68H210.648ZM210.648 68L210.868 67.2L212.198 63H212.958V63.08L211.348 68H210.648ZM213.805 68V63H214.555V68H213.805ZM214.185 62.02C214.032 62.02 213.902 61.9667 213.795 61.86C213.689 61.7533 213.635 61.6233 213.635 61.47C213.635 61.3167 213.689 61.1867 213.795 61.08C213.902 60.9733 214.032 60.92 214.185 60.92C214.339 60.92 214.469 60.9733 214.575 61.08C214.682 61.1867 214.735 61.3167 214.735 61.47C214.735 61.6233 214.682 61.7533 214.575 61.86C214.469 61.9667 214.339 62.02 214.185 62.02ZM216.402 66.97V65.98L219.482 63H220.372V63.08L216.402 66.97ZM216.102 68V60.8L216.822 60.71L216.852 60.79V68H216.102ZM219.542 68L217.692 65.39L218.182 64.89L220.372 67.92V68H219.542ZM221.071 68V63H221.821V68H221.071ZM221.451 62.02C221.298 62.02 221.168 61.9667 221.061 61.86C220.954 61.7533 220.901 61.6233 220.901 61.47C220.901 61.3167 220.954 61.1867 221.061 61.08C221.168 60.9733 221.298 60.92 221.451 60.92C221.604 60.92 221.734 60.9733 221.841 61.08C221.948 61.1867 222.001 61.3167 222.001 61.47C222.001 61.6233 221.948 61.7533 221.841 61.86C221.734 61.9667 221.604 62.02 221.451 62.02ZM132.53 82C132.117 82 131.777 81.8667 131.51 81.6C131.243 81.3333 131.11 80.9733 131.11 80.52V75.64H131.86V80.47C131.86 80.7633 131.92 80.97 132.04 81.09C132.167 81.21 132.373 81.27 132.66 81.27H133.28L133.33 81.38V82H132.53ZM130.25 77.73V77H133.33V77.73H130.25ZM136.444 82.12C135.964 82.12 135.537 82.01 135.164 81.79C134.797 81.57 134.507 81.2633 134.294 80.87C134.087 80.4767 133.984 80.02 133.984 79.5C133.984 78.98 134.087 78.5233 134.294 78.13C134.507 77.7367 134.797 77.43 135.164 77.21C135.537 76.99 135.964 76.88 136.444 76.88C136.931 76.88 137.357 76.99 137.724 77.21C138.091 77.43 138.377 77.7367 138.584 78.13C138.797 78.5233 138.904 78.98 138.904 79.5C138.904 80.02 138.797 80.4767 138.584 80.87C138.377 81.2633 138.091 81.57 137.724 81.79C137.357 82.01 136.931 82.12 136.444 82.12ZM136.444 81.39C136.777 81.39 137.071 81.3133 137.324 81.16C137.584 81 137.787 80.78 137.934 80.5C138.081 80.2133 138.154 79.88 138.154 79.5C138.154 79.1133 138.081 78.78 137.934 78.5C137.787 78.22 137.584 78.0033 137.324 77.85C137.071 77.69 136.777 77.61 136.444 77.61C136.111 77.61 135.814 77.69 135.554 77.85C135.301 78.0033 135.101 78.22 134.954 78.5C134.807 78.78 134.734 79.1133 134.734 79.5C134.734 79.88 134.807 80.2133 134.954 80.5C135.101 80.78 135.301 81 135.554 81.16C135.814 81.3133 136.111 81.39 136.444 81.39ZM142.614 82V76.28C142.614 75.8267 142.747 75.4667 143.014 75.2C143.281 74.9333 143.621 74.8 144.034 74.8H144.584V75.42L144.534 75.53H144.164C143.877 75.53 143.671 75.59 143.544 75.71C143.424 75.83 143.364 76.0367 143.364 76.33V82H142.614ZM141.754 77.73V77H144.584V77.73H141.754ZM145.485 82V77H146.235V82H145.485ZM145.865 76.02C145.712 76.02 145.582 75.9667 145.475 75.86C145.368 75.7533 145.315 75.6233 145.315 75.47C145.315 75.3167 145.368 75.1867 145.475 75.08C145.582 74.9733 145.712 74.92 145.865 74.92C146.018 74.92 146.148 74.9733 146.255 75.08C146.362 75.1867 146.415 75.3167 146.415 75.47C146.415 75.6233 146.362 75.7533 146.255 75.86C146.148 75.9667 146.018 76.02 145.865 76.02ZM147.634 82V77H148.364V78.45L148.144 78.26C148.23 77.98 148.374 77.7367 148.574 77.53C148.774 77.3233 149.007 77.1633 149.274 77.05C149.547 76.9367 149.837 76.88 150.144 76.88C150.504 76.88 150.824 76.9567 151.104 77.11C151.384 77.2633 151.6 77.49 151.754 77.79C151.914 78.09 151.994 78.4633 151.994 78.91V82H151.244V79.08C151.244 78.7 151.187 78.4067 151.074 78.2C150.96 77.9867 150.807 77.8367 150.614 77.75C150.427 77.6633 150.214 77.62 149.974 77.62C149.7 77.62 149.44 77.6867 149.194 77.82C148.954 77.9533 148.757 78.1467 148.604 78.4C148.457 78.6467 148.384 78.9467 148.384 79.3V82H147.634ZM155.406 82.12C154.966 82.12 154.566 82.0067 154.206 81.78C153.853 81.5533 153.57 81.2433 153.356 80.85C153.15 80.4567 153.046 80.0067 153.046 79.5C153.046 78.9933 153.15 78.5433 153.356 78.15C153.57 77.7567 153.853 77.4467 154.206 77.22C154.566 76.9933 154.966 76.88 155.406 76.88C155.746 76.88 156.06 76.95 156.346 77.09C156.633 77.2233 156.88 77.4133 157.086 77.66C157.293 77.9 157.446 78.1867 157.546 78.52V80.48C157.446 80.8067 157.293 81.0933 157.086 81.34C156.88 81.5867 156.633 81.78 156.346 81.92C156.06 82.0533 155.746 82.12 155.406 82.12ZM155.436 81.39C155.77 81.39 156.063 81.31 156.316 81.15C156.576 80.99 156.78 80.77 156.926 80.49C157.08 80.2033 157.156 79.8733 157.156 79.5C157.156 79.1267 157.08 78.8 156.926 78.52C156.78 78.2333 156.576 78.01 156.316 77.85C156.063 77.69 155.77 77.61 155.436 77.61C155.123 77.61 154.84 77.69 154.586 77.85C154.34 78.01 154.146 78.2333 154.006 78.52C153.866 78.8 153.796 79.1267 153.796 79.5C153.796 79.8733 153.866 80.2033 154.006 80.49C154.146 80.77 154.34 80.99 154.586 81.15C154.84 81.31 155.123 81.39 155.436 81.39ZM157.176 82V80.13L157.296 79.5L157.156 78.87V74.8L157.876 74.71L157.906 74.79V82H157.176ZM161.55 82V77H162.28V78.45L162.06 78.26C162.146 77.98 162.29 77.7367 162.49 77.53C162.69 77.3233 162.923 77.1633 163.19 77.05C163.456 76.9367 163.73 76.88 164.01 76.88C164.45 76.88 164.826 77.0067 165.14 77.26C165.46 77.5067 165.666 77.8667 165.76 78.34H165.42C165.5 78.0467 165.64 77.7933 165.84 77.58C166.04 77.36 166.283 77.19 166.57 77.07C166.863 76.9433 167.18 76.88 167.52 76.88C167.866 76.88 168.173 76.9567 168.44 77.11C168.713 77.2633 168.926 77.49 169.08 77.79C169.24 78.09 169.32 78.4633 169.32 78.91V82H168.57V79.08C168.57 78.7 168.513 78.4067 168.4 78.2C168.286 77.9867 168.136 77.8367 167.95 77.75C167.77 77.6633 167.57 77.62 167.35 77.62C167.11 77.62 166.87 77.6833 166.63 77.81C166.396 77.9367 166.2 78.1267 166.04 78.38C165.886 78.6267 165.81 78.9333 165.81 79.3V82H165.06V79.08C165.06 78.7 165.003 78.4067 164.89 78.2C164.776 77.9867 164.626 77.8367 164.44 77.75C164.26 77.6633 164.06 77.62 163.84 77.62C163.6 77.62 163.36 77.6867 163.12 77.82C162.886 77.9467 162.69 78.1367 162.53 78.39C162.376 78.6367 162.3 78.94 162.3 79.3V82H161.55ZM172.831 82.12C172.351 82.12 171.924 82.01 171.551 81.79C171.184 81.57 170.894 81.2633 170.681 80.87C170.474 80.4767 170.371 80.02 170.371 79.5C170.371 78.98 170.474 78.5233 170.681 78.13C170.894 77.7367 171.184 77.43 171.551 77.21C171.924 76.99 172.351 76.88 172.831 76.88C173.317 76.88 173.744 76.99 174.111 77.21C174.477 77.43 174.764 77.7367 174.971 78.13C175.184 78.5233 175.291 78.98 175.291 79.5C175.291 80.02 175.184 80.4767 174.971 80.87C174.764 81.2633 174.477 81.57 174.111 81.79C173.744 82.01 173.317 82.12 172.831 82.12ZM172.831 81.39C173.164 81.39 173.457 81.3133 173.711 81.16C173.971 81 174.174 80.78 174.321 80.5C174.467 80.2133 174.541 79.88 174.541 79.5C174.541 79.1133 174.467 78.78 174.321 78.5C174.174 78.22 173.971 78.0033 173.711 77.85C173.457 77.69 173.164 77.61 172.831 77.61C172.497 77.61 172.201 77.69 171.941 77.85C171.687 78.0033 171.487 78.22 171.341 78.5C171.194 78.78 171.121 79.1133 171.121 79.5C171.121 79.88 171.194 80.2133 171.341 80.5C171.487 80.78 171.687 81 171.941 81.16C172.201 81.3133 172.497 81.39 172.831 81.39ZM176.393 82V77H177.123V78.45L176.903 78.26C177.017 77.8733 177.233 77.5667 177.553 77.34C177.88 77.1133 178.247 77 178.653 77H179.173V77.73H178.533C178.26 77.73 178.017 77.7967 177.803 77.93C177.597 78.0633 177.433 78.2467 177.313 78.48C177.2 78.7133 177.143 78.9867 177.143 79.3V82H176.393ZM181.912 82.12C181.439 82.12 181.019 82.01 180.652 81.79C180.285 81.57 179.999 81.2633 179.792 80.87C179.585 80.4767 179.482 80.02 179.482 79.5C179.482 78.98 179.582 78.5233 179.782 78.13C179.989 77.7367 180.272 77.43 180.632 77.21C180.999 76.99 181.419 76.88 181.892 76.88C182.359 76.88 182.765 76.9933 183.112 77.22C183.465 77.44 183.742 77.7533 183.942 78.16C184.142 78.56 184.242 79.0267 184.242 79.56V79.65L184.092 79.79H179.922V79.06H183.802L183.472 79.2C183.445 78.8667 183.359 78.5833 183.212 78.35C183.065 78.11 182.879 77.9267 182.652 77.8C182.425 77.6733 182.172 77.61 181.892 77.61C181.585 77.61 181.305 77.6867 181.052 77.84C180.799 77.9867 180.599 78.1967 180.452 78.47C180.305 78.7433 180.232 79.06 180.232 79.42V79.55C180.232 79.91 180.302 80.23 180.442 80.51C180.589 80.7833 180.789 81 181.042 81.16C181.295 81.3133 181.585 81.39 181.912 81.39C182.239 81.39 182.519 81.3133 182.752 81.16C182.985 81.0067 183.169 80.7967 183.302 80.53H183.412L184.042 80.81C183.855 81.21 183.575 81.53 183.202 81.77C182.835 82.0033 182.405 82.12 181.912 82.12ZM187.536 82V77H188.286V82H187.536ZM187.916 76.02C187.763 76.02 187.633 75.9667 187.526 75.86C187.419 75.7533 187.366 75.6233 187.366 75.47C187.366 75.3167 187.419 75.1867 187.526 75.08C187.633 74.9733 187.763 74.92 187.916 74.92C188.069 74.92 188.199 74.9733 188.306 75.08C188.413 75.1867 188.466 75.3167 188.466 75.47C188.466 75.6233 188.413 75.7533 188.306 75.86C188.199 75.9667 188.069 76.02 187.916 76.02ZM189.684 82V77H190.414V78.45L190.194 78.26C190.281 77.98 190.424 77.7367 190.624 77.53C190.824 77.3233 191.058 77.1633 191.324 77.05C191.598 76.9367 191.888 76.88 192.194 76.88C192.554 76.88 192.874 76.9567 193.154 77.11C193.434 77.2633 193.651 77.49 193.804 77.79C193.964 78.09 194.044 78.4633 194.044 78.91V82H193.294V79.08C193.294 78.7 193.238 78.4067 193.124 78.2C193.011 77.9867 192.858 77.8367 192.664 77.75C192.478 77.6633 192.264 77.62 192.024 77.62C191.751 77.62 191.491 77.6867 191.244 77.82C191.004 77.9533 190.808 78.1467 190.654 78.4C190.508 78.6467 190.434 78.9467 190.434 79.3V82H189.684ZM195.807 82V76.28C195.807 75.8267 195.941 75.4667 196.207 75.2C196.474 74.9333 196.814 74.8 197.227 74.8H197.777V75.42L197.727 75.53H197.357C197.071 75.53 196.864 75.59 196.737 75.71C196.617 75.83 196.557 76.0367 196.557 76.33V82H195.807ZM194.947 77.73V77H197.777V77.73H194.947ZM200.614 82.12C200.134 82.12 199.707 82.01 199.334 81.79C198.967 81.57 198.677 81.2633 198.464 80.87C198.257 80.4767 198.154 80.02 198.154 79.5C198.154 78.98 198.257 78.5233 198.464 78.13C198.677 77.7367 198.967 77.43 199.334 77.21C199.707 76.99 200.134 76.88 200.614 76.88C201.101 76.88 201.527 76.99 201.894 77.21C202.261 77.43 202.547 77.7367 202.754 78.13C202.967 78.5233 203.074 78.98 203.074 79.5C203.074 80.02 202.967 80.4767 202.754 80.87C202.547 81.2633 202.261 81.57 201.894 81.79C201.527 82.01 201.101 82.12 200.614 82.12ZM200.614 81.39C200.947 81.39 201.241 81.3133 201.494 81.16C201.754 81 201.957 80.78 202.104 80.5C202.251 80.2133 202.324 79.88 202.324 79.5C202.324 79.1133 202.251 78.78 202.104 78.5C201.957 78.22 201.754 78.0033 201.494 77.85C201.241 77.69 200.947 77.61 200.614 77.61C200.281 77.61 199.984 77.69 199.724 77.85C199.471 78.0033 199.271 78.22 199.124 78.5C198.977 78.78 198.904 79.1133 198.904 79.5C198.904 79.88 198.977 80.2133 199.124 80.5C199.271 80.78 199.471 81 199.724 81.16C199.984 81.3133 200.281 81.39 200.614 81.39ZM204.177 82V77H204.907V78.45L204.687 78.26C204.8 77.8733 205.017 77.5667 205.337 77.34C205.663 77.1133 206.03 77 206.437 77H206.957V77.73H206.317C206.043 77.73 205.8 77.7967 205.587 77.93C205.38 78.0633 205.217 78.2467 205.097 78.48C204.983 78.7133 204.927 78.9867 204.927 79.3V82H204.177ZM207.761 82V77H208.491V78.45L208.271 78.26C208.357 77.98 208.501 77.7367 208.701 77.53C208.901 77.3233 209.134 77.1633 209.401 77.05C209.667 76.9367 209.941 76.88 210.221 76.88C210.661 76.88 211.037 77.0067 211.351 77.26C211.671 77.5067 211.877 77.8667 211.971 78.34H211.631C211.711 78.0467 211.851 77.7933 212.051 77.58C212.251 77.36 212.494 77.19 212.781 77.07C213.074 76.9433 213.391 76.88 213.731 76.88C214.077 76.88 214.384 76.9567 214.651 77.11C214.924 77.2633 215.137 77.49 215.291 77.79C215.451 78.09 215.531 78.4633 215.531 78.91V82H214.781V79.08C214.781 78.7 214.724 78.4067 214.611 78.2C214.497 77.9867 214.347 77.8367 214.161 77.75C213.981 77.6633 213.781 77.62 213.561 77.62C213.321 77.62 213.081 77.6833 212.841 77.81C212.607 77.9367 212.411 78.1267 212.251 78.38C212.097 78.6267 212.021 78.9333 212.021 79.3V82H211.271V79.08C211.271 78.7 211.214 78.4067 211.101 78.2C210.987 77.9867 210.837 77.8367 210.651 77.75C210.471 77.6633 210.271 77.62 210.051 77.62C209.811 77.62 209.571 77.6867 209.331 77.82C209.097 77.9467 208.901 78.1367 208.741 78.39C208.587 78.6367 208.511 78.94 208.511 79.3V82H207.761ZM218.462 82.12C218.122 82.12 217.815 82.0533 217.542 81.92C217.275 81.7867 217.065 81.6033 216.912 81.37C216.758 81.1367 216.682 80.8667 216.682 80.56C216.682 80.1267 216.835 79.7767 217.142 79.51C217.455 79.2367 217.885 79.08 218.432 79.04L220.352 78.9V79.6L218.602 79.73C218.215 79.7567 217.925 79.84 217.732 79.98C217.545 80.12 217.452 80.3133 217.452 80.56C217.452 80.8 217.548 81 217.742 81.16C217.942 81.3133 218.198 81.39 218.512 81.39C218.825 81.39 219.108 81.32 219.362 81.18C219.622 81.0333 219.825 80.84 219.972 80.6C220.125 80.3533 220.202 80.08 220.202 79.78V78.97C220.202 78.57 220.078 78.2433 219.832 77.99C219.592 77.73 219.265 77.6 218.852 77.6C218.538 77.6 218.268 77.6767 218.042 77.83C217.815 77.9767 217.655 78.1933 217.562 78.48H217.452L216.792 78.24C216.952 77.7933 217.212 77.4533 217.572 77.22C217.932 76.9867 218.362 76.87 218.862 76.87C219.535 76.87 220.052 77.0733 220.412 77.48C220.772 77.88 220.952 78.45 220.952 79.19V82H220.222V80.55L220.482 80.74C220.402 81.0067 220.262 81.2467 220.062 81.46C219.862 81.6667 219.625 81.83 219.352 81.95C219.078 82.0633 218.782 82.12 218.462 82.12ZM223.78 82C223.367 82 223.027 81.8667 222.76 81.6C222.493 81.3333 222.36 80.9733 222.36 80.52V75.64H223.11V80.47C223.11 80.7633 223.17 80.97 223.29 81.09C223.417 81.21 223.623 81.27 223.91 81.27H224.53L224.58 81.38V82H223.78ZM221.5 77.73V77H224.58V77.73H221.5ZM225.729 82V77H226.479V82H225.729ZM226.109 76.02C225.956 76.02 225.826 75.9667 225.719 75.86C225.613 75.7533 225.559 75.6233 225.559 75.47C225.559 75.3167 225.613 75.1867 225.719 75.08C225.826 74.9733 225.956 74.92 226.109 74.92C226.263 74.92 226.393 74.9733 226.499 75.08C226.606 75.1867 226.659 75.3167 226.659 75.47C226.659 75.6233 226.606 75.7533 226.499 75.86C226.393 75.9667 226.263 76.02 226.109 76.02ZM230.038 82.12C229.558 82.12 229.131 82.01 228.758 81.79C228.391 81.57 228.101 81.2633 227.888 80.87C227.681 80.4767 227.578 80.02 227.578 79.5C227.578 78.98 227.681 78.5233 227.888 78.13C228.101 77.7367 228.391 77.43 228.758 77.21C229.131 76.99 229.558 76.88 230.038 76.88C230.524 76.88 230.951 76.99 231.318 77.21C231.684 77.43 231.971 77.7367 232.178 78.13C232.391 78.5233 232.498 78.98 232.498 79.5C232.498 80.02 232.391 80.4767 232.178 80.87C231.971 81.2633 231.684 81.57 231.318 81.79C230.951 82.01 230.524 82.12 230.038 82.12ZM230.038 81.39C230.371 81.39 230.664 81.3133 230.918 81.16C231.178 81 231.381 80.78 231.528 80.5C231.674 80.2133 231.748 79.88 231.748 79.5C231.748 79.1133 231.674 78.78 231.528 78.5C231.381 78.22 231.178 78.0033 230.918 77.85C230.664 77.69 230.371 77.61 230.038 77.61C229.704 77.61 229.408 77.69 229.148 77.85C228.894 78.0033 228.694 78.22 228.548 78.5C228.401 78.78 228.328 79.1133 228.328 79.5C228.328 79.88 228.401 80.2133 228.548 80.5C228.694 80.78 228.894 81 229.148 81.16C229.408 81.3133 229.704 81.39 230.038 81.39ZM233.6 82V77H234.33V78.45L234.11 78.26C234.197 77.98 234.34 77.7367 234.54 77.53C234.74 77.3233 234.974 77.1633 235.24 77.05C235.514 76.9367 235.804 76.88 236.11 76.88C236.47 76.88 236.79 76.9567 237.07 77.11C237.35 77.2633 237.567 77.49 237.72 77.79C237.88 78.09 237.96 78.4633 237.96 78.91V82H237.21V79.08C237.21 78.7 237.154 78.4067 237.04 78.2C236.927 77.9867 236.774 77.8367 236.58 77.75C236.394 77.6633 236.18 77.62 235.94 77.62C235.667 77.62 235.407 77.6867 235.16 77.82C234.92 77.9533 234.724 78.1467 234.57 78.4C234.424 78.6467 234.35 78.9467 234.35 79.3V82H233.6Z" fill="#2F363D"/>
<path fill-rule="evenodd" clip-rule="evenodd" d="M30.25 8H27.5L27.325 8.07501L27 8.39502L26.675 8.07501L26.5 8H23.75L23.5 8.25V13.25L23.75 13.5H26.395L26.825 13.925H27.175L27.605 13.5H30.25L30.5 13.25V8.25L30.25 8ZM26.75 13.16L26.66 13.075L26.5 13H24V8.5H26.395L26.765 8.87L26.75 13.16ZM30 13H27.5L27.325 13.075L27.255 13.14V8.84998L27.605 8.5H30V13ZM26 9.5H24.5V10H26V9.5ZM26 11.5H24.5V12H26V11.5ZM24.5 10.5H26V11H24.5V10.5ZM29.5 9.5H28V10H29.5V9.5ZM28 10.5H29.5V11H28V10.5ZM28 11.5H29.5V12H28V11.5Z" fill="#2F363D"/>
<a xlink:href="command:manim-notebook-walkthrough.openWiki">
    <rect x="69" y="47" width="49" height="49" fill="#FFEAEA" fill-opacity="0"/>
</a>
</g>
<defs>
<clipPath id="clip0_29_34">
<rect width="307" height="130" fill="white"/>
</clipPath>
</defs>
</svg>
